<svg width="20" height="21" viewBox="0 0 20 21" fill="none" xmlns="http://www.w3.org/2000/svg">
<path fill-rule="evenodd" clip-rule="evenodd" d="M10 0.5C4.47715 0.5 0 4.97715 0 10.5C0 16.0229 4.47715 20.5 10 20.5C15.5229 20.5 20 16.0229 20 10.5C20 4.97715 15.5229 0.5 10 0.5ZM5.84227 10.4718C5.56981 10.1993 5.12807 10.1993 4.85561 10.4718C4.58315 10.7443 4.58315 11.186 4.85561 11.4584L7.64631 14.2491C7.91877 14.5216 8.36056 14.5216 8.63293 14.2491L15.1446 7.73752C15.417 7.46506 15.417 7.02331 15.1446 6.75086C14.8721 6.4784 14.4304 6.4784 14.158 6.75086L8.13963 12.7691L5.84227 10.4718Z" fill="#86EFAC"/>
</svg>
