<svg width="32" height="32" viewBox="0 0 32 32" fill="none" xmlns="http://www.w3.org/2000/svg">
<g clip-path="url(#clip0_401_103)">
<path d="M14.8088 14.8193L0.43375 8.76671C0.227812 8.67996 0 8.83121 0 9.05471L0 25.2359C0 25.6448 0.248937 26.0125 0.628625 26.1643L14.5714 31.7415C14.7767 31.8236 15 31.6724 15 31.4513L15 15.1073C15 14.9816 14.9246 14.8681 14.8088 14.8193Z" fill="#E40000"/>
<path d="M16.1212 13.0998L30.0159 7.24938C30.2657 7.14426 30.2724 6.79276 30.0268 6.6782L16.4229 0.329698C16.1548 0.204635 15.8452 0.204635 15.5771 0.329698L1.97318 6.6782C1.72762 6.79276 1.7343 7.14426 1.98405 7.24938L15.8787 13.0998C15.9562 13.1324 16.0437 13.1324 16.1212 13.0998Z" fill="#E40000"/>
<path d="M17 15.1073L17 31.4513C17 31.6724 17.2233 31.8236 17.4286 31.7415L31.3714 26.1643C31.751 26.0125 32 25.6448 32 25.2359V9.05471C32 8.83121 31.7722 8.67996 31.5662 8.76671L17.1912 14.8193C17.0754 14.8681 17 14.9816 17 15.1073Z" fill="#E40000"/>
</g>
<defs>
<clipPath id="clip0_401_103">
<rect width="32" height="32" fill="white"/>
</clipPath>
</defs>
</svg>
