<svg width="32" height="32" viewBox="0 0 32 32" fill="none" xmlns="http://www.w3.org/2000/svg">
<g clip-path="url(#clip0_516_5034)">
<path d="M14.8088 14.8192L0.43375 8.76653C0.227812 8.67978 0 8.83103 0 9.05453L0 25.2357C0 25.6446 0.248937 26.0123 0.628625 26.1642L14.5714 31.7413C14.7767 31.8234 15 31.6722 15 31.4512L15 15.1072C15 14.9814 14.9246 14.868 14.8088 14.8192Z" fill="#87C2A2"/>
<path d="M16.1213 13.0997L30.016 7.24932C30.2657 7.1442 30.2724 6.7927 30.0268 6.67814L16.4229 0.329637C16.1548 0.204574 15.8452 0.204574 15.5771 0.329637L1.97321 6.67814C1.72765 6.7927 1.73433 7.1442 1.98408 7.24932L15.8788 13.0997C15.9563 13.1324 16.0438 13.1324 16.1213 13.0997Z" fill="#87C2A2"/>
<path d="M17 15.1072L17 31.4512C17 31.6722 17.2233 31.8234 17.4286 31.7413L31.3714 26.1642C31.751 26.0123 32 25.6446 32 25.2357V9.05453C32 8.83103 31.7722 8.67978 31.5662 8.76653L17.1912 14.8192C17.0754 14.868 17 14.9814 17 15.1072Z" fill="#87C2A2"/>
</g>
<defs>
<clipPath id="clip0_516_5034">
<rect width="32" height="32" fill="white"/>
</clipPath>
</defs>
</svg>
