<svg width="48" height="48" viewBox="0 0 48 48" fill="none" xmlns="http://www.w3.org/2000/svg">
<path fill-rule="evenodd" clip-rule="evenodd" d="M44 24C44 35.0456 35.0456 44 24 44C12.9543 44 4 35.0456 4 24C4 12.9543 12.9543 4 24 4C35.0456 4 44 12.9543 44 24ZM48 24C48 37.2549 37.2549 48 24 48C10.7452 48 0 37.2549 0 24C0 10.7452 10.7452 0 24 0C37.2549 0 48 10.7452 48 24ZM17 20C18.6569 20 20 18.6569 20 17C20 15.3431 18.6569 14 17 14C15.3431 14 14 15.3431 14 17C14 18.6569 15.3431 20 17 20ZM34 17C34 18.6569 32.6568 20 31 20C29.3432 20 28 18.6569 28 17C28 15.3431 29.3432 14 31 14C32.6568 14 34 15.3431 34 17ZM24 32C19.1421 32 16 28.9203 16 26H12C12 31.9163 17.8121 36 24 36C30.188 36 36 31.9163 36 26H32C32 28.9203 28.8579 32 24 32Z" fill="black"/>
</svg>
