<svg width="77" height="43" viewBox="0 0 77 43" fill="none" xmlns="http://www.w3.org/2000/svg">
<path d="M2.73069 17.5328H6.73109V20.2624H0V0.76416H2.73069V17.5328Z" fill="#262626"/>
<path d="M8.29187 0.76416H15.6855V3.49381H11.0226V7.14072H14.3188V9.47963H11.0226V17.5328H15.6855V20.2624H8.29187V0.76416Z" fill="#262626"/>
<path d="M25.6934 0.744873H28.6209L22.5524 20.6339L16.4645 0.744873H19.392L22.5524 12.1152L25.6934 0.744873Z" fill="#262626"/>
<path d="M38.238 20.2653H35.3105L34.3735 16.9121H29.9267L29.0091 20.2653H26.0844L32.0143 0.373535H32.1501L38.238 20.2653ZM33.7303 14.5511L32.1501 8.89502L30.5893 14.5511H33.7303Z" fill="#262626"/>
<path d="M45.2407 9.53783L47.855 20.2624H45.1825L42.9785 10.4135C42.8039 10.4329 42.6265 10.4329 42.4324 10.4329H42.1385V20.2624H39.4078V0.76416H42.4324C45.1049 0.76416 47.27 2.92848 47.27 5.59993C47.27 7.19892 46.527 8.60393 45.2407 9.53783ZM44.5393 5.59993C44.5393 4.44988 43.6023 3.49381 42.4324 3.49381H42.1385V7.70605H42.4324C43.6023 7.70605 44.5393 6.76938 44.5393 5.59993Z" fill="#262626"/>
<path d="M49.2218 0.76416H56.6155V3.49381H51.9525V7.14072H55.2487V9.47963H51.9525V17.5328H56.6155V20.2624H49.2218V0.76416Z" fill="#262626"/>
<path d="M19.5861 37.4192C19.5861 40.207 18.1029 42.6263 15.0007 42.6263C12.4447 42.6263 10.9227 40.462 10.9227 38.0039V37.9651H13.6534V38.0039C13.6534 39.4089 14.3354 39.8966 15.0007 39.8966C16.4839 39.8966 16.8526 38.7272 16.8526 37.4192C16.8526 35.5458 15.4859 34.0466 14.0443 32.4476C12.5417 30.7904 10.9227 28.9753 10.9227 26.5976C10.9227 24.2005 12.6 22.3271 15.059 22.3271C17.6926 22.3271 19.1952 24.7658 19.1952 27.2211H16.4645C16.4645 25.9741 15.8602 25.0568 15.059 25.0568C14.5905 25.0568 14.2578 25.1926 14.0055 25.4863C13.792 25.7801 13.6534 26.1874 13.6534 26.5976C13.6534 27.9444 14.7651 29.1914 16.0736 30.6159C17.8506 32.6028 19.5861 34.5731 19.5861 37.4192Z" fill="#262626"/>
<path d="M19.783 22.7151H28.5628V25.4447H25.5383V42.2161H22.8076V25.4447H19.783V22.7151Z" fill="#262626"/>
<path d="M36.2281 22.7151H38.9588V37.7101C38.9588 40.207 36.9101 42.2161 34.4317 42.2161C31.9533 42.2161 29.924 40.1876 29.924 37.7101V22.7151H32.6546V37.7101C32.6546 38.6856 33.4531 39.4837 34.4289 39.4837C35.4241 39.4837 36.2226 38.6856 36.2226 37.7101V22.7151H36.2281Z" fill="#262626"/>
<path d="M51.2289 32.467C51.2289 37.6547 47.855 42.2383 42.2744 42.2383H40.9077V22.7151H42.2744C47.8356 22.7151 51.2289 27.2793 51.2289 32.467ZM48.4982 32.467C48.4982 28.8783 46.5659 26.2262 43.6412 25.5833V39.3701C46.5659 38.7244 48.4982 36.0723 48.4982 32.467Z" fill="#262626"/>
<path d="M52.5958 22.7151H55.3265V42.2161H52.5958V22.7151Z" fill="#262626"/>
<path d="M77 32.467C77 38.0455 72.4923 42.6263 66.8368 42.6263C61.259 42.6263 56.6931 38.1231 56.6931 32.467C56.6931 26.908 61.2008 22.3271 66.8368 22.3271C72.4729 22.3271 77 26.908 77 32.467ZM74.2693 32.467C74.2693 28.3906 70.9342 25.0568 66.8368 25.0568C62.7394 25.0568 59.4237 28.3906 59.4237 32.467C59.4237 36.5629 62.7394 39.8966 66.8368 39.8966C70.9342 39.8966 74.2693 36.5601 74.2693 32.467Z" fill="#262626"/>
<path fill-rule="evenodd" clip-rule="evenodd" d="M68.6055 4.05927C68.6055 3.7489 68.3532 3.49672 68.0427 3.49672L65.5699 3.50503V3.51057C65.2538 3.51057 65.0071 3.76275 65.0071 4.07313L65.0487 13.6033L66.5152 13.595L66.4819 4.96823C66.4819 4.96269 66.4875 4.96269 66.4819 4.95992C66.4875 4.8269 66.5956 4.71605 66.7342 4.71605H66.8867C67.0308 4.71605 67.139 4.8269 67.139 4.96546L67.1778 13.5978L68.6443 13.5895L68.6055 4.05927ZM65.0431 14.1576C65.0681 19.8469 65.2067 24.0176 65.9607 28.5208C66.2574 28.4432 66.5706 28.4072 66.8922 28.4072C67.2027 28.4072 67.5021 28.446 67.7904 28.5125C68.4697 24.0508 68.6166 19.8663 68.6443 14.1493L65.0431 14.1576ZM67.699 1.0719C67.6934 0.880688 67.5354 0.733814 67.3497 0.728271L66.2407 0.733814C66.0495 0.733814 65.897 0.891773 65.897 1.08299L65.9053 2.84825H67.699V1.0719Z" fill="#262626"/>
<path fill-rule="evenodd" clip-rule="evenodd" d="M67.1778 32.068L67.1722 32.0735L67.1112 32.5751C67.1029 32.6416 67.053 32.6943 66.9865 32.7026H66.8673C66.8007 32.697 66.7481 32.6416 66.7425 32.5779L66.6704 32.0707C66.6649 32.0098 66.7176 31.9516 66.7841 31.946H67.0502C67.1223 31.9488 67.1778 32.0015 67.1778 32.068Z" fill="#FF002E"/>
<path fill-rule="evenodd" clip-rule="evenodd" d="M67.7905 28.5125C67.6325 29.5517 67.4467 30.613 67.2222 31.7049L66.579 31.6993C66.335 30.6075 66.1299 29.5572 65.9635 28.5208C64.3029 28.9364 63.0748 30.4357 63.0748 32.2231C63.0748 34.332 64.7826 36.0418 66.895 36.0418C69.0047 36.0418 70.7152 34.332 70.7152 32.2231C70.7125 30.4274 69.4649 28.917 67.7905 28.5125ZM67.175 32.0735L67.114 32.5751C67.1057 32.6416 67.0558 32.6942 66.9893 32.7025H66.8701C66.8035 32.697 66.7509 32.6416 66.7453 32.5778L66.6732 32.0707C66.6677 32.0097 66.7204 31.9515 66.7869 31.946H67.053C67.1196 31.946 67.1778 31.9986 67.1778 32.0651L67.175 32.0735Z" fill="#FF002E"/>
</svg>
