<svg width="48" height="48" viewBox="0 0 48 48" fill="none" xmlns="http://www.w3.org/2000/svg">
<g clip-path="url(#clip0_38_3412)">
<path d="M37.5 0H10.5C7.71523 0 5.04451 1.10625 3.07538 3.07538C1.10625 5.04451 0 7.71523 0 10.5L0 37.5C0 40.2848 1.10625 42.9555 3.07538 44.9246C5.04451 46.8938 7.71523 48 10.5 48H37.5C40.2848 48 42.9555 46.8938 44.9246 44.9246C46.8938 42.9555 48 40.2848 48 37.5V10.5C48 7.71523 46.8938 5.04451 44.9246 3.07538C42.9555 1.10625 40.2848 0 37.5 0ZM45 37.5C45 39.4891 44.2098 41.3968 42.8033 42.8033C41.3968 44.2098 39.4891 45 37.5 45H10.5C8.51088 45 6.60322 44.2098 5.1967 42.8033C3.79018 41.3968 3 39.4891 3 37.5V10.5C3 8.51088 3.79018 6.60322 5.1967 5.1967C6.60322 3.79018 8.51088 3 10.5 3H37.5C39.4891 3 41.3968 3.79018 42.8033 5.1967C44.2098 6.60322 45 8.51088 45 10.5V37.5Z" fill="black"/>
<path d="M15 10.5H12C11.1716 10.5 10.5 11.1716 10.5 12V15C10.5 15.8284 11.1716 16.5 12 16.5H15C15.8284 16.5 16.5 15.8284 16.5 15V12C16.5 11.1716 15.8284 10.5 15 10.5Z" fill="black"/>
<path d="M15 21H12C11.1716 21 10.5 21.6716 10.5 22.5V25.5C10.5 26.3284 11.1716 27 12 27H15C15.8284 27 16.5 26.3284 16.5 25.5V22.5C16.5 21.6716 15.8284 21 15 21Z" fill="black"/>
<path d="M15 31.5H12C11.1716 31.5 10.5 32.1716 10.5 33V36C10.5 36.8284 11.1716 37.5 12 37.5H15C15.8284 37.5 16.5 36.8284 16.5 36V33C16.5 32.1716 15.8284 31.5 15 31.5Z" fill="black"/>
<path d="M19.5 12H37.5V15H19.5V12ZM19.5 22.5H37.5V25.5H19.5V22.5ZM19.5 33H37.5V36H19.5V33Z" fill="black"/>
</g>
<defs>
<clipPath id="clip0_38_3412">
<rect width="48" height="48" fill="white"/>
</clipPath>
</defs>
</svg>
