<svg width="310" height="140" viewBox="0 0 310 140" fill="none" xmlns="http://www.w3.org/2000/svg">
<g clip-path="url(#clip0_322_7)">
<mask id="mask0_322_7" style="mask-type:luminance" maskUnits="userSpaceOnUse" x="0" y="0" width="310" height="140">
<path d="M310 0H0V140H310V0Z" fill="white"/>
</mask>
<g mask="url(#mask0_322_7)">
<path d="M1.57181 0V0.171769H1.46921L1.57181 0Z" fill="white"/>
<path d="M73.0489 135.14C79.4467 129.912 78.8742 123.188 78.8742 123.188L58.4454 126.104C58.4454 126.104 52.8865 126.221 51.4767 127.893C51.1527 128.32 50.8306 128.961 50.4674 129.719C49.4577 132.013 48.448 135.084 47.3075 134.462C45.8793 133.743 47.3647 129.505 47.5351 129.038C47.2315 129.447 44.2992 133.314 43.7472 131.663C43.4047 130.691 44.1844 129.118 44.9272 127.834C44.4324 128.32 43.7472 128.747 42.8526 128.902C40.4724 129.33 41.2725 127.386 41.2725 127.386L46.185 122.526C46.033 122.526 45.5941 122.253 44.5084 119.999C43.9751 118.873 44.0716 118.328 44.3568 118.114C44.8141 117.687 45.8217 118.075 45.8217 118.075C49.4001 121.3 52.9993 121.885 52.9993 121.885C62.5574 123.516 77.1609 117.997 78.589 116.715C80.0172 115.471 79.4079 113.916 79.4079 113.916L74.4954 116.015C62.2722 120.603 48.1444 110.632 48.1444 110.632C48.1444 110.632 45.6698 114.071 42.4318 111.604C39.2143 109.136 44.2212 106.103 44.2212 106.103C38.4326 103.79 35.9972 95.8786 35.9972 95.8786C35.6155 95.8786 35.1967 95.9184 34.7987 95.9184C24.6889 95.9184 22.1178 91.3308 22.1178 91.3308C25.4501 90.7486 30.4958 88.3186 30.4958 88.3186C28.0971 88.3186 23.7183 85.4218 23.7183 85.4218C25.2408 85.4218 27.5062 84.7808 29.6586 84.0034L26.5356 76.6948C26.7634 76.8311 28.4008 77.5495 32.2666 76.5776C35.2175 75.8593 39.5203 74.0515 45.4997 70.2034C59.9512 60.8544 66.5194 65.3248 66.5194 65.3248C79.6191 50.8647 89.4809 74.5373 89.4809 74.5373C89.4809 74.5373 93.1557 72.2247 94.0689 75.2768C94.1262 75.4508 94.1633 75.6079 94.1633 75.7629C94.5242 78.5615 90.679 80.4656 90.679 80.4656L91.5923 86.8208C93.9538 106.044 85.4609 109.658 85.4609 109.658L86.7166 111.426C94.4466 105.789 98.1974 85.3609 98.6158 81.1629C98.9586 77.7024 98.3882 77.4303 97.4361 75.7022C97.2268 75.3711 96.9784 74.9436 96.7508 74.3993C95.3411 71.3472 97.7213 70.6871 98.9586 72.5912C100.138 74.5165 101.148 74.6902 101.148 74.6902C101.148 74.6902 106.575 70.744 107.85 71.7744C108.954 72.6876 105.833 75.0778 105.108 75.6038C109.068 73.1924 110.021 74.3216 110.021 74.3216C110.782 75.4883 108.326 77.3151 107.583 77.8199C108.383 77.451 111.315 76.4206 110.991 78.616C110.839 79.8014 109.05 79.86 107.107 80.4047C104.766 81.0856 102.08 82.4849 101.604 87.4411C100.727 96.459 95.0167 111.757 95.0167 111.757C96.2172 123.031 101.033 122.253 102.461 121.786C102.556 121.747 102.652 121.728 102.709 121.69C102.767 121.671 102.825 121.631 102.825 121.631C102.825 121.631 103.034 121.476 103.301 121.34C112.762 114.886 108.098 101.145 108.098 101.145C129.212 95.0406 120.416 74.8871 120.416 74.8871C122.129 69.0762 122.205 64.4889 121.368 60.8735L111.009 67.2876C110.837 68.6596 109.676 69.7153 108.27 69.6965C106.828 69.6775 105.621 68.4628 105.584 66.9899C105.545 65.4022 106.779 64.118 108.305 64.118C108.763 64.118 109.181 64.2355 109.542 64.4283L120.319 57.723C117.73 51.8535 112.551 49.3461 109.982 48.4516L110.057 48.6465L90.2378 60.9699C90.0081 62.2602 88.894 63.234 87.5519 63.2238C86.1197 63.2133 84.9008 62.0381 84.8332 60.5781C84.7592 58.984 86.0253 57.6473 87.5723 57.6473C88.0484 57.6473 88.506 57.7836 88.8856 57.9972L91.151 56.5978L90.9602 47.5612C89.9854 47.0857 89.3372 46.0341 89.4253 44.8361C89.5217 43.5414 90.521 42.4732 91.7811 42.3015C93.4533 42.0729 94.8814 43.3929 94.8814 45.0558C94.8814 45.8144 94.5962 46.4742 94.1201 46.9811L94.2721 54.6583L108.779 45.6782C111.102 23.6561 92.1955 25.1538 92.1955 25.1538C89.8541 17.573 85.0177 13.2976 79.8571 10.9075V43.2106C80.598 43.7574 81.072 44.6641 80.9897 45.6928C80.8789 47.1068 79.7051 48.2442 78.3162 48.2653C76.7752 48.2881 75.5339 47.0165 75.5339 45.4667C75.5339 44.5343 75.9912 43.7175 76.6768 43.2127V9.65904C71.9163 8.12357 65.8629 7.92877 62.9123 8.00629V34.2639L62.8547 34.3603L54.799 49.9095C54.9507 50.2594 55.0267 50.6279 55.0267 51.0363C55.0267 52.5866 53.7853 53.8581 52.2424 53.835C50.8571 53.8142 49.6877 52.683 49.5725 51.2751C49.4453 49.7106 50.5926 48.4012 52.0576 48.2776L59.7319 33.3506V8.24089C59.2947 8.18223 53.0672 7.15161 45.3169 9.73654V42.9528C46.0434 43.4893 46.5154 44.3753 46.4538 45.3808C46.3694 46.7883 45.2329 47.9448 43.8519 48.0054C42.2966 48.0725 40.9936 46.7842 40.9936 45.2088C40.9936 44.2768 41.4509 43.4409 42.155 42.934V11.0206C37.0909 13.4107 32.3693 17.6882 30.0649 25.1517C30.0649 25.1517 11.0825 23.6561 13.4812 45.7746L27.7421 54.677L27.894 46.96C27.1307 46.4405 26.6279 45.5504 26.6587 44.5238C26.6998 43.0849 27.8591 41.8866 29.2688 41.8321C30.8426 41.7694 32.121 43.0366 32.121 44.61C32.121 45.5232 31.7024 46.3193 31.054 46.8261L30.8447 56.6023L33.5677 58.2925C33.9493 58.0789 34.3862 57.9617 34.8623 57.9617C36.3972 57.9617 37.6345 59.2582 37.5833 60.8568C37.5361 62.3208 36.3316 63.5212 34.8951 63.5399C33.5101 63.5566 32.3693 62.5409 32.1579 61.2086L11.7104 48.6717C8.98745 49.7208 4.26598 52.2871 1.86725 57.8466L14.1994 65.4819C14.5605 65.3058 14.9606 65.2094 15.3792 65.2094C16.8874 65.2094 18.1268 66.4602 18.1206 68.0206C18.1145 69.4199 17.0434 70.6203 15.6809 70.7709C14.1604 70.9409 12.8369 69.8178 12.6933 68.3391L0.833079 60.9906C0.0328246 64.5874 0.129266 69.1352 1.80364 74.8871C1.80364 74.8871 -6.61134 94.2258 12.9046 100.738L17.4353 98.2497V98.2351C17.4353 96.9594 18.2519 95.7948 19.4647 95.4828C21.6602 94.917 23.6198 97.1416 22.6431 99.4041C22.2758 100.257 21.4714 100.824 20.5665 100.944C20.1356 101 19.7663 100.971 19.3969 100.856L13.4381 104.1C12.3711 109.932 12.0284 122.467 27.8694 124.354L29.0308 122.8L27.1081 112.071L27.1266 112.052L29.4493 107.27C29.0451 106.78 28.7968 106.149 28.8009 105.443C28.8091 104.102 29.7941 102.934 31.0909 102.72C32.7899 102.442 34.2838 103.776 34.2838 105.462C34.2838 106.629 33.5798 107.62 32.6073 108.047L30.3994 112.557L31.5977 119.166L33.8057 116.057C33.6333 115.689 33.5389 115.299 33.5389 114.872C33.5389 113.317 34.7762 112.073 36.2804 112.073C37.7842 112.073 39.0215 113.317 39.0215 114.872C39.0215 116.29 37.9546 117.475 36.6044 117.612L30.264 126.261C31.4254 130.304 36.7377 140.002 61.1272 140.002C61.1313 140 66.0477 139.921 73.0489 135.14Z" fill="white"/>
<path d="M97.7377 12.2375C97.7377 12.2375 96.5804 14.3051 96.0428 14.8539C95.5895 15.3168 93.7733 16.2846 93.7733 16.2846C93.7733 16.2846 95.8807 17.5498 96.4368 18.1154C96.9376 18.6265 97.9962 20.5935 97.9962 20.5935C97.9962 20.5935 99.1719 18.5322 99.6831 18.0107C100.169 17.5142 101.987 16.5192 101.987 16.5192C101.987 16.5192 99.9311 15.3252 99.4263 14.8182C98.8682 14.2569 97.7377 12.2375 97.7377 12.2375Z" fill="#F97316"/>
<path d="M103.116 7.35449C103.116 7.35449 102.806 7.90543 102.662 8.05415C102.541 8.17773 102.057 8.43539 102.057 8.43539C102.057 8.43539 102.619 8.77265 102.769 8.92556C102.903 9.06171 103.185 9.58751 103.185 9.58751C103.185 9.58751 103.499 9.03657 103.637 8.89831C103.766 8.76635 104.253 8.50031 104.253 8.50031C104.253 8.50031 103.703 8.18192 103.569 8.04577C103.417 7.89494 103.116 7.35449 103.116 7.35449Z" fill="#F97316"/>
<path d="M93.7037 5.12378C93.7037 5.12378 93.1393 6.13345 92.8768 6.40156C92.6552 6.62781 91.7687 7.10122 91.7687 7.10122C91.7687 7.10122 92.7968 7.71916 93.0696 7.99565C93.3137 8.24493 93.8309 9.20643 93.8309 9.20643C93.8309 9.20643 94.4054 8.20095 94.6558 7.94541C94.8938 7.7024 95.7803 7.21642 95.7803 7.21642C95.7803 7.21642 94.7766 6.63408 94.5306 6.3848C94.2557 6.10831 93.7037 5.12378 93.7037 5.12378Z" fill="#F97316"/>
<path d="M303.487 35.6377C303.487 35.6377 302.33 37.7053 301.792 38.2541C301.339 38.717 299.523 39.6847 299.523 39.6847C299.523 39.6847 301.63 40.9499 302.186 41.5157C302.687 42.0266 303.746 43.9938 303.746 43.9938C303.746 43.9938 304.922 41.9326 305.432 41.4107C305.919 40.9144 307.737 39.9194 307.737 39.9194C307.737 39.9194 305.681 38.7255 305.176 38.2183C304.618 37.657 303.487 35.6377 303.487 35.6377Z" fill="#F97316"/>
<path d="M308.865 30.7571C308.865 30.7571 308.555 31.308 308.412 31.4567C308.291 31.5803 307.807 31.838 307.807 31.838C307.807 31.838 308.369 32.1752 308.519 32.3281C308.652 32.4643 308.935 32.9901 308.935 32.9901C308.935 32.9901 309.249 32.4392 309.386 32.3009C309.516 32.1689 310.002 31.9029 310.002 31.9029C310.002 31.9029 309.452 31.5845 309.319 31.4484C309.167 31.2955 308.865 30.7571 308.865 30.7571Z" fill="#F97316"/>
<path d="M299.453 28.524C299.453 28.524 298.889 29.5337 298.626 29.8018C298.404 30.0281 297.518 30.5015 297.518 30.5015C297.518 30.5015 298.546 31.1194 298.819 31.3959C299.063 31.6452 299.58 32.6067 299.58 32.6067C299.58 32.6067 300.155 31.6012 300.405 31.3456C300.643 31.1027 301.53 30.6167 301.53 30.6167C301.53 30.6167 300.526 30.0343 300.28 29.7851C300.005 29.5107 299.453 28.524 299.453 28.524Z" fill="#F97316"/>
<path d="M257.624 85.9495H237.431V72.206H253.155C254.376 72.206 255.429 71.7577 256.307 70.8567C257.185 69.9602 257.624 68.8858 257.624 67.6394C257.624 66.3972 257.185 65.3225 256.307 64.4259C255.429 63.5253 254.376 63.077 253.155 63.077H237.431V49.3335H257.624C258.882 49.3335 259.949 48.8852 260.832 47.9887C261.71 47.0921 262.149 46.0008 262.149 44.7186C262.149 43.4722 261.71 42.3975 260.832 41.501C259.949 40.6045 258.882 40.1521 257.624 40.1521H232.964C231.706 40.1521 230.639 40.6045 229.757 41.501C228.879 42.3975 228.44 43.4722 228.44 44.7186V90.564C228.44 91.8104 228.879 92.8851 229.757 93.7816C230.639 94.6782 231.709 95.1265 232.964 95.1265H257.624C258.882 95.1265 259.949 94.6782 260.832 93.7816C261.71 92.8851 262.149 91.8104 262.149 90.564C262.149 89.2802 261.71 88.1908 260.832 87.2943C259.949 86.3977 258.88 85.9495 257.624 85.9495Z" fill="white"/>
<path d="M150.913 106.532H153.109C153.965 106.532 154.695 106.984 155.299 107.887C155.522 108.35 155.635 108.767 155.635 109.138V109.314C155.635 110.131 155.274 110.835 154.55 111.425C154.057 111.771 153.579 111.945 153.107 111.945H151.445V115.412C151.445 115.648 151.293 115.795 150.987 115.851H150.963C150.717 115.851 150.565 115.688 150.505 115.359V107.079C150.546 106.714 150.682 106.532 150.913 106.532ZM151.447 107.492V110.983H152.939C153.743 110.983 154.297 110.59 154.601 109.804C154.665 109.641 154.697 109.444 154.697 109.216C154.697 108.495 154.336 107.961 153.612 107.615C153.433 107.534 153.226 107.492 152.99 107.492H151.447Z" fill="white"/>
<path d="M157.432 109.169C157.738 109.247 157.89 109.385 157.89 109.584V110.122C158.588 109.488 159.335 109.169 160.131 109.169C160.558 109.169 161.013 109.276 161.495 109.488C161.622 109.622 161.686 109.752 161.686 109.875V109.9C161.635 110.206 161.485 110.361 161.237 110.361H161.21C160.775 110.219 160.447 110.148 160.225 110.148H160.086C159.15 110.148 158.465 110.642 158.03 111.631C157.937 111.895 157.89 112.194 157.89 112.531V115.408C157.89 115.648 157.738 115.797 157.432 115.847H157.408C157.166 115.847 157.016 115.686 156.956 115.361V109.731C156.996 109.358 157.154 109.169 157.432 109.169Z" fill="white"/>
<path d="M165.671 109.253C166.504 109.253 167.259 109.576 167.936 110.219C168.579 110.91 168.901 111.687 168.901 112.553C168.901 113.788 168.326 114.761 167.179 115.468C166.685 115.724 166.205 115.852 165.739 115.852H165.548C164.68 115.852 163.871 115.435 163.123 114.601C162.665 113.939 162.437 113.258 162.437 112.555C162.437 111.484 162.901 110.585 163.826 109.859C164.424 109.454 165.037 109.253 165.671 109.253ZM163.385 112.481V112.599C163.385 113.48 163.802 114.163 164.635 114.645C164.934 114.804 165.256 114.884 165.599 114.884H165.739C166.631 114.884 167.315 114.411 167.789 113.466C167.899 113.168 167.953 112.879 167.953 112.599V112.481C167.953 111.746 167.623 111.128 166.964 110.627C166.578 110.355 166.139 110.219 165.644 110.219C164.668 110.219 163.951 110.741 163.498 111.78C163.424 112.037 163.385 112.27 163.385 112.481Z" fill="white"/>
<path d="M173.103 109.234C174.064 109.234 174.897 109.642 175.605 110.459C176.091 111.142 176.335 111.785 176.335 112.391L176.308 113.207V116.117C176.308 116.662 175.9 117.255 175.083 117.9C174.453 118.319 173.793 118.528 173.103 118.528C171.923 118.528 170.947 117.99 170.177 116.915C170.038 116.679 169.968 116.517 169.968 116.436V116.364C169.968 116.153 170.109 116.015 170.393 115.95H170.462C170.674 115.95 170.854 116.151 171.002 116.553C171.568 117.28 172.268 117.642 173.103 117.642C174.107 117.642 174.862 117.175 175.369 116.243L175.414 115.933V114.85C174.716 115.508 173.969 115.834 173.173 115.834H172.982C172.114 115.834 171.306 115.418 170.557 114.584C170.099 113.922 169.871 113.241 169.871 112.537C169.871 111.467 170.335 110.568 171.261 109.841C171.855 109.435 172.469 109.234 173.103 109.234ZM170.793 112.462V112.579C170.793 113.56 171.295 114.291 172.303 114.768C172.574 114.85 172.816 114.892 173.034 114.892H173.173C174.113 114.892 174.821 114.379 175.299 113.35C175.375 113.044 175.414 112.803 175.414 112.631V112.483C175.414 111.507 174.903 110.776 173.885 110.294C173.567 110.216 173.321 110.177 173.148 110.177H173.06C172.12 110.177 171.412 110.681 170.934 111.693C170.84 111.972 170.793 112.227 170.793 112.462Z" fill="white"/>
<path d="M178.397 109.169C178.701 109.247 178.855 109.385 178.855 109.584V110.122C179.553 109.488 180.299 109.169 181.096 109.169C181.524 109.169 181.978 109.276 182.46 109.488C182.587 109.622 182.651 109.752 182.651 109.875V109.9C182.6 110.206 182.45 110.361 182.199 110.361H182.175C181.738 110.219 181.412 110.148 181.19 110.148H181.05C180.115 110.148 179.429 110.642 178.994 111.631C178.902 111.895 178.855 112.194 178.855 112.531V115.408C178.855 115.648 178.703 115.797 178.397 115.847H178.373C178.13 115.847 177.981 115.686 177.921 115.361V109.731C177.958 109.358 178.118 109.169 178.397 109.169Z" fill="white"/>
<path d="M186.679 109.222C187.906 109.222 188.876 109.836 189.592 111.061C189.812 111.558 189.923 112.075 189.923 112.609V115.414C189.923 115.651 189.773 115.797 189.472 115.848H189.447C189.244 115.848 189.094 115.726 188.996 115.485V115.46L189.02 114.857V114.832C188.322 115.511 187.571 115.85 186.767 115.85H186.585C185.482 115.85 184.565 115.286 183.829 114.159C183.562 113.615 183.429 113.066 183.429 112.513C183.429 111.281 184.021 110.305 185.206 109.584C185.71 109.343 186.201 109.222 186.679 109.222ZM184.356 112.488V112.559C184.356 113.523 184.83 114.247 185.778 114.735C186.078 114.848 186.347 114.903 186.585 114.903H186.767C187.555 114.903 188.203 114.501 188.716 113.698C188.903 113.319 188.996 112.957 188.996 112.609V112.513C188.996 111.585 188.546 110.873 187.649 110.38C187.335 110.238 187.013 110.167 186.679 110.167H186.654C185.698 110.167 184.978 110.674 184.496 111.69C184.403 112.006 184.356 112.272 184.356 112.488Z" fill="white"/>
<path d="M191.643 109.333C191.938 109.41 192.086 109.544 192.086 109.734V109.974C192.603 109.546 193.163 109.333 193.768 109.333C194.573 109.333 195.279 109.712 195.888 110.472C196.138 110.001 196.649 109.645 197.425 109.404L197.958 109.333C198.931 109.333 199.703 109.808 200.269 110.757C200.455 111.155 200.548 111.534 200.548 111.896V115.447C200.548 115.654 200.4 115.789 200.105 115.849H200.086C199.791 115.797 199.643 115.646 199.643 115.397V111.949C199.643 111.168 199.239 110.627 198.43 110.33L198.106 110.284H197.872C197.228 110.284 196.738 110.663 196.399 111.423C196.352 111.591 196.329 111.733 196.329 111.85V115.376C196.274 115.692 196.128 115.849 195.89 115.849H195.865C195.57 115.797 195.422 115.654 195.422 115.422V112.493C195.422 111.68 195.313 111.174 195.098 110.971C194.763 110.514 194.328 110.284 193.791 110.284H193.721C192.98 110.284 192.459 110.688 192.159 111.494C192.112 111.689 192.09 111.944 192.09 112.259V115.42C192.09 115.652 191.942 115.797 191.647 115.847H191.628C191.39 115.847 191.242 115.69 191.183 115.374V109.873C191.213 109.513 191.367 109.333 191.643 109.333Z" fill="white"/>
<path d="M202.276 109.333C202.571 109.41 202.719 109.544 202.719 109.734V109.974C203.234 109.546 203.796 109.333 204.401 109.333C205.204 109.333 205.912 109.712 206.521 110.472C206.771 110.001 207.282 109.645 208.058 109.404L208.591 109.333C209.564 109.333 210.333 109.808 210.902 110.757C211.089 111.155 211.181 111.534 211.181 111.896V115.447C211.181 115.654 211.033 115.789 210.738 115.849H210.719C210.424 115.797 210.276 115.646 210.276 115.397V111.949C210.276 111.168 209.872 110.627 209.063 110.33L208.739 110.284H208.505C207.861 110.284 207.371 110.663 207.032 111.423C206.985 111.591 206.962 111.733 206.962 111.85V115.376C206.907 115.692 206.761 115.849 206.525 115.849H206.5C206.205 115.797 206.057 115.654 206.057 115.422V112.493C206.057 111.68 205.948 111.174 205.733 110.971C205.399 110.514 204.964 110.284 204.426 110.284H204.356C203.615 110.284 203.096 110.688 202.795 111.494C202.747 111.689 202.725 111.944 202.725 112.259V115.42C202.725 115.652 202.577 115.797 202.282 115.847H202.263C202.027 115.847 201.878 115.69 201.82 115.374V109.873C201.845 109.513 201.998 109.333 202.276 109.333Z" fill="white"/>
<path d="M215.484 109.209C216.736 109.209 217.71 109.817 218.404 111.03C218.64 111.505 218.759 112.02 218.759 112.578V112.701C218.703 113.026 218.554 113.187 218.309 113.187H213.301C213.487 113.83 213.888 114.323 214.507 114.664C214.871 114.807 215.211 114.878 215.529 114.878C215.896 114.878 216.319 114.756 216.793 114.515H216.932C217.216 114.572 217.357 114.719 217.357 114.955V115.027C217.357 115.424 216.789 115.699 215.65 115.85H215.486C214.318 115.85 213.383 115.293 212.681 114.178C212.398 113.652 212.256 113.099 212.256 112.525C212.256 111.313 212.818 110.345 213.945 109.622C214.487 109.348 215 109.209 215.484 109.209ZM213.223 112.243H217.786C217.786 111.909 217.595 111.48 217.214 110.952C216.692 110.452 216.179 110.2 215.671 110.2H215.41C214.649 110.2 214.021 110.579 213.53 111.34C213.364 111.643 213.262 111.943 213.223 112.243Z" fill="white"/>
<path d="M220.542 109.169C220.848 109.247 221 109.385 221 109.584V110.122C221.697 109.488 222.444 109.169 223.24 109.169C223.667 109.169 224.123 109.276 224.605 109.488C224.732 109.622 224.796 109.752 224.796 109.875V109.9C224.744 110.206 224.594 110.361 224.346 110.361H224.32C223.885 110.219 223.556 110.148 223.335 110.148H223.195C222.259 110.148 221.574 110.642 221.139 111.631C221.047 111.895 221 112.194 221 112.531V115.408C221 115.648 220.848 115.797 220.542 115.847H220.517C220.275 115.847 220.125 115.686 220.066 115.361V109.731C220.103 109.358 220.263 109.169 220.542 109.169Z" fill="white"/>
<path d="M228.132 109.261C229.22 109.261 230.073 109.764 230.695 110.772L230.713 110.96V110.985C230.713 111.241 230.557 111.392 230.243 111.44C230.036 111.44 229.825 111.255 229.609 110.889C229.172 110.457 228.682 110.242 228.13 110.242C227.406 110.242 226.835 110.594 226.416 111.297L226.398 111.421C226.398 111.632 226.632 111.76 227.104 111.804C228.908 112.248 229.892 112.504 230.061 112.569C230.512 112.87 230.74 113.256 230.74 113.723V113.742C230.74 114.408 230.262 115.016 229.306 115.569C228.895 115.759 228.458 115.853 227.993 115.853C227.041 115.853 226.234 115.397 225.575 114.486C225.512 114.391 225.479 114.301 225.479 114.22V114.077C225.479 113.845 225.651 113.708 226 113.668C226.148 113.668 226.359 113.87 226.634 114.272C227.053 114.67 227.539 114.869 228.089 114.869C228.748 114.869 229.296 114.548 229.732 113.91L229.778 113.767V113.742C229.778 113.535 229.638 113.415 229.359 113.386C227.256 112.906 226.144 112.611 226.02 112.498C225.631 112.196 225.436 111.827 225.436 111.396C225.436 110.79 225.864 110.208 226.724 109.647C227.199 109.387 227.668 109.261 228.132 109.261Z" fill="white"/>
<path d="M238.759 106.507L238.878 106.532H243.601L243.696 106.507C243.971 106.507 244.133 106.687 244.178 107.045C244.114 107.343 243.938 107.491 243.651 107.491H239.239V110.809H242.128L242.471 110.784C242.686 110.784 242.83 110.948 242.902 111.276C242.902 111.492 242.773 111.656 242.514 111.769L242.032 111.744H239.239V114.892H243.765C243.989 114.892 244.127 115.064 244.178 115.412C244.092 115.705 243.95 115.852 243.747 115.852H238.759C238.453 115.795 238.301 115.64 238.301 115.385V106.999C238.348 106.689 238.5 106.532 238.759 106.532V106.507Z" fill="white"/>
<path d="M245.664 106.603H245.758C246.045 106.664 246.189 106.794 246.189 106.993V114.898H246.69C246.897 114.898 247.032 115.053 247.096 115.366V115.385C247.045 115.695 246.893 115.852 246.638 115.852H245.711C245.467 115.852 245.313 115.69 245.253 115.366V107.138C245.294 106.782 245.43 106.603 245.664 106.603Z" fill="white"/>
<path d="M248.969 107.517C249.275 107.594 249.427 107.733 249.427 107.932V108.074C249.427 108.302 249.261 108.441 248.926 108.489C248.711 108.489 248.567 108.328 248.495 108.003C248.557 107.68 248.715 107.517 248.969 107.517ZM248.969 109.176C249.275 109.254 249.427 109.392 249.427 109.591V115.41C249.427 115.651 249.275 115.799 248.969 115.85H248.945C248.703 115.85 248.553 115.688 248.493 115.364V109.733C248.532 109.362 248.69 109.176 248.969 109.176Z" fill="white"/>
<path d="M252.295 106.844H252.384C252.663 106.905 252.802 107.033 252.802 107.227V109.366H253.76L253.97 109.341C254.185 109.341 254.331 109.5 254.407 109.821C254.407 110.037 254.276 110.194 254.013 110.294L253.664 110.269H252.8V113.761C252.8 114.371 252.995 114.744 253.385 114.882L253.918 114.928H254.179C254.382 114.928 254.514 115.079 254.573 115.38V115.399C254.522 115.701 254.374 115.852 254.13 115.852H253.642C252.901 115.852 252.351 115.439 251.992 114.614C251.928 114.41 251.895 114.174 251.895 113.901V110.267H251.432L251.056 110.292C250.794 110.198 250.662 110.039 250.662 109.819C250.713 109.517 250.853 109.366 251.081 109.366V109.341L251.315 109.366H251.891V107.37C251.934 107.018 252.068 106.844 252.295 106.844Z" fill="white"/>
<path d="M258.496 109.209C259.748 109.209 260.723 109.817 261.416 111.03C261.652 111.505 261.771 112.02 261.771 112.578V112.701C261.716 113.026 261.566 113.187 261.322 113.187H256.313C256.5 113.83 256.9 114.323 257.52 114.664C257.883 114.807 258.224 114.878 258.542 114.878C258.909 114.878 259.332 114.756 259.806 114.515H259.945C260.228 114.572 260.37 114.719 260.37 114.955V115.027C260.37 115.424 259.801 115.699 258.663 115.85H258.498C257.331 115.85 256.395 115.293 255.693 114.178C255.411 113.652 255.269 113.099 255.269 112.525C255.269 111.313 255.831 110.345 256.958 109.622C257.501 109.348 258.014 109.209 258.496 109.209ZM256.237 112.243H260.801C260.801 111.909 260.61 111.48 260.228 110.952C259.707 110.452 259.194 110.2 258.685 110.2H258.425C257.664 110.2 257.036 110.579 256.545 111.34C256.379 111.643 256.274 111.943 256.237 112.243Z" fill="white"/>
<path d="M271.781 106.538C272.569 106.538 273.223 106.9 273.748 107.627L273.775 107.73V107.879C273.775 108.09 273.621 108.222 273.312 108.275C273.184 108.275 272.967 108.101 272.657 107.751C272.378 107.569 272.111 107.479 271.857 107.479H271.711C271.177 107.479 270.773 107.768 270.498 108.346C270.434 108.484 270.404 108.625 270.404 108.767V108.968C270.404 109.594 270.773 110.049 271.514 110.33C272.047 110.33 272.622 110.585 273.24 111.094C273.835 111.712 274.134 112.391 274.134 113.128C274.134 114.035 273.755 114.779 272.991 115.357C272.525 115.686 272.011 115.849 271.442 115.849C270.525 115.849 269.764 115.445 269.164 114.639L269.113 114.438C269.169 114.127 269.322 113.97 269.577 113.97C269.747 113.97 269.965 114.144 270.232 114.49C270.63 114.77 270.993 114.911 271.323 114.911H271.539C272.183 114.911 272.7 114.54 273.094 113.797C273.158 113.556 273.19 113.373 273.19 113.252V113.007C273.19 112.355 272.825 111.825 272.099 111.419L270.861 111.069C269.938 110.529 269.478 109.821 269.478 108.943V108.769C269.478 107.906 269.93 107.229 270.837 106.741C271.173 106.605 271.489 106.538 271.781 106.538Z" fill="white"/>
<path d="M278.248 109.203C279.086 109.203 279.847 109.525 280.532 110.168C280.579 110.254 280.602 110.336 280.602 110.415V110.441C280.547 110.746 280.397 110.901 280.151 110.901H280.126C280.011 110.901 279.759 110.749 279.365 110.441C279.014 110.258 278.665 110.168 278.318 110.168H278.178C277.255 110.168 276.558 110.663 276.083 111.652C275.975 111.985 275.919 112.284 275.919 112.552C275.919 113.512 276.404 114.238 277.374 114.735C277.666 114.848 277.976 114.903 278.3 114.903C278.846 114.903 279.383 114.676 279.913 114.222L280.103 114.176H280.179C280.411 114.176 280.555 114.329 280.604 114.637V114.655C280.604 114.988 280.095 115.353 279.081 115.751C278.739 115.816 278.484 115.847 278.32 115.847H278.129C277.253 115.847 276.439 115.426 275.685 114.584C275.224 113.918 274.994 113.233 274.994 112.523C274.994 111.444 275.462 110.535 276.395 109.802C276.993 109.404 277.61 109.203 278.248 109.203Z" fill="white"/>
<path d="M282.223 106.585H282.319C282.607 106.646 282.75 106.775 282.75 106.974V109.961C283.364 109.421 284.019 109.151 284.718 109.151C285.785 109.151 286.637 109.666 287.277 110.693C287.519 111.149 287.638 111.583 287.638 111.989V115.41C287.638 115.651 287.486 115.799 287.181 115.85H287.162C286.934 115.85 286.782 115.703 286.704 115.41V112.131C286.704 111.25 286.257 110.615 285.364 110.227C285.149 110.163 284.934 110.131 284.716 110.131C283.827 110.131 283.204 110.613 282.843 111.577C282.779 111.784 282.748 112.125 282.748 112.601V115.412C282.748 115.653 282.596 115.801 282.291 115.852H282.272C282.044 115.852 281.89 115.705 281.815 115.412V107.048C281.878 106.738 282.014 106.585 282.223 106.585Z" fill="white"/>
<path d="M291.965 109.253C292.799 109.253 293.554 109.576 294.231 110.219C294.875 110.91 295.195 111.687 295.195 112.553C295.195 113.788 294.623 114.761 293.476 115.468C292.981 115.724 292.501 115.852 292.035 115.852H291.845C290.977 115.852 290.168 115.435 289.419 114.601C288.962 113.939 288.734 113.258 288.734 112.555C288.734 111.484 289.198 110.585 290.123 109.859C290.716 109.454 291.329 109.253 291.965 109.253ZM289.68 112.481V112.599C289.68 113.48 290.096 114.163 290.929 114.645C291.229 114.804 291.551 114.884 291.894 114.884H292.033C292.926 114.884 293.609 114.411 294.083 113.466C294.192 113.168 294.247 112.879 294.247 112.599V112.481C294.247 111.746 293.917 111.128 293.256 110.627C292.87 110.355 292.431 110.219 291.937 110.219C290.96 110.219 290.244 110.741 289.792 111.78C289.719 112.037 289.68 112.27 289.68 112.481Z" fill="white"/>
<path d="M299.391 109.253C300.225 109.253 300.98 109.576 301.657 110.219C302.299 110.91 302.621 111.687 302.621 112.553C302.621 113.788 302.047 114.761 300.9 115.468C300.405 115.724 299.925 115.852 299.459 115.852H299.269C298.4 115.852 297.592 115.435 296.843 114.601C296.385 113.939 296.158 113.258 296.158 112.555C296.158 111.484 296.621 110.585 297.547 109.859C298.142 109.454 298.757 109.253 299.391 109.253ZM297.106 112.481V112.599C297.106 113.48 297.522 114.163 298.355 114.645C298.655 114.804 298.977 114.884 299.32 114.884H299.459C300.352 114.884 301.035 114.411 301.509 113.466C301.62 113.168 301.673 112.879 301.673 112.599V112.481C301.673 111.746 301.343 111.128 300.684 110.627C300.299 110.355 299.859 110.219 299.365 110.219C298.388 110.219 297.672 110.741 297.218 111.78C297.145 112.037 297.106 112.27 297.106 112.481Z" fill="white"/>
<path d="M304.164 106.603H304.259C304.546 106.664 304.689 106.794 304.689 106.993V114.898H305.19C305.398 114.898 305.533 115.053 305.596 115.366V115.385C305.545 115.695 305.394 115.852 305.139 115.852H304.211C303.967 115.852 303.813 115.69 303.754 115.366V107.138C303.795 106.782 303.93 106.603 304.164 106.603Z" fill="white"/>
<path d="M217.24 58.4621C217.24 58.6798 217.132 59.6792 216.918 61.4577C216.701 63.2341 216.091 65.222 215.088 67.4215C213.578 70.465 211.45 72.7902 208.704 74.4031C205.957 76.016 202.772 76.8226 199.146 76.8226H159.493V90.5661C159.493 91.8125 159.054 92.8871 158.175 93.7837C157.293 94.6802 156.226 95.1285 154.972 95.1285C153.751 95.1285 152.699 94.6802 151.821 93.7837C150.938 92.8871 150.499 91.8125 150.499 90.5661V44.7186C150.499 43.4723 150.938 42.3976 151.821 41.501C152.699 40.6045 153.751 40.1521 154.972 40.1521H159.493V67.6391H199.149C202.988 67.6391 205.571 66.2483 206.901 63.4643C207.331 62.6577 207.637 61.8892 207.816 61.1518C207.996 60.4187 208.113 59.7984 208.167 59.2834C208.222 58.7701 208.247 58.4976 208.247 58.4601C208.247 54.5367 206.813 51.8992 203.94 50.5418C203.15 50.1398 202.397 49.8547 201.678 49.6892C200.96 49.5239 200.115 49.4044 199.149 49.3311H175.879C174.533 51.162 172.389 52.3454 169.976 52.3454C167.563 52.3454 165.419 51.1597 164.073 49.3311C163.145 48.0722 162.597 46.5053 162.597 44.8147C162.597 43.0533 163.19 41.4298 164.19 40.1497C165.54 38.405 167.631 37.2864 169.976 37.2864C172.322 37.2864 174.413 38.405 175.763 40.1497H199.146C199.397 40.1497 200.375 40.2608 202.08 40.4829C203.786 40.7009 205.735 41.327 207.923 42.3516C214.134 45.6905 217.24 51.0571 217.24 58.4621Z" fill="white"/>
<path d="M305.609 76.986V77.7548C305.609 82.3006 303.994 86.316 300.762 89.7955C297.1 93.3504 292.739 95.1264 287.675 95.1264H287.031C280.78 94.6993 276.11 91.9466 273.02 86.8753C271.303 86.5673 269.813 85.5914 268.806 84.2255C267.96 83.0776 267.459 81.6469 267.459 80.1032C267.459 78.4984 267.999 77.0174 268.91 75.8487C270.143 74.2565 272.049 73.2367 274.19 73.2367C276.33 73.2367 278.24 74.2565 279.469 75.8487C280.384 77.0174 280.924 78.4984 280.924 80.1032C280.924 80.7524 280.836 81.3829 280.666 81.9821C282.059 84.4537 284.287 85.7757 287.355 85.9474H287.735C290.427 85.9474 292.614 85.1033 294.303 83.4168C295.883 81.7685 296.673 79.879 296.673 77.7528V77.4237C296.351 75.5932 295.05 73.9718 292.768 72.5619C290.486 71.1503 288.504 70.2054 286.819 69.7278L286.493 69.5623C278.558 66.592 274.594 61.5564 274.594 54.4447V53.8394C274.775 49.6959 276.517 46.3066 279.816 43.6715C282.835 41.3272 286.351 40.15 290.373 40.15H291.071C294.411 40.3343 297.481 41.4908 300.282 43.6149C301.466 44.6811 302.059 45.8897 302.059 47.243C302.059 48.1982 301.753 49.1155 301.14 49.9953C300.099 51.2039 298.899 51.8095 297.532 51.8095C296.597 51.8095 295.702 51.5142 294.84 50.9297C293.582 49.9745 292.218 49.4445 290.747 49.3335H290.316C288.414 49.3335 286.825 49.7732 285.553 50.6531C284.275 51.5329 283.604 52.7061 283.53 54.1701V54.4467C283.53 55.7309 283.819 56.776 284.392 57.5805C284.968 58.3868 285.693 59.0572 286.571 59.5872C287.453 60.1172 288.411 60.5822 289.452 60.9865C290.351 61.2086 292.048 61.8872 294.541 63.0225C297.036 64.1578 299.433 65.861 301.733 68.1357C304.029 70.4088 305.318 73.358 305.609 76.986Z" fill="white"/>
</g>
</g>
<defs>
<clipPath id="clip0_322_7">
<rect width="310" height="140" fill="white"/>
</clipPath>
</defs>
</svg>
