<svg width="48" height="48" viewBox="0 0 48 48" fill="none" xmlns="http://www.w3.org/2000/svg">
<path d="M42.768 35.504C43.2353 35.9729 43.5856 36.5453 43.7906 37.1748C43.9955 37.8043 44.0494 38.4733 43.9477 39.1274C43.846 39.7816 43.5918 40.4027 43.2054 40.9403C42.8191 41.4779 42.3116 41.917 41.724 42.222C38.3661 44.0167 34.4539 44.4753 30.772 43.506C21 41.046 6.95399 27 4.49399 17.228C3.52463 13.5461 3.9833 9.63383 5.77799 6.27599C6.08298 5.68839 6.52206 5.18088 7.05968 4.79455C7.59731 4.40822 8.21835 4.15393 8.87253 4.05226C9.52671 3.9506 10.1956 4.00443 10.8252 4.20938C11.4547 4.41434 12.0271 4.76466 12.496 5.23199L16.666 9.39999C17.2673 9.9953 17.6743 10.7588 17.8331 11.5899C17.992 12.4211 17.8954 13.2808 17.556 14.056C17.1846 14.9257 16.6572 15.7201 16 16.4C11.232 21.168 26.834 36.77 31.6 32C32.28 31.3404 33.0751 30.811 33.946 30.438C34.721 30.098 35.5809 30.0011 36.4122 30.16C37.2434 30.3189 38.007 30.7262 38.602 31.328L42.768 35.504Z" fill="black"/>
</svg>
