<svg width="32" height="32" viewBox="0 0 32 32" fill="none" xmlns="http://www.w3.org/2000/svg">
<g clip-path="url(#clip0_516_5027)">
<path d="M3.9822 22.2641L3.43323e-05 18.2822L3.9822 14.3L3.3406 13.6584C2.2305 12.5483 2.2305 10.7422 3.34036 9.63207C3.8782 9.09448 4.59329 8.79833 5.35378 8.79833C6.11404 8.79833 6.82912 9.09448 7.36672 9.63207L8.00832 10.2737L11.9905 6.2915L13.1655 7.46679V9.32421C11.0869 9.81957 9.53639 11.6924 9.53639 13.9204C9.53639 16.1487 11.0869 18.0215 13.1655 18.5166V24.2761H16.6128L17.3 24.9633L11.9905 30.2727L8.00832 26.2905L7.45534 26.8437C6.34524 27.9538 4.53909 27.9538 3.42898 26.8437C2.31888 25.7336 2.31888 23.9275 3.42898 22.8173L3.9822 22.2641Z" fill="#87C2A2"/>
<path d="M15.0428 22.3991V16.7675H14.2608C12.6907 16.7675 11.4136 15.4904 11.4136 13.9204C11.4136 12.3506 12.6907 11.0735 14.2608 11.0735H15.0428V5.44189H20.6743V4.53466C20.6743 2.9646 21.9514 1.6875 23.5215 1.6875C25.0913 1.6875 26.3684 2.9646 26.3684 4.53466V5.44189H32V11.0735H31.2178C29.8403 11.0735 28.6885 12.0566 28.4268 13.3581C28.3132 13.5168 28.2456 13.7107 28.2456 13.9204C28.2456 14.1301 28.3132 14.3239 28.4268 14.4829C28.6885 15.7841 29.8403 16.7675 31.2178 16.7675H32V22.3991H26.3684V21.4917C26.3684 19.9218 25.0913 18.6447 23.5215 18.6447C21.9514 18.6447 20.6743 19.9218 20.6743 21.4917V22.3991H15.0428Z" fill="#87C2A2"/>
</g>
<defs>
<clipPath id="clip0_516_5027">
<rect width="32" height="32" fill="white" transform="matrix(-1 0 0 1 32 0)"/>
</clipPath>
</defs>
</svg>
