<svg width="20" height="25" viewBox="0 0 20 25" fill="none" xmlns="http://www.w3.org/2000/svg">
<path d="M20 10.7336C18.034 10.7386 16.1162 10.0948 14.5176 8.89332V17.2729C14.5171 18.8249 14.0653 20.3398 13.2226 21.6149C12.38 22.89 11.1867 23.8646 9.80222 24.4084C8.41778 24.9522 6.90821 25.0393 5.47537 24.658C4.04254 24.2767 2.75472 23.4452 1.78412 22.2746C0.813528 21.1041 0.206419 19.6503 0.0439736 18.1077C-0.118471 16.5651 0.171491 15.0072 0.87509 13.6423C1.57869 12.2774 2.66238 11.1706 3.98127 10.4698C5.30016 9.76906 6.79138 9.50776 8.25552 9.72087V13.9355C7.58553 13.7143 6.86607 13.7209 6.1999 13.9546C5.53373 14.1882 4.95491 14.6369 4.54609 15.2366C4.13728 15.8362 3.91939 16.5562 3.92352 17.2936C3.92766 18.0311 4.15362 18.7483 4.56913 19.3428C4.98464 19.9374 5.56846 20.3789 6.2372 20.6043C6.90595 20.8297 7.62543 20.8275 8.2929 20.5979C8.96037 20.3684 9.54168 19.9232 9.95384 19.3261C10.366 18.729 10.5879 18.0104 10.5879 17.2729V0.891602H14.5176C14.5149 1.24004 14.5427 1.588 14.6007 1.93108V1.93108C14.7372 2.69697 15.0211 3.42556 15.4351 4.07228C15.849 4.71901 16.3843 5.27027 17.0081 5.69235C17.8955 6.30849 18.9361 6.63689 20 6.63665V10.7336Z" fill="#262626"/>
</svg>
