<svg width="20" height="21" viewBox="0 0 20 21" fill="none" xmlns="http://www.w3.org/2000/svg">
<path fill-rule="evenodd" clip-rule="evenodd" d="M10 0.5C4.47715 0.5 0 4.97715 0 10.5C0 16.0229 4.47715 20.5 10 20.5C15.5229 20.5 20 16.0229 20 10.5C20 4.97715 15.5229 0.5 10 0.5ZM7.86199 7.37557C7.58954 7.10312 7.1478 7.10312 6.87533 7.37557C6.60287 7.64804 6.60287 8.08978 6.87533 8.36223L9.01312 10.5L6.87533 12.6378C6.60287 12.9102 6.60287 13.352 6.87533 13.6245C7.1478 13.8969 7.58954 13.8969 7.86199 13.6245L9.99972 11.4867L12.1375 13.6245C12.41 13.8969 12.8517 13.8969 13.1242 13.6245C13.3967 13.352 13.3967 12.9102 13.1242 12.6378L10.9864 10.5L13.1242 8.36223C13.3967 8.08978 13.3967 7.64804 13.1242 7.37557C12.8517 7.10312 12.41 7.10312 12.1375 7.37557L9.99972 9.5133L7.86199 7.37557Z" fill="#FDE047"/>
</svg>
