<svg width="269" height="70" viewBox="0 0 269 70" fill="none" xmlns="http://www.w3.org/2000/svg">
<path d="M13.488 55.328H39.12V68H0.24V0.799995H13.488V55.328ZM51.7568 49.088C53.4208 55.104 57.9328 58.112 65.2928 58.112C70.0288 58.112 73.6128 56.512 76.0448 53.312L86.0288 59.072C81.2928 65.92 74.3168 69.344 65.1008 69.344C57.1648 69.344 50.7968 66.944 45.9968 62.144C41.1967 57.344 38.7967 51.296 38.7967 44C38.7967 36.768 41.1648 30.752 45.9008 25.952C50.6368 21.088 56.7168 18.656 64.1408 18.656C71.1808 18.656 76.9728 21.088 81.5168 25.952C86.1248 30.816 88.4288 36.832 88.4288 44C88.4288 45.6 88.2688 47.296 87.9488 49.088H51.7568ZM51.5648 39.488H76.0448C75.3408 36.224 73.8688 33.792 71.6288 32.192C69.4528 30.592 66.9568 29.792 64.1408 29.792C60.8128 29.792 58.0608 30.656 55.8848 32.384C53.7088 34.048 52.2688 36.416 51.5648 39.488ZM122.943 20H136.575L118.335 68H104.223L85.983 20H99.615L111.231 53.6L122.943 20ZM173.311 20H185.695V68H173.311V62.336C169.599 67.008 164.383 69.344 157.663 69.344C151.263 69.344 145.759 66.912 141.151 62.048C136.607 57.12 134.335 51.104 134.335 44C134.335 36.896 136.607 30.912 141.151 26.048C145.759 21.12 151.263 18.656 157.663 18.656C164.383 18.656 169.599 20.992 173.311 25.664V20ZM150.463 53.792C152.959 56.288 156.127 57.536 159.967 57.536C163.807 57.536 166.975 56.288 169.471 53.792C172.031 51.232 173.311 47.968 173.311 44C173.311 40.032 172.031 36.8 169.471 34.304C166.975 31.744 163.807 30.464 159.967 30.464C156.127 30.464 152.959 31.744 150.463 34.304C147.967 36.8 146.719 40.032 146.719 44C146.719 47.968 147.967 51.232 150.463 53.792ZM205.469 28.256C206.621 25.184 208.509 22.88 211.133 21.344C213.821 19.808 216.797 19.04 220.061 19.04V32.864C216.285 32.416 212.893 33.184 209.885 35.168C206.941 37.152 205.469 40.448 205.469 45.056V68H193.085V20H205.469V28.256ZM232.147 49.088C233.811 55.104 238.323 58.112 245.683 58.112C250.419 58.112 254.003 56.512 256.435 53.312L266.419 59.072C261.683 65.92 254.707 69.344 245.491 69.344C237.555 69.344 231.187 66.944 226.387 62.144C221.587 57.344 219.187 51.296 219.187 44C219.187 36.768 221.555 30.752 226.291 25.952C231.027 21.088 237.107 18.656 244.531 18.656C251.571 18.656 257.363 21.088 261.907 25.952C266.515 30.816 268.819 36.832 268.819 44C268.819 45.6 268.659 47.296 268.339 49.088H232.147ZM231.955 39.488H256.435C255.731 36.224 254.259 33.792 252.019 32.192C249.843 30.592 247.347 29.792 244.531 29.792C241.203 29.792 238.451 30.656 236.275 32.384C234.099 34.048 232.659 36.416 231.955 39.488Z" fill="white"/>
</svg>