<svg width="66" height="61" viewBox="0 0 66 61" fill="none" xmlns="http://www.w3.org/2000/svg">
<path d="M51.7044 32.5886C50.6573 31.723 49.5849 30.8913 48.5252 30.0426L45.3121 27.5473C43.1672 25.8838 40.997 24.2583 38.8226 22.6327C36.6398 21.0199 34.4612 19.4028 32.253 17.8279L28.9386 15.4635C27.8197 14.6909 26.7177 13.9055 25.5862 13.1498C26.6333 14.0153 27.7057 14.8471 28.7655 15.6957L31.9785 18.191C34.1234 19.8546 36.2936 21.4801 38.468 23.1098C40.6466 24.7269 42.8295 26.3398 45.0377 27.9147L48.352 30.2791C49.4667 31.0475 50.5729 31.8328 51.7044 32.5886Z" fill="#A3A3A3"/>
<path d="M65 33.9988L45.8399 59.7371L13.9668 56.0089L1.26234 26.5425L20.4225 0.808411L52.2955 4.53235L65 33.9988Z" stroke="#A3A3A3" stroke-width="1.4104" stroke-miterlimit="10" stroke-linecap="round" stroke-linejoin="round"/>
<path d="M51.7044 32.5886C51.3962 33.7075 51.1218 34.8306 50.8305 35.9494L50.0156 39.3271C49.4751 41.5776 48.9769 43.8406 48.4829 46.0995C48.0016 48.3626 47.5203 50.6256 47.0854 52.9014L46.4352 56.3129C46.241 57.4529 46.0214 58.5928 45.8441 59.7371C46.1523 58.6182 46.4267 57.4951 46.7181 56.3762L47.5329 52.9985C48.0734 50.7481 48.5716 48.485 49.0656 46.2262C49.5469 43.9631 50.0282 41.7 50.4631 39.4243L51.1133 36.0128C51.3076 34.8728 51.5229 33.7328 51.7044 32.5886Z" fill="#A3A3A3"/>
<path d="M65 33.9988L58.4514 33.1543C56.2306 32.8757 53.9844 32.5675 51.7255 32.331C51.5904 32.3184 51.4722 32.407 51.4427 32.5337L48.4745 46.0995L45.5781 59.6822C45.5485 59.8257 45.6372 59.965 45.7807 59.9946C45.8863 60.0157 45.9876 59.9735 46.0467 59.8933C49.264 55.5698 52.4264 51.2125 55.593 46.889L65 33.9988ZM65 33.9988L55.2468 46.8468C52.0211 51.1027 48.7996 55.3207 45.6287 59.5808L46.0932 59.7919L49.0571 46.2261L51.9535 32.6435L51.6707 32.8461C53.8451 33.0784 56.0364 33.2388 58.2446 33.4288L65 33.9988Z" fill="#A3A3A3"/>
<path d="M20.4225 0.808411L10.7748 13.5171C7.54067 17.7899 4.2685 22.067 1.05121 26.3905C0.966772 26.5045 0.987885 26.6691 1.10611 26.7578C1.19055 26.8211 1.30032 26.8253 1.38899 26.7789L13.5699 20.1121L25.7171 13.382C25.8353 13.3187 25.8817 13.1751 25.831 13.0527C24.9571 10.9585 24.0155 8.89384 23.112 6.8461L20.4225 0.808411ZM20.4225 0.808411L22.9009 7.11631C23.7158 9.18095 24.5011 11.2287 25.3455 13.2469L25.4595 12.9176L13.2786 19.5843L1.13144 26.3145L1.46498 26.6987C4.63582 22.4427 7.75178 18.1404 10.9057 13.8338L20.4225 0.808411Z" fill="#A3A3A3"/>
<path d="M20.4225 0.808411L36.4244 2.83082C41.7233 3.4937 46.9883 4.17769 52.2618 4.79413L52.2111 4.28747L38.848 8.55607L25.506 12.8964L25.8268 13.0442C24.9824 11.026 24.0746 9.02895 23.1753 6.99809L20.4225 0.808411ZM20.4225 0.808411L22.8333 6.95587C23.6566 9.03739 24.4715 11.1527 25.3455 13.2469C25.4004 13.3735 25.5397 13.4369 25.6664 13.3947L39.0295 9.12184L52.3715 4.78146C52.5109 4.73924 52.5826 4.59146 52.5404 4.45213C52.5066 4.3508 52.4222 4.28324 52.3209 4.2748C46.9714 3.64992 41.6135 3.0926 36.2851 2.50994L20.4225 0.808411Z" fill="#A3A3A3"/>
<path d="M65 33.9988L58.2825 33.1375C56.0786 32.863 53.9084 32.5632 51.7298 32.331L51.962 32.597L52.2955 18.571L52.5573 4.54079L52.0549 4.6379C54.1575 9.51027 56.3192 14.3615 58.4768 19.2466L65 33.9988ZM65 33.9988L58.8188 19.2846C56.7372 14.3489 54.6642 9.37516 52.532 4.42679C52.4729 4.29169 52.3209 4.23258 52.1858 4.29169C52.0886 4.33391 52.0295 4.4268 52.0253 4.52813L51.696 18.5541L51.4342 32.5844C51.43 32.7195 51.5355 32.8335 51.6664 32.8503C53.9211 33.091 56.1841 33.2599 58.4134 33.4541L65 33.9988Z" fill="#A3A3A3"/>
<path d="M1.26233 26.5425C2.30943 26.0442 3.33541 25.5122 4.37406 24.9971L7.45623 23.3969C9.5082 22.3287 11.5391 21.2183 13.5699 20.1079C15.5923 18.9848 17.6147 17.8617 19.616 16.6964L22.618 14.9484C23.606 14.3489 24.6066 13.762 25.5904 13.1456C24.5433 13.6438 23.5173 14.18 22.4787 14.6951L19.3965 16.2995C17.3445 17.3677 15.3137 18.4781 13.2828 19.5886C11.2604 20.7117 9.23376 21.8348 7.23246 23.0001L4.23051 24.748C3.24252 25.3434 2.24187 25.926 1.26233 26.5425Z" fill="#A3A3A3"/>
<path d="M1.26232 26.5424C1.73098 27.7964 2.23342 29.0377 2.71474 30.2833L4.22627 33.9988C5.23537 36.4772 6.28668 38.9345 7.34222 41.3918C8.4062 43.8448 9.47441 46.2979 10.5848 48.7299L12.2484 52.382C12.8226 53.5896 13.3799 54.8056 13.971 56.0089C13.5023 54.7549 12.9999 53.5136 12.5144 52.2681L11.0028 48.5525C9.99373 46.0741 8.94242 43.6169 7.8911 41.1596C6.82712 38.7065 5.75891 36.2534 4.65271 33.8214L2.98918 30.1693C2.40652 28.9617 1.85342 27.7458 1.26232 26.5424Z" fill="#A3A3A3"/>
<path d="M25.5228 13.0949L22.0607 45.0059L51.6369 32.5421" stroke="#A3A3A3" stroke-width="0.4779" stroke-miterlimit="10" stroke-linecap="round" stroke-linejoin="round"/>
<path d="M45.7765 59.6864L22.0607 45.0059L51.6369 32.5421" stroke="#A3A3A3" stroke-width="0.4779" stroke-miterlimit="10" stroke-linecap="round" stroke-linejoin="round"/>
<path d="M25.5229 13.0949L22.0607 45.0059L1.19479 26.496" stroke="#A3A3A3" stroke-width="0.4779" stroke-miterlimit="10" stroke-linecap="round" stroke-linejoin="round"/>
<path d="M13.9035 55.9624L22.0607 45.0059L1.1948 26.496" stroke="#A3A3A3" stroke-width="0.4779" stroke-miterlimit="10" stroke-linecap="round" stroke-linejoin="round"/>
<path d="M52.2955 4.53235L28.0139 37.1443L45.8399 59.7371L65 33.9988L52.2955 4.53235Z" stroke="#A3A3A3" stroke-width="0.2389" stroke-miterlimit="10" stroke-linecap="round" stroke-linejoin="round"/>
<path d="M52.2955 4.53235L28.0139 37.1443L1.26233 26.5425L20.4225 0.808411L52.2955 4.53235Z" stroke="#A3A3A3" stroke-width="0.2389" stroke-miterlimit="10" stroke-linecap="round" stroke-linejoin="round"/>
</svg>
