<svg width="70" height="58" viewBox="0 0 70 58" fill="none" xmlns="http://www.w3.org/2000/svg">
<path d="M0.106202 34.4955L0.242144 34.5247C0.267633 34.5831 0.365328 34.8 0.390817 34.8542L0.849618 35.1712H1.01105L1.61427 35.5884L1.54206 35.6509L2.02209 35.9804L2.1283 35.8303L2.56161 36.1264L2.45541 36.2766L2.88869 36.5727L2.84197 36.6353L3.27529 36.9315L3.32201 36.8689C3.70858 37.1359 4.23534 37.4987 4.61767 37.7615L4.6729 37.6864L5.10621 37.9826L5.05098 38.0577L5.48427 38.3538L5.43755 38.4164L5.87086 38.7126L5.91758 38.65C6.13424 38.8001 6.56753 39.0963 6.78418 39.2465L6.83941 39.1714L7.27272 39.4675L7.1198 39.6803L7.55311 39.9764L7.65081 39.8388C7.86746 39.9889 8.30076 40.2851 8.51741 40.4352L8.57264 40.3602L9.00595 40.6563L8.95072 40.7314L9.38404 41.0275L9.49024 40.8774L9.92353 41.1735L9.81732 41.3237L10.2506 41.6199L10.2039 41.6824L10.6372 41.9786L10.684 41.916C11.0705 42.183 11.5973 42.5459 11.9796 42.8086L12.0348 42.7336L12.4681 43.0339L12.4129 43.109L12.8462 43.4051L12.7995 43.4677L13.2328 43.7638L13.2795 43.7013C13.4962 43.8514 13.9295 44.1476 14.1461 44.2977L14.2014 44.2227L14.6347 44.5188L14.4817 44.7315L14.915 45.0277L15.0128 44.89C15.2294 45.0402 15.6627 45.3364 15.8794 45.4865L15.9346 45.4114L16.3679 45.7076L16.3127 45.7827L16.746 46.0788L16.8522 45.9287L17.2855 46.2248L17.1793 46.375L17.6126 46.6711L17.5658 46.7337L17.9991 47.034L18.0459 46.9715C18.4324 47.2384 18.9592 47.6013 19.3416 47.8641L19.3968 47.789L19.8301 48.0852L19.7748 48.1602L20.2082 48.4564L20.1614 48.519L20.5947 48.8193L20.6415 48.7567C20.8581 48.9069 21.2914 49.203 21.5081 49.3532L21.5633 49.2781L21.9966 49.5743L21.8437 49.787L22.2769 50.0831L22.3747 49.9455C22.5913 50.0957 23.0246 50.3918 23.2413 50.542L23.2965 50.4669L23.7298 50.763L23.6746 50.8381L24.1079 51.1343L24.2141 50.9841L24.6474 51.2803L24.5412 51.4304L24.9745 51.7266L24.9278 51.7891L25.3611 52.0853L25.4078 52.0227C25.7944 52.2897 26.3211 52.6526 26.7035 52.9154L26.7587 52.8403L27.192 53.1364L27.1368 53.2115L27.5701 53.5077L27.5234 53.5702L27.9567 53.8664L28.0034 53.8038C28.2583 54.0624 28.7425 54.1542 29.0866 54.1876L29.1037 54.0958L29.6262 54.1834L29.5837 54.4378L30.1062 54.5254L30.1359 54.3628C30.395 54.4045 30.9176 54.4921 31.1767 54.5338L31.1937 54.442L31.7162 54.5296L31.6992 54.6214L32.2217 54.709L32.2515 54.5296L32.774 54.6172L32.7442 54.7966L33.2668 54.8842L33.254 54.9592L33.7766 55.0426L33.7893 54.9676C34.2523 55.0427 34.8895 55.1469 35.3526 55.2262L35.3696 55.1344L35.8921 55.222L35.8751 55.3138L36.3976 55.4014L36.3849 55.4765L36.9074 55.564L36.9201 55.489C37.1793 55.5307 37.7018 55.6183 37.9609 55.66L37.9779 55.5682L38.5004 55.6558L38.458 55.9103L38.9805 55.9978L39.0102 55.8352C39.2693 55.8769 39.7919 55.9645 40.051 56.0062L40.0679 55.9144L40.5905 55.9978L40.5735 56.0896L41.096 56.1772L41.1258 55.9978L41.6483 56.0854L41.6185 56.2648L42.141 56.3524L42.1283 56.4275L42.6508 56.5151L42.6636 56.44C43.1266 56.5151 43.7638 56.6193 44.2268 56.6986L44.2438 56.6068L44.7663 56.6944L44.7493 56.7862L45.2718 56.8738L45.2591 56.9489L45.7817 57.0365L45.7944 56.9614C46.0535 57.0031 46.576 57.0907 46.8352 57.1324L46.8522 57.0406L47.3747 57.1282L47.3322 57.3827L47.8547 57.4703L47.8844 57.3076C48.1436 57.3493 48.6661 57.4369 48.9252 57.4786L48.9422 57.3868L49.4647 57.4744L49.4478 57.5662L49.9703 57.6538L50 57.4744L50.5225 57.562L50.4928 57.7414L51.0153 57.8248L51.0026 57.8999L51.5251 57.9875L51.5378 57.9124L52.0603 58L52.09 57.829L52.1368 57.8624L52.2812 57.5871L52.4511 57.8332L52.7782 57.2033L52.6933 57.1616C52.8122 56.9322 53.0544 56.4692 53.1733 56.2398L53.1053 56.2064L53.3475 55.7476L53.4155 55.7809L53.6576 55.3221L53.7426 55.3638L53.9847 54.905L53.8997 54.8633C54.1206 54.4378 54.4265 53.8539 54.6517 53.4284L54.5837 53.395L54.8513 52.882L54.9193 52.9154L55.1869 52.4023L55.3526 52.4857L55.6202 51.9727L55.4546 51.8893L55.7222 51.3762L55.8071 51.4179L56.0748 50.9049L55.9898 50.8632C56.1215 50.6087 56.3934 50.0957 56.5251 49.8412L56.3764 49.7661L56.644 49.2531L56.8777 49.3699L57.1453 48.8568L57.0603 48.8151C57.192 48.5607 57.4639 48.0476 57.5956 47.7932L57.5276 47.7598L57.7953 47.2468L57.8632 47.2801L58.1308 46.7671L58.2158 46.8088L58.4834 46.2957L58.3984 46.254C58.6363 45.7994 58.9635 45.1737 59.2013 44.719L59.1334 44.6857L59.401 44.1726L59.469 44.206L59.7366 43.6929L59.9023 43.7763L60.1699 43.2633L60.0042 43.1799L60.2719 42.6668L60.3568 42.7085L60.6244 42.1955L60.5395 42.1538C60.6712 41.8993 60.9431 41.3863 61.0748 41.1318L60.9261 41.0567L61.1937 40.5437L61.4273 40.6605L61.695 40.1474L61.61 40.1057C61.7417 39.8513 62.0136 39.3382 62.1453 39.0838L62.0773 39.0504L62.3449 38.5374L62.4129 38.5707L62.6806 38.0577L62.7655 38.0994L63.0331 37.5863L62.9482 37.5446C63.1861 37.09 63.5131 36.4643 63.751 36.0096L63.6831 35.9763L63.9507 35.4632L64.0187 35.4966L64.2863 34.9835L64.452 35.067L64.7196 34.5539L64.5539 34.4705L64.8216 33.9574L64.9065 33.9991L65.1742 33.4861L65.0892 33.4444C65.2209 33.1899 65.4928 32.6769 65.6245 32.4224L65.4758 32.3474L65.7434 31.8343L65.9771 31.9511L66.2447 31.438L66.1597 31.3963C66.2914 31.1419 66.5633 30.6288 66.695 30.3744L66.627 30.341L66.8946 29.828L66.9626 29.8613L67.2302 29.3483L67.3152 29.39L67.5828 28.877L67.4979 28.8352C67.7273 28.3973 68.0459 27.7925 68.2753 27.3503L68.2073 27.3169L68.4494 26.8581L68.5174 26.8915L68.7595 26.4327L68.9252 26.5161L69.1673 26.0572L69.0017 25.9738L69.2438 25.515L69.3288 25.5567L69.5709 25.0979L69.4859 25.0562C69.6134 24.8142 69.8726 24.3179 70 24.0759L69.8301 24.0426L69.9745 23.7673L69.881 23.7005L69.8853 23.6713C69.8343 23.6755 69.7536 23.6171 69.7154 23.5921L69.9278 23.4211L69.418 23.0707L69.3628 23.1458C69.1461 22.9956 68.7128 22.6995 68.5004 22.5493L68.4537 22.6119L68.0204 22.3157L68.0671 22.2531L67.6338 21.957L67.689 21.8819L67.2557 21.5858L67.2005 21.6608C66.8224 21.4022 66.3041 21.0435 65.926 20.7849L65.8793 20.8475L65.4715 20.5638L65.5182 20.5013L65.1105 20.2176L65.2167 20.0675L64.8089 19.7838L64.7027 19.934L64.2948 19.6503L64.35 19.5753L63.9422 19.2916L63.887 19.3667C63.6831 19.2249 63.271 18.9412 63.0671 18.8036L62.9694 18.9412L62.5616 18.6576L62.7145 18.4449L62.3067 18.1612L62.2515 18.2363C62.0476 18.0945 61.6355 17.8109 61.4316 17.6732L61.3849 17.7358L60.9771 17.4521L61.0238 17.3896L60.6159 17.1059L60.6712 17.0309L60.2634 16.7472L60.2081 16.8223C59.8428 16.572 59.3458 16.2258 58.9804 15.9755L58.9337 16.0381L58.5259 15.7545L58.5726 15.6919L58.1648 15.4083L58.271 15.2581L57.8632 14.9745L57.757 15.1246L57.3492 14.841L57.4044 14.7659L56.9966 14.4823L56.9414 14.5574C56.7375 14.4155 56.3254 14.1319 56.1215 13.9942L56.0238 14.1319L55.616 13.8483L55.7689 13.6355L55.3611 13.3519L55.3058 13.427C55.1019 13.2852 54.6899 13.0015 54.486 12.8639L54.4393 12.9264L54.0314 12.6428L54.0782 12.5802L53.6703 12.2966L53.7256 12.2215L53.3178 11.9379L53.2625 12.0129C52.8972 11.7627 52.4002 11.4165 52.0348 11.1662L51.9881 11.2288L51.5803 10.9451L51.627 10.8826L51.2192 10.5989L51.3254 10.4488L50.9176 10.1651L50.8114 10.3153L50.4036 10.0316L50.4588 9.95656L50.0509 9.67292L49.9957 9.74801C49.7918 9.60619 49.3798 9.32255 49.1759 9.1849L49.0782 9.32255L48.6703 9.03891L48.8233 8.82618L48.4154 8.54254L48.3602 8.61762C48.1563 8.4758 47.7443 8.19216 47.5404 8.05451L47.4936 8.11708L47.0858 7.83344L47.1325 7.77087L46.7247 7.48724L46.7799 7.41216L46.3721 7.12852L46.3169 7.2036C45.9473 6.94916 45.4375 6.59878 45.0679 6.34017L45.0212 6.40273L44.5879 6.10658L44.6346 6.04401L44.2014 5.74786L44.3076 5.5977L43.8743 5.30155L43.7681 5.45171L43.3347 5.15556L43.39 5.08048L42.9567 4.78432L42.9014 4.8594C42.6635 4.69673 42.1665 4.35052 41.9244 4.18368L41.9031 4.37138L41.6907 4.22539L41.7205 4.05437C41.4401 4.00849 40.8751 3.91672 40.5947 3.87084L40.5777 3.9626L40.017 3.87084L40.034 3.77907L39.4733 3.68731L39.486 3.61223L38.921 3.52046L38.9082 3.59554C38.6278 3.54966 38.0628 3.45789 37.7825 3.41201L37.7655 3.50378L37.2047 3.41201L37.2473 3.15757L36.6865 3.0658L36.6568 3.22848C36.3764 3.1826 35.8114 3.09083 35.531 3.04495L35.514 3.13671L34.9533 3.04495L34.9702 2.95318L34.4095 2.86142L34.3798 3.04078L33.819 2.94901L33.8488 2.76965L33.288 2.67789L33.3008 2.60281L32.74 2.51104L32.7273 2.58612C32.226 2.5027 31.542 2.39008 31.0408 2.31082L31.0238 2.40259L30.463 2.31082L30.48 2.21906L29.9193 2.12729L29.932 2.05221L29.3713 1.96045L29.3585 2.03553C29.0782 1.98964 28.5131 1.89788 28.2328 1.852L28.2158 1.94376L27.655 1.852L27.6975 1.59756L27.1368 1.50579L27.1071 1.66846C26.8267 1.62258 26.2617 1.53082 25.9813 1.48493L25.9643 1.5767L25.3993 1.48493L25.4163 1.39317L24.8556 1.3014L24.8258 1.48076L24.2651 1.389L24.2948 1.20964L23.7298 1.11787L23.7426 1.04279L23.1818 0.951025L23.1691 1.02611C22.6933 0.946854 22.0433 0.842575 21.5675 0.763323L21.5505 0.855088L21.0323 0.771665L21.0493 0.679899L20.531 0.596476L20.5437 0.521395L20.0255 0.437972L20.0127 0.513053C19.7536 0.471341 19.2311 0.383747 18.9719 0.342035L18.955 0.433801L18.4112 0.346206L18.4197 0.0834232L17.9014 0L17.6593 0.458828L17.7995 0.554765C17.6763 0.792521 17.4256 1.2722 17.3025 1.50579L17.3874 1.5475L17.1453 2.00633L17.0603 1.96462L16.8182 2.42345L16.9838 2.50687L16.7417 2.9657L16.576 2.88227L16.3339 3.3411L16.2659 3.30773L16.0238 3.76656L16.0918 3.79993C15.8836 4.20036 15.599 4.74678 15.3866 5.14304L15.4715 5.18475L15.2421 5.6269L15.1572 5.58519L14.9278 6.02733L14.8598 5.99396L14.6304 6.4361L14.6984 6.46947C14.5837 6.69054 14.35 7.13269 14.2353 7.35376L14.3203 7.39547L14.0909 7.83761L13.8573 7.72082L13.6279 8.16296L13.7765 8.23804C13.6618 8.45912 13.4282 8.90126 13.3135 9.12233L13.3985 9.16404L13.1691 9.60619L13.0841 9.56447L12.8547 10.0066L13.0204 10.09L12.791 10.5322L12.6253 10.4488L12.3959 10.8909L12.328 10.8575L12.0985 11.2997L12.1665 11.3372C11.9626 11.7293 11.678 12.2674 11.4741 12.6636L11.5591 12.7054L11.3296 13.1475L11.2447 13.1058L11.0153 13.5479L10.9473 13.5146L10.7179 13.9567L10.7859 13.9901C10.6712 14.2111 10.4375 14.6533 10.3228 14.8744L10.4078 14.9161L10.1784 15.3582L9.94476 15.2414L9.71537 15.6836L9.86405 15.7586C9.74935 15.9797 9.51572 16.4219 9.40102 16.6429L9.48599 16.6846L9.25657 17.1268L9.17163 17.0851L8.78504 17.5231L8.95072 17.6065L8.72134 18.0486L8.55565 17.9652L8.32624 18.4073L8.25828 18.374L8.0289 18.8161L8.09685 18.8495C7.89295 19.2416 7.60832 19.7796 7.40441 20.1759L7.48938 20.2176L7.25999 20.6598L7.17503 20.6181L6.94561 21.0602L6.87766 21.0268L6.64827 21.469L6.71623 21.5065C6.60153 21.7276 6.36787 22.1697 6.25317 22.3908L6.33814 22.4325L6.10875 22.8747L5.87511 22.7579L5.6457 23.2L5.7944 23.2751C5.6797 23.4962 5.44604 23.9383 5.33135 24.1594L5.41631 24.2011L5.18692 24.6432L5.10196 24.6015L4.85556 25.0311L5.02124 25.1146L4.79186 25.5567L4.62617 25.4733L4.39676 25.9154L4.3288 25.8821L4.09941 26.3242L4.16737 26.3576C3.96346 26.7497 3.67884 27.2877 3.47493 27.684L3.5599 27.7257L3.33051 28.1679L3.24555 28.1261L3.01613 28.5683L2.94817 28.5349L2.71879 28.9771L2.78674 29.0104C2.67205 29.2315 2.43839 29.6736 2.32369 29.8947L2.40866 29.9364L2.17927 30.3786L1.94563 30.2618L1.69924 30.6914L1.84791 30.7665C1.73321 30.9876 1.49958 31.4297 1.38488 31.6508L1.46985 31.6925L1.24043 32.1346L1.15547 32.0929L0.92608 32.5351L1.09176 32.6185L0.862374 33.0606L0.696693 32.9772L0.467279 33.4193L0.399321 33.386L0.169934 33.8281L0.237892 33.8657L0 34.3036L0.152925 34.3829C0.152925 34.3871 0.11045 34.4872 0.106202 34.4955ZM18.7638 1.16375L18.7426 1.19712L18.9507 1.33894L18.9719 1.30557C19.0739 1.37648 19.2821 1.52247 19.3883 1.59338L19.4138 1.55584L19.6219 1.69766L19.5455 1.80194L19.7536 1.94376L19.8003 1.87702C19.9023 1.94793 20.1105 2.09392 20.2167 2.16483L20.2421 2.12729L20.4503 2.26911L20.4248 2.30665L20.633 2.44847L20.6882 2.37339L20.8963 2.51521L20.8411 2.59029L21.0493 2.73211L21.028 2.76548L21.2362 2.9073L21.2574 2.87393C21.4401 3.00324 21.695 3.17425 21.8819 3.30356L21.9074 3.26602L22.1156 3.40784L22.0901 3.44538L22.2982 3.5872L22.2769 3.62057L22.4852 3.76239L22.5064 3.72902C22.6083 3.79993 22.8165 3.94592 22.9227 4.01683L22.9482 3.97929L23.1563 4.12111L23.0798 4.22539L23.288 4.36721L23.3348 4.30047C23.4367 4.37138 23.6449 4.51737 23.7511 4.58828L23.7765 4.55074L23.9847 4.69256L23.9592 4.7301L24.1674 4.87192L24.2226 4.79684L24.4308 4.93866L24.3755 5.01374L24.5837 5.15556L24.5624 5.18893L24.7706 5.33075L24.7918 5.29738C24.9745 5.42668 25.2294 5.5977 25.4163 5.72701L25.4418 5.68947L25.65 5.83128L25.6244 5.86882L25.8326 6.01064L25.8114 6.04401L26.0195 6.18583L26.0408 6.15246C26.1428 6.22337 26.3509 6.36936 26.4571 6.44027L26.4826 6.40273L26.6907 6.54455L26.6143 6.64883L26.8224 6.79065L26.8692 6.72391C26.9711 6.79482 27.1793 6.94081 27.2855 7.01172L27.311 6.97418L27.5191 7.116L27.4936 7.15354L27.7018 7.29536L27.757 7.22028L27.9651 7.3621L27.9099 7.43718L28.1181 7.579L28.0969 7.61237L28.305 7.75419L28.3263 7.72082C28.5089 7.84596 28.7638 8.02114 28.9507 8.15045L28.9762 8.11291L29.1843 8.25473L29.1589 8.29227L29.367 8.43409L29.3458 8.46746L29.5539 8.60928L29.5752 8.57591C29.6771 8.64682 29.8853 8.79281 29.9915 8.86372L30.017 8.82618L30.2252 8.968L30.1487 9.07228L30.3568 9.2141L30.4035 9.14736C30.5055 9.21827 30.7137 9.36426 30.8199 9.43517L30.8454 9.39763L31.0535 9.53945L31.028 9.57699L31.2362 9.71881L31.2914 9.64373L31.4996 9.78555L31.4444 9.86063L31.6525 10.0024L31.6312 10.0358L31.8394 10.1776L31.8607 10.1443C32.0433 10.2694 32.2982 10.4446 32.4851 10.5739L32.5106 10.5364L32.7188 10.6782L32.6933 10.7157L32.9014 10.8575L32.8802 10.8909L33.0884 11.0327L33.1096 10.9994C33.2115 11.0703 33.4197 11.2163 33.5259 11.2872L33.5514 11.2496L33.7595 11.3914L33.6831 11.4957L33.8913 11.6375L33.938 11.5708C34.0399 11.6417 34.2481 11.7877 34.3543 11.8586L34.3798 11.8211L34.5879 11.9629L34.5624 12.0004L34.7706 12.1423L34.8258 12.0672L35.034 12.209L34.9787 12.2841L35.1869 12.4259L35.1657 12.4593L35.3738 12.6011L35.395 12.5677C35.5777 12.697 35.8326 12.868 36.0196 12.9973L36.045 12.9598L36.2532 13.1016L36.2277 13.1392L36.4359 13.281L36.4146 13.3143L36.5548 13.4103C36.4529 13.6063 36.2192 14.0526 36.113 14.2529L36.181 14.2862L35.9133 14.7993L35.8454 14.7659L35.5777 15.279L35.4928 15.2373L35.2252 15.7503L35.3101 15.792C35.0722 16.2467 34.7451 16.8723 34.5072 17.327L34.5752 17.3604L34.3076 17.8734L34.2396 17.8401L33.9719 18.3531L33.8063 18.2697L33.5386 18.7827L33.7043 18.8662L33.4367 19.3792L33.3517 19.3375L33.0841 19.8506L33.169 19.8923C33.0374 20.1467 32.7655 20.6598 32.6338 20.9142L32.7825 20.9893L32.5149 21.5023L32.2812 21.3855L32.0136 21.8986L32.0986 21.9403C31.9669 22.1948 31.695 22.7078 31.5633 22.9622L31.6312 22.9956L31.3636 23.5087L31.2957 23.4753L31.028 23.9884L30.9431 23.9466L30.6754 24.4597L30.7604 24.5014C30.5225 24.9561 30.1954 25.5817 29.9575 26.0364L30.0255 26.0698L29.7579 26.5828L29.6899 26.5494L29.4223 27.0625L29.2566 26.9791L28.9889 27.4921L29.1546 27.5756L28.887 28.0886L28.8021 28.0469L28.5344 28.5599L28.6194 28.6017C28.4877 28.8561 28.2158 29.3692 28.0841 29.6236L28.2328 29.6987L27.9651 30.2117L27.7315 30.0949L27.4639 30.608L27.5488 30.6497C27.4171 30.9041 27.1453 31.4172 27.0136 31.6716L27.0816 31.705L26.8139 32.2181L26.7459 32.1847L26.4783 32.6977L26.3934 32.656L26.1257 33.1691L26.2107 33.2108C25.9813 33.6488 25.6627 34.2536 25.4333 34.6957L25.5013 34.7291L25.2591 35.1879L25.1912 35.1546L24.949 35.6134L24.7833 35.53L24.5412 35.9888L24.7069 36.0722L24.4647 36.531L24.3798 36.4893L24.1376 36.9482L24.2226 36.9899C24.0952 37.2318 23.8402 37.7198 23.7128 37.9617C23.4877 37.9242 22.9949 37.845 22.7655 37.8074L22.7485 37.8992L22.1878 37.8074L22.2048 37.7156L21.644 37.6239L21.6567 37.5488L21.096 37.457L21.0833 37.5321C20.8029 37.4862 20.2379 37.3945 19.9575 37.3486L19.9405 37.4403L19.3798 37.3486L19.4222 37.0941L18.8615 37.0024L18.8318 37.1651C18.5514 37.1192 17.9864 37.0274 17.706 36.9815L17.689 37.0733L17.1283 36.9815L17.1453 36.8898L16.5845 36.798L16.5548 36.9774L15.9941 36.8856L16.0238 36.7062L15.4588 36.6145L15.4715 36.5394L14.9108 36.4476L14.898 36.5227C14.3968 36.4393 13.7128 36.3267 13.2115 36.2474L13.1946 36.3392L12.6338 36.2474L12.6508 36.1556L12.0901 36.0639L12.1028 35.9888L11.542 35.897L11.5293 35.9721C11.2489 35.9262 10.6839 35.8345 10.4036 35.7886L10.3866 35.8803L9.82583 35.7886L9.8683 35.5341L9.30755 35.4424L9.27783 35.605C8.99746 35.5592 8.43246 35.4674 8.15208 35.4215L8.1351 35.5133L7.57435 35.4215L7.59133 35.3297L7.03058 35.238L7.00084 35.4173L6.44009 35.3256L6.46983 35.1462L5.90908 35.0544L5.92184 34.9794L5.35683 34.8876L5.3441 34.9627C4.86832 34.8834 4.21835 34.7791 3.74256 34.6999L3.72558 34.7917L3.2073 34.7082L3.22431 34.6165L2.70603 34.5331L2.71879 34.458L2.12404 34.362L2.1283 34.4413C1.79695 34.3871 1.05777 34.2661 0.734911 34.2119L0.709423 34.2202L0.777407 34.0867L0.709423 34.0534L0.938837 33.6112L1.00679 33.6446L1.23618 33.2024L1.40186 33.2859L1.63128 32.8437L1.4656 32.7603L1.69498 32.3182L1.77995 32.3599L2.00934 31.9177L1.9244 31.876C2.03909 31.655 2.27272 31.2128 2.38742 30.9917L2.23875 30.9167L2.46814 30.4745L2.70178 30.5913L2.93119 30.1492L2.84622 30.1074C2.96092 29.8864 3.19455 29.4442 3.30925 29.2232L3.24129 29.1898L3.47068 28.7477L3.53866 28.781L3.76805 28.3389L3.85302 28.3806L4.08241 27.9384L3.99744 27.8967C4.20135 27.5046 4.48597 26.9666 4.68988 26.5703L4.62192 26.5369L4.85131 26.0948L4.91929 26.1282L5.14868 25.686L5.31436 25.7694L5.54375 25.3273L5.37807 25.2439L5.60748 24.8017L5.69245 24.8434L5.92184 24.4013L5.83687 24.3596C5.95157 24.1385 6.18522 23.6964 6.29992 23.4753L6.15122 23.4002L6.38064 22.9581L6.61428 23.0749L6.84366 22.6327L6.7587 22.591C6.87339 22.3699 7.10705 21.9278 7.22175 21.7067L7.15379 21.6734L7.38318 21.2312L7.45114 21.2646L7.68055 20.8224L7.76552 20.8642L7.9949 20.422L7.90994 20.3803C8.11385 19.9882 8.39847 19.4501 8.60238 19.0539L8.53442 19.0205L8.76381 18.5784L8.83177 18.6117L9.06118 18.1696L9.22683 18.253L9.45625 17.8109L9.29057 17.7274L9.51995 17.2853L9.60492 17.327L9.83433 16.8849L9.74937 16.8432C9.86407 16.6221 10.0977 16.1799 10.2124 15.9589L10.0637 15.8838L10.2931 15.4416L10.5268 15.5584L10.7562 15.1163L10.6712 15.0746C10.7859 14.8535 11.0195 14.4114 11.1342 14.1903L11.0663 14.1569L11.2957 13.7148L11.3636 13.7481L11.593 13.306L11.678 13.3477L11.9074 12.9056L11.8224 12.8639C12.0263 12.4718 12.311 11.9337 12.5149 11.5374L12.4469 11.5041L12.6763 11.0619L12.7443 11.0953L12.9737 10.6531L13.1393 10.7366L13.3687 10.2944L13.2031 10.211L13.4325 9.76886L13.5174 9.81057L13.7468 9.36843L13.6618 9.32672C13.7765 9.10565 14.0102 8.6635 14.1249 8.44243L13.9762 8.36735L14.2056 7.92521L14.4392 8.042L14.6687 7.59986L14.5837 7.55815C14.6984 7.33707 14.932 6.89493 15.0467 6.67386L14.9788 6.63632L15.2081 6.19418L15.2761 6.22754L15.5055 5.7854L15.5905 5.82711L15.8199 5.38497L15.7349 5.34326C15.9431 4.94283 16.2277 4.40058 16.4401 4.00014L16.3721 3.96678L16.6143 3.50795L16.6822 3.54132L16.9244 3.08249L17.09 3.16591L17.3322 2.70708L17.1665 2.62366L17.4087 2.16483L17.4936 2.20654L17.7358 1.74772L17.6508 1.70601C17.7655 1.48493 18.0034 1.03445 18.1181 0.813377L17.9779 0.71744L18.0374 0.60899C18.0969 0.650701 18.2201 0.734124 18.2795 0.775836V0.830061C18.3687 0.838404 18.5429 0.871773 18.6024 0.942683L18.5769 0.980223L18.7638 1.16375ZM25.943 39.3507L25.5098 39.0546L25.463 39.1172C25.2464 38.9712 24.8131 38.6708 24.6007 38.5207L24.5455 38.5958L24.1546 38.3246L24.367 38.1536L24.1971 38.1161C24.3075 37.9034 24.5327 37.4737 24.6432 37.261L24.5582 37.2193L24.8003 36.7605L24.8853 36.8022L25.1274 36.3433L24.9618 36.2599L25.2039 35.8011L25.3696 35.8845L25.6117 35.4257L25.6797 35.459L25.9218 35.0002L25.8539 34.9669C26.0833 34.5289 26.4018 33.9241 26.6312 33.4819L26.5463 33.4402L26.8139 32.9272L26.8989 32.9689L27.1665 32.4558L27.2345 32.4892L27.5021 31.9761L27.4341 31.9428C27.5658 31.6883 27.8377 31.1753 27.9694 30.9208L27.8845 30.8791L28.1521 30.3661L28.3857 30.4829L28.6533 29.9698L28.5047 29.8947C28.6363 29.6403 28.9082 29.1272 29.0399 28.8728L28.955 28.8311L29.2226 28.318L29.3076 28.3597L29.5752 27.8467L29.4095 27.7633L29.6771 27.2502L29.8428 27.3336L30.1104 26.8206L30.1784 26.8539L30.4461 26.3409L30.3781 26.3075C30.616 25.8529 30.9431 25.2272 31.181 24.7725L31.096 24.7308L31.3636 24.2178L31.4486 24.2595L31.7162 23.7464L31.7842 23.7798L32.0518 23.2667L31.9839 23.2292C32.1156 22.9748 32.3874 22.4617 32.5191 22.2073L32.4341 22.1656L32.7018 21.6525L32.9354 21.7693L33.2031 21.2562L33.0544 21.1812C33.1861 20.9267 33.4579 20.4137 33.5896 20.1592L33.5047 20.1175L33.7723 19.6045L33.8572 19.6462L34.1249 19.1331L33.9592 19.0497L34.2268 18.5366L34.3925 18.6201L34.6601 18.107L34.7281 18.1404L34.9958 17.6273L34.9278 17.594C35.1657 17.1393 35.4928 16.5136 35.7307 16.059L35.6457 16.0173L35.9133 15.5042L35.9983 15.5459L36.2659 15.0329L36.3339 15.0662L36.6015 14.5532L36.5336 14.5198C36.6313 14.3321 36.8649 13.89 36.9584 13.7106L37.0093 13.744L37.0349 13.7064L37.243 13.8483L37.1665 13.9525L37.3747 14.0944L37.4214 14.0276C37.5233 14.0985 37.7315 14.2445 37.8377 14.3154L37.8632 14.2779L38.0714 14.4197L38.0459 14.4572L38.2541 14.5991L38.3093 14.524L38.5174 14.6658L38.4622 14.7409L38.6704 14.8827L38.6491 14.9161L38.8572 15.0579L38.8785 15.0245C39.0612 15.1538 39.316 15.3248 39.503 15.4542L39.5285 15.4166L39.7366 15.5584L39.7111 15.596L39.9193 15.7378L39.8981 15.7712L40.1062 15.913L40.1274 15.8796C40.2294 15.9505 40.4375 16.0965 40.5437 16.1674L40.5692 16.1299L40.7774 16.2717L40.701 16.376L40.9091 16.5178L40.9558 16.4511C41.0578 16.522 41.2659 16.668 41.3721 16.7389L41.3976 16.7013L41.6057 16.8432L41.5803 16.8807L41.7884 17.0225L41.8437 16.9474L42.0518 17.0892L41.9966 17.1643L42.2047 17.3062L42.1835 17.3395L42.3917 17.4813L42.4129 17.448C42.5956 17.5731 42.8505 17.7483 43.0374 17.8776L43.0629 17.8401L43.271 17.9819L43.2456 18.0194L43.4537 18.1612L43.4324 18.1946L43.6406 18.3364L43.6619 18.3031C43.7638 18.374 43.972 18.52 44.0782 18.5909L44.1036 18.5533L44.3118 18.6951L44.2353 18.7994L44.4435 18.9412L44.4902 18.8745C44.5922 18.9454 44.8003 19.0914 44.9065 19.1623L44.932 19.1248L45.1402 19.2666L45.1147 19.3041L45.3228 19.446L45.3738 19.3709L45.582 19.5127L45.5268 19.5878L45.7349 19.7296L45.7137 19.763L45.9218 19.9048L45.9431 19.8714L46.0195 19.9256L45.8921 20.1717L45.9346 20.1926C45.8751 20.3052 45.7519 20.5388 45.6925 20.6514L45.7264 20.6681L45.6075 20.8975L45.5735 20.8808L45.4545 21.1102L45.4121 21.0894L45.2931 21.3188L45.3356 21.3397C45.2294 21.5441 45.0807 21.8277 44.9702 22.0362L45.0042 22.0529L44.8811 22.2865L44.847 22.2698L44.7239 22.5034L44.6431 22.4617L44.52 22.6953L44.6007 22.737L44.4775 22.9706L44.435 22.9497L44.3118 23.1833L44.3543 23.2042C44.2948 23.321 44.1673 23.5587 44.1079 23.6755L44.1844 23.7131L44.0612 23.9466L43.9422 23.8882L43.819 24.1218L43.8615 24.1427C43.802 24.2595 43.6746 24.4972 43.6151 24.614L43.6491 24.6307L43.5259 24.8643L43.4919 24.8476L43.3687 25.0812L43.3262 25.0603L43.203 25.2939L43.2456 25.3148C43.1351 25.5233 42.9864 25.8111 42.876 26.0197L42.9099 26.0364L42.7867 26.27L42.7528 26.2533L42.6296 26.4869L42.5489 26.4452L42.4257 26.6788L42.5064 26.7205L42.3832 26.9541L42.3407 26.9332L42.2175 27.1668L42.26 27.1876C42.2005 27.3044 42.0731 27.5422 42.0136 27.659L42.09 27.6965L41.9669 27.9301L41.8479 27.8717L41.7247 28.1053L41.7672 28.1261C41.7077 28.2429 41.5803 28.4807 41.5208 28.5975L41.5548 28.6142L41.4316 28.8478L41.3976 28.8311L41.2744 29.0647L41.232 29.0438L41.1088 29.2774L41.1512 29.2982C41.0408 29.5068 40.8921 29.7946 40.7816 30.0032L40.8156 30.0199L40.6924 30.2534L40.6584 30.2368L40.5353 30.4703L40.4545 30.4286L40.3313 30.6622L40.4121 30.7039L40.2888 30.9375L40.2464 30.9167L40.1232 31.1502L40.1657 31.1711C40.1062 31.2879 39.9787 31.5256 39.9193 31.6424L39.9958 31.68L39.8725 31.9136L39.7536 31.8552L39.6304 32.0887L39.6729 32.1096C39.6134 32.2264 39.486 32.4642 39.4265 32.5809L39.4605 32.5976L39.3373 32.8312L39.3033 32.8145L39.1801 33.0481L39.1376 33.0273L39.0144 33.2608L39.0569 33.2817C38.9464 33.4903 38.7978 33.7781 38.6873 33.9866L38.7213 34.0033L38.5981 34.2369L38.5642 34.2202L38.4409 34.4538L38.3603 34.4121L38.237 34.6457L38.3177 34.6874L38.1946 34.921L38.1521 34.9001L38.0289 35.1337L38.0714 35.1546C38.0119 35.2713 37.8845 35.5091 37.825 35.6259L37.9014 35.6634L37.7783 35.897L37.6593 35.8386L37.5361 36.0722L37.5786 36.0931C37.5191 36.2099 37.3917 36.4476 37.3322 36.5644L37.3662 36.5811L37.243 36.8147L37.209 36.798L37.0858 37.1275L37.0433 37.1067L36.9201 37.3402L36.9626 37.3611C36.8522 37.5697 36.7035 37.8575 36.593 38.066L36.627 38.0827L36.5038 38.3163L36.4698 38.2996L36.3467 38.5332L36.2659 38.4915L36.1427 38.7251L36.2235 38.7668L36.1002 39.0004L36.0578 38.9795L35.9346 39.2131L35.977 39.234C35.9176 39.3507 35.7901 39.5885 35.7307 39.7053L35.8071 39.7428L35.6839 39.9764L35.565 39.918L35.4418 40.1516L35.4843 40.1725C35.4248 40.2893 35.2973 40.527 35.2379 40.6438L35.2719 40.6605L35.1487 40.8941L35.1147 40.8774L34.9915 41.111L34.949 41.0901L34.8258 41.3237L34.8683 41.3446C34.7578 41.5531 34.6092 41.8409 34.4987 42.0495L34.5327 42.0662L34.4095 42.2998L34.3755 42.2831L34.2523 42.5167L34.1716 42.4749L34.0484 42.7085L34.1291 42.7502L34.006 42.9838L33.9634 42.963L33.8403 43.1966L33.8828 43.2174C33.8233 43.3342 33.6959 43.572 33.6364 43.6888L33.7128 43.7263L33.5896 43.9599L33.4707 43.9015L33.3475 44.1351L33.39 44.1559C33.3687 44.1976 33.254 44.4104 33.237 44.4479L32.9439 44.2477L32.9907 44.1851L32.5828 43.9015L32.5361 43.964C32.3322 43.8222 31.9201 43.5386 31.7162 43.4009L31.661 43.476L31.2532 43.1924L31.4061 42.9797L30.9983 42.696L30.9006 42.8337C30.6967 42.6918 30.2846 42.4082 30.0807 42.2706L30.0255 42.3456L29.6177 42.062L29.6729 41.9869L29.2651 41.7033L29.1589 41.8534L28.7511 41.5698L28.8573 41.4196L28.4494 41.136L28.4962 41.0734L28.0884 40.7898L28.0416 40.8524C27.6636 40.5937 27.1453 40.235 26.7672 39.9764L26.712 40.0515L26.2787 39.7553L26.3339 39.6803L25.9006 39.3841L25.943 39.3507ZM41.0832 4.52571L40.8963 4.88443L40.9813 4.92614C40.8623 5.15556 40.6202 5.61856 40.5013 5.84797L40.5692 5.88134L40.3271 6.34017L40.2591 6.3068L40.017 6.76562L39.932 6.72391L39.6899 7.18274L39.7748 7.22445C39.5539 7.64991 39.2481 8.23387 39.0229 8.65933L39.0909 8.6927L38.8233 9.20575L38.7553 9.17239L38.4877 9.68544L38.322 9.60201L38.0544 10.1151L38.22 10.1985L37.9524 10.7115L37.8675 10.6698L37.5998 11.1829L37.6848 11.2246C37.5531 11.479 37.2812 11.9921 37.1495 12.2465L37.2982 12.3216L37.0306 12.8347L36.7969 12.7179L36.5591 13.1684L36.5251 13.1475L36.5463 13.1141L36.3382 12.9723L36.3636 12.9348L36.1555 12.793L36.13 12.8305C35.9473 12.7012 35.6924 12.5302 35.5055 12.4009L35.4843 12.4342L35.2761 12.2924L35.2973 12.259L35.0892 12.1172L35.1444 12.0421L34.9363 11.9003L34.881 11.9754L34.6729 11.8336L34.6984 11.796L34.4902 11.6542L34.4647 11.6918C34.3628 11.6209 34.1546 11.4749 34.0484 11.404L34.0017 11.4707L33.7936 11.3289L33.87 11.2246L33.6618 11.0828L33.6364 11.1203C33.5344 11.0494 33.3262 10.9034 33.22 10.8325L33.1988 10.8659L32.9907 10.7241L33.0119 10.6907L32.8037 10.5489L32.8292 10.5113L32.6211 10.3695L32.5956 10.407C32.4129 10.2819 32.158 10.1067 31.9754 9.97742L31.9541 10.0108L31.746 9.86897L31.7672 9.8356L31.5591 9.69378L31.6143 9.6187L31.4061 9.47688L31.3509 9.55196L31.1428 9.41014L31.1682 9.3726L30.9601 9.23078L30.9346 9.26832C30.8326 9.19741 30.6244 9.05142 30.5182 8.98051L30.4715 9.04725L30.2634 8.90543L30.3399 8.80115L30.1317 8.65933L30.1062 8.69687C30.0042 8.62596 29.7961 8.47997 29.6899 8.40906L29.6686 8.44243L29.4605 8.30061L29.4817 8.26724L29.2736 8.12542L29.299 8.08788L29.0909 7.94606L29.0654 7.9836C28.8828 7.85847 28.6278 7.68328 28.4409 7.55397L28.4197 7.58734L28.2116 7.44552L28.2328 7.41216L28.0246 7.27034L28.0798 7.19525L27.8717 7.05343L27.8165 7.12852L27.6083 6.9867L27.6338 6.94916L27.4257 6.80734L27.4002 6.84488C27.2982 6.77397 27.0901 6.62798 26.9839 6.55707L26.9371 6.62381L26.729 6.48199L26.8054 6.37771L26.5973 6.23589L26.5718 6.27343C26.4699 6.20252 26.2617 6.05653 26.1555 5.98562L26.1342 6.01899L25.9261 5.87717L25.9473 5.8438L25.7391 5.70198L25.7647 5.66444L25.5565 5.52262L25.531 5.56016C25.3483 5.43085 25.0935 5.25984 24.9108 5.13053L24.8895 5.1639L24.6814 5.02208L24.7026 4.98871L24.4945 4.84689L24.5497 4.77181L24.3416 4.62999L24.2863 4.70507L24.0782 4.56325L24.1036 4.52571L23.8955 4.38389L23.87 4.42143C23.768 4.35052 23.5599 4.20453 23.4537 4.13362L23.407 4.20036L23.1988 4.05854L23.2753 3.95426L23.0671 3.81244L23.0416 3.84998C22.9397 3.77907 22.7315 3.63308 22.6253 3.56217L22.6041 3.59554L22.3959 3.45372L22.4172 3.42035L22.209 3.27853L22.2345 3.24099L22.0263 3.09917L22.0009 3.13671C21.8182 3.00741 21.5633 2.83639 21.3764 2.70708L21.3551 2.74045L21.147 2.59863L21.1682 2.56526L20.9601 2.42345L21.0153 2.34836L20.8071 2.20654L20.7519 2.28163L20.5437 2.13981L20.5692 2.10227L20.3611 1.96045L20.3356 1.99799C20.2336 1.92708 20.0255 1.78109 19.9193 1.71018L19.8726 1.77692L19.6644 1.6351L19.7409 1.53082L19.5327 1.389L19.5072 1.42654C19.4053 1.35563 19.1971 1.20964 19.0909 1.13873L19.0697 1.1721L18.8615 1.03028L18.8828 0.996908L18.7553 0.909313C19.006 0.951025 19.5072 1.03445 19.7579 1.07199L19.7706 0.996908L20.2889 1.08033L20.2761 1.15541L20.7944 1.23884L20.7774 1.3306L21.2957 1.41402L21.3127 1.32226C21.7885 1.40151 22.4384 1.50579 22.9142 1.58504L22.9269 1.50996L23.4877 1.60173L23.4749 1.67681L24.0399 1.76857L24.0102 1.94793L24.5709 2.0397L24.6007 1.86034L25.1614 1.9521L25.1444 2.04387L25.7052 2.13564L25.7222 2.04387C26.0026 2.08975 26.5675 2.18152 26.8479 2.2274L26.8777 2.06473L27.4384 2.15649L27.3959 2.41093L27.9567 2.5027L27.9736 2.41093C28.254 2.45681 28.819 2.54858 29.0994 2.59446L29.1122 2.51938L29.6729 2.61115L29.6601 2.68623L30.2209 2.77799L30.2039 2.86976L30.7647 2.96153L30.7816 2.86976C31.2829 2.95318 31.9711 3.0658 32.4724 3.14506L32.4851 3.06998L33.0459 3.16174L33.0331 3.23682L33.5939 3.32859L33.5641 3.50795L34.1249 3.59971L34.1546 3.42035L34.7154 3.51212L34.6984 3.60388L35.2591 3.69565L35.2761 3.60388C35.5565 3.64977 36.1215 3.74153 36.4018 3.78742L36.4316 3.62474L36.9923 3.71651L36.9499 3.97095L37.5106 4.06271L37.5276 3.97095C37.808 4.01683 38.373 4.10859 38.6533 4.15448L38.6661 4.0794L39.2311 4.17116L39.2183 4.24624L39.7791 4.33801L39.7621 4.42977L40.3229 4.52154L40.3398 4.42977L40.9049 4.52154L41.0832 4.52571ZM68.8105 23.467L68.802 23.5254L68.5514 23.4836L68.5599 23.4378L68.3093 23.396L68.3008 23.4419C68.1776 23.4211 67.9227 23.3794 67.7995 23.3585L67.7867 23.4419L67.5361 23.4002L67.5574 23.2709L67.3067 23.2292L67.2982 23.2751C67.175 23.2542 66.9201 23.2125 66.7969 23.1917L66.7884 23.2292L66.5378 23.1875L66.5463 23.1499L66.2957 23.1082L66.3041 23.0624L66.0535 23.0206L66.045 23.0665C65.8199 23.029 65.514 22.9789 65.2931 22.9414L65.2846 22.9789L65.034 22.9372L65.0425 22.8997L64.7918 22.858L64.8089 22.7662L64.5582 22.7245L64.5412 22.8163L64.2905 22.7745L64.299 22.7287L64.0484 22.6869L64.0399 22.7328C63.9167 22.712 63.6618 22.6703 63.5386 22.6494L63.5259 22.7328L63.2752 22.6911L63.2965 22.5618L63.0459 22.5201L63.0374 22.566C62.9142 22.5451 62.6593 22.5034 62.5361 22.4826L62.5276 22.5201L62.277 22.4784L62.2855 22.4409L62.0348 22.3991L62.0433 22.3533L61.7927 22.3115L61.7842 22.3574C61.559 22.3199 61.2532 22.2698 61.0323 22.2323L61.0238 22.2698L60.7732 22.2281L60.7816 22.1906L60.531 22.1489L60.548 22.0571L60.2973 22.0154L60.2804 22.1072L60.0298 22.0654L60.0382 22.0196L59.7876 21.9779L59.7791 22.0237C59.6559 22.0029 59.401 21.9612 59.2778 21.9403L59.2651 22.0237L59.0145 21.982L59.0357 21.8527L58.785 21.811L58.7765 21.8569C58.6533 21.836 58.3985 21.7943 58.2753 21.7735L58.2668 21.811L58.0161 21.7693L58.0246 21.7318L57.774 21.69L57.7825 21.6442L57.5319 21.6024L57.5234 21.6483C57.2982 21.6108 56.9924 21.5607 56.7715 21.5232L56.7629 21.5607L56.5123 21.519L56.5208 21.4815L56.2702 21.4398L56.2872 21.348L56.0365 21.3063L56.0195 21.3981L55.7689 21.3563L55.7774 21.3105L55.5267 21.2688L55.5182 21.3146C55.395 21.2938 55.1402 21.2521 55.017 21.2312L55.0042 21.3146L54.7536 21.2729L54.7748 21.1436L54.5242 21.1019L54.5157 21.1478C54.3925 21.1269 54.1376 21.0852 54.0144 21.0644L54.0059 21.1019L53.7553 21.0602L53.7638 21.0227L53.5131 20.9809L53.5217 20.9351L53.271 20.8934L53.2625 20.9392C53.0374 20.9017 52.7315 20.8516 52.5106 20.8141L52.5021 20.8516L52.2515 20.8099L52.26 20.7724L52.0094 20.7307L52.0263 20.6389L51.7757 20.5972L51.7587 20.689L51.5081 20.6473L51.5166 20.6014L51.2659 20.5597L51.2574 20.6055C51.1342 20.5847 50.8793 20.543 50.7561 20.5221L50.7434 20.6055L50.4928 20.5638L50.514 20.4345L50.2634 20.3928L50.2549 20.4387C50.1317 20.4178 49.8768 20.3761 49.7536 20.3553L49.7451 20.3928L49.4945 20.3511L49.503 20.3136L49.2523 20.2718L49.2608 20.226L49.0102 20.1843L49.0017 20.2301C48.7765 20.1926 48.4665 20.1425 48.2413 20.105L48.2328 20.1425L47.9737 20.1008L47.9821 20.0633L47.723 20.0216L47.74 19.9298L47.4809 19.8881L47.4639 19.9799L47.2048 19.9382L47.2133 19.8923L46.9541 19.8506L46.9456 19.8964C46.8139 19.8756 46.542 19.8297 46.4104 19.8088L46.4061 19.8923L46.2999 19.8756L46.3466 19.813L46.1385 19.6712L46.1173 19.7046L45.9091 19.5627L45.9303 19.5294L45.7222 19.3876L45.7774 19.3125L45.5692 19.1707L45.514 19.2457L45.3059 19.1039L45.3313 19.0664L45.1232 18.9246L45.0977 18.9621C44.9958 18.8912 44.7876 18.7452 44.6814 18.6743L44.6346 18.741L44.4265 18.5992L44.503 18.4949L44.2948 18.3531L44.2693 18.3907C44.1674 18.3197 43.9592 18.1738 43.853 18.1028L43.8318 18.1362L43.6236 17.9944L43.6448 17.961L43.4367 17.8192L43.4622 17.7817L43.254 17.6398L43.2285 17.6774C43.0459 17.5481 42.791 17.3771 42.6041 17.2478L42.5828 17.2811L42.3747 17.1393L42.3959 17.1059L42.1878 16.9641L42.243 16.889L42.0348 16.7472L41.9796 16.8223L41.7714 16.6805L41.7969 16.6429L41.5888 16.5011L41.5633 16.5387C41.4613 16.4677 41.2532 16.3218 41.147 16.2508L41.1003 16.3176L40.8921 16.1758L40.9685 16.0715L40.7604 15.9297L40.7349 15.9672C40.633 15.8963 40.4248 15.7503 40.3186 15.6794L40.2974 15.7128L40.0892 15.5709L40.1105 15.5376L39.9023 15.3958L39.9278 15.3582L39.7196 15.2164L39.6941 15.2539C39.5114 15.1246 39.2566 14.9536 39.0739 14.8243L39.0527 14.8577L38.8445 14.7159L38.8657 14.6825L38.6576 14.5407L38.7086 14.4656L38.5004 14.3238L38.4452 14.3988L38.237 14.257L38.2625 14.2195L38.0544 14.0777L38.0289 14.1152C37.9269 14.0443 37.7188 13.8983 37.6126 13.8274L37.5659 13.8941L37.3577 13.7523L37.4341 13.648L37.226 13.5062L37.2005 13.5438L37.0433 13.4353L37.294 12.9556L37.5276 13.0724L37.7952 12.5594L37.6466 12.4843C37.7782 12.2298 38.0501 11.7168 38.1818 11.4624L38.0969 11.4206L38.3645 10.9076L38.4494 10.9493L38.7171 10.4362L38.5514 10.3528L38.819 9.83977L38.9847 9.92319L39.2523 9.41014L39.3203 9.44351L39.5879 8.93046L39.52 8.89709C39.7409 8.47163 40.0467 7.88767 40.2719 7.46221L40.1869 7.4205L40.4291 6.96167L40.514 7.00338L40.7561 6.54455L40.8241 6.57792L41.0663 6.11909L40.9983 6.08573C41.1172 5.85631 41.3594 5.39331 41.4783 5.1639L41.3933 5.12219L41.5888 4.74678L41.7587 4.99288L41.7799 4.80518C41.9584 4.92614 42.3407 5.1931 42.5191 5.31406L42.5743 5.23898L43.0076 5.53513L42.9524 5.61021L43.3857 5.90637L43.4919 5.7562L43.9252 6.05236L43.819 6.20252L44.2523 6.49867L44.2056 6.56124L44.6389 6.85739L44.6856 6.79482C45.0552 7.04926 45.565 7.39964 45.9346 7.65825L45.9898 7.58317L46.3976 7.86681L46.3424 7.94189L46.7502 8.22553L46.7035 8.2881L47.1113 8.57174L47.158 8.50917C47.3619 8.65099 47.774 8.93463 47.9779 9.07228L48.0331 8.9972L48.441 9.28084L48.288 9.49356L48.6958 9.7772L48.7935 9.63956C48.9974 9.78138 49.4095 10.065 49.6134 10.2027L49.6687 10.1276L50.0765 10.4112L50.0212 10.4863L50.429 10.7699L50.5352 10.6198L50.9431 10.9034L50.8369 11.0536L51.2447 11.3372L51.198 11.3998L51.6058 11.6834L51.6525 11.6209C52.0178 11.8711 52.5149 12.2173 52.8802 12.4676L52.9354 12.3925L53.3432 12.6762L53.288 12.7512L53.6958 13.0349L53.6491 13.0974L54.0569 13.3811L54.1036 13.3185C54.3075 13.4603 54.7196 13.744 54.9235 13.8816L54.9788 13.8065L55.3866 14.0902L55.2336 14.3029L55.6414 14.5866L55.7391 14.4489C55.9431 14.5907 56.3551 14.8744 56.559 15.012L56.6143 14.9369L57.0221 15.2206L56.9668 15.2957L57.3747 15.5793L57.4809 15.4291L57.8887 15.7128L57.7825 15.8629L58.1903 16.1466L58.1436 16.2091L58.5514 16.4928L58.5981 16.4302C58.9634 16.6805 59.4605 17.0267 59.8258 17.277L59.881 17.2019L60.2889 17.4855L60.2337 17.5606L60.6415 17.8442L60.5947 17.9068L61.0025 18.1904L61.0493 18.1279C61.2532 18.2697 61.6652 18.5533 61.8692 18.691L61.9244 18.6159L62.3322 18.8995L62.1793 19.1123L62.5871 19.3959L62.6848 19.2583C62.8887 19.4001 63.3007 19.6837 63.5047 19.8214L63.5599 19.7463L63.9677 20.0299L63.9125 20.105L64.3203 20.3886L64.4265 20.2385L64.8343 20.5221L64.7281 20.6723L65.1359 20.9559L65.0892 21.0185L65.497 21.3021L65.5438 21.2396C65.9218 21.4982 66.4401 21.8569 66.8182 22.1155L66.8734 22.0404L67.3067 22.3366L67.2515 22.4117L67.6848 22.7078L67.638 22.7704L68.0714 23.0665L68.1181 23.004L68.5514 23.3001L68.8105 23.467ZM69.1376 23.5796L69.0527 23.5671L69.0611 23.5254L69.1376 23.5796ZM51.0026 57.4119L51.011 57.366L51.096 57.4244L51.0026 57.4119ZM50.7349 57.2867L50.7859 57.2117L50.9431 57.3201L50.7349 57.2867ZM50.4928 57.2492L50.5098 57.1366L50.7264 57.2867L50.4928 57.2492ZM50.2294 56.1939L50.1232 56.3441L49.6899 56.0479L49.7961 55.8977L49.3628 55.6016L49.4095 55.539L48.9762 55.2429L48.9295 55.3054C48.5599 55.051 48.0501 54.7006 47.6805 54.442L47.6253 54.5171L47.2175 54.2334L47.2727 54.1584L46.8649 53.8747L46.9117 53.8122L46.5038 53.5285L46.4571 53.5911C46.2532 53.4493 45.8411 53.1656 45.6372 53.028L45.582 53.1031L45.1741 52.8194L45.3271 52.6067L44.9193 52.3231L44.8216 52.4607C44.6177 52.3189 44.2056 52.0352 44.0017 51.8976L43.9464 51.9727L43.5386 51.689L43.5939 51.614L43.1861 51.3303L43.0799 51.4805L42.672 51.1968L42.7782 51.0467L42.3704 50.763L42.4171 50.7005L42.0093 50.4168L41.9626 50.4794C41.5973 50.2291 41.1003 49.8829 40.7349 49.6327L40.6797 49.7077L40.2719 49.4241L40.3271 49.349L39.9193 49.0654L39.966 49.0028L39.5582 48.7192L39.5115 48.7817C39.3076 48.6399 38.8955 48.3563 38.6916 48.2186L38.6363 48.2937L38.2285 48.0101L38.3815 47.7973L37.9737 47.5137L37.876 47.6514C37.6721 47.5095 37.26 47.2259 37.0561 47.0882L37.0008 47.1633L36.593 46.8797L36.6483 46.8046L36.2405 46.521L36.1343 46.6711L35.7264 46.3875L35.8326 46.2373L35.4248 45.9537L35.4715 45.8911L35.0637 45.6075L35.017 45.6701C34.6517 45.4198 34.1546 45.0736 33.7893 44.8233L33.7341 44.8984L33.4367 44.694C33.4877 44.5939 33.5981 44.3853 33.6491 44.2852L33.6066 44.2644L33.7298 44.0308L33.8488 44.0892L33.9719 43.8556L33.8955 43.8181C33.955 43.7013 34.0824 43.4635 34.1419 43.3467L34.0994 43.3259L34.2226 43.0923L34.2651 43.1131L34.3882 42.8795L34.3076 42.8378L34.4308 42.6042L34.5115 42.646L34.6347 42.4124L34.6686 42.4291L34.7918 42.1955L34.7578 42.1788C34.8683 41.9702 35.017 41.6824 35.1274 41.4739L35.0849 41.453L35.2082 41.2194L35.2506 41.2403L35.3738 41.0067L35.4078 41.0234L35.531 40.7898L35.497 40.7731C35.5565 40.6563 35.6839 40.4186 35.7434 40.3018L35.7009 40.2809L35.8241 40.0473L35.9431 40.1057L36.0663 39.8721L35.9898 39.8346C36.0493 39.7178 36.1767 39.4801 36.2362 39.3633L36.1937 39.3424L36.3169 39.1088L36.3594 39.1297L36.4826 38.8961L36.4018 38.8544L36.5251 38.6208L36.6058 38.6625L36.729 38.4289L36.763 38.4456L36.8861 38.212L36.8522 38.1953C36.9626 37.9868 37.1113 37.699 37.2217 37.4904L37.1793 37.4695L37.3025 37.236L37.345 37.2568L37.4681 37.0232L37.5021 37.0399L37.6253 36.8063L37.5913 36.7896C37.6508 36.6729 37.7782 36.4351 37.8377 36.3183L37.7952 36.2975L37.9184 36.0639L38.0374 36.1223L38.1606 35.8887L38.0841 35.8511C38.1436 35.7343 38.271 35.4966 38.3305 35.3798L38.288 35.3589L38.4112 35.1254L38.4537 35.1462L38.5769 34.9126L38.4962 34.8709L38.6194 34.6373L38.7001 34.679L38.8233 34.4455L38.8572 34.4621L38.9805 34.2286L38.9465 34.2119C39.0569 34.0033 39.2056 33.7155 39.3161 33.5069L39.2736 33.4861L39.3968 33.2525L39.4392 33.2734L39.5624 33.0398L39.5964 33.0565L39.7196 32.8229L39.6857 32.8062C39.7451 32.6894 39.8726 32.4516 39.932 32.3349L39.8896 32.314L40.0127 32.0804L40.1317 32.1388L40.2549 31.9052L40.1784 31.8677C40.2379 31.7509 40.3653 31.5131 40.4248 31.3963L40.3823 31.3755L40.5055 31.1419L40.548 31.1628L40.6712 30.9292L40.5905 30.8875L40.7137 30.6539L40.7944 30.6956L40.9176 30.462L40.9516 30.4787L41.0747 30.2451L41.0408 30.2284C41.1512 30.0199 41.2999 29.732 41.4104 29.5235L41.3679 29.5026L41.4911 29.269L41.5336 29.2899L41.6568 29.0563L41.6907 29.073L41.8139 28.8394L41.7799 28.8227C41.8394 28.7059 41.9669 28.4682 42.0264 28.3514L41.9838 28.3305L42.107 28.0969L42.226 28.1553L42.3492 27.9218L42.2727 27.8842C42.3322 27.7674 42.4596 27.5297 42.5191 27.4129L42.4766 27.392L42.5998 27.1584L42.6423 27.1793L42.7655 26.9457L42.6848 26.904L42.808 26.6704L42.8887 26.7121L43.0119 26.4785L43.0459 26.4952L43.1691 26.2616L43.1351 26.2449C43.2455 26.0364 43.3942 25.7486 43.5047 25.54L43.4622 25.5192L43.5854 25.2856L43.6278 25.3064L43.7511 25.0729L43.785 25.0895L43.9082 24.856L43.8743 24.8393C43.9337 24.7225 44.0612 24.4847 44.1206 24.3679L44.0782 24.3471L44.2014 24.1135L44.3203 24.1719L44.4435 23.9383L44.367 23.9008C44.4265 23.784 44.554 23.5462 44.6134 23.4294L44.571 23.4086L44.6941 23.175L44.7366 23.1958L44.8598 22.9622L44.7791 22.9205L44.9023 22.6869L44.983 22.7287L45.1062 22.4951L45.1402 22.5118L45.2634 22.2782L45.2294 22.2615C45.3356 22.0571 45.4843 21.7735 45.5947 21.5649L45.5522 21.5441L45.6712 21.3146L45.7137 21.3355L45.8326 21.1061L45.8666 21.1228L45.9855 20.8934L45.9516 20.8767C46.0111 20.764 46.1342 20.5305 46.1937 20.4178L46.1512 20.397L46.2659 20.1759L46.3764 20.251L46.3806 20.1676C46.5038 20.1884 46.7587 20.2301 46.8819 20.251L46.8904 20.2051L47.1495 20.2468L47.141 20.2927L47.4001 20.3344L47.4172 20.2426L47.6763 20.2844L47.6593 20.3761L47.9184 20.4178L47.9099 20.4554L48.1691 20.4971L48.1776 20.4595C48.4027 20.4971 48.7128 20.5471 48.938 20.5847L48.9465 20.5388L49.1971 20.5805L49.1886 20.6264L49.4392 20.6681L49.4307 20.7056L49.6814 20.7474L49.6899 20.7098C49.8131 20.7307 50.068 20.7724 50.1912 20.7932L50.1997 20.7474L50.4503 20.7891L50.429 20.9184L50.6797 20.9601L50.6924 20.8767C50.8156 20.8975 51.0705 20.9392 51.1937 20.9601L51.2022 20.9142L51.4528 20.9559L51.4443 21.0018L51.695 21.0435L51.712 20.9517L51.9626 20.9935L51.9456 21.0852L52.1963 21.1269L52.1877 21.1645L52.4384 21.2062L52.4469 21.1686C52.672 21.2062 52.9779 21.2562 53.1988 21.2938L53.2073 21.2479L53.4579 21.2896L53.4494 21.3355L53.7001 21.3772L53.6916 21.4147L53.9422 21.4565L53.9507 21.4189C54.0739 21.4398 54.3288 21.4815 54.452 21.5023L54.4605 21.4565L54.7111 21.4982L54.6899 21.6275L54.9405 21.6692L54.9533 21.5858C55.0764 21.6066 55.3314 21.6483 55.4546 21.6692L55.4631 21.6233L55.7137 21.665L55.7052 21.7109L55.9558 21.7526L55.9728 21.6608L56.2234 21.7026L56.2065 21.7901L56.4571 21.8319L56.4486 21.8694L56.6992 21.9111L56.7035 21.8736C56.9286 21.9111 57.2345 21.9612 57.4554 21.9987L57.4639 21.9528L57.7145 21.9945L57.706 22.0404L57.9567 22.0821L57.9482 22.1197L58.1988 22.1614L58.2073 22.1238C58.3305 22.1447 58.5854 22.1864 58.7085 22.2073L58.7171 22.1614L58.9677 22.2031L58.9465 22.3324L59.1971 22.3741L59.2099 22.2907C59.333 22.3115 59.588 22.3533 59.7111 22.3741L59.7196 22.3282L59.9703 22.3699L59.9618 22.4158L60.2124 22.4575L60.2294 22.3699L60.48 22.4117L60.463 22.5034L60.7137 22.5451L60.7052 22.5827L60.9558 22.6244L60.9643 22.5868C61.1895 22.6244 61.4953 22.6744 61.7162 22.712L61.7247 22.6661L61.9754 22.7078L61.9669 22.7537L62.2175 22.7954L62.209 22.8329L62.4596 22.8747L62.4682 22.8371C62.5913 22.858 62.8462 22.8997 62.9694 22.9205L62.9779 22.8747L63.2285 22.9164L63.2073 23.0457L63.4579 23.0874L63.4707 23.004C63.5939 23.0248 63.8487 23.0665 63.9719 23.0874L63.9804 23.0415L64.2311 23.0832L64.2226 23.1291L64.4732 23.1708L64.4902 23.079L64.7409 23.1207L64.7239 23.2125L64.9745 23.2542L64.966 23.2918L65.2167 23.3335L65.2252 23.2959C65.4503 23.3335 65.7562 23.3835 65.9771 23.4211L65.9855 23.3752L66.2362 23.4169L66.2277 23.4628L66.4783 23.5045L66.4698 23.542L66.7205 23.5837L66.7289 23.5462C66.8521 23.5671 67.107 23.6088 67.2302 23.6296L67.2387 23.5837L67.4894 23.6255L67.4681 23.7548L67.7188 23.7965L67.7315 23.7131C67.8547 23.7339 68.1096 23.7756 68.2328 23.7965L68.2413 23.7506L68.4919 23.7923L68.4834 23.8382L68.7341 23.8799L68.751 23.7923L69.0017 23.834L68.9847 23.9258L69.2353 23.9675L69.2268 24.005L69.2481 24.0092L69.1886 24.0551L69.3585 24.0885C69.2481 24.3012 69.0229 24.7308 68.9125 24.9435L68.9975 24.9853L68.7553 25.4441L68.6703 25.4024L68.4282 25.8612L68.5939 25.9446L68.3517 26.4035L68.1861 26.32L67.9439 26.7789L67.876 26.7413L67.6338 27.2001L67.7018 27.2335C67.4724 27.6715 67.1538 28.2763 66.9244 28.7184L67.0093 28.7602L66.7417 29.2732L66.6568 29.2315L66.3891 29.7446L66.3211 29.7112L66.0535 30.2242L66.1215 30.2576C65.9898 30.512 65.7179 31.0251 65.5862 31.2795L65.6712 31.3213L65.4035 31.8343L65.1699 31.7175L64.9023 32.2306L65.051 32.3057C64.9193 32.5601 64.6474 33.0731 64.5157 33.3276L64.6006 33.3693L64.3585 33.7906L64.2736 33.7489L64.006 34.2619L64.1716 34.3453L63.904 34.8584L63.7383 34.775L63.4707 35.288L63.4027 35.2547L63.1351 35.7677L63.2031 35.8011C62.9652 36.2557 62.6381 36.8814 62.4002 37.3361L62.4851 37.3778L62.2175 37.8908L62.1325 37.8491L61.8649 38.3622L61.7969 38.3288L61.5293 38.8419L61.5973 38.8752C61.4656 39.1297 61.1937 39.6427 61.062 39.8972L61.1469 39.9389L60.8794 40.4519L60.6457 40.3351L60.3781 40.8482L60.5267 40.9233C60.3951 41.1777 60.1232 41.6908 59.9915 41.9452L60.0765 41.9869L59.8088 42.5L59.7239 42.4583L59.4562 42.9713L59.6219 43.0547L59.3543 43.5678L59.1886 43.4844L58.921 43.9974L58.853 43.964L58.5854 44.4771L58.6533 44.5105C58.4154 44.9651 58.0884 45.5908 57.8505 46.0455L57.9354 46.0872L57.6678 46.6002L57.5829 46.5585L57.3152 47.0716L57.2472 47.0382L56.9796 47.5512L57.0476 47.5846C56.9159 47.8391 56.644 48.3521 56.5123 48.6065L56.5973 48.6483L56.3296 49.1613L56.096 49.0445L55.8284 49.5576L55.9771 49.6327C55.8454 49.8871 55.5735 50.4001 55.4418 50.6546L55.5267 50.6963L55.2591 51.2094L55.1742 51.1676L54.9065 51.6807L55.0722 51.7641L54.8046 52.2772L54.6389 52.1938L54.3713 52.7068L54.3033 52.6734L54.0357 53.1865L54.1036 53.2199C53.8827 53.6453 53.5769 54.2293 53.3517 54.6547L53.4367 54.6964L53.1945 55.1553L53.1096 55.1136L52.8674 55.5724L52.7995 55.539L52.5573 55.9978L52.6253 56.0312C52.5064 56.2606 52.2642 56.7236 52.1453 56.953L52.2302 56.9948L52.0348 57.3702L51.8649 57.1241L51.8437 57.3118C51.6653 57.1908 51.2829 56.9238 51.1045 56.8029L51.0493 56.878L50.616 56.5818L50.6712 56.5067L50.2294 56.1939ZM28.7213 53.6703L28.8233 53.4743L28.7808 53.4534L28.904 53.2199L28.9465 53.2407L29.0697 53.0071L29.1037 53.0238L29.2269 52.7902L29.1928 52.7735C29.2523 52.6568 29.3798 52.419 29.4393 52.3022L29.3967 52.2813L29.52 52.0478L29.6389 52.1062L29.7621 51.8726L29.6856 51.835C29.7451 51.7182 29.8725 51.4805 29.932 51.3637L29.8895 51.3428L30.0128 51.1092L30.0552 51.1301L30.1784 50.8965L30.0977 50.8548L30.2209 50.6212L30.3016 50.6629L30.4248 50.4293L30.4588 50.446L30.582 50.2124L30.548 50.1958C30.6585 49.9872 30.8071 49.6994 30.9176 49.4908L30.8751 49.47L30.9983 49.2364L31.0408 49.2573L31.164 49.0237L31.1979 49.0404L31.3211 48.8068L31.2872 48.7901C31.3466 48.6733 31.4741 48.4355 31.5335 48.3187L31.4911 48.2979L31.6143 48.0643L31.7332 48.1227L31.8564 47.8891L31.78 47.8516C31.8394 47.7348 31.9669 47.497 32.0263 47.3802L31.9839 47.3594L32.107 47.1258L32.1496 47.1466L32.2727 46.9131L32.192 46.8713L32.3152 46.6378L32.3959 46.6795L32.5191 46.4459L32.5531 46.4626L32.6763 46.229L32.6423 46.2123C32.7527 46.0037 32.9014 45.7159 33.0119 45.5074L32.9694 45.4865L33.0926 45.2529L33.1351 45.2738L33.169 45.2071L33.407 45.3697L33.4622 45.2947C33.8275 45.5449 34.3246 45.8911 34.6899 46.1414L34.7366 46.0788L35.1444 46.3625L35.0977 46.425L35.5055 46.7087L35.3993 46.8588L35.8071 47.1425L35.9133 46.9923L36.3212 47.276L36.2659 47.351L36.6737 47.6347L36.729 47.5596C36.9329 47.7014 37.3449 47.985 37.5489 48.1227L37.6466 47.985L38.0544 48.2687L37.9014 48.4814L38.3093 48.7651L38.3645 48.69C38.5684 48.8318 38.9804 49.1154 39.1844 49.2531L39.2311 49.1905L39.6389 49.4742L39.5922 49.5367L40 49.8204L39.9448 49.8954L40.3526 50.1791L40.4078 50.104C40.7731 50.3543 41.2702 50.7005 41.6355 50.9507L41.6822 50.8882L42.09 51.1718L42.0433 51.2344L42.4512 51.518L42.345 51.6682L42.7528 51.9518L42.859 51.8017L43.2668 52.0853L43.2115 52.1604L43.6194 52.444L43.6746 52.3689C43.8785 52.5108 44.2906 52.7944 44.4945 52.932L44.5922 52.7944L45 53.078L44.847 53.2908L45.2549 53.5744L45.3101 53.4993C45.514 53.6411 45.9261 53.9248 46.13 54.0624L46.1767 53.9999L46.5845 54.2835L46.5378 54.3461L46.9456 54.6297L46.8904 54.7048L47.2982 54.9884L47.3534 54.9133C47.723 55.1678 48.2328 55.5182 48.6024 55.7768L48.6491 55.7142L49.0824 56.0104L49.0357 56.0729L49.469 56.3691L49.3628 56.5192L49.7961 56.8154L49.9023 56.6652L50.3356 56.9614L50.2804 57.0365L50.3568 57.0907L49.9788 57.0281L49.949 57.2075L49.4265 57.1199L49.4435 57.0281L48.921 56.9405L48.904 57.0323C48.6449 56.9906 48.1224 56.903 47.8632 56.8613L47.8335 57.024L47.311 56.9364L47.3534 56.6819L46.8309 56.5985L46.8139 56.6903C46.5548 56.6485 46.0323 56.561 45.7731 56.5192L45.7604 56.5943L45.2379 56.5067L45.2506 56.4316L44.7281 56.3441L44.7451 56.2523L44.2226 56.1647L44.2056 56.2565C43.7426 56.1814 43.1053 56.0771 42.6423 55.9978L42.6296 56.0729L42.107 55.9853L42.1198 55.9103L41.5973 55.8227L41.627 55.6433L41.1045 55.5557L41.0747 55.7351L40.5522 55.6475L40.5692 55.5557L40.0467 55.4681L40.0297 55.5599C39.7706 55.5182 39.2481 55.4306 38.989 55.3889L38.9592 55.5515L38.4367 55.4639L38.4792 55.2095L37.9567 55.1219L37.9397 55.2137C37.6806 55.172 37.158 55.0844 36.8989 55.0426L36.8861 55.1177L36.3636 55.0301L36.3764 54.9551L35.8539 54.8675L35.8708 54.7757L35.3483 54.6881L35.3314 54.7799C34.8683 54.7048 34.2311 54.6005 33.768 54.5213L33.7553 54.5963L33.2328 54.5087L33.2455 54.4337L32.723 54.3461L32.7527 54.1667L32.2302 54.0791L32.2005 54.2585L31.678 54.1709L31.695 54.0791L31.1725 53.9915L31.1555 54.0833C30.8963 54.0416 30.3738 53.954 30.1147 53.9123L30.0849 54.0749L29.5624 53.9873L29.6049 53.7329L29.0824 53.6453L29.0654 53.7371L28.7213 53.6703ZM0.603221 34.5706C0.841114 34.5581 1.63127 35.0169 1.86492 35.0419L1.6355 34.9126C1.75445 34.9335 1.94987 34.9627 2.07307 34.9835L2.06882 34.9043L2.5531 34.9835L2.54035 35.0586L3.05863 35.142L3.04162 35.2338L3.5599 35.3172L3.57688 35.2255C4.05267 35.3047 4.70263 35.409 5.17842 35.4882L5.19115 35.4132L5.7519 35.5049L5.73917 35.58L6.30417 35.6718L6.27443 35.8511L6.83518 35.9429L6.8649 35.7635L7.42565 35.8553L7.40867 35.9471L7.97367 36.0388L7.99065 35.9471C8.27103 35.993 8.83603 36.0847 9.11641 36.1306L9.14614 35.9679L9.70687 36.0597L9.6644 36.3141L10.2252 36.4059L10.2421 36.3141C10.5225 36.36 11.0875 36.4518 11.3679 36.4977L11.3806 36.4226L11.9414 36.5144L11.9286 36.5894L12.4894 36.6812L12.4724 36.773L13.0331 36.8647L13.0501 36.773C13.5514 36.8564 14.2353 36.969 14.7366 37.0483L14.7493 36.9732L15.3101 37.0649L15.2974 37.14L15.8581 37.2318L15.8284 37.4112L16.3891 37.5029L16.4189 37.3236L16.9796 37.4153L16.9626 37.5071L17.5234 37.5989L17.5403 37.5071C17.8207 37.553 18.3857 37.6447 18.6661 37.6906L18.6958 37.5279L19.2566 37.6197L19.2141 37.8742L19.7748 37.9659L19.7919 37.8742C20.0722 37.92 20.6372 38.0118 20.9176 38.0577L20.9303 37.9826L21.4911 38.0744L21.4784 38.1494L22.0391 38.2412L22.0221 38.333L22.5828 38.4247L22.5998 38.333C22.8802 38.3789 23.4452 38.4706 23.7256 38.5165L23.7511 38.3622L23.9125 38.4748L23.7001 38.6458L24.2098 38.9962L24.2651 38.9211C24.4817 39.0713 24.915 39.3674 25.1274 39.5176L25.1742 39.455L25.6075 39.7512L25.5608 39.8137L25.994 40.1099L25.9388 40.185L26.3721 40.4811L26.4273 40.406C26.8054 40.6647 27.3237 41.0234 27.7018 41.282L27.7485 41.2194L28.1563 41.5031L28.1096 41.5656L28.5174 41.8493L28.4112 41.9994L28.819 42.2831L28.9252 42.1329L29.3331 42.4165L29.2778 42.4916L29.6856 42.7753L29.7409 42.7002C29.9448 42.842 30.3568 43.1256 30.5607 43.2633L30.6585 43.1256L31.0663 43.4093L30.9133 43.622L31.3211 43.9057L31.3764 43.8306C31.5803 43.9724 31.9924 44.256 32.1963 44.3937L32.243 44.3311L32.6508 44.6147L32.6041 44.6773L32.9566 44.9192L32.8589 45.1028L32.8165 45.0819L32.6933 45.3155L32.7358 45.3364C32.6253 45.5449 32.4766 45.8327 32.3662 46.0413L32.4002 46.058L32.277 46.2916L32.243 46.2749L32.1198 46.5085L32.0391 46.4667L31.9159 46.7003L31.9966 46.742L31.8734 46.9756L31.8309 46.9548L31.7077 47.1884L31.7502 47.2092C31.6907 47.326 31.5633 47.5638 31.5038 47.6806L31.5803 47.7181L31.4571 47.9517L31.3382 47.8933L31.2149 48.1269L31.2574 48.1477C31.1979 48.2645 31.0705 48.5023 31.011 48.6191L31.045 48.6357L30.9218 48.8693L30.8878 48.8526L30.7647 49.0862L30.7221 49.0654L30.599 49.299L30.6415 49.3198C30.531 49.5284 30.3823 49.8162 30.2719 50.0247L30.3058 50.0414L30.1827 50.275L30.1487 50.2583L30.0255 50.4919L29.9448 50.4502L29.8216 50.6838L29.9023 50.7255L29.7791 50.9591L29.7366 50.9382L29.6134 51.1718L29.6559 51.1927C29.5965 51.3095 29.469 51.5472 29.4095 51.664L29.486 51.7016L29.3628 51.9351L29.2438 51.8767L29.1207 52.1103L29.1631 52.1312C29.1037 52.248 28.9762 52.4857 28.9167 52.6025L28.9507 52.6192L28.8275 52.8528L28.7936 52.8361L28.6703 53.0697L28.6279 53.0488L28.5047 53.2824L28.5471 53.3033L28.4282 53.5327L28.2243 53.3909L28.1775 53.4534L27.7443 53.1531L27.791 53.0905L27.3577 52.7944L27.4129 52.7193L26.9796 52.4232L26.9244 52.4982C26.5378 52.2313 26.011 51.8684 25.6287 51.6056L25.582 51.6682L25.1487 51.3679L25.1954 51.3053L24.7621 51.0091L24.8683 50.859L24.435 50.5628L24.3288 50.713L23.8955 50.4168L23.9507 50.3418L23.5174 50.0456L23.4622 50.1207C23.2455 49.9705 22.8122 49.6744 22.5956 49.5242L22.4979 49.6619L22.0645 49.3657L22.2175 49.153L21.7842 48.8568L21.729 48.9319C21.5123 48.7817 21.079 48.4856 20.8624 48.3354L20.8156 48.398L20.3823 48.1018L20.4291 48.0393L19.9958 47.7389L20.051 47.6639L19.6177 47.3635L19.5624 47.4386C19.1759 47.1717 18.6491 46.8088 18.2668 46.546L18.2201 46.6086L17.7867 46.3124L17.8335 46.2498L17.4002 45.9537L17.5064 45.8035L17.0731 45.5032L16.9669 45.6534L16.5336 45.3572L16.5888 45.2821L16.1555 44.986L16.1003 45.0611C15.8836 44.9109 15.4503 44.6147 15.2336 44.4646L15.1359 44.6022L14.7026 44.3061L14.8555 44.0934L14.4223 43.7972L14.367 43.8723C14.1504 43.7221 13.7171 43.426 13.5004 43.2758L13.4537 43.3384L13.0204 43.0422L13.0671 42.9797L12.6338 42.6835L12.689 42.6084L12.2557 42.3123L12.2005 42.3873C11.8139 42.1204 11.2872 41.7575 10.9048 41.4947L10.8581 41.5573L10.4248 41.2611L10.4715 41.1986L10.0382 40.9024L10.1444 40.7523L9.71112 40.4561L9.60492 40.6063L9.17163 40.3101L9.22683 40.235L8.79355 39.9389L8.73832 40.014C8.52167 39.8638 8.08837 39.5676 7.87172 39.4175L7.774 39.5551L7.34071 39.259L7.49363 39.0462L7.06032 38.7501L7.00509 38.8252C6.78844 38.675 6.35514 38.3789 6.13849 38.2287L6.09177 38.2913L5.65846 37.9909L5.70518 37.9284L5.27187 37.6322L5.32709 37.5571L4.89381 37.261L4.83858 37.3361C4.452 37.0691 3.92524 36.7062 3.54292 36.4434L3.49617 36.506L3.06288 36.2099L3.1096 36.1473L2.67629 35.8511L2.78249 35.701L2.34921 35.4048L2.243 35.555L1.85641 35.288L1.92862 35.2255L1.83943 35.1629H1.67375C1.46134 34.9669 0.964314 34.7708 0.688188 34.6832L0.603221 34.5706ZM0.556498 34.3745L0.607473 34.2786L0.726432 34.3579L0.556498 34.3745Z" fill="#A3A3A3"/>
</svg>
