<svg width="197" height="192" viewBox="0 0 197 192" fill="none" xmlns="http://www.w3.org/2000/svg">
<path opacity="0.25" d="M0 94.2268C0 107.142 3.15023 120.541 7.80765 131.771C12.6349 143.412 20.0732 155.053 28.8488 163.825C37.6202 172.596 51.6817 174.205 63.3231 179.033C74.5527 183.69 85.5361 191.417 98.4512 191.417C111.366 191.417 123.882 187.384 135.112 182.731C146.753 177.903 159.456 172.775 168.232 164.003C177.003 155.232 181.724 142.355 186.552 130.718C191.209 119.488 197 107.138 197 94.2268C197 81.3117 188.178 70.2222 183.524 58.9926C178.697 47.3512 175.186 35.0389 166.415 26.2675C157.643 17.4961 146.325 11.5905 134.683 6.76324C123.445 2.11006 111.362 0 98.4469 0C85.5318 0 74.2725 4.097 63.0429 8.75442C51.4015 13.5774 42.2692 20.5062 33.4978 29.2819C24.7264 38.0533 15.9762 46.4299 11.1489 58.0713C6.49577 69.3009 0 81.3159 0 94.2268Z" fill="#87C2A2"/>
</svg>
