<svg width="263" height="252" viewBox="0 0 263 252" fill="none" xmlns="http://www.w3.org/2000/svg">
<path d="M208.203 155.448C201.322 149.949 195.099 142.94 192.58 134.332C191.974 132.266 191.599 130.157 191.475 128.004C191.335 125.495 191.575 122.975 191.371 120.469C191.162 117.868 190.215 115.684 188.976 113.422C187.861 111.389 186.831 109.383 186.382 107.089C185.564 102.954 186.368 98.6525 185.911 94.4922C185.853 94.5293 185.79 94.5626 185.72 94.5874C185.183 94.796 184.661 95.0264 184.148 95.2751C183.96 95.9056 183.779 96.5399 183.587 97.1715C179.377 110.891 173.989 124.249 167.509 137.057C167.729 137.391 167.937 137.732 168.143 138.069C174.954 143.903 179.683 151.874 181.881 160.555C184.264 169.963 182.516 179.427 181.5 188.892C180.909 194.396 180.592 199.917 181.67 205.378C181.906 206.636 179.988 206.896 179.718 205.665C178.36 197.478 171.35 192.007 167.406 185.097C165.061 180.985 164.319 176.524 164.365 171.832C164.415 166.472 165.008 161.123 165.474 155.786C165.929 150.517 166.238 145.268 166.016 139.996C160.741 150.095 154.954 160.186 147.804 169.133C147.804 169.158 147.809 169.182 147.805 169.213C147.074 173.029 148.231 176.921 148.915 180.658C149.684 184.843 149.451 188.818 147.858 192.801C146.184 196.991 143.543 200.709 141.196 204.535C138.797 208.447 136.624 212.507 134.926 216.777C133 221.621 131.764 226.705 131.6 231.928C131.576 232.714 130.287 232.921 130.055 232.154C125.045 215.828 127.611 197.452 136.746 183.033C139.312 178.985 142.357 175.242 145.864 171.972C146.023 171.823 146.193 171.777 146.348 171.8C146.364 171.471 146.394 171.139 146.429 170.806C144.32 173.34 142.1 175.777 139.731 178.08C134.256 183.408 128.208 188.136 122.055 192.655C116.167 196.979 110.042 201.177 103.369 204.204C102.071 204.793 100.748 205.308 99.41 205.781C99.8287 206.103 99.6632 206.719 99.2733 207.007C99.2741 207.177 99.2192 207.344 99.0785 207.484C97.3215 209.267 95.6418 211.084 93.7682 212.742C91.8689 214.42 89.9249 216.052 87.9379 217.624C84.6511 220.226 81.1327 223.012 76.8898 223.743C72.4828 224.503 68.1556 222.843 63.7982 222.486C59.563 222.138 55.3224 222.643 51.0917 222.815C46.3894 223.007 41.5925 222.798 37.2865 220.692C36.3039 220.214 36.525 218.96 37.5245 218.689C44.9453 216.666 49.602 209.618 56.5199 206.589C58.2159 205.846 60.0521 205.363 61.9022 205.277C64.4065 205.159 66.8563 205.709 69.3455 205.899C74.3952 206.285 78.8126 203.439 83.7112 202.731C88.6002 202.024 93.4977 202.828 97.9011 204.968C104.597 202.121 110.828 198.522 116.763 194.324C122.881 189.997 128.855 185.39 134.386 180.326C137.634 177.351 140.63 174.154 143.438 170.802C138.973 175.055 133.733 178.56 128.362 181.517C122.022 185.005 115.188 187.645 108.184 189.46C103.901 190.569 99.4909 191.435 95.0447 191.132C94.104 191.065 93.7015 189.918 94.2225 189.207C96.9857 185.454 99.8279 181.718 103.341 178.623C106.768 175.595 110.771 173.513 115.267 172.629C119.759 171.75 124.357 171.986 128.893 171.529C133.659 171.049 137.967 169.583 142.003 166.993C145.744 164.595 148.954 161.559 152.354 158.737C155.653 153.723 158.686 148.52 161.561 143.256C162.641 141.28 163.682 139.282 164.706 137.278C158.048 144.053 150.657 150.036 142.598 155.083C140.43 156.437 138.225 157.734 135.987 158.973C133.795 160.187 131.571 161.398 129.183 162.183C124.926 163.582 120.464 163.443 116.061 162.965C111.002 162.416 105.943 161.226 100.827 161.62C99.8124 161.699 99.2507 160.675 99.7752 159.838C102.39 155.645 106.512 152.421 111.25 150.975C113.734 150.215 116.355 150.007 118.821 149.211C121.441 148.362 123.471 146.661 125.508 144.874C129.925 140.986 134.233 136.911 138.817 133.219C142.716 130.077 147.134 128.227 152.183 128.253C154.825 128.266 157.446 128.799 159.985 129.485C162.503 130.166 164.81 131.251 167.156 132.348C171.963 122.408 176.117 112.151 179.578 101.669C180.082 100.14 180.574 98.6041 181.05 97.0661C175.319 100.851 171.031 106.659 166.675 111.881C163.885 115.225 160.96 118.522 157.511 121.208C153.894 124.025 149.713 126 145.258 127.051C140.254 128.233 134.715 128.281 129.778 126.744C129.059 126.52 129.082 125.584 129.558 125.158C132.836 122.207 135.853 118.945 138.952 115.807C142.017 112.701 145.079 109.6 148.144 106.494C150.907 103.692 153.513 100.828 157.136 99.1309C160.755 97.4353 164.744 96.4027 168.553 95.2326C173.246 93.7859 177.966 92.4437 182.662 91.0162C182.729 90.9973 182.793 90.9937 182.854 90.9959C185.455 81.8024 187.558 72.4586 189.104 63.0323C185.264 68.3305 180.111 72.5288 175.368 77.0812C172.145 80.1757 169.407 83.6485 166.469 86.9985C163.571 90.3049 160.278 93.0888 156.555 95.4275C153.309 97.4651 148.554 100.943 144.583 98.882C144.2 98.6823 143.839 98.1826 144.089 97.7292C146.555 93.2771 148.582 88.6019 150.075 83.7393C150.818 81.3287 151.487 78.8785 152.562 76.5931C153.596 74.3966 154.989 72.4096 156.638 70.6342C162.245 64.6223 169.705 60.3425 177.577 58.0891C181.568 56.9459 185.903 56.271 190.081 56.4905C191.079 49.1931 191.763 41.8519 192.091 34.4905C192.13 33.6559 192.159 32.8185 192.187 31.9811C190.468 34.2523 187.822 35.8077 185.369 37.3775C183.432 38.6178 181.554 39.9459 179.947 41.6075C178.331 43.2759 176.905 45.1095 175.556 46.9971C172.931 50.6714 170.411 54.4389 167.071 57.5231C163.824 60.5276 159.835 62.602 155.755 64.2497C151.112 66.1216 146.258 67.7027 141.403 68.9031C140.494 69.1301 139.848 67.8944 140.404 67.2108C144.101 62.6841 145.966 57.1169 148.182 51.7958C150.054 47.3039 152.312 43.0559 155.561 39.3998C161.371 32.8542 169.483 28.2465 178.095 26.6483C182.823 25.7702 187.596 25.7738 192.256 26.9685C192.244 22.1431 191.957 17.3255 191.161 12.5557C190.861 10.7559 190.48 8.97824 190.032 7.20988C189.67 5.7837 191.931 5.46154 192.289 6.87334C194.113 14.0608 194.593 21.4817 194.512 28.876C194.509 28.9366 194.507 28.9972 194.505 29.0577C194.513 29.0259 194.518 28.9999 194.521 28.9691C194.556 28.8265 194.627 28.7114 194.712 28.6134C194.669 28.3871 194.827 28.1182 195.139 28.1226C199.419 28.2103 203.529 29.3859 207.288 31.4167C211.155 33.505 214.074 36.5395 217.368 39.3749C220.49 42.066 224.45 43.7439 227.059 47.0143C229.28 49.8006 230.601 53.2079 231.116 56.715C231.811 61.4312 231.171 66.2039 230.538 70.8901C230.414 71.8179 228.95 72.167 228.624 71.1691C226.051 63.4688 217.743 60.8861 211.514 56.9077C209.778 55.8018 208.171 54.5485 206.721 53.0869C205.252 51.6092 203.955 49.9749 202.499 48.4845C199.872 45.7938 196.995 43.6017 195.428 40.0712C194.875 38.8258 194.489 37.495 194.255 36.1271C193.999 41.3897 193.562 46.6504 192.973 51.8782C191.591 64.1397 189.306 76.2764 186.138 88.1939C186.151 88.2062 186.167 88.2128 186.181 88.2299C189.642 92.5724 193.01 96.9946 196.29 101.476C199.016 105.207 201.549 109.164 202.817 113.649C204.038 117.959 203.435 122.293 203.458 126.691C203.469 128.832 203.701 131.022 204.583 132.994C205.058 134.056 205.717 135.018 206.24 136.05C206.781 137.117 207.125 138.272 207.295 139.458C207.664 142.034 207.239 144.623 207.25 147.21C207.259 149.532 207.636 152.197 209.407 153.871C210.309 154.727 209.222 156.264 208.203 155.448ZM166.062 169.41C165.828 174.352 166.164 179.164 168.495 183.61C170.399 187.245 173.131 190.364 175.605 193.613C176.769 195.14 177.901 196.729 178.883 198.394C178.704 191.401 180.071 184.381 180.781 177.425C181.254 172.788 181.419 168.115 180.699 163.494C180.004 159.043 178.569 154.759 176.452 150.784C174.764 147.604 172.642 144.647 170.194 141.994C171.644 145.278 172.569 148.759 173.082 152.397C173.92 158.36 173.795 164.406 173.831 170.414C173.858 174.049 174.141 177.62 174.504 181.235C174.585 182.069 173.45 182.198 173.246 181.42C172.478 178.497 172.224 175.421 172.039 172.41C171.853 169.369 171.822 166.33 171.761 163.288C171.649 157.658 171.424 151.971 169.901 146.513C169.363 144.583 168.692 142.686 167.805 140.901C168.178 150.402 166.507 159.92 166.062 169.41ZM84.6596 204.779C79.913 205.331 75.6206 207.985 70.8051 208.02C68.2748 208.039 65.8087 207.412 63.2875 207.284C61.3739 207.187 59.5149 207.514 57.7399 208.24C54.3277 209.631 51.4892 212.104 48.6527 214.396C46.1239 216.437 43.5224 218.419 40.5786 219.752C47.4414 221.893 55.0268 220.081 62.0964 220.261C66.2406 220.368 70.2418 221.741 74.3767 221.78C78.6577 221.822 82.1498 219.362 85.3905 216.85C87.495 215.218 89.5518 213.527 91.5561 211.777C92.1274 211.28 92.6998 210.789 93.2721 210.297C92.9353 210.434 92.6004 210.579 92.2558 210.702C90.0521 211.508 87.7985 212.149 85.5192 212.716C80.9424 213.858 76.1846 214.522 71.4667 214.071C70.2141 213.949 70.1108 211.848 71.429 211.805C75.9895 211.653 80.5487 211.472 85.0381 210.604C87.2709 210.172 89.4696 209.533 91.6143 208.779C93.4843 208.124 95.4248 207.424 97.2212 206.539C93.2676 204.94 88.9069 204.283 84.6596 204.779ZM132.542 172.777C128.073 173.721 123.466 173.677 118.948 174.24C114.326 174.815 110.138 176.161 106.428 179.058C102.946 181.781 100.162 185.269 97.5155 188.792C100.622 188.752 103.711 188.2 106.737 187.516C110.164 186.743 113.535 185.75 116.814 184.487C122.233 182.396 127.418 179.724 132.268 176.531C132.164 176.563 132.061 176.595 131.952 176.628C131.365 176.812 130.772 176.992 130.177 177.163C129.02 177.492 127.852 177.794 126.678 178.072C124.332 178.627 121.967 178.931 119.582 179.235C118.836 179.332 118.678 178.229 119.41 178.089C121.702 177.655 123.969 177.031 126.231 176.453C127.324 176.173 128.407 175.869 129.491 175.55C130.052 175.381 130.608 175.219 131.168 175.045C131.736 174.865 132.36 174.548 132.968 174.675C133.397 174.765 133.749 175.221 133.598 175.644C134.105 175.296 134.613 174.949 135.109 174.594C137.495 172.873 139.764 171.022 142.008 169.13C139.025 170.797 135.85 172.078 132.542 172.777ZM145.251 167.103C145.536 167.243 145.768 167.51 145.841 167.81C146.503 166.959 147.159 166.104 147.798 165.238C146.969 165.894 146.118 166.51 145.251 167.103ZM129.227 217.915C129.369 221.03 129.768 224.131 130.422 227.178C131.544 219.755 134.64 212.74 138.389 206.254C140.725 202.21 143.531 198.422 145.578 194.219C146.592 192.142 147.42 189.944 147.762 187.648C148.071 185.579 147.923 183.527 147.585 181.475C147.198 179.118 146.635 176.808 146.415 174.485C146.169 176.43 145.89 178.382 145.394 180.275C144.744 182.751 143.973 185.193 143.083 187.594C142.214 189.931 141.243 192.235 140.148 194.474C139.585 195.625 138.988 196.757 138.367 197.875C137.808 198.88 137.3 200.194 136.395 200.916C135.98 201.249 135.227 200.887 135.343 200.322C135.564 199.233 136.373 198.251 136.911 197.286C137.503 196.225 138.067 195.149 138.608 194.058C139.724 191.824 140.746 189.55 141.653 187.225C142.537 184.96 143.312 182.658 143.975 180.319C144.574 178.219 145.227 176.143 145.762 174.027C134.588 185.597 128.496 201.858 129.227 217.915ZM160.294 131.969C158.136 131.353 155.923 130.904 153.683 130.736C151.464 130.568 149.22 130.662 147.054 131.219C144.647 131.843 142.491 133.114 140.522 134.602C138.418 136.188 136.48 137.994 134.506 139.744C132.235 141.751 129.961 143.763 127.69 145.77C125.791 147.449 123.913 149.202 121.64 150.368C119.483 151.47 117.059 151.872 114.713 152.357C109.977 153.342 105.851 155.646 102.864 159.336C106.484 159.353 110.085 159.945 113.634 160.603C117.95 161.404 122.334 162.101 126.69 161.171C129.082 160.661 131.297 159.553 133.424 158.382C135.632 157.17 137.794 155.882 139.912 154.528C144.085 151.854 148.071 148.914 151.938 145.809C155.904 142.627 159.666 139.193 163.233 135.57C157.995 134.623 152.63 136.963 148.208 139.67C143.072 142.813 138.714 147.053 133.532 150.121C130.643 151.833 127.544 153.143 124.212 153.682C122.866 153.901 122.557 151.797 123.901 151.589C130.111 150.618 135.206 146.687 140.035 142.923C144.921 139.117 149.821 135.237 155.946 133.694C159.203 132.871 162.593 132.896 165.802 133.931C165.963 133.982 166.1 134.084 166.213 134.215C166.297 134.047 166.387 133.878 166.466 133.706C164.432 133.064 162.356 132.555 160.294 131.969ZM187.679 29.793C186.329 30.3736 185.047 31.085 183.827 31.9035C181.318 33.5853 179.074 35.6468 177.008 37.8409C172.769 42.337 169.189 47.4199 164.639 51.6262C162.042 54.0326 159.147 56.0011 155.834 57.2918C155.172 57.5516 154.755 56.5729 155.399 56.2767C166.315 51.2373 171.586 39.5116 180.711 32.2309C179.601 32.806 178.506 33.4078 177.443 34.0679C174.627 35.8146 171.884 37.791 169.388 39.9657C169.087 40.2246 168.61 39.7646 168.888 39.4704C171.265 36.9702 173.817 34.7785 176.726 32.9223C178.125 32.0309 179.563 31.2063 181.038 30.4591C182.581 29.6776 184.165 28.8523 185.879 28.5505C186.043 28.5208 186.192 28.5846 186.304 28.691C186.555 28.573 186.8 28.456 187.053 28.3476C187.545 28.1386 188.06 27.9245 188.593 27.7419C181.29 27.5011 174.04 29.0271 167.547 32.5267C163.841 34.5212 160.44 37.1477 157.599 40.2516C154.372 43.7776 152.11 47.8412 150.267 52.227C148.28 56.9537 146.579 61.8704 143.747 66.1544C147.089 65.4036 150.426 64.6989 153.654 63.5015C157.7 62.0012 161.461 59.9849 164.788 57.2189C171.616 51.5351 175.032 42.7356 182.072 37.2523C185.487 34.593 190.273 32.6859 191.822 28.3273C190.502 28.9315 189.03 29.2173 187.679 29.793ZM197.011 38.9106C197.72 40.4887 198.629 41.9244 199.81 43.1977C201.141 44.6394 202.695 45.8587 204.072 47.2557C205.533 48.7403 206.83 50.3794 208.299 51.8572C209.755 53.3178 211.43 54.5415 213.173 55.6309C216.503 57.7173 220.085 59.3598 223.25 61.7064C225.377 63.2858 227.451 65.1866 228.938 67.4368C229.295 64.5066 229.54 61.5602 229.328 58.6149C229.092 55.2643 228.285 51.6584 226.356 48.8555C224.072 45.5317 220.414 43.9351 217.347 41.4827C214.171 38.943 211.489 35.8934 208.048 33.6853C204.733 31.5555 200.963 30.1582 197.11 29.3239C205.939 35.4128 214.678 42.2215 220.728 51.1858C221.276 52.0017 220.073 52.9468 219.515 52.1282C213.364 43.04 204.483 36.6566 195.927 30.0295C195.393 33.0472 195.743 36.0833 197.011 38.9106ZM189.807 58.1811C186.319 58.5019 182.888 58.926 179.487 59.8495C175.802 60.8529 172.24 62.2212 168.877 64.038C165.349 65.9451 162.023 68.2949 159.126 71.0804C157.427 72.7112 155.886 74.5691 154.779 76.6559C153.658 78.7707 152.91 81.0622 152.166 83.3277C150.563 88.2337 148.629 92.9742 146.17 97.5051C146.282 97.4164 146.427 97.3658 146.582 97.368C146.799 97.3724 146.988 97.3675 147.241 97.334C147.49 97.3016 147.733 97.2452 147.972 97.1898C148.025 97.1786 148.072 97.1637 148.124 97.1526C148.139 97.1495 148.218 97.1227 148.233 97.1197C148.341 97.0868 148.448 97.0492 148.554 97.0067C148.786 96.9177 149.013 96.8095 149.233 96.688C149.251 96.6792 149.278 96.6635 149.292 96.6557C149.335 96.6264 149.38 96.6019 149.429 96.5716C149.535 96.5041 149.635 96.4329 149.734 96.3568C149.933 96.2048 150.118 96.0404 150.297 95.8674C150.309 95.8548 150.318 95.848 150.326 95.8412C150.33 95.8353 150.335 95.8343 150.343 95.8227C150.383 95.779 150.428 95.7295 150.469 95.6858C150.587 95.5558 150.697 95.4624 150.836 95.3629C151.045 95.2136 151.242 95.0769 151.471 94.9534C151.679 94.8445 152.01 95.0149 152.017 95.2589C152.02 95.4434 152.031 95.6115 151.978 95.7879C151.943 95.9055 151.902 96.0194 151.855 96.1294C151.841 96.1574 151.827 96.1855 151.812 96.2135C153.122 95.5363 154.386 94.7636 155.624 93.9863C159.229 91.7276 162.426 89.0543 165.236 85.8565C167.966 82.7509 170.503 79.5157 173.455 76.6086C176.27 73.8356 179.27 71.249 182.103 68.4921C184.201 66.4514 186.239 64.2682 187.984 61.8814C187.069 62.5505 186.127 63.1901 185.13 63.7813C182.789 65.172 180.362 66.3907 177.963 67.6687C175.572 68.9398 173.22 70.3028 171.105 72.0015C168.716 73.9233 166.667 76.2441 164.824 78.6866C162.734 81.4567 160.915 84.4151 159.105 87.3715C158.543 88.2915 157.251 87.2722 157.781 86.364C160.858 81.0866 163.988 75.723 168.556 71.5781C172.713 67.8056 177.899 65.5386 182.816 62.9526C185.214 61.6901 187.679 60.2932 189.756 58.5074C189.778 58.3976 189.795 58.2888 189.807 58.1811ZM182.476 92.2224C178.656 93.505 174.853 94.849 171.022 96.1086C167.186 97.3693 163.25 98.436 159.481 99.8929C157.675 100.59 155.948 101.45 154.424 102.653C152.866 103.884 151.504 105.354 150.109 106.765C147.089 109.822 144.072 112.873 141.051 115.93C137.99 119.03 134.824 122.062 131.884 125.288C135.883 125.986 139.849 126.08 143.893 125.261C148.341 124.362 152.533 122.44 156.117 119.659C162.974 114.35 167.535 106.776 173.55 100.633C173.896 100.28 174.249 99.9346 174.607 99.5934C171.511 101.269 168.304 103.063 165.856 105.608C163.409 108.153 161.558 111.129 158.666 113.232C156.066 115.123 153.001 116.521 149.827 117.051C148.647 117.25 148.374 115.39 149.555 115.216C152.854 114.734 155.896 113.606 158.542 111.55C161.446 109.294 163.145 106.026 165.773 103.507C168.382 101.013 171.635 99.1294 174.788 97.4118C177.115 96.1491 179.508 95.0028 181.945 93.9724C182.124 93.3987 182.306 92.8143 182.476 92.2224ZM205.36 143.267C205.475 140.844 205.311 138.575 204.142 136.408C203.023 134.335 202.042 132.439 201.703 130.076C201.073 125.692 202.103 121.273 201.628 116.89C201.107 112.097 198.674 107.833 195.987 103.929C192.685 99.1317 189.077 94.5448 185.709 89.7919C185.432 90.802 185.149 91.8084 184.865 92.8148C184.893 92.8039 184.921 92.793 184.949 92.7822C185.203 92.6834 185.437 92.6991 185.637 92.7719C185.566 92.4315 185.484 92.0931 185.387 91.753C185.192 91.0631 186.142 90.2764 186.604 91.0403C186.635 91.0938 186.667 91.1473 186.697 91.196C186.697 91.196 186.697 91.196 186.698 91.2008C193.637 102.787 197.456 115.988 199.937 129.182C200.651 132.968 201.288 136.765 201.843 140.579C201.985 141.561 200.488 141.777 200.323 140.805C198.145 127.693 195.887 114.417 190.659 102.109C189.672 99.7829 188.575 97.5054 187.379 95.2789C187.62 98.3181 187.396 101.385 187.62 104.463C187.794 106.825 188.386 108.989 189.471 111.094C190.528 113.155 191.778 115.114 192.393 117.363C193.011 119.627 192.973 121.984 192.938 124.31C192.897 126.677 192.957 128.998 193.429 131.328C194.311 135.674 196.31 139.734 198.881 143.323C200.82 146.029 203.071 148.483 205.539 150.707C205.036 148.324 205.243 145.701 205.36 143.267Z" fill="#87C2A2"/>
<path d="M166.922 42.5851C166.749 42.8368 166.494 43.051 166.28 43.2715C166.047 43.5162 165.808 43.7619 165.562 43.9942C165.114 44.4142 164.679 44.8417 164.198 45.2236C163.692 45.6259 163.003 44.9452 163.394 44.4268C163.767 43.9375 164.183 43.489 164.592 43.032C164.819 42.7787 165.059 42.5378 165.303 42.2959C165.518 42.0803 165.729 41.8204 165.975 41.6381C166.249 41.44 166.618 41.4572 166.859 41.6968C167.096 41.9422 167.113 42.3044 166.922 42.5851Z" fill="#89A194"/>
<path d="M212.926 49.5735C212.701 49.4807 212.537 49.37 212.366 49.2008C212.233 49.0686 212.106 48.9403 211.973 48.8081C211.712 48.5476 211.447 48.288 211.186 48.0227C210.66 47.5026 210.139 46.9768 209.613 46.4567C209.435 46.2789 209.494 45.9409 209.656 45.7816C209.821 45.6164 210.139 45.5544 210.331 45.7292C210.874 46.2356 211.416 46.742 211.953 47.2447C212.222 47.4984 212.496 47.7511 212.765 48.0048C212.902 48.1312 213.038 48.2575 213.171 48.3849C213.346 48.5531 213.455 48.7105 213.556 48.9295C213.732 49.313 213.31 49.7327 212.926 49.5735Z" fill="#89A194"/>
<path d="M226.127 108.342C221.854 106.419 217.51 104.347 214.211 100.937C211.028 97.6522 209.757 93.1479 206.994 89.5745C204.088 85.8209 199.396 84.1173 196.243 80.6163C193.729 77.8215 192.44 74.1824 191.938 70.5021C191.335 66.0569 191.854 61.495 192.424 57.0776C192.503 56.4799 193.23 56.4366 193.505 56.8142C193.889 56.4478 194.628 56.3918 194.996 56.855C199.647 62.7541 205.904 66.9321 211.101 72.2852C213.758 75.0246 215.885 78.1262 217.564 81.5479C219.376 85.242 220.731 89.1476 222.189 92.9916C223.957 97.6617 225.71 102.335 227.425 107.021C227.703 107.789 226.962 108.716 226.127 108.342ZM220.815 95.4955C219.346 91.6487 217.968 87.7529 216.278 83.9979C214.704 80.504 212.75 77.2958 210.153 74.4635C207.676 71.7664 204.826 69.4433 202.058 67.053C200.098 65.3634 198.142 63.6429 196.399 61.7423C198.395 67.1855 202.056 71.9064 206.249 75.8989C208.838 78.3622 211.559 80.8126 213.445 83.8851C215.095 86.5766 215.943 89.5728 216.902 92.5504C217.919 95.7062 219.046 98.9791 221.938 100.887C223.015 101.597 221.798 103.186 220.722 102.481C215.194 98.856 215.318 91.5929 212.673 86.1816C211.005 82.7676 208.114 80.1277 205.405 77.5446C202.665 74.933 200.091 72.2311 198.073 69.0063C195.974 65.6584 194.591 62.074 193.505 58.3068C192.834 65.2096 192.378 73.344 196.943 79.0009C199.751 82.4797 204.12 84.1464 207.199 87.3426C210.194 90.4513 211.466 94.6951 213.989 98.1289C216.653 101.758 220.664 103.796 224.711 105.551C223.399 102.207 222.095 98.856 220.815 95.4955Z" fill="#89A194"/>
<path d="M207.264 82.3857C207.064 82.6483 206.67 82.7063 206.375 82.5884C206.15 82.4957 205.94 82.3048 205.739 82.1618C205.432 81.9411 205.136 81.7031 204.853 81.4524C204.244 80.915 203.662 80.3417 203.064 79.7868C202.833 79.5702 202.747 79.2328 202.954 78.9586C203.154 78.696 203.518 78.6643 203.782 78.8488C204.45 79.3087 205.135 79.7502 205.788 80.2334C206.091 80.4598 206.39 80.6921 206.67 80.9486C206.849 81.111 207.079 81.2729 207.225 81.4673C207.423 81.7161 207.469 82.1221 207.264 82.3857Z" fill="#89A194"/>
<path d="M176.934 189.776C176.59 189.904 176.2 189.766 176.048 189.423C175.8 188.864 175.555 188.3 175.307 187.741C175.184 187.466 175.065 187.186 174.942 186.912C174.778 186.54 174.486 186.081 174.67 185.672C174.819 185.335 175.178 185.184 175.529 185.305C175.946 185.453 176.073 185.961 176.227 186.335C176.347 186.62 176.464 186.911 176.584 187.196C176.819 187.762 177.054 188.329 177.289 188.895C177.423 189.222 177.273 189.65 176.934 189.776Z" fill="#89A194"/>
<path d="M118.632 156.403C118.175 156.68 117.685 156.873 117.156 156.98C116.618 157.088 116.044 157.095 115.502 156.994C115.204 156.936 114.939 156.677 114.99 156.35C115.037 156.05 115.312 155.787 115.633 155.839C115.742 155.856 115.85 155.868 115.961 155.875C116.017 155.878 116.078 155.88 116.134 155.884C116.159 155.883 116.183 155.883 116.209 155.888C116.214 155.887 116.21 155.888 116.214 155.887C116.432 155.876 116.648 155.855 116.864 155.809C116.922 155.797 116.979 155.785 117.036 155.768C117.05 155.765 117.05 155.765 117.06 155.763C117.064 155.762 117.064 155.762 117.074 155.76C117.192 155.725 117.308 155.681 117.419 155.637C117.515 155.597 117.606 155.553 117.702 155.507C117.747 155.483 117.788 155.464 117.828 155.441C117.85 155.426 117.872 155.411 117.899 155.396C118.023 155.319 118.158 155.251 118.29 155.188C118.564 155.06 118.95 155.159 119.077 155.452C119.238 155.834 118.951 156.205 118.632 156.403Z" fill="#89A194"/>
<path d="M135.001 208.853C134.878 209.144 134.754 209.436 134.631 209.732C134.507 210.024 134.346 210.303 134.195 210.585C134.092 210.783 133.974 210.938 133.763 211.027C133.579 211.106 133.331 211.118 133.148 211.032C132.715 210.833 132.578 210.421 132.701 209.984C132.786 209.676 132.861 209.365 132.973 209.066C133.085 208.767 133.198 208.472 133.31 208.173C133.388 207.971 133.459 207.761 133.593 207.592C133.605 207.575 133.606 207.58 133.608 207.569C133.619 207.547 133.629 207.525 133.639 207.503C133.671 207.441 133.699 207.38 133.731 207.318C133.844 207.094 133.939 206.833 134.142 206.68C134.361 206.509 134.688 206.42 134.95 206.525C135.213 206.629 135.385 206.924 135.427 207.195C135.466 207.447 135.354 207.701 135.279 207.938C135.257 208.002 135.236 208.067 135.22 208.135C135.215 208.156 135.206 208.183 135.2 208.205C135.197 208.215 135.201 208.209 135.196 208.235C135.167 208.452 135.088 208.649 135.001 208.853Z" fill="#89A194"/>
<path d="M66.4837 215.303C65.0937 215.907 63.4741 216.064 61.9749 215.89C61.5332 215.838 61.1508 215.403 61.2248 214.946C61.3014 214.479 61.6939 214.156 62.1682 214.196C62.3365 214.211 62.5038 214.22 62.6702 214.225C62.7557 214.227 62.8355 214.226 62.921 214.227C62.946 214.227 62.9412 214.228 62.9508 214.226C62.971 214.227 62.9902 214.223 63.0104 214.224C63.3437 214.213 63.6768 214.178 64.0069 214.128C64.172 214.104 64.336 214.074 64.499 214.04C64.6572 214.006 64.8434 213.987 64.985 213.922C64.7602 214.019 65.0079 213.912 65.0645 213.895C65.1439 213.868 65.2234 213.841 65.3029 213.815C65.4629 213.766 65.6229 213.717 65.7818 213.663C66.1035 213.55 66.3895 213.6 66.6412 213.772C66.646 213.771 66.6518 213.775 66.6528 213.78C66.9663 213.889 67.1321 214.295 67.0008 214.598C66.9736 214.659 66.9774 214.653 67.0132 214.585C67.0232 214.894 66.7448 215.188 66.4837 215.303Z" fill="#89A194"/>
<path d="M55.421 216.302C54.7859 216.046 55.1828 215.055 55.8179 215.312C56.4578 215.567 56.0609 216.558 55.421 216.302Z" fill="#89A194"/>
</svg>
