<svg width="30" height="30" viewBox="0 0 30 30" fill="none" xmlns="http://www.w3.org/2000/svg">
<rect width="30" height="30" rx="15" fill="#DEFF7F"/>
<path d="M12.48 9H17.52C19.44 9 21 10.56 21 12.48V17.52C21 18.443 20.6334 19.3281 19.9807 19.9807C19.3281 20.6334 18.443 21 17.52 21H12.48C10.56 21 9 19.44 9 17.52V12.48C9 11.557 9.36664 10.6719 10.0193 10.0193C10.6719 9.36664 11.557 9 12.48 9ZM12.36 10.2C11.7871 10.2 11.2377 10.4276 10.8326 10.8326C10.4276 11.2377 10.2 11.7871 10.2 12.36V17.64C10.2 18.834 11.166 19.8 12.36 19.8H17.64C18.2129 19.8 18.7623 19.5724 19.1674 19.1674C19.5724 18.7623 19.8 18.2129 19.8 17.64V12.36C19.8 11.166 18.834 10.2 17.64 10.2H12.36ZM18.15 11.1C18.3489 11.1 18.5397 11.179 18.6803 11.3197C18.821 11.4603 18.9 11.6511 18.9 11.85C18.9 12.0489 18.821 12.2397 18.6803 12.3803C18.5397 12.521 18.3489 12.6 18.15 12.6C17.9511 12.6 17.7603 12.521 17.6197 12.3803C17.479 12.2397 17.4 12.0489 17.4 11.85C17.4 11.6511 17.479 11.4603 17.6197 11.3197C17.7603 11.179 17.9511 11.1 18.15 11.1ZM15 12C15.7956 12 16.5587 12.3161 17.1213 12.8787C17.6839 13.4413 18 14.2044 18 15C18 15.7956 17.6839 16.5587 17.1213 17.1213C16.5587 17.6839 15.7956 18 15 18C14.2044 18 13.4413 17.6839 12.8787 17.1213C12.3161 16.5587 12 15.7956 12 15C12 14.2044 12.3161 13.4413 12.8787 12.8787C13.4413 12.3161 14.2044 12 15 12ZM15 13.2C14.5226 13.2 14.0648 13.3896 13.7272 13.7272C13.3896 14.0648 13.2 14.5226 13.2 15C13.2 15.4774 13.3896 15.9352 13.7272 16.2728C14.0648 16.6104 14.5226 16.8 15 16.8C15.4774 16.8 15.9352 16.6104 16.2728 16.2728C16.6104 15.9352 16.8 15.4774 16.8 15C16.8 14.5226 16.6104 14.0648 16.2728 13.7272C15.9352 13.3896 15.4774 13.2 15 13.2Z" fill="#171717"/>
</svg>
