<svg width="236" height="252" viewBox="0 0 236 252" fill="none" xmlns="http://www.w3.org/2000/svg">
<path d="M168.508 48.2071C160.858 54.5009 151.698 59.7201 141.64 60.4916C139.227 60.679 136.818 60.6018 134.421 60.2381C131.627 59.8082 128.91 58.9595 126.104 58.6013C123.194 58.2265 120.571 58.7611 117.793 59.5988C115.297 60.3538 112.85 61.0207 110.221 60.9821C105.481 60.9215 100.935 59.0367 96.2501 58.5737C96.2777 58.6454 96.2997 58.7225 96.3107 58.8052C96.4154 59.4445 96.5477 60.0728 96.702 60.6955C97.3524 61.0483 98.0082 61.3955 98.6585 61.7537C112.778 69.5741 126.226 78.607 138.813 88.7145C139.232 88.5492 139.656 88.4004 140.075 88.2516C148.078 82.1121 157.948 78.7613 168.012 78.359C178.918 77.9236 188.927 82.046 199.106 85.3637C205.025 87.2926 211.027 88.924 217.287 89.0066C218.726 89.0397 218.566 91.2111 217.15 91.2221C207.825 90.8143 200.175 97.2569 191.655 99.9905C186.584 101.616 181.503 101.396 176.35 100.255C170.464 98.9544 164.716 97.0585 158.951 95.3059C153.258 93.5809 147.554 92.0213 141.701 91.0403C151.588 99.1913 161.349 107.905 169.533 117.852C169.56 117.858 169.588 117.858 169.621 117.869C173.65 119.561 178.202 119.192 182.473 119.307C187.257 119.434 191.578 120.613 195.59 123.292C199.811 126.108 203.289 129.878 206.954 133.35C210.701 136.899 214.664 140.233 218.968 143.094C223.851 146.34 229.158 148.88 234.868 150.275C235.728 150.484 235.656 151.95 234.758 152.027C215.628 153.747 196.003 146.654 182.258 133.251C178.4 129.486 174.989 125.265 172.206 120.646C172.079 120.437 172.068 120.239 172.128 120.073C171.77 119.98 171.412 119.869 171.054 119.754C173.352 122.664 175.518 125.673 177.502 128.814C182.093 136.078 185.89 143.832 189.434 151.653C192.823 159.137 196.02 166.852 197.8 174.899C198.147 176.464 198.406 178.04 198.615 179.622C199.067 179.236 199.707 179.561 199.933 180.057C200.12 180.096 200.291 180.195 200.412 180.383C201.966 182.73 203.575 185.001 204.964 187.448C206.37 189.928 207.714 192.447 208.982 194.998C211.082 199.22 213.33 203.739 213.148 208.578C212.961 213.604 210.128 217.98 208.723 222.692C207.356 227.272 206.926 232.056 206.133 236.751C205.251 241.97 203.906 247.2 200.588 251.45C199.833 252.42 198.505 251.885 198.439 250.722C197.937 242.086 191.263 235.324 189.538 227.007C189.114 224.968 189.009 222.835 189.345 220.78C189.797 217.997 190.971 215.428 191.759 212.733C193.358 207.266 191.252 201.744 191.611 196.189C191.969 190.644 193.991 185.442 197.37 181.093C195.794 173.064 193.28 165.37 190.04 157.864C186.7 150.126 183.019 142.482 178.731 135.218C176.212 130.952 173.391 126.913 170.354 123.044C173.997 128.946 176.637 135.527 178.643 142.124C181.007 149.911 182.324 158.046 182.693 166.175C182.919 171.146 182.848 176.199 181.481 181.022C181.189 182.041 179.833 182.218 179.172 181.479C175.683 177.566 172.233 173.571 169.643 168.985C167.108 164.51 165.746 159.622 165.818 154.469C165.895 149.321 167.223 144.317 167.775 139.219C168.353 133.862 167.742 128.781 165.829 123.738C164.06 119.065 161.464 114.827 159.15 110.429C154.399 105.634 149.378 101.087 144.253 96.7003C142.329 95.0524 140.373 93.4432 138.405 91.8504C144.313 100.751 149.18 110.274 152.861 120.316C153.848 123.016 154.763 125.744 155.606 128.494C156.433 131.189 157.248 133.917 157.557 136.728C158.108 141.738 156.918 146.615 155.369 151.349C153.589 156.789 151.103 162.08 150.348 167.8C150.199 168.936 148.943 169.316 148.144 168.544C144.137 164.692 141.547 159.407 141.056 153.857C140.797 150.947 141.177 148.015 140.874 145.116C140.549 142.036 139.149 139.407 137.656 136.75C134.404 130.986 130.921 125.298 127.923 119.395C125.371 114.375 124.363 109.084 125.564 103.534C126.193 100.63 127.388 97.8687 128.733 95.2343C130.067 92.622 131.797 90.3348 133.55 88.0091C123.729 80.4091 113.406 73.454 102.676 67.2098C101.111 66.3004 99.5348 65.4021 97.9531 64.5203C100.786 71.7069 106.181 77.7748 110.915 83.782C113.947 87.6288 116.895 91.6134 119.05 96.0334C121.31 100.668 122.511 105.728 122.632 110.875C122.77 116.656 121.536 122.763 118.697 127.839C118.284 128.577 117.259 128.335 116.901 127.712C114.415 123.419 111.527 119.34 108.794 115.201C106.088 111.107 103.387 107.017 100.681 102.922C98.2396 99.2299 95.6935 95.6972 94.6684 91.3158C93.6433 86.9399 93.4339 82.3105 93.0316 77.8464C92.53 72.3462 92.1498 66.8405 91.6703 61.3404C91.6648 61.2632 91.6758 61.1915 91.6923 61.1254C82.18 56.1267 72.3866 51.6406 62.3727 47.7497C67.3108 53.2058 70.7332 59.8523 74.6407 66.1296C77.2971 70.3953 80.4826 74.2145 83.4862 78.2267C86.4512 82.1837 88.7494 86.4549 90.4578 91.0954C91.9459 95.1406 94.6684 101.181 91.4774 105.072C91.1688 105.447 90.535 105.728 90.0941 105.347C85.7678 101.6 81.0943 98.282 76.0901 95.5099C73.6101 94.132 71.0694 92.8259 68.8043 91.1119C66.6274 89.4641 64.7646 87.469 63.1939 85.2425C57.8811 77.6756 54.905 68.4719 54.2547 59.2847C53.924 54.6277 54.1886 49.7007 55.401 45.1539C47.6027 42.3597 39.6831 39.9017 31.6587 37.8295C30.7494 37.5925 29.8345 37.3666 28.9197 37.1406C31.0194 39.56 32.1161 42.8337 33.2735 45.8979C34.1884 48.3174 35.2135 50.6927 36.6684 52.8476C38.1289 55.0135 39.8153 57.0085 41.5789 58.9319C45.0124 62.6741 48.5726 66.3225 51.1905 70.7149C53.7422 74.9861 55.0979 79.858 55.9632 84.7299C56.9442 90.2742 57.5559 95.9838 57.7488 101.605C57.7874 102.658 56.2773 103.082 55.6546 102.311C51.5322 97.1908 45.8391 93.8455 40.4987 90.1695C35.9906 87.0667 31.8406 83.5946 28.5725 79.1691C22.7196 71.255 19.5341 61.2577 19.7766 51.4091C19.9088 46.0027 21.0221 40.7505 23.4195 35.9006C18.1067 34.7928 12.7387 33.9882 7.30469 33.7567C5.25452 33.6686 3.20988 33.6741 1.15971 33.7567C-0.493652 33.8229 -0.322815 31.2602 1.31401 31.194C9.64696 30.8578 17.9248 32.0538 26.0428 33.8615C26.1089 33.878 26.1751 33.8945 26.2412 33.9111C26.2081 33.8945 26.1806 33.8835 26.1475 33.8725C25.9987 33.8008 25.8885 33.6961 25.8003 33.5804C25.5413 33.5749 25.2823 33.3379 25.3594 32.9962C26.4506 28.3062 28.6992 24.057 31.8075 20.3921C35.004 16.6224 39.0217 14.1148 42.9071 11.1497C46.5941 8.33903 49.3607 4.37096 53.5658 2.26017C57.1481 0.46351 61.2043 -0.197835 65.1834 0.0501693C70.5348 0.380842 75.6382 2.19403 80.6479 3.97966C81.6399 4.33238 81.684 6.02432 80.5101 6.15108C71.4387 7.1927 66.6659 15.7351 60.8406 21.6651C59.2203 23.3185 57.4677 24.7955 55.5223 26.0521C53.5548 27.3252 51.455 28.3723 49.4765 29.6288C45.9052 31.8939 42.8244 34.5504 38.5753 35.4542C37.0762 35.7738 35.5221 35.8896 33.9624 35.829C39.6941 37.3335 45.3817 39.0365 50.9976 40.8993C64.1694 45.2697 76.994 50.6045 89.3721 56.8597C89.3887 56.8487 89.3997 56.8322 89.4217 56.8212C95.0046 54.0215 100.654 51.343 106.347 48.7748C111.086 46.6419 116.03 44.7737 121.26 44.4209C126.286 44.0792 130.916 45.7491 135.76 46.7467C138.119 47.2316 140.582 47.4852 142.958 46.9726C144.236 46.6971 145.449 46.1955 146.705 45.8594C148.006 45.5122 149.356 45.4019 150.701 45.4901C153.622 45.683 156.372 46.7522 159.221 47.3419C161.778 47.8709 164.799 48.0749 167.053 46.5152C168.204 45.7216 169.643 47.2757 168.508 48.2071ZM174.079 97.8246C179.464 99.2299 184.837 99.9794 190.271 98.4473C194.713 97.1963 198.781 94.9146 202.931 92.9471C204.882 92.0213 206.893 91.145 208.954 90.4506C201.217 89.0232 193.81 85.8873 186.32 83.4899C181.327 81.8917 176.223 80.6241 170.971 80.343C165.912 80.073 160.864 80.6571 155.997 82.0625C152.106 83.1813 148.359 84.8291 144.87 86.9069C148.822 86.0747 152.867 85.8652 156.989 86.1463C163.746 86.6092 170.37 88.1524 176.989 89.5081C180.996 90.3238 184.992 90.8419 189.053 91.2828C189.99 91.3875 189.869 92.6661 188.965 92.7102C185.57 92.8755 182.126 92.4401 178.769 91.9441C175.38 91.4426 172.029 90.7702 168.667 90.1309C162.445 88.946 156.135 87.8713 149.775 88.2792C147.526 88.4224 145.283 88.72 143.112 89.2822C153.655 91.0788 163.74 95.1296 174.079 97.8246ZM194.085 195.621C193.589 200.972 195.513 206.313 194.432 211.62C193.865 214.409 192.603 216.977 191.875 219.722C191.324 221.805 191.252 223.927 191.638 226.048C192.377 230.127 194.438 233.825 196.301 237.479C197.959 240.736 199.536 244.059 200.318 247.608C204.27 240.554 204.038 231.786 205.879 224.048C206.959 219.512 209.401 215.428 210.404 210.887C211.445 206.186 209.55 201.772 207.538 197.622C206.232 194.927 204.849 192.27 203.388 189.658C202.975 188.914 202.567 188.17 202.159 187.426C202.231 187.828 202.313 188.23 202.368 188.638C202.743 191.251 202.925 193.879 203.019 196.519C203.212 201.821 202.837 207.211 201.244 212.298C200.82 213.648 198.483 213.273 198.742 211.813C199.635 206.759 200.495 201.7 200.583 196.558C200.627 194.001 200.434 191.432 200.103 188.897C199.817 186.687 199.497 184.389 198.94 182.207C196.262 186.186 194.526 190.832 194.085 195.621ZM169.996 135.494C169.996 140.63 168.877 145.689 168.447 150.793C168.006 156.012 168.513 160.933 170.839 165.69C173.027 170.154 176.218 174.028 179.48 177.759C180.158 174.331 180.268 170.804 180.219 167.315C180.164 163.364 179.855 159.423 179.227 155.521C178.185 149.073 176.449 142.746 174.063 136.668C174.074 136.789 174.085 136.91 174.096 137.037C174.162 137.726 174.223 138.42 174.272 139.115C174.366 140.465 174.427 141.821 174.46 143.176C174.526 145.888 174.311 148.561 174.09 151.256C174.024 152.099 172.773 152.016 172.79 151.179C172.845 148.555 172.685 145.915 172.575 143.292C172.52 142.024 172.437 140.762 172.338 139.495C172.283 138.839 172.233 138.189 172.173 137.533C172.106 136.866 171.903 136.105 172.184 135.466C172.382 135.014 172.966 134.733 173.396 134.998C173.131 134.358 172.867 133.719 172.591 133.091C171.252 130.065 169.742 127.139 168.182 124.229C169.323 127.899 169.996 131.691 169.996 135.494ZM166.705 120.189C166.926 119.908 167.273 119.715 167.62 119.704C166.838 118.778 166.05 117.858 165.245 116.954C165.774 118.018 166.254 119.098 166.705 120.189ZM218.897 149.63C222.358 150.198 225.863 150.479 229.368 150.468C221.459 147.508 214.46 142.471 208.194 136.838C204.286 133.328 200.77 129.36 196.62 126.13C194.57 124.532 192.344 123.11 189.897 122.201C187.692 121.379 185.399 121.065 183.063 120.961C180.379 120.839 177.706 120.922 175.099 120.624C177.182 121.346 179.265 122.107 181.233 123.093C183.807 124.383 186.314 125.799 188.75 127.337C191.12 128.836 193.429 130.44 195.639 132.165C196.775 133.052 197.882 133.973 198.968 134.915C199.944 135.764 201.272 136.629 201.856 137.792C202.126 138.326 201.553 139.07 200.958 138.811C199.811 138.315 198.918 137.197 197.982 136.381C196.951 135.483 195.898 134.612 194.824 133.763C192.625 132.016 190.36 130.363 188.012 128.825C185.725 127.326 183.371 125.937 180.952 124.664C178.78 123.518 176.648 122.316 174.443 121.236C184.578 136.221 201.057 146.704 218.897 149.63ZM131.538 95.4713C130.359 97.7033 129.35 100.035 128.645 102.459C127.945 104.862 127.526 107.353 127.636 109.867C127.763 112.661 128.662 115.328 129.841 117.841C131.097 120.525 132.635 123.077 134.101 125.656C135.782 128.621 137.468 131.592 139.149 134.557C140.555 137.037 142.048 139.511 142.803 142.284C143.514 144.912 143.393 147.673 143.382 150.368C143.365 155.808 144.942 160.884 148.309 165.028C149.169 161.049 150.657 157.224 152.205 153.471C154.09 148.908 155.876 144.245 155.865 139.236C155.859 136.486 155.154 133.791 154.36 131.178C153.539 128.467 152.624 125.788 151.627 123.143C149.654 117.929 147.345 112.859 144.826 107.883C142.247 102.779 139.342 97.8411 136.184 93.0739C133.925 98.6182 135.253 105.066 137.204 110.561C139.469 116.943 143.123 122.724 145.294 129.139C146.507 132.716 147.229 136.431 147.047 140.222C146.975 141.754 144.589 141.606 144.672 140.079C145.046 133.019 141.905 126.499 138.885 120.31C135.832 114.05 132.701 107.756 132.426 100.657C132.277 96.8821 133.093 93.1566 134.977 89.8664C135.071 89.701 135.214 89.5743 135.385 89.4806C135.22 89.3483 135.055 89.2105 134.884 89.0838C133.704 91.1725 132.663 93.3384 131.538 95.4713ZM25.4641 41.5937C25.7893 43.214 26.2743 44.7902 26.8916 46.3223C28.1591 49.4747 29.9062 52.4232 31.8406 55.2064C35.8032 60.916 40.5648 66.0359 44.1361 72.0211C46.1808 75.438 47.6743 79.0809 48.3246 83.027C48.4569 83.8151 47.283 84.0465 47.1067 83.2694C44.0975 70.0866 32.4193 61.5608 26.5278 49.8274C26.9026 51.1832 27.3104 52.5279 27.7899 53.8506C29.0575 57.3557 30.5951 60.8333 32.4082 64.0849C32.6232 64.4762 32.006 64.8951 31.7469 64.5203C29.548 61.3238 27.7292 58.0061 26.3625 54.3742C25.7066 52.6271 25.1335 50.8525 24.654 49.0559C24.1525 47.1765 23.6124 45.2421 23.6785 43.2856C23.684 43.0982 23.7887 42.9494 23.932 42.8502C23.8604 42.5471 23.7887 42.2495 23.7281 41.9464C23.6124 41.3567 23.4966 40.7394 23.4195 40.1112C21.4575 48.0914 21.452 56.4243 23.7943 64.3825C25.128 68.9238 27.2277 73.2776 29.9833 77.1245C33.1137 81.4948 37.0597 84.9283 41.4577 87.976C46.1973 91.2607 51.2125 94.2753 55.2688 98.3867C55.2192 94.5344 55.2192 90.6986 54.6515 86.8683C53.9406 82.068 52.5958 77.4606 50.3252 73.1564C45.6572 64.3219 36.7676 58.5186 32.3697 49.4968C30.2369 45.1209 29.2503 39.4112 24.8138 36.6942C25.172 38.287 25.1445 39.9734 25.4641 41.5937ZM37.666 33.4426C39.5673 33.0293 41.3585 32.3624 43.0339 31.3594C44.9297 30.2296 46.6327 28.8022 48.49 27.6117C50.463 26.3497 52.5683 25.3025 54.5358 24.0294C56.4812 22.7674 58.2173 21.2077 59.821 19.5433C62.8908 16.3634 65.5307 12.8031 68.8484 9.86564C71.0804 7.89262 73.6542 6.05188 76.4759 4.93861C73.3345 3.86393 70.149 2.91049 66.8588 2.45857C63.1167 1.94051 58.9613 1.99012 55.4286 3.46161C51.2401 5.20315 48.6333 8.85709 45.2218 11.6623C41.6891 14.5667 37.71 16.8098 34.4805 20.0834C31.3666 23.2358 28.9527 27.0606 27.1395 31.1058C35.8913 22.806 45.4147 14.7706 56.6852 10.1963C57.7102 9.78297 58.4708 11.3261 57.4402 11.7505C46.0099 16.4074 36.922 24.6963 27.6411 32.5718C30.8376 33.8615 34.26 34.1811 37.666 33.4426ZM57.1977 45.8483C56.7403 49.7613 56.4096 53.6357 56.6355 57.5927C56.8835 61.8804 57.5614 66.1186 58.7794 70.241C60.058 74.5673 61.8712 78.7723 64.2631 82.6081C65.6629 84.8567 67.3493 86.984 69.3885 88.687C71.4552 90.412 73.8029 91.7677 76.1232 93.1125C81.1494 96.0169 85.9166 99.2465 90.3311 103.005C90.2594 102.862 90.2374 102.691 90.276 102.52C90.3311 102.283 90.3697 102.074 90.3917 101.787C90.4137 101.506 90.4082 101.225 90.4027 100.949C90.4027 100.889 90.3972 100.834 90.3972 100.773C90.3972 100.757 90.3862 100.663 90.3862 100.646C90.3752 100.52 90.3586 100.393 90.3366 100.266C90.2925 99.9905 90.2263 99.7149 90.1437 99.4449C90.1382 99.4228 90.1272 99.3897 90.1217 99.3732C90.0996 99.3181 90.0831 99.263 90.061 99.2024C90.0114 99.0701 89.9563 98.9433 89.8957 98.8166C89.7744 98.5631 89.6367 98.3206 89.4879 98.0836C89.4768 98.0671 89.4713 98.056 89.4658 98.045C89.4603 98.0395 89.4603 98.034 89.4493 98.023C89.4107 97.9678 89.3666 97.9072 89.328 97.8521C89.2123 97.6923 89.1351 97.549 89.058 97.3727C88.9423 97.1081 88.8376 96.8601 88.7549 96.579C88.6832 96.3255 88.9478 96.0004 89.2178 96.0499C89.4217 96.0885 89.6091 96.1161 89.791 96.2153C89.9122 96.2814 90.028 96.3531 90.1382 96.4302C90.1657 96.4523 90.1933 96.4743 90.2209 96.4964C89.78 94.8981 89.2233 93.3274 88.6557 91.7843C87.0078 87.2926 84.8088 83.1537 81.943 79.3179C79.1599 75.5923 76.1893 72.0486 73.6762 68.1246C71.2788 64.3825 69.1294 60.4806 66.7541 56.722C64.996 53.9388 63.0671 51.1887 60.8461 48.7142C61.3697 49.877 61.8546 51.0619 62.2735 52.2965C63.26 55.1953 64.0371 58.1494 64.8858 61.0868C65.729 64.0133 66.6825 66.9177 68.0603 69.6402C69.6199 72.7155 71.6977 75.5097 73.9573 78.1054C76.52 81.0484 79.3527 83.7379 82.1855 86.4164C83.0673 87.2486 81.6454 88.4335 80.7691 87.6398C75.6768 83.027 70.5017 78.3369 67.0021 72.3462C63.8167 66.8956 62.527 60.6625 60.8241 54.6497C59.9919 51.7178 59.0274 48.6811 57.5449 45.9806C57.4292 45.931 57.3134 45.8869 57.1977 45.8483ZM92.9544 61.8253C93.478 66.328 94.0732 70.8251 94.5692 75.3333C95.0652 79.847 95.3242 84.4268 96.0517 88.9129C96.3989 91.0623 96.9445 93.1621 97.9145 95.1186C98.9065 97.1191 100.207 98.9599 101.436 100.823C104.098 104.857 106.754 108.886 109.416 112.92C112.117 117.009 114.718 121.198 117.584 125.182C119.281 120.944 120.307 116.601 120.345 111.961C120.389 106.857 119.248 101.798 117.022 97.2073C112.773 88.4279 105.498 81.6492 100.136 73.6028C99.8269 73.1398 99.5293 72.6714 99.2372 72.1974C100.361 75.9947 101.59 79.9407 103.823 83.2254C106.055 86.51 108.898 89.2381 110.541 92.9086C112.018 96.2098 112.844 99.9078 112.69 103.523C112.635 104.868 110.524 104.736 110.607 103.396C110.844 99.6543 110.309 96.0444 108.661 92.6551C106.854 88.935 103.652 86.3061 101.491 82.8286C99.3529 79.3785 98.0358 75.3609 96.8784 71.492C96.0297 68.6372 95.3242 65.7383 94.7566 62.8174C94.1669 62.4867 93.5662 62.1505 92.9544 61.8253ZM154.443 48.5047C151.803 47.8158 149.268 47.4686 146.612 48.2512C144.071 49.0007 141.756 49.64 139.078 49.4637C134.107 49.1385 129.483 46.9781 124.55 46.4821C119.155 45.942 113.897 47.6285 108.976 49.6786C102.93 52.1972 97.0437 55.1017 91.031 57.7029C92.0782 58.243 93.1198 58.7887 94.1614 59.3343C94.1559 59.3012 94.1503 59.2681 94.1448 59.2351C94.0952 58.9319 94.1669 58.6784 94.2936 58.4745C93.9023 58.4745 93.511 58.4855 93.1142 58.5131C92.3096 58.5682 91.6648 57.3392 92.6127 57.0085C92.6789 56.9865 92.745 56.9644 92.8056 56.9424C92.8056 56.9424 92.8056 56.9424 92.8111 56.9424C107.173 51.9988 122.588 50.8635 137.683 51.1997C142.015 51.2934 146.341 51.4753 150.668 51.7508C151.781 51.8225 151.671 53.5199 150.563 53.4759C135.628 52.8255 120.494 52.2248 105.735 55.1182C102.946 55.6638 100.185 56.3417 97.4571 57.1408C100.857 57.5817 104.181 58.5407 107.62 59.0091C110.26 59.3673 112.778 59.2185 115.346 58.5131C117.86 57.8297 120.307 56.9093 122.924 56.755C125.559 56.6007 128.143 57.1904 130.695 57.7691C133.291 58.3643 135.859 58.8383 138.532 58.8603C143.52 58.8989 148.452 57.6423 152.999 55.6473C156.427 54.1427 159.651 52.2358 162.671 50.0369C159.932 50.0369 157.094 49.1992 154.443 48.5047Z" fill="#87C2A2"/>
</svg>
