<svg width="303" height="217" viewBox="0 0 303 217" fill="none" xmlns="http://www.w3.org/2000/svg">
<path d="M114.94 151.266C117.676 142.441 118.947 132.69 116.062 123.728C115.369 121.58 114.453 119.523 113.294 117.589C111.935 115.327 110.248 113.281 108.947 110.988C107.598 108.608 107.13 106.153 106.874 103.456C106.642 101.037 106.353 98.6879 105.398 96.4317C103.672 92.3622 100.442 89.0962 98.3918 85.221C98.4653 85.2179 98.5341 85.2129 98.6135 85.1956C99.203 85.0605 99.7969 84.9549 100.385 84.8636C100.922 85.3016 101.45 85.7472 101.989 86.1805C113.725 95.6149 126.27 104.031 139.441 111.333C139.446 111.752 139.467 112.172 139.486 112.586C137.008 121.662 137.601 131.369 140.801 140.2C144.274 149.771 151.37 156.959 157.824 164.573C161.576 168.999 165.105 173.606 167.385 178.988C167.922 180.221 169.741 179.314 169.251 178.089C165.609 170.183 168.47 161.298 167.826 152.982C167.442 148.031 165.459 143.722 162.656 139.676C159.452 135.053 155.789 130.758 152.242 126.399C148.745 122.095 145.383 117.718 142.474 113.011C153.002 118.672 163.968 124.025 175.448 127.577C175.466 127.601 175.473 127.626 175.492 127.646C178.374 130.529 179.664 134.591 181.269 138.238C183.067 142.321 185.614 145.639 189.336 148.157C193.259 150.808 197.74 152.482 202.035 154.418C206.423 156.399 210.702 158.646 214.691 161.352C219.214 164.422 223.283 168.106 226.502 172.546C226.989 173.214 228.224 172.633 227.981 171.832C222.717 154.706 209.664 140.264 193.243 133.131C188.632 131.125 183.782 129.671 178.811 128.902C178.587 128.865 178.412 128.926 178.289 129.037C178.079 128.762 177.859 128.487 177.63 128.22C180.954 129.179 184.314 129.985 187.728 130.592C195.619 131.992 203.658 132.535 211.66 132.83C219.32 133.118 227.106 133.152 234.683 131.848C236.16 131.595 237.609 131.263 239.05 130.884C238.878 131.408 239.381 131.849 239.889 131.869C239.99 132.016 240.132 132.131 240.338 132.171C242.913 132.682 245.439 133.272 248.047 133.607C250.686 133.95 253.333 134.218 255.984 134.409C260.372 134.733 265.067 135.077 269.182 133.215C273.455 131.278 276.234 127.286 279.809 124.411C283.28 121.615 287.258 119.557 291.038 117.212C295.231 114.608 299.278 111.6 301.775 107.241C302.345 106.247 301.416 105.292 300.388 105.641C292.757 108.251 284.561 104.879 276.771 106.323C274.863 106.677 272.984 107.337 271.325 108.354C269.079 109.731 267.277 111.646 265.232 113.277C261.072 116.584 255.562 116.721 250.896 118.99C246.236 121.257 242.457 124.843 239.895 129.292C232.405 130.765 224.873 131.314 217.25 131.164C209.39 131.011 201.492 130.531 193.706 129.39C189.132 128.723 184.651 127.711 180.239 126.449C186.623 127.512 193.234 127.472 199.637 126.87C207.195 126.164 214.687 124.431 221.833 121.877C226.208 120.315 230.547 118.473 234.221 115.589C235 114.981 234.672 113.74 233.804 113.432C229.194 111.799 224.53 110.233 219.653 109.613C214.893 109.009 210.193 109.552 205.769 111.437C201.353 113.315 197.497 116.235 193.29 118.511C188.868 120.903 184.267 122.165 179.238 122.294C174.579 122.415 170.002 121.675 165.389 121.225C159.571 118.816 153.874 116.085 148.277 113.206C146.176 112.123 144.096 111.005 142.024 109.867C151.791 111.829 161.736 112.669 171.702 112.3C174.383 112.204 177.058 112.027 179.732 111.784C182.35 111.545 184.991 111.288 187.527 110.559C192.047 109.263 195.837 106.516 199.377 103.51C203.447 100.055 207.133 96.0363 211.807 93.3697C212.737 92.8409 212.62 91.6254 211.672 91.2013C206.927 89.1014 201.453 88.7306 196.489 90.2658C193.888 91.0732 191.488 92.4307 188.877 93.195C186.103 94.0035 183.339 93.7209 180.517 93.3642C174.391 92.5914 168.254 91.5912 162.097 91.0834C156.86 90.6492 151.94 91.6464 147.574 94.6455C145.293 96.2133 143.326 98.2216 141.523 100.315C139.741 102.388 138.375 104.689 136.985 107.024C126.959 101.224 117.31 94.7681 108.132 87.7058C106.794 86.6761 105.462 85.6323 104.14 84.5761C111.344 84.4865 118.486 87.0017 125.347 88.9726C129.738 90.2315 134.221 91.373 138.796 91.6734C143.593 91.9876 148.388 91.2392 152.878 89.531C157.918 87.61 162.754 84.3876 166.138 80.1439C166.632 79.5246 166.06 78.7273 165.396 78.6373C160.809 78.0036 156.272 76.9513 151.732 76.0537C147.246 75.1613 142.758 74.2737 138.271 73.3814C134.221 72.5795 130.271 71.6249 126.129 72.2865C121.993 72.9453 117.918 74.4019 113.922 75.6244C108.998 77.1314 104.111 78.7485 99.1906 80.2736C99.1207 80.2949 99.0659 80.3334 99.013 80.3673C91.3394 73.9191 84.0083 67.045 77.1137 59.7725C83.5678 62.1096 90.5161 62.721 97.3109 63.8808C101.93 64.6666 106.355 66.0729 110.88 67.2482C115.344 68.4095 119.84 68.8886 124.449 68.7254C128.468 68.5799 134.643 68.8005 136.878 64.6728C137.093 64.2722 137.109 63.6279 136.627 63.3795C131.866 60.9674 127.349 58.0995 123.187 54.7609C121.123 53.1041 119.1 51.3753 116.816 50.0227C114.626 48.7255 112.248 47.8178 109.768 47.2518C101.362 45.3336 92.3619 46.0173 84.2033 48.6936C80.0632 50.0512 75.9053 52.0186 72.4057 54.6687C67.2404 48.9206 62.3218 42.9517 57.7044 36.751C57.1781 36.0449 56.6585 35.3359 56.1436 34.6289C58.9728 35.589 62.1846 35.3779 65.2442 35.2931C67.6573 35.2256 70.0702 35.2802 72.4412 35.7735C74.8285 36.268 77.1424 37.0213 79.4258 37.8621C83.8699 39.5044 88.2782 41.2876 92.9888 41.9999C97.5782 42.6957 102.264 42.1467 106.773 41.1748C111.906 40.0653 117.051 38.5768 121.969 36.7615C122.887 36.4225 122.724 34.9707 121.838 34.7057C115.964 32.9579 111.065 29.2211 106.003 25.9066C101.736 23.1081 97.2673 20.7553 92.2952 19.4904C83.3916 17.2282 73.6422 18.0035 65.223 21.69C60.6034 23.7118 56.4567 26.5289 53.1182 30.313C50.2881 26.1165 47.6956 21.7622 45.5801 17.154C44.7828 15.4188 44.0613 13.6481 43.4116 11.8513C42.8863 10.4005 40.7341 11.4541 41.2538 12.8915C43.9055 20.2059 47.8606 26.9343 52.2824 33.2991C52.3163 33.3519 52.3568 33.402 52.3906 33.4549C52.366 33.4336 52.3481 33.4096 52.3235 33.3883C52.2053 33.284 52.0789 33.2263 51.9494 33.1897C51.8525 32.9662 51.5589 32.8286 51.2915 33.0186C47.6312 35.6136 44.7544 39.0598 42.6816 43.0373C40.5524 47.1251 39.8074 51.483 38.6209 55.887C37.496 60.0606 35.0453 63.849 34.7097 68.2255C34.419 71.9533 35.2862 75.6912 36.904 79.0379C39.0788 83.5426 42.447 87.3102 45.7567 91.0038C46.4116 91.7351 47.8876 91.1757 47.5845 90.1167C45.2597 81.9417 50.9518 74.8074 54.0195 67.6868C54.8754 65.7043 55.5313 63.6672 55.9323 61.5472C56.3403 59.3967 56.4994 57.216 56.8864 55.0625C57.5854 51.1805 58.7893 47.5843 58.065 43.594C57.8104 42.188 57.3636 40.8029 56.7625 39.4821C60.0838 43.9032 63.558 48.2094 67.1528 52.3985C75.5779 62.2311 84.7075 71.4198 94.4794 79.9002C94.4763 79.9212 94.4657 79.9335 94.4626 79.9544C94.0148 85.7637 93.6947 91.5867 93.4921 97.408C93.3197 102.252 93.4576 107.18 94.9991 111.818C96.4813 116.276 99.5514 119.688 102.127 123.518C103.381 125.386 104.465 127.423 104.863 129.655C105.075 130.854 105.072 132.076 105.224 133.285C105.384 134.529 105.765 135.737 106.313 136.863C107.513 139.321 109.404 141.318 110.918 143.565C112.278 145.582 113.521 148.124 112.967 150.615C112.686 151.878 114.535 152.573 114.94 151.266ZM159.747 138.56C162.857 142.711 165.403 147.085 165.996 152.322C166.481 156.598 165.952 160.917 165.713 165.194C165.602 167.205 165.559 169.251 165.686 171.277C161.721 165.1 156.4 159.811 151.689 154.188C148.546 150.441 145.652 146.48 143.554 142.046C141.534 137.772 140.256 133.209 139.752 128.508C139.347 124.755 139.444 120.931 140.006 117.193C140.68 120.901 141.929 124.468 143.624 127.924C146.407 133.597 150.081 138.769 153.583 144.005C155.702 147.174 157.557 150.446 159.375 153.792C159.791 154.564 160.859 154.009 160.575 153.213C159.523 150.222 157.932 147.404 156.315 144.675C154.686 141.924 152.92 139.272 151.183 136.594C147.965 131.637 144.811 126.568 142.914 120.932C142.243 118.943 141.707 116.898 141.428 114.821C146.71 123.308 153.769 130.587 159.747 138.56ZM251.246 121.325C255.692 119.01 260.982 118.788 265.182 115.976C267.386 114.499 269.165 112.502 271.274 110.908C272.879 109.696 274.687 108.884 276.653 108.471C280.436 107.672 284.356 108.142 288.167 108.461C291.569 108.746 294.99 108.932 298.329 108.357C293.633 114.261 285.981 117.152 279.948 121.471C276.412 124.006 273.75 127.552 270.185 130.025C266.496 132.58 262.012 132.506 257.716 132.232C254.93 132.057 252.145 131.799 249.375 131.464C248.592 131.369 247.801 131.276 247.013 131.191C247.386 131.111 247.761 131.037 248.137 130.948C250.53 130.349 252.861 129.575 255.172 128.731C259.821 127.028 264.336 124.801 268.167 121.632C269.186 120.79 268.035 118.903 266.867 119.645C262.821 122.203 258.75 124.729 254.345 126.622C252.155 127.566 249.866 128.302 247.562 128.915C245.552 129.449 243.454 129.98 241.375 130.274C243.868 126.531 247.268 123.395 251.246 121.325ZM190.829 121.744C195.268 119.932 199.237 117.18 203.491 115.008C207.843 112.787 212.272 111.482 217.195 111.814C221.819 112.13 226.292 113.512 230.671 115.016C227.953 116.809 224.943 118.149 221.911 119.34C218.482 120.685 214.964 121.815 211.376 122.644C205.439 124.017 199.363 124.755 193.273 124.842C193.381 124.809 193.489 124.775 193.602 124.744C194.224 124.556 194.842 124.365 195.459 124.164C196.661 123.77 197.849 123.342 199.031 122.889C201.393 121.988 203.627 120.857 205.877 119.716C206.579 119.361 206.067 118.31 205.35 118.62C203.104 119.591 200.769 120.386 198.464 121.215C197.353 121.619 196.232 121.991 195.106 122.35C194.522 122.538 193.941 122.721 193.357 122.897C192.754 123.077 192.028 123.167 191.578 123.638C191.263 123.969 191.22 124.574 191.602 124.848C190.958 124.845 190.313 124.845 189.671 124.825C186.587 124.739 183.525 124.467 180.465 124.146C184.037 123.844 187.541 123.086 190.829 121.744ZM176.457 124.307C176.292 124.6 176.252 124.967 176.361 125.268C175.287 124.92 174.215 124.567 173.147 124.188C174.245 124.263 175.352 124.302 176.457 124.307ZM220.296 158.974C222.007 161.759 223.491 164.689 224.717 167.718C219.371 161.935 212.555 157.669 205.476 154.246C201.067 152.112 196.398 150.477 192.144 148.035C190.039 146.829 188.027 145.41 186.375 143.617C184.888 142.004 183.807 140.135 182.895 138.152C181.844 135.873 180.97 133.539 179.795 131.398C181.155 132.942 182.543 134.471 184.094 135.822C186.118 137.59 188.229 139.255 190.41 140.815C192.538 142.331 194.739 143.761 197.008 145.057C198.172 145.726 199.359 146.354 200.555 146.959C201.632 147.502 202.849 148.343 204.061 148.436C204.615 148.481 205.06 147.725 204.628 147.302C203.797 146.487 202.518 146.11 201.481 145.589C200.345 145.015 199.22 144.412 198.109 143.788C195.824 142.507 193.598 141.134 191.441 139.65C189.339 138.205 187.313 136.659 185.357 135.024C183.599 133.555 181.809 132.139 180.1 130.617C196.601 134.075 211.467 144.605 220.296 158.974ZM142.697 102.661C144.207 100.859 145.863 99.1615 147.706 97.6971C149.534 96.243 151.537 94.9998 153.745 94.2141C156.203 93.3364 158.824 93.1708 161.41 93.3026C164.173 93.4401 166.919 93.8714 169.66 94.2225C172.818 94.6285 175.971 95.0326 179.129 95.4386C181.763 95.779 184.428 96.1933 187.087 95.8657C189.607 95.5529 191.948 94.4717 194.273 93.5116C198.962 91.5793 203.905 91.1474 208.669 92.5935C205.538 94.7396 202.756 97.3743 200.062 100.039C196.788 103.277 193.394 106.466 189.06 108.227C186.682 109.193 184.107 109.533 181.573 109.773C178.945 110.025 176.307 110.178 173.666 110.246C168.467 110.383 163.276 110.174 158.092 109.761C152.775 109.333 147.485 108.57 142.254 107.527C146.245 103.617 152.279 102.495 157.712 102.237C164.022 101.941 170.302 103.055 176.613 102.664C180.133 102.447 183.589 101.764 186.797 100.267C188.092 99.6604 187.128 97.6561 185.835 98.269C179.87 101.087 173.13 100.673 166.725 100.252C160.245 99.828 153.705 99.3459 147.478 101.612C144.168 102.817 141.238 104.84 139.062 107.624C138.955 107.763 138.891 107.931 138.872 108.112C138.701 108.014 138.523 107.919 138.353 107.821C139.749 106.05 141.253 104.384 142.697 102.661ZM58.7405 30.0944C60.25 29.8046 61.7865 29.6649 63.3236 29.6589C66.4942 29.6421 69.6541 30.1102 72.74 30.798C79.0711 32.2059 85.1676 34.5069 91.5986 35.4833C95.272 36.0407 98.9446 36.0473 102.579 35.2153C103.309 35.0491 103.093 33.9538 102.358 34.0789C89.9145 36.1294 78.4316 29.0623 66.2189 28.1108C67.5217 27.9582 68.8262 27.8286 70.1365 27.7791C73.6091 27.6366 77.1547 27.7354 80.6062 28.1569C81.02 28.2051 81.1684 27.5212 80.7492 27.4319C77.2125 26.6639 73.7045 26.2581 70.0862 26.3628C68.3473 26.4136 66.6142 26.5445 64.8877 26.7672C63.0858 26.9977 61.2229 27.2142 59.5579 27.9625C59.3996 28.0363 59.3084 28.1767 59.2714 28.3338C58.9865 28.3776 58.7016 28.4214 58.4175 28.4767C57.8674 28.5837 57.2953 28.7038 56.7257 28.8582C62.9204 24.3496 70.1186 21.3999 77.8137 20.6176C82.2021 20.1686 86.7081 20.4463 91.0031 21.4656C95.8846 22.6265 100.235 24.8196 104.422 27.5456C108.93 30.4763 113.306 33.7418 118.28 35.7972C114.937 37.1105 111.626 38.4652 108.116 39.3319C103.723 40.4129 99.2668 40.8784 94.7511 40.4354C85.4802 39.523 77.3295 33.8957 67.9859 33.2814C63.4553 32.9824 58.1763 34.1488 54.2671 31.2757C55.785 31.006 57.2311 30.3843 58.7405 30.0944ZM56.0115 43.5039C56.3242 45.2953 56.3802 47.0753 56.1077 48.8701C55.8021 50.9071 55.1715 52.8824 54.7983 54.9082C54.4018 57.0578 54.2407 59.2432 53.8394 61.3909C53.4412 63.5176 52.703 65.5653 51.8329 67.542C50.1738 71.3119 48.0273 74.8477 46.6637 78.7505C45.7486 81.3759 45.0659 84.2471 45.1015 87.0752C43.0665 84.741 41.1154 82.3245 39.565 79.6507C37.7961 76.6032 36.3738 72.998 36.3946 69.4258C36.4204 65.1941 38.6518 61.6544 39.8726 57.7205C41.1339 53.6476 41.6646 49.4183 43.3523 45.4711C44.9726 41.674 47.4283 38.2378 50.2804 35.243C46.1994 45.7268 42.626 56.7868 42.6534 68.1351C42.657 69.1652 44.2626 69.2764 44.2629 68.2368C44.2466 56.7262 48.198 45.9499 51.7219 35.1587C53.9663 37.4569 55.4461 40.3019 56.0115 43.5039ZM73.613 55.9892C76.8305 54.2125 80.0591 52.5572 83.5541 51.3619C87.3481 50.0618 91.2373 49.1513 95.2348 48.7469C99.4225 48.3264 103.693 48.4069 107.848 49.1182C110.285 49.533 112.713 50.2389 114.904 51.3977C117.124 52.5682 119.125 54.1212 121.101 55.6529C125.379 58.9669 129.852 61.9441 134.654 64.4293C134.504 64.4172 134.348 64.4585 134.219 64.5555C134.037 64.6863 133.865 64.7934 133.627 64.9122C133.394 65.0329 133.151 65.122 132.907 65.2159C132.855 65.2335 132.803 65.2511 132.756 65.2707C132.743 65.2763 132.66 65.3031 132.642 65.3067C132.527 65.3428 132.409 65.3721 132.293 65.3967C132.037 65.4522 131.779 65.4963 131.518 65.5223C131.496 65.524 131.466 65.5284 131.445 65.5253C131.388 65.5295 131.332 65.5289 131.275 65.5331C131.146 65.5356 131.014 65.5314 130.883 65.5271C130.621 65.5139 130.365 65.475 130.104 65.4341C130.083 65.431 130.073 65.4271 130.062 65.428C130.052 65.424 130.047 65.4221 130.036 65.4229C129.97 65.4069 129.909 65.3929 129.844 65.377C129.666 65.3369 129.512 65.3182 129.336 65.3125C129.066 65.3069 128.817 65.3043 128.545 65.3311C128.3 65.3581 128.115 65.6989 128.253 65.9171C128.359 66.0776 128.447 66.2303 128.596 66.3531C128.697 66.4334 128.799 66.5089 128.903 66.5797C128.93 66.5962 128.958 66.6079 128.99 66.6264C127.458 66.8072 125.899 66.8817 124.368 66.9403C119.908 67.1041 115.556 66.6675 111.233 65.542C107.034 64.4512 102.925 63.1418 98.6518 62.3538C94.5726 61.607 90.4506 61.1261 86.3664 60.405C83.3466 59.8667 80.2856 59.1725 77.3674 58.1312C78.5555 58.176 79.7518 58.1741 80.9659 58.1017C83.8164 57.9308 86.6431 57.561 89.4788 57.2506C92.3031 56.9409 95.1471 56.7451 97.983 56.974C101.19 57.2335 104.331 58.0442 107.37 59.0742C110.819 60.2451 114.139 61.7411 117.45 63.2447C118.48 63.7136 119.003 62.0665 118.005 61.5884C112.225 58.8172 106.349 56.0069 99.9394 55.1003C94.1073 54.2761 88.2689 55.3564 82.4778 56.0114C79.6563 56.3277 76.6887 56.5671 73.8366 56.2426C73.7659 56.1578 73.6885 56.0759 73.613 55.9892ZM100.032 81.2265C104.105 80.0859 108.199 79.0152 112.264 77.8545C116.337 76.6862 120.385 75.2962 124.513 74.3452C126.49 73.8922 128.496 73.6123 130.524 73.7641C132.603 73.9145 134.654 74.3873 136.694 74.7942C141.115 75.6706 145.537 76.5422 149.96 77.4138C154.443 78.2995 158.98 79.0682 163.426 80.1387C160.367 83.0979 156.977 85.521 152.987 87.1904C148.593 89.0274 143.825 89.8315 139.073 89.5302C129.995 88.9587 121.573 85.0709 112.734 83.2857C112.226 83.1821 111.712 83.0927 111.203 83.0054C114.876 82.6339 118.72 82.3052 122.345 83.076C125.964 83.8448 129.324 85.3403 133.078 85.4584C136.447 85.5678 139.931 84.9796 143.004 83.5661C144.144 83.0404 143.284 81.2683 142.157 81.816C139.009 83.3433 135.701 84.1539 132.196 83.9275C128.35 83.6824 124.944 81.8399 121.18 81.2062C117.448 80.5746 113.511 80.8593 109.762 81.2272C106.997 81.5002 104.246 81.9175 101.521 82.4573C101.032 82.0388 100.525 81.6355 100.032 81.2265ZM110.231 139.012C108.707 136.977 107.507 134.909 107.244 132.338C106.993 129.882 106.732 127.656 105.632 125.401C103.6 121.223 100.099 117.995 97.9311 113.905C95.5584 109.435 95.161 104.301 95.1973 99.3284C95.2406 93.219 95.6647 87.1164 95.791 81.0079C96.6247 81.7239 97.4622 82.4304 98.3065 83.1342C98.2749 83.1434 98.2453 83.1479 98.2156 83.1523C97.9371 83.2211 97.738 83.367 97.611 83.5537C97.4732 83.2134 97.3422 82.8702 97.2245 82.5215C96.9857 81.8059 95.6952 81.6856 95.7495 82.6199C95.7517 82.6819 95.7587 82.746 95.7657 82.81C96.5641 96.9559 101.028 110.666 106.642 123.583C108.252 127.287 109.94 130.963 111.701 134.597C112.154 135.534 113.585 134.84 113.15 133.899C107.317 121.231 101.454 108.378 98.7469 94.6138C98.2345 92.0118 97.8474 89.3891 97.5701 86.7562C99.1537 89.5382 101.154 92.064 102.767 94.8693C104.01 97.0216 104.767 99.2462 105.067 101.716C105.364 104.124 105.432 106.565 106.223 108.881C107.02 111.211 108.437 113.236 109.844 115.233C111.274 117.268 112.587 119.316 113.553 121.615C115.348 125.908 116.002 130.609 115.883 135.241C115.796 138.731 115.283 142.189 114.449 145.576C113.488 143.212 111.761 141.06 110.231 139.012Z" fill="#87C2A2"/>
<path d="M84.298 28.9666C84.5966 29.0785 84.9475 29.1175 85.259 29.1847C85.6057 29.2608 85.9544 29.3322 86.3089 29.3894C86.9456 29.4905 87.5764 29.6059 88.2183 29.6536C88.8975 29.7055 89.0921 28.707 88.4491 28.4865C87.8393 28.2797 87.2135 28.1386 86.5869 27.986C86.2394 27.8984 85.8888 27.8318 85.5381 27.7651C85.2227 27.7074 84.8878 27.6028 84.569 27.5937C84.2178 27.5825 83.9052 27.815 83.8385 28.1656C83.7671 28.5143 83.9661 28.841 84.298 28.9666Z" fill="#89A194"/>
<path d="M48.4741 62.1325C48.6129 61.9172 48.6912 61.7271 48.7444 61.4766C48.7836 61.287 48.8181 61.0955 48.8525 60.904C48.9261 60.5229 48.9998 60.1417 49.0734 59.7606C49.2207 58.9984 49.368 58.2362 49.5153 57.474C49.5676 57.212 49.3163 56.9584 49.0781 56.9158C48.8351 56.8713 48.5244 57.0046 48.4654 57.2694C48.2924 58.0265 48.1194 58.7837 47.9511 59.5428C47.868 59.92 47.7781 60.3 47.693 60.6819C47.649 60.8695 47.6031 61.0619 47.5639 61.2514C47.5107 61.502 47.5115 61.7025 47.5528 61.953C47.621 62.3814 48.2355 62.4957 48.4741 62.1325Z" fill="#89A194"/>
<path d="M71.6299 120.926C74.206 116.739 76.7562 112.385 77.6109 107.477C78.437 102.747 76.892 98.0903 77.1835 93.362C77.4918 88.3905 80.5688 84.1484 81.242 79.2493C81.778 75.3446 80.7523 71.4246 79.0204 67.9365C76.9246 63.7257 73.7903 60.0655 70.6885 56.5688C70.2667 56.0948 69.6106 56.4861 69.5932 56.9737C69.0423 56.8802 68.37 57.2703 68.3226 57.8846C67.7571 65.7471 64.7886 73.0586 63.4304 80.7668C62.7356 84.7062 62.7147 88.6564 63.2752 92.6126C63.8772 96.8861 65.0032 101.075 66.0003 105.267C67.2201 110.362 68.4485 115.45 69.718 120.533C69.9364 121.379 71.1269 121.741 71.6299 120.926ZM68.6781 106.649C67.6849 102.447 66.5885 98.2537 65.847 93.9949C65.1549 90.0344 64.9647 86.0973 65.5502 82.1129C66.1098 78.3125 67.2164 74.6151 68.2143 70.9118C68.9221 68.29 69.6054 65.6469 69.9978 62.9675C71.4699 68.8673 71.0756 75.1267 69.7864 81.0618C68.9885 84.7252 68.0687 88.4551 68.2452 92.2364C68.3942 95.5449 69.4246 98.6439 70.3485 101.799C71.3249 105.137 72.2766 108.643 70.8871 112.001C70.372 113.251 72.3613 113.916 72.8792 112.672C75.5404 106.268 71.1582 100.037 70.2617 93.7791C69.6974 89.8324 70.6533 85.8394 71.4845 82.0007C72.3286 78.1173 72.9691 74.2556 72.8215 70.2693C72.6668 66.1245 71.7652 62.2001 70.4865 58.2871C75.1359 63.8838 80.3246 70.6813 79.696 78.2786C79.3106 82.9515 76.4965 86.9739 75.7062 91.5634C74.9411 96.0242 76.3318 100.462 76.1662 104.925C75.9894 109.645 73.7088 113.776 71.2301 117.686C70.3872 113.997 69.5451 110.32 68.6781 106.649Z" fill="#89A194"/>
<path d="M72.7158 87.2841C73.044 87.3916 73.423 87.2141 73.6101 86.9354C73.7536 86.7221 73.8177 86.4316 73.9109 86.1919C74.0475 85.8201 74.1603 85.4384 74.2635 85.0529C74.4754 84.2283 74.6445 83.3862 74.8327 82.5518C74.9057 82.2261 74.7814 81.8802 74.4436 81.7688C74.1126 81.6546 73.7832 81.8469 73.6606 82.1578C73.3517 82.9479 73.0151 83.7378 72.7347 84.5397C72.6029 84.9135 72.4806 85.2912 72.3868 85.6807C72.3289 85.9293 72.222 86.2021 72.206 86.4568C72.1891 86.7946 72.3848 87.1699 72.7158 87.2841Z" fill="#89A194"/>
<path d="M162.307 162.651C162.684 162.562 162.939 162.211 162.867 161.82C162.749 161.188 162.632 160.555 162.519 159.925C162.464 159.613 162.404 159.3 162.349 158.988C162.272 158.567 162.252 157.997 161.851 157.754C161.523 157.552 161.118 157.63 160.89 157.942C160.613 158.317 160.805 158.835 160.891 159.249C160.958 159.571 161.022 159.887 161.09 160.209C161.219 160.84 161.35 161.467 161.479 162.099C161.551 162.451 161.931 162.741 162.307 162.651Z" fill="#89A194"/>
<path d="M193.259 99.3325C193.822 99.303 194.362 99.1807 194.878 98.9655C195.409 98.7447 195.912 98.413 196.32 98.0029C196.546 97.779 196.62 97.3978 196.385 97.1453C196.169 96.912 195.773 96.8487 195.527 97.081C195.445 97.1585 195.358 97.2339 195.267 97.3074C195.219 97.3432 195.169 97.3837 195.121 97.4195C195.098 97.4327 195.074 97.4506 195.057 97.4656C195.057 97.4656 195.057 97.4657 195.055 97.4704C194.856 97.5886 194.657 97.6954 194.442 97.7848C194.388 97.8072 194.328 97.8323 194.269 97.8527C194.251 97.8564 194.256 97.8583 194.249 97.8611C194.242 97.8639 194.244 97.8591 194.231 97.8647C194.109 97.9036 193.985 97.9357 193.858 97.9611C193.753 97.9848 193.646 98.0019 193.536 98.0122C193.484 98.0183 193.438 98.0217 193.385 98.0278C193.358 98.0275 193.328 98.032 193.3 98.0317C193.142 98.0386 192.989 98.059 192.834 98.0841C192.522 98.1391 192.245 98.4475 192.308 98.7794C192.401 99.2014 192.867 99.3542 193.259 99.3325Z" fill="#89A194"/>
<path d="M209.944 154.508C210.224 154.691 210.505 154.873 210.788 155.051C211.068 155.233 211.376 155.376 211.669 155.53C211.875 155.637 212.064 155.704 212.3 155.657C212.505 155.619 212.73 155.478 212.837 155.3C213.096 154.873 212.972 154.433 212.608 154.127C212.353 153.911 212.101 153.685 211.831 153.49C211.559 153.3 211.284 153.103 211.012 152.913C210.827 152.782 210.645 152.645 210.423 152.576C210.404 152.568 210.404 152.568 210.394 152.564C210.372 152.55 210.349 152.54 210.327 152.525C210.264 152.489 210.2 152.456 210.137 152.419C209.911 152.293 209.67 152.122 209.404 152.106C209.117 152.088 208.775 152.203 208.613 152.448C208.444 152.695 208.47 153.05 208.598 153.308C208.712 153.545 208.961 153.708 209.162 153.869C209.216 153.913 209.274 153.96 209.328 154.004C209.35 154.019 209.37 154.038 209.392 154.053C209.399 154.061 209.395 154.059 209.41 154.077C209.561 154.262 209.75 154.384 209.944 154.508Z" fill="#89A194"/>
<path d="M273.223 119.751C274.79 119.457 276.284 118.638 277.483 117.603C277.836 117.298 277.912 116.696 277.58 116.342C277.24 115.98 276.709 115.933 276.319 116.245C276.184 116.356 276.045 116.466 275.902 116.568C275.832 116.617 275.76 116.671 275.685 116.718C275.663 116.731 275.669 116.728 275.661 116.736C275.645 116.746 275.623 116.759 275.608 116.769C275.308 116.957 275 117.125 274.688 117.274C274.53 117.348 274.367 117.42 274.206 117.487C274.051 117.551 273.876 117.64 273.712 117.673C273.965 117.627 273.687 117.679 273.629 117.7C273.546 117.727 273.459 117.747 273.376 117.774C273.207 117.82 273.04 117.874 272.87 117.921C272.527 118.013 272.305 118.227 272.188 118.524C272.186 118.529 272.184 118.533 272.178 118.536C271.972 118.819 272.062 119.262 272.357 119.45C272.415 119.485 272.41 119.483 272.336 119.447C272.517 119.71 272.927 119.807 273.223 119.751Z" fill="#89A194"/>
<path d="M283.417 114.104C283.819 113.508 282.892 112.882 282.491 113.478C282.085 114.072 283.016 114.701 283.417 114.104Z" fill="#89A194"/>
</svg>
