<svg width="152" height="177" viewBox="0 0 152 177" fill="none" xmlns="http://www.w3.org/2000/svg">
<path d="M54.4243 171.694C53.9918 173.685 53.1101 175.347 52.1954 176.878C50.9914 175.967 52.0714 174.419 52.5508 173.419C54.2673 170.75 54.9368 167.08 55.9424 163.765C58.2153 155.406 61.1715 147.553 64.1223 139.726C68.6544 127.575 74.6054 116.888 80.0137 105.653C81.3471 102.742 83.1187 100.288 84.0995 97.0109C81.5565 101.06 79.0577 105.243 76.0519 108.516C75.6138 109.018 75.1592 109.49 74.6908 109.942C74.0351 110.692 73.3629 111.409 72.6741 112.101C72.2416 112.611 71.7815 113.084 71.3103 113.531C68.445 116.639 65.0535 118.301 61.9182 120.654C60.3836 122.333 59.3504 124.821 57.9178 126.681C55.215 130.363 52.5095 134.057 49.7324 137.617C47.7817 140.265 45.9138 143.066 43.8116 145.445C40.7011 148.937 37.2077 151.492 33.8795 154.445C30.2262 157.127 26.8264 160.784 22.8067 162.083C19.5116 162.787 16.3405 164.423 13.0592 165.284C11.2298 165.802 9.3591 165.566 7.5242 166.051C5.87114 166.6 4.08028 165.461 2.59253 167.08C2.49885 166.806 2.3143 166.241 2.22063 165.958C1.67236 166.157 1.15161 166.507 0.669471 166.971C0.319573 166.587 0.0991837 166.077 0 165.44C0.567551 165.267 1.1268 165.102 1.68057 164.946C4.98118 161.876 8.44438 159.215 11.632 155.866C13.8031 153.272 16.1338 151.016 18.4261 148.688C18.8752 148.186 19.3298 147.718 19.7899 147.258C23.0492 143.952 26.4297 140.94 29.711 137.676C33.615 134.045 38.2601 133.159 42.3349 130.127C44.5445 128.596 46.9028 127.697 49.2033 126.55C50.6332 125.686 52.0962 124.91 53.6225 124.585C56.2068 122.835 58.871 121.24 61.4746 119.676C62.0008 119.119 62.5243 118.554 63.1001 118.136C68.2494 116.268 72.4785 111.047 76.6828 106.374C80.0192 102.363 82.6696 97.2386 85.849 92.9663C87.1742 91.351 88.0613 89.1326 89.1083 87.1461C89.8026 85.7712 90.7834 84.8265 91.4887 83.4727C89.0835 86.058 86.7306 88.8289 84.0857 90.8364C78.3551 94.5478 72.5694 98.0737 66.9076 102.03C63.8522 104.079 61.2955 107.584 58.1189 109.242C55.3114 110.709 52.4296 111.928 49.4679 112.426C46.2885 113.067 43.1256 113.915 39.9324 114.429C38.3951 114.256 36.8743 114.653 35.3369 114.788C31.4523 114.535 27.6722 116.795 23.793 116.348C21.7102 116.635 19.5474 116.226 17.5417 117.377C16.9218 117.807 16.2496 117.419 15.6021 117.377C15.6159 117.175 15.6545 116.774 15.671 116.572C18.5997 114.674 20.9277 111.211 23.5919 108.63C24.7435 107.479 25.9062 106.378 27.0413 105.205C29.2564 102.966 31.6947 101.275 33.8436 98.8919C34.2128 98.5334 34.5683 98.158 34.9264 97.7995C36.3563 96.2053 37.7973 94.6322 39.2712 93.1434C42.5498 89.9676 46.3078 88.3439 49.9941 86.7117C54.8541 85.3959 59.7692 84.7253 64.6374 83.5528C66.9517 82.8612 69.3129 83.1226 71.652 83.11C74.3465 82.7726 76.9969 81.5833 79.7079 81.8911C82.7964 81.6043 85.8765 81.0055 88.8934 79.93C91.0892 79.6516 93.3787 80.0396 95.4809 78.8166C96.5526 77.9056 97.7786 77.4375 98.7181 76.1975C100.019 74.6159 101.437 73.2959 102.82 71.9041C105.248 69.5845 107.747 67.4251 109.981 64.6753C115.34 58.0159 120.417 50.8335 125.421 43.5625C124.757 44.2753 124.098 45.0091 123.451 45.7598C123.021 46.2702 122.569 46.7425 122.109 47.198C120.908 48.5181 119.618 49.6484 118.365 50.8588C117.028 52.2 115.654 53.4483 114.246 54.6039C113.091 55.595 111.954 56.6199 110.813 57.649C108.386 59.8041 105.958 62.0562 103.303 63.5197C100.534 64.785 97.6794 65.464 94.9491 66.9359C91.4914 68.8169 87.9925 70.6346 84.3282 71.2715C82.7137 72.1951 80.9835 72.4482 79.3635 73.3802C76.4624 74.1984 73.5199 74.675 70.6023 75.3751C69.492 75.6914 68.3678 75.3161 67.2493 75.5396C65.6458 75.8222 64.0506 76.362 62.4196 76.2987C60.2266 76.2228 58.0803 77.2814 55.8818 76.9693C51.6389 77.9942 47.4015 76.2608 43.1504 76.653C40.7314 76.4632 38.5604 74.6876 36.3894 73.2115C35.8659 73.0344 35.3397 72.853 34.7942 72.7645C34.5545 72.659 34.0724 72.4524 33.8327 72.3512C33.7913 71.9884 33.7142 71.2673 33.6756 70.9045C34.8493 69.7068 36.3398 69.943 37.6678 69.5296C39.8801 69.3061 42.0952 69.1922 44.2828 68.5554C46.7431 68.2307 49.0904 66.9949 51.5314 66.5605C54.8679 65.6875 58.2566 65.1772 61.4471 63.3805C62.2626 62.8618 63.158 62.7901 63.9762 62.3177C66.0012 61.1115 68.2686 61.5038 70.2826 60.2216C71.4921 59.8041 72.5997 58.9606 73.6769 58.0538C76.6001 54.6461 80.2341 53.4357 83.6118 51.5041C86.1217 50.2557 88.4277 47.9993 91.0864 47.5354C92.7808 47.257 94.4587 46.6076 96.1696 46.6961C98.5363 46.8859 100.837 45.5321 103.203 45.9201C105.044 45.7008 106.923 45.4899 108.7 44.6844C110.303 43.4402 112.207 43.9758 113.822 42.7992C116.028 41.7532 118.376 41.3188 120.682 41.555C122.778 41.3315 124.847 40.7115 126.93 40.3319C127.663 40.353 128.082 39.3408 128.567 38.6871C129.955 36.4771 131.564 34.5708 132.727 32.0488C133.463 30.5052 134.689 29.7291 135.358 28.0801C137.703 24.0524 140.078 20.05 141.968 15.4782C141.852 15.4866 141.626 15.4993 141.513 15.5077C141.202 15.921 140.882 16.3217 140.549 16.7097C134.515 21.8804 128.355 26.7811 121.894 30.6022C118.081 32.9218 113.973 33.4954 109.926 34.2208C106.73 33.9719 103.619 35.5493 100.423 35.4354C98.5831 35.4481 96.7757 36.3211 94.9243 36.1186C89.7447 36.6163 84.5541 36.6163 79.358 36.8019C75.1454 36.6585 70.9329 37.0676 66.7561 38.046C64.2903 38.801 61.8493 37.561 59.4165 37.0591C56.9094 36.4476 54.3609 36.4898 51.84 36.0427C51.0823 35.7475 50.5038 34.9673 50.0767 33.9762C49.5588 32.7278 48.4815 32.8459 47.6385 32.9724C47.5475 32.2723 47.5283 31.5764 47.5779 30.8763C50.4266 31.5384 53.1129 29.5731 55.868 28.9067C56.7964 28.4006 57.7359 27.9409 58.7167 27.7975C59.9675 27.5866 61.0861 26.5787 62.3425 26.4437C64.1856 26.237 65.891 25.0899 67.6901 24.5838C70.4948 22.8841 73.2279 20.7206 76.2282 19.9952C80.4517 19.1896 84.3612 16.5326 88.3782 14.5461C91.2958 13.8081 94.2355 13.2893 97.1559 12.585C101.961 10.3244 107.162 9.86472 112.089 11.4758C115.847 12.9013 119.77 12.6061 123.506 14.1117C124.302 14.3774 125.084 14.6853 125.856 15.0522C128.605 16.5242 131.457 15.2631 134.24 14.8582C136.86 15.0522 139.433 14.1877 142.009 13.6267C143.345 13.302 143.858 11.2017 144.472 9.64963C146.514 5.82436 148.844 2.20575 151.773 0C151.806 0.265702 151.875 0.809759 151.911 1.07546C148.897 3.94758 146.07 7.80237 144.508 12.7453C143.444 21.1845 143.326 29.8388 142.601 38.3497C141.585 50.6563 140.444 63.0642 140.918 75.4847C140.926 84.7379 138.832 93.5483 137.008 102.236C136.234 105.615 135.234 108.862 134.019 111.92C132.675 115.399 132.033 119.465 130.355 122.645C129.44 124.741 127.986 126.031 126.658 127.436C123.82 130.203 121.307 133.644 118.549 136.579C117.979 137.199 117.398 137.811 116.805 138.401C115.425 139.937 113.89 141.117 112.438 142.505C110.929 143.796 109.749 145.774 108.383 147.372C106.493 149.219 104.305 150.08 102.212 151.201C101.768 151.303 101.374 151.109 101.027 150.615C101.319 149.565 101.603 148.443 102.231 147.76C103.856 145.875 105.418 143.791 106.584 141.21C108.59 137.022 110.86 133.142 112.695 128.773C117.778 117.504 121.704 105.108 124.927 92.3547C125.82 87.6649 126.974 83.0973 128.115 78.534C128.506 76.4126 128.829 74.2659 128.994 72.0728C129.33 67.8511 130.719 64.0722 131.35 59.9686C131.95 56.7253 132.137 53.3555 132.724 50.1165C133.796 44.5072 135.366 39.1763 136.785 33.7611C137.788 30.7034 138.265 27.2366 139.659 24.5079C140.202 23.0571 140.571 21.4671 141.061 19.9698C138.612 25.073 135.755 29.6785 132.92 34.2756C132.195 35.4607 131.683 36.8989 131.465 38.4889C131.327 39.0582 131.192 39.6276 131.055 40.197C129.746 47.5017 128.068 54.6377 126.374 61.7484C125.787 64.2029 125.128 66.6111 124.437 69.0025C123.197 73.6038 121.869 78.1797 120.089 82.3635C117.497 87.88 114.736 93.2362 112.438 99.0521C109.05 107.744 107.617 117.824 104.267 126.538C101.685 133.054 98.5417 139.03 95.1144 144.538C92.9296 148.194 89.4499 148.616 86.9786 151.64C82.8101 156.448 78.1181 160.05 73.8753 164.672C73.4262 164.837 72.9633 164.963 72.495 165.043C72.5032 163.411 73.44 162.353 73.9828 161.096C75.7405 157.106 78.2725 154.103 80.0275 150.101C82.4354 144.34 84.6505 138.385 86.7581 132.353C88.2404 128.166 89.3397 123.703 90.7062 119.431C92.4475 113.695 94.5551 108.242 96.5939 102.755C98.5555 97.4284 101.002 92.553 103.628 87.9601C106.669 82.14 109.386 75.9234 112.607 70.3268C116.028 63.6083 119.547 57.0079 122.872 50.1671C123.605 48.5729 124.773 47.4974 125.263 45.6417C120.591 52.6091 115.662 59.1883 110.595 65.4766C107.799 68.9856 104.542 71.4528 101.583 74.5906C100.487 76.3451 99.1203 77.6863 98.2304 79.736C96.6518 83.072 94.8058 86.1466 93.4916 89.7568C90.6594 100.136 88.9099 111.27 85.0859 120.975C84.3282 122.927 83.3336 124.64 82.5043 126.529C81.0524 130.009 79.9448 133.834 78.2615 137.086C76.2447 141.29 74.0296 145.28 71.6712 149.046C69.558 152.252 67.2107 155.09 65.2436 158.515C64.0865 160.649 62.6538 162.365 61.144 163.879C60.2375 164.951 59.3614 166.081 58.4082 167.063C57.386 168.295 56.3336 169.446 55.2619 170.577C55.1434 171.332 55.0222 172.095 54.9037 172.854C54.7549 172.462 54.5924 172.082 54.4243 171.694ZM58.6369 165.313C58.8022 165.136 59.1383 164.778 59.3036 164.596C60.8464 162.521 62.7199 161.066 64.0892 158.692C65.4722 156.435 66.8277 154.137 68.3678 152.129C72.2085 147.051 75.4374 141.02 78.4267 134.774C79.9668 131.206 81.0799 127.221 82.8129 123.851C86.2595 116.985 88.0503 108.655 89.9954 100.642C90.9817 96.7241 91.6925 92.6247 92.9406 88.8669C90.304 92.3758 89.0449 97.5001 87.0915 101.81C85.9757 104.147 85.6258 107.065 84.6478 109.524C83.7331 112.249 82.3941 114.551 81.226 117.023C78.9723 121.578 76.7626 126.192 74.3492 130.561C73.2636 132.83 71.8503 134.669 70.8089 136.997C67.6157 143.509 63.6925 149.139 60.9071 156.119C59.4579 160.037 58.2291 164.166 56.4603 167.785C57.1932 166.971 57.9261 166.165 58.6369 165.313ZM59.4716 157.865C62.3039 149.202 67.2272 142.842 70.8474 135.019C74.7982 128.465 78.2091 121.219 81.7026 114.096C83.0664 111.498 84.273 108.664 85.0279 105.526C85.3916 104.117 85.7719 102.704 86.3256 101.448C87.5462 98.8244 88.4774 95.9227 89.6235 93.2278C90.698 90.2966 92.464 88.1794 93.712 85.4338C94.4311 83.7974 95.4092 82.4605 96.0236 80.7144C92.6431 85.611 88.6207 89.5754 85.9124 95.4715C84.5183 98.1875 83.4878 101.3 81.9202 103.818C78.5755 110.46 75.3135 117.213 71.9826 123.872C68.0648 131.712 64.7477 140.19 61.6564 148.835C59.3036 154.888 57.51 161.374 55.6007 167.764C57.2262 164.832 58.218 161.188 59.4716 157.865ZM75.7433 160.164C79.5701 156.009 82.3197 150.075 85.6534 145.107C87.7279 141.341 89.5739 137.288 91.5713 133.425C96.0291 125.108 100.572 116.711 103.771 107.074C104.79 102.658 106.474 98.7105 107.625 94.3876C107.782 93.5947 107.956 92.806 108.143 92.0258C109.719 84.7169 112.808 78.534 115.808 72.4692C117.249 69.1374 118.574 65.6875 119.91 62.2545C121.131 59.492 122.544 56.9446 123.902 54.3467C126.748 49.2266 129.016 43.398 130.906 37.3586C129.523 39.6107 128.498 42.3268 126.991 44.4187C125.597 47.4974 123.754 49.9942 122.393 53.1152C119.483 58.7539 116.596 64.4012 113.714 70.0653C110.251 76.0626 107.358 82.7557 104.088 88.9807C101.082 94.1598 98.4453 99.8577 96.3129 105.977C93.7121 112.708 91.3288 119.659 89.359 126.883C86.9345 134.935 83.9755 142.572 80.9422 150.109C79.1706 154.116 76.8425 157.435 74.7652 161.049C75.093 160.737 75.4209 160.45 75.7433 160.164ZM86.8243 150.392C89.1744 147.604 92.4337 147.174 94.5166 143.8C96.8226 140.156 98.944 136.255 100.895 132.147C103.743 126.453 105.722 119.908 107.342 113.214C108.496 108.579 109.675 103.94 111.243 99.5877C113.899 92.0553 117.872 85.8725 120.657 78.475C122.109 74.5569 123.15 70.331 124.363 66.2358C125.192 63.0221 126.038 59.821 126.812 56.5735C127.206 54.5618 127.644 52.5753 128.126 50.61C128.258 49.9942 128.396 49.3784 128.514 48.7543C128.751 47.818 128.969 46.8648 129.189 45.9243C129.385 44.9585 129.578 43.9885 129.771 43.0185C129.606 43.533 129.437 44.0433 129.258 44.5494C126.801 51.4745 123.059 57.088 120.23 63.6505C118.458 68.3783 116.629 73.0681 114.406 77.3405C112.232 81.752 110.295 86.5177 109.044 91.7221C108.152 96.9307 106.052 101.342 104.851 106.357C103.517 111.156 101.559 115.462 99.5611 119.659C97.9824 123.497 95.974 126.858 94.1887 130.46C90.7668 136.158 88.2459 142.99 84.6257 148.414C82.5842 151.53 80.8099 155.031 78.6389 157.954C78.3083 158.367 78.0272 158.86 77.793 159.421C80.8071 156.423 83.9452 153.702 86.8243 150.392ZM103.933 148.059C106.645 144.293 108.926 139.911 111.394 135.808C115.816 127.853 121.404 121.696 126.101 114.159C129.093 109.655 131.876 104.4 132.906 98.0441C133.711 94.1767 134.826 90.4358 135.276 86.4081C135.609 83.4558 136.116 80.5415 136.223 77.5429C136.121 75.0757 136.199 72.6 136.254 70.137C135.749 60.753 136.333 51.2215 137.948 42.1286C138.246 40.1295 138.515 38.1009 139.091 36.2325C139.232 35.2667 139.353 34.2967 139.337 33.3014C139.758 30.8383 140.516 28.4723 140.524 25.8912C140.711 24.6597 141.174 23.5505 141.279 22.2853C140.899 23.23 140.698 24.3139 140.284 25.2375C138.863 28.2614 138.353 31.9855 137.259 35.2709C136.102 39.9523 134.727 44.5072 133.777 49.3025C133.033 52.7567 132.879 56.4174 132.242 59.9138C131.606 64.3885 130.049 68.4837 129.763 73.0892C129.426 77.8803 128.063 82.2791 127.005 86.7623C126.688 88.1204 126.41 89.4953 126.093 90.8533C125.944 91.6673 125.776 92.4644 125.583 93.2615C121.503 109.28 116.282 124.808 109.116 138.131C107.634 140.932 106.369 144.036 104.573 146.406C103.716 147.655 102.586 148.498 101.966 150.101C102.738 149.708 103.327 148.827 103.933 148.059ZM108.645 145.605C109.802 144.07 110.942 142.488 112.287 141.345C113.075 140.565 113.882 139.848 114.695 139.144C116.331 137.575 117.891 135.837 119.45 134.095C121.698 131.527 123.836 128.731 126.195 126.39C127.313 125.213 128.501 124.108 129.393 122.522C131.289 119.047 131.914 114.476 133.485 110.701C135.061 106.838 136.052 102.523 137.014 98.2382C138.419 90.7732 140.147 83.2745 140.001 75.3835C139.529 63.7348 140.408 52.0608 141.477 40.5301C142.205 32.5591 142.453 24.4994 143.274 16.5452C142.582 18.5696 142.152 20.788 141.948 23.0402C140.976 25.7942 141.196 29.0459 140.342 31.8632C140.271 32.1879 140.138 32.8206 140.069 33.1369C140.064 34.575 139.904 36.0048 139.551 37.3375C138.923 39.8005 138.73 42.4449 138.248 44.9712C137.565 48.5603 137.491 52.3349 137.05 55.9957C136.559 63.8951 137.259 71.8155 136.846 79.7065C136.314 84.3921 135.871 89.1579 134.719 93.6073C134.044 96.3698 133.485 99.1913 132.862 101.979C131.162 107.922 128.17 112.679 125.192 117.179C120.525 124.117 115.307 130.215 111.111 137.887C108.956 141.661 106.738 145.364 104.435 148.945C105.89 148.009 107.441 147.233 108.645 145.605ZM19.3959 161.8C22.2226 161.163 25.0907 160.315 27.6171 158.181C30.6367 155.689 33.7115 153.361 36.6649 150.708C39.9132 148 43.1311 145.099 45.8697 141.261C49.8811 135.715 54.0579 130.451 58.0638 124.893C58.4715 124.353 58.7966 123.712 59.0281 122.965C57.904 124.576 56.5981 125.854 55.5098 127.52C53.9421 128.558 52.4241 129.764 51.0521 131.341C50.5865 131.734 50.1125 132.122 49.6249 132.48C47.1563 135.593 44.3627 138.03 41.8803 141.113C40.2548 143.403 38.1389 144.572 36.2048 146.103C33.8519 147.958 31.1905 148.641 28.8625 150.569C25.1927 153.572 21.319 155.925 17.5307 158.557C13.5551 160.813 9.56568 163.061 5.53772 165.069C6.30639 165.208 7.06956 165.01 7.81895 164.845C9.7613 164.352 11.7505 164.474 13.6763 163.82C15.5773 163.095 17.55 162.867 19.3959 161.8ZM15.4175 158.544C18.4206 156.891 21.2556 154.635 24.1981 152.762C26.8733 151.096 29.2785 148.515 32.0749 147.313C34.2817 146.343 36.3205 144.74 38.3731 143.218C40.2658 141.91 41.7619 139.7 43.4094 137.84C43.583 137.655 43.9219 137.296 44.0899 137.115C45.1534 136.09 46.1728 134.968 47.2004 133.88C48.0407 132.784 48.9168 131.759 49.9004 131C50.8123 130.169 51.7325 129.359 52.5838 128.397C54.135 127.457 55.5511 126.15 56.7524 124.382C57.105 124.062 57.3998 123.653 57.6395 123.151C56.3088 123.931 55.0249 124.918 53.6942 125.686C52.1844 126.065 50.7407 126.841 49.3136 127.676C47.0076 128.857 44.6327 129.751 42.4231 131.32C38.3676 134.268 33.7693 135.188 29.9314 138.874C26.8236 141.961 23.6278 144.841 20.5283 147.95C18.4234 150.269 16.1889 152.302 14.0785 154.613C11.5108 157.616 8.74742 160.21 5.89589 162.534C5.00599 163.373 4.01144 163.98 3.25103 165.115C7.3341 163.07 11.362 160.737 15.4175 158.544ZM62.6813 104.29C67.5634 99.5751 73.0956 96.8126 78.3385 93.2193C81.3058 91.2455 84.4659 89.7778 87.0695 86.7412C87.6619 86.1381 88.2459 85.5266 88.8245 84.9277C89.4003 84.312 89.9899 83.7342 90.5079 83.0172C87.998 83.46 85.5101 84.1053 83.0002 84.5988C81.2397 84.8392 79.741 86.5346 77.9859 86.8425C76.4238 87.1377 74.9388 87.9812 73.44 88.6855C69.6325 91.4142 65.5053 92.7849 61.5958 95.1045C59.7582 96.3234 57.6918 96.1505 55.7908 97.053C54.7549 97.5676 53.6776 97.8417 52.5976 98.0694C51.2394 98.3014 49.9886 99.2757 48.6193 99.495C47.0158 99.7185 45.5639 100.916 43.9494 101.093C39.6459 102.333 35.6538 105.26 31.5845 107.656C27.8265 109.638 24.0603 111.823 20.6963 115.121C20.407 115.361 20.5531 115.796 20.6743 116.129L20.7404 115.323C21.8507 115.416 22.9555 115.319 24.0576 115.205C27.8651 115.635 31.579 113.362 35.3893 113.67C36.4032 113.678 37.3895 113.269 38.3951 113.274C40.9766 113.543 43.5141 112.472 46.0681 112.063C51.8207 110.937 57.8241 109.495 62.6813 104.29ZM30.1353 107.251C34.5737 104.826 38.8332 101.498 43.4783 100.077C45.1038 99.9378 46.5585 98.7189 48.1647 98.4785C49.6442 98.255 50.9887 97.1669 52.4654 96.9729C54.4463 96.6945 56.295 95.4715 58.2677 95.1636C61.1633 94.8388 63.687 92.3885 66.4889 91.4522C70.47 89.7821 74.115 86.4755 78.2477 85.6616C79.6059 85.341 80.7989 84.1939 82.1214 83.7089C85.2925 82.9539 88.4828 82.3804 91.654 81.6001C92.3731 81.4441 92.9433 80.6976 93.5632 80.2041C93.2547 80.3264 92.6348 80.5837 92.3262 80.7144C87.502 80.6891 82.7991 83.2787 77.9722 82.878C75.7681 83.2323 73.586 84.0252 71.3654 84.1644C66.5578 83.654 61.8465 85.5308 57.0802 86.2478C49.9307 87.2474 42.6324 90.1785 36.8853 97.0446C33.064 101.549 28.6806 104.695 24.716 108.858C23.5837 110.051 22.4596 111.258 21.3245 112.451C20.3905 113.687 19.1948 114.438 18.3462 115.825C22.1069 112.468 25.9641 109.28 30.1353 107.251ZM82.1076 71.0269C83.1297 70.3436 84.229 70.0484 85.331 69.8671C89.4857 68.7115 93.4365 66.3454 97.459 64.4391C98.5886 64.1481 99.7072 63.7939 100.779 63.2034C104.019 62.4485 106.84 59.7113 109.65 57.3116C110.35 56.6747 111.055 56.059 111.75 55.4179C112.744 54.4732 113.805 53.693 114.805 52.7735C115.516 52.1578 116.218 51.5294 116.913 50.8841C117.778 49.9436 118.723 49.1971 119.607 48.3072C120.828 47.063 122.079 45.8948 123.255 44.5621C122.55 45.0344 121.817 45.4056 121.048 45.5785C115.453 47.6113 110.584 52.5627 105.253 55.6794C101.614 57.5098 97.9852 59.4836 94.2383 60.6898C92.464 61.7905 90.5023 61.6682 88.6895 62.5834C87.0557 63.4565 85.2759 63.3384 83.6476 64.2578C82.2894 65.076 80.7796 64.9284 79.4158 65.717C78.2422 66.4635 76.9445 66.4551 75.7405 67.0245C72.9441 68.4711 69.919 68.2813 67.1005 69.5887C65.6761 70.2846 64.1719 70.4448 62.7006 70.8033C59.1658 71.4697 55.631 72.9796 52.0549 72.0686C49.3714 72.6126 46.6632 72.6843 43.9604 72.4482C42.1255 72.2078 40.3071 72.8783 38.497 73.2621C39.2547 73.9707 40.1005 74.3755 40.9215 74.8606C43.0292 75.8264 45.2222 75.2233 47.3712 75.5691C50.1346 76.0626 52.9338 76.4506 55.6916 75.8559C57.9288 76.1849 60.1053 75.0757 62.337 75.2022C64.8193 75.2317 67.2383 73.9749 69.7206 74.3418C72.6658 73.8357 75.6055 73.1693 78.5259 72.4397C79.6776 71.7438 80.8981 71.4149 82.1076 71.0269ZM67.106 68.256C69.7289 67.2859 72.495 67.3998 75.0462 65.9574C76.443 65.4555 77.9033 65.3628 79.2285 64.4602C81.6888 63.9626 84.003 62.5413 86.4716 62.1701C88.8245 60.8079 91.4033 60.9639 93.7451 59.589C96.6738 58.813 99.4619 57.1808 102.308 55.9071C107.344 53.6929 111.816 49.3616 116.668 46.4304C119.841 44.4524 123.31 43.8831 126.434 41.6815C124.517 41.808 122.638 42.4913 120.726 42.7064C118.483 42.4533 116.199 42.8666 114.053 43.8873C112.48 44.988 110.653 44.5536 109.083 45.7008C105.427 47.5354 101.523 46.6244 97.7868 47.7631C93.9848 47.9065 90.0395 48.2777 86.5708 50.9221C82.8432 53.6676 78.5948 54.5617 75.0848 57.9948C72.5556 60.753 69.4782 62.0942 66.42 62.5792C64.924 62.8365 63.5492 63.8234 62.0725 64.2367C58.3669 66.3876 54.4077 66.919 50.523 67.9354C46.451 69.3483 42.299 70.3858 38.1196 70.5418C37.0203 70.8286 35.8438 70.7738 34.8079 71.4866C36.8164 71.6764 38.8249 72.4186 40.8141 71.5878C43.1394 70.6937 45.506 71.7523 47.8478 71.3094C49.8508 71.5414 51.8207 70.5882 53.8099 71.0943C55.5484 71.5245 57.2621 70.7991 58.9813 70.487C61.6978 69.8207 64.4639 69.4748 67.106 68.256ZM120.409 30.2015C125.77 27.2745 130.867 23.3523 135.92 19.3752C136.948 18.3292 138.163 17.7472 139.111 16.5284C138.444 16.6718 137.752 16.7772 137.116 17.1863C134.507 18.6329 131.856 19.8475 129.189 20.982C125.784 21.7876 122.368 22.572 118.952 23.2975C116.778 23.9006 114.64 24.9296 112.411 24.9887C108.719 24.9254 105.124 26.8275 101.426 26.5955C98.3241 27.0299 95.2218 26.0852 92.1168 26.237C89.1661 26.895 86.1714 26.9118 83.2179 27.5698C80.3884 27.3926 77.5699 27.7933 74.7404 27.7638C70.4618 28.4344 66.2327 30.0623 61.9182 29.9991C59.8574 30.1804 58.0087 31.8084 55.9175 31.7788C55.7688 31.6903 55.4685 31.5216 55.3197 31.4372C53.7135 31.6734 52.0301 31.8041 50.5947 33.0694C50.8013 33.5418 51.0025 34.0183 51.1981 34.4991C52.3883 35.2034 53.6721 35.1739 54.9229 35.3215C57.2896 35.4691 59.6507 35.8487 61.9622 36.6374C65.8304 38.1473 69.6628 35.5746 73.5474 35.8698C76.0408 35.3342 78.5479 35.8234 81.0413 35.5155C85.7498 35.4649 90.45 35.4101 95.1474 34.8871C97.2193 35.1613 99.2415 34.0816 101.313 34.1786C103.708 34.225 106.047 33.2339 108.427 33.0567C111.119 33.2465 113.747 32.2217 116.406 31.7746C117.803 31.627 119.056 30.6106 120.409 30.2015ZM137.143 16.2121C134.727 15.4234 132.297 16.4314 129.895 16.8405C127.903 17.0471 125.933 16.3428 124.048 15.4107C123.39 15.2167 122.734 15.0016 122.087 14.7022C121.023 14.4323 119.954 14.0991 118.866 14.0654C115.621 13.7912 112.458 12.5639 109.248 11.8469C105.355 11.3662 101.346 11.674 97.6105 13.5677C94.7011 14.3564 91.7559 14.8329 88.8383 15.5457C86.2898 16.4609 83.9397 18.3208 81.4243 19.4005C80.0633 19.662 78.8124 20.632 77.4459 20.864C74.9443 21.2393 72.5721 22.6269 70.2854 24.162C67.4504 26.1864 64.3509 27.0974 61.2845 27.8945C59.4193 29.1724 57.1656 28.6705 55.4933 30.6781C56.5319 30.5726 57.5816 30.4503 58.5817 30.0117C60.2761 28.8856 62.1606 28.6326 63.9873 28.8013C68.4119 28.3669 72.765 26.3847 77.2117 26.5955C79.3111 26.3087 81.4215 26.3931 83.5237 26.3762C85.7691 25.8912 88.0255 25.6129 90.2819 25.4357C93.5715 24.55 96.8914 25.6086 100.195 25.5791C101.173 25.3725 102.151 25.4315 103.126 25.4484C105.975 25.1068 108.777 24.0819 111.628 23.8289C114.353 23.9765 116.946 22.5172 119.616 21.9942C122.53 21.3405 125.443 20.6868 128.355 20.05C131.349 19.1559 134.185 17.3255 137.143 16.2121Z" fill="#87C2A2"/>
</svg>
