<svg width="283" height="296" viewBox="0 0 283 296" fill="none" xmlns="http://www.w3.org/2000/svg">
<path d="M174.838 234.227C168.658 226.485 160.778 219.482 151.097 216.644C148.775 215.961 146.403 215.538 143.982 215.397C141.159 215.239 138.325 215.507 135.507 215.276C132.582 215.04 130.126 213.974 127.583 212.579C125.296 211.323 123.041 210.164 120.461 209.657C115.811 208.735 110.973 209.638 106.294 209.12C106.336 209.056 106.373 208.985 106.401 208.906C106.636 208.303 106.896 207.715 107.176 207.138C107.885 206.928 108.598 206.724 109.309 206.508C124.742 201.781 139.768 195.729 154.176 188.448C154.552 188.696 154.936 188.93 155.315 189.162C161.873 196.826 170.835 202.148 180.597 204.626C191.177 207.31 201.822 205.35 212.468 204.212C218.658 203.551 224.868 203.198 231.01 204.414C232.424 204.679 232.717 202.522 231.334 202.218C222.126 200.686 215.977 192.799 208.208 188.36C203.584 185.719 198.567 184.882 193.29 184.931C187.262 184.985 181.246 185.649 175.243 186.17C169.316 186.678 163.413 187.023 157.483 186.77C168.844 180.844 180.197 174.341 190.264 166.304C190.292 166.304 190.319 166.31 190.354 166.306C194.646 165.485 199.023 166.789 203.225 167.56C207.932 168.427 212.403 168.168 216.883 166.378C221.596 164.498 225.779 161.53 230.084 158.892C234.485 156.196 239.052 153.755 243.856 151.848C249.305 149.683 255.023 148.297 260.898 148.115C261.782 148.088 262.016 146.639 261.153 146.378C242.794 140.734 222.126 143.608 205.903 153.875C201.349 156.758 197.137 160.182 193.458 164.124C193.291 164.302 193.239 164.494 193.264 164.668C192.894 164.686 192.521 164.719 192.146 164.759C194.997 162.388 197.739 159.892 200.331 157.23C206.327 151.074 211.647 144.275 216.734 137.358C221.6 130.738 226.325 123.851 229.733 116.348C230.397 114.889 230.976 113.4 231.509 111.896C231.871 112.367 232.564 112.181 232.888 111.743C233.079 111.744 233.267 111.682 233.424 111.524C235.431 109.549 237.475 107.661 239.341 105.555C241.229 103.42 243.067 101.234 244.835 99.0002C247.764 95.305 250.899 91.3494 251.724 86.5778C252.581 81.6218 250.716 76.7541 250.317 71.8531C249.929 67.0895 250.499 62.3205 250.695 57.5624C250.913 52.2738 250.68 46.8785 248.315 42.0344C247.777 40.9291 246.367 41.177 246.061 42.301C243.782 50.6459 235.852 55.8794 232.442 63.6583C231.605 65.5653 231.061 67.6302 230.964 69.711C230.83 72.5274 231.446 75.283 231.659 78.0828C232.09 83.7624 228.887 88.7289 228.087 94.238C227.289 99.7362 228.191 105.245 230.595 110.199C227.39 117.728 223.338 124.734 218.613 131.407C213.743 138.285 208.559 145.001 202.86 151.219C199.512 154.871 195.915 158.239 192.143 161.395C196.929 156.375 200.875 150.484 204.203 144.445C208.129 137.316 211.103 129.631 213.147 121.755C214.398 116.938 215.374 111.979 215.036 106.978C214.961 105.92 213.672 105.467 212.872 106.052C208.648 109.158 204.446 112.353 200.962 116.302C197.555 120.155 195.211 124.656 194.214 129.712C193.223 134.764 193.486 139.934 192.969 145.036C192.426 150.396 190.775 155.241 187.86 159.778C185.161 163.984 181.744 167.593 178.569 171.416C172.928 175.123 167.075 178.531 161.152 181.762C158.929 182.975 156.682 184.145 154.427 185.295C162.05 177.811 168.783 169.502 174.465 160.441C175.989 158.003 177.449 155.524 178.843 153.008C180.21 150.543 181.573 148.043 182.457 145.357C184.034 140.57 183.879 135.552 183.345 130.599C182.73 124.909 181.394 119.218 181.84 113.465C181.93 112.324 180.779 111.692 179.837 112.281C175.12 115.22 171.491 119.854 169.862 125.182C169.006 127.975 168.771 130.922 167.874 133.696C166.918 136.642 165.004 138.924 162.992 141.214C158.617 146.18 154.032 151.023 149.876 156.177C146.34 160.56 144.258 165.527 144.284 171.206C144.297 174.177 144.895 177.126 145.665 179.982C146.429 182.814 147.648 185.41 148.881 188.048C137.699 193.449 126.16 198.116 114.369 202.002C112.65 202.568 110.922 203.12 109.192 203.655C113.451 197.211 119.986 192.392 125.862 187.496C129.624 184.36 133.334 181.072 136.357 177.195C139.528 173.128 141.751 168.427 142.936 163.417C144.268 157.789 144.325 151.559 142.599 146.006C142.348 145.198 141.295 145.223 140.815 145.758C137.494 149.443 133.825 152.835 130.293 156.318C126.798 159.764 123.309 163.205 119.814 166.651C116.66 169.758 113.438 172.686 111.527 176.76C109.618 180.829 108.455 185.315 107.137 189.599C105.507 194.876 103.995 200.184 102.386 205.465C102.365 205.54 102.361 205.612 102.363 205.68C92.0221 208.6 81.512 210.961 70.9094 212.694C76.8704 208.379 81.5951 202.585 86.7178 197.253C90.2001 193.63 94.1075 190.553 97.8769 187.25C101.597 183.993 104.73 180.29 107.363 176.104C109.656 172.455 113.571 167.109 111.255 162.642C111.03 162.211 110.468 161.805 109.958 162.086C104.95 164.856 99.6903 167.134 94.2205 168.81C91.5089 169.644 88.7528 170.396 86.1819 171.604C83.7108 172.765 81.4753 174.331 79.4775 176.184C72.7128 182.486 67.8952 190.874 65.3563 199.728C64.0683 204.215 63.3067 209.09 63.5513 213.789C55.3433 214.908 47.0864 215.672 38.8068 216.038C37.8681 216.081 36.9263 216.113 35.9845 216.145C38.5398 214.213 40.2907 211.237 42.0576 208.479C43.4537 206.301 44.9485 204.19 46.8182 202.383C48.6955 200.566 50.7586 198.964 52.8822 197.447C57.0163 194.498 61.2549 191.666 64.7257 187.91C68.1066 184.26 70.442 179.775 72.2974 175.188C74.4054 169.967 76.1863 164.508 77.5392 159.048C77.795 158.026 76.4055 157.298 75.6365 157.924C70.5431 162.079 64.2807 164.173 58.2948 166.663C53.2418 168.765 48.4627 171.303 44.3489 174.955C36.9839 181.486 31.797 190.607 29.9946 200.292C29.0043 205.609 29.0057 210.977 30.3467 216.219C24.9197 216.202 19.5015 215.878 14.1373 214.979C12.1133 214.64 10.1142 214.212 8.12558 213.706C6.52175 213.299 6.15815 215.841 7.74579 216.245C15.8285 218.3 24.1745 218.844 32.4909 218.757C32.559 218.754 32.6271 218.752 32.6952 218.749C32.6595 218.759 32.6302 218.764 32.5956 218.768C32.4352 218.807 32.3057 218.887 32.1954 218.982C31.9409 218.933 31.6384 219.112 31.6431 219.462C31.7394 224.276 33.0592 228.899 35.3411 233.128C37.6876 237.478 41.0989 240.763 44.286 244.469C47.311 247.982 49.1958 252.437 52.8726 255.373C56.0051 257.873 59.8364 259.36 63.7806 259.941C69.0845 260.726 74.4527 260.009 79.7236 259.3C80.7672 259.16 81.1607 257.514 80.0385 257.147C71.3795 254.249 68.4793 244.903 64.0084 237.895C62.7656 235.942 61.357 234.134 59.7139 232.502C58.0527 230.849 56.2153 229.39 54.54 227.751C51.5152 224.795 49.0514 221.558 45.0815 219.794C43.6812 219.171 42.1847 218.736 40.6463 218.472C46.5653 218.187 52.4822 217.699 58.3622 217.04C72.1535 215.492 85.8049 212.929 99.2102 209.373C99.2241 209.387 99.2314 209.405 99.2507 209.421C104.133 213.316 109.104 217.106 114.142 220.798C118.337 223.866 122.787 226.718 127.831 228.146C132.677 229.521 137.552 228.846 142.498 228.873C144.906 228.887 147.369 229.15 149.586 230.143C150.78 230.677 151.862 231.419 153.022 232.008C154.223 232.617 155.521 233.005 156.855 233.197C159.752 233.613 162.664 233.137 165.574 233.15C168.185 233.162 171.182 233.588 173.064 235.581C174.027 236.596 175.756 235.373 174.838 234.227ZM190.565 186.839C196.124 186.579 201.536 186.959 206.535 189.583C210.621 191.727 214.128 194.801 217.78 197.586C219.497 198.895 221.284 200.169 223.156 201.276C215.291 201.07 207.395 202.603 199.571 203.398C194.355 203.927 189.1 204.11 183.903 203.298C178.898 202.514 174.08 200.897 169.61 198.514C166.035 196.614 162.71 194.226 159.728 191.471C163.421 193.103 167.335 194.146 171.426 194.725C178.133 195.671 184.933 195.533 191.689 195.578C195.778 195.609 199.794 195.93 203.859 196.34C204.798 196.431 204.944 195.155 204.069 194.925C200.782 194.06 197.322 193.773 193.935 193.563C190.516 193.352 187.098 193.316 183.677 193.245C177.344 193.115 170.948 192.86 164.81 191.144C162.64 190.538 160.507 189.782 158.5 188.783C169.186 189.208 179.892 187.334 190.565 186.839ZM230.39 95.3058C231.013 89.9677 234.001 85.1415 234.043 79.7255C234.066 76.8797 233.363 74.1058 233.219 71.2701C233.112 69.1179 233.481 67.0272 234.298 65.0313C235.865 61.1944 238.647 58.0034 241.227 54.8144C243.524 51.9715 245.754 49.0467 247.255 45.7365C249.66 53.4563 247.617 61.9866 247.816 69.9378C247.933 74.5989 249.476 79.0998 249.517 83.7503C249.562 88.5651 246.793 92.4913 243.966 96.1347C242.13 98.5007 240.226 100.813 238.257 103.066C237.698 103.709 237.145 104.352 236.592 104.995C236.745 104.617 236.91 104.24 237.048 103.853C237.956 101.375 238.678 98.8403 239.316 96.2771C240.603 91.1302 241.353 85.7795 240.848 80.4731C240.712 79.0642 238.349 78.9469 238.3 80.4293C238.127 85.5585 237.92 90.6861 236.941 95.7349C236.455 98.2458 235.734 100.718 234.886 103.13C234.148 105.233 233.359 107.415 232.362 109.435C230.566 104.987 229.83 100.083 230.39 95.3058ZM194.371 149.141C195.435 144.116 195.388 138.934 196.024 133.852C196.674 128.655 198.189 123.945 201.449 119.774C204.514 115.86 208.438 112.73 212.403 109.756C212.356 113.25 211.734 116.723 210.963 120.126C210.09 123.98 208.972 127.772 207.55 131.459C205.195 137.551 202.187 143.382 198.593 148.835C198.629 148.718 198.665 148.602 198.702 148.48C198.909 147.82 199.112 147.153 199.305 146.484C199.676 145.182 200.016 143.869 200.329 142.549C200.955 139.91 201.299 137.251 201.641 134.568C201.751 133.73 200.51 133.551 200.353 134.374C199.863 136.952 199.16 139.502 198.509 142.045C198.193 143.274 197.85 144.492 197.491 145.711C197.301 146.342 197.118 146.967 196.923 147.597C196.72 148.235 196.363 148.937 196.506 149.621C196.606 150.104 197.119 150.5 197.595 150.33C197.204 150.901 196.812 151.471 196.413 152.029C194.476 154.712 192.392 157.262 190.264 159.786C192.14 156.431 193.583 152.861 194.371 149.141ZM187.982 163.432C188.14 163.753 188.44 164.013 188.777 164.096C187.82 164.84 186.858 165.577 185.884 166.295C186.621 165.363 187.314 164.406 187.982 163.432ZM245.139 145.438C248.643 145.6 252.13 146.051 255.557 146.787C247.207 148.045 239.316 151.523 232.019 155.736C227.47 158.361 223.208 161.515 218.479 163.815C216.142 164.954 213.67 165.884 211.087 166.267C208.761 166.614 206.453 166.446 204.145 166.065C201.494 165.628 198.896 164.993 196.284 164.744C198.472 164.47 200.667 164.157 202.796 163.599C205.581 162.871 208.328 162.004 211.03 161.004C213.658 160.029 216.25 158.938 218.769 157.708C220.064 157.075 221.338 156.404 222.595 155.707C223.725 155.079 225.204 154.507 226.016 153.491C226.391 153.023 225.985 152.177 225.349 152.307C224.124 152.555 223.019 153.464 221.934 154.068C220.739 154.734 219.529 155.368 218.302 155.975C215.789 157.229 213.231 158.378 210.615 159.396C208.067 160.389 205.477 161.26 202.847 162.004C200.485 162.676 198.15 163.41 195.769 164.01C208.788 151.449 227.08 144.607 245.139 145.438ZM148.459 180.331C147.767 177.903 147.263 175.413 147.075 172.895C146.888 170.399 146.994 167.875 147.623 165.44C148.325 162.732 149.757 160.309 151.431 158.094C153.216 155.729 155.249 153.551 157.217 151.331C159.476 148.778 161.741 146.222 163.999 143.669C165.888 141.534 167.861 139.422 169.174 136.866C170.414 134.442 170.867 131.715 171.415 129.077C172.525 123.752 175.118 119.112 179.271 115.755C179.288 119.826 179.952 123.876 180.689 127.868C181.588 132.723 182.37 137.654 181.321 142.553C180.746 145.242 179.498 147.733 178.181 150.124C176.816 152.607 175.366 155.038 173.842 157.419C170.832 162.111 167.523 166.593 164.028 170.941C160.448 175.399 156.584 179.629 152.507 183.638C151.445 177.746 154.08 171.713 157.126 166.742C160.664 160.967 165.436 156.068 168.889 150.242C170.816 146.994 172.292 143.509 172.899 139.762C173.146 138.248 170.781 137.899 170.545 139.41C169.45 146.395 165.026 152.122 160.79 157.552C156.506 163.044 152.14 168.554 150.401 175.441C149.473 179.104 149.5 182.917 150.662 186.526C150.72 186.708 150.834 186.861 150.981 186.988C150.792 187.084 150.602 187.184 150.409 187.273C149.687 184.985 149.117 182.65 148.459 180.331ZM33.5261 211.072C34.1798 209.555 34.9807 208.113 35.9019 206.742C37.7948 203.92 40.1146 201.398 42.5835 199.075C47.6426 194.31 53.3614 190.287 58.0948 185.172C60.8027 182.252 63.0183 178.998 64.4718 175.272C64.7644 174.528 63.6639 174.059 63.3305 174.782C57.6564 187.056 44.4656 192.979 36.2719 203.237C36.9193 201.989 37.5968 200.758 38.3398 199.563C40.3058 196.396 42.5303 193.313 44.9776 190.507C45.2689 190.169 44.7518 189.631 44.4208 189.944C41.6075 192.616 39.1411 195.485 37.0518 198.755C36.0484 200.328 35.1201 201.946 34.279 203.604C33.3991 205.339 32.4701 207.12 32.1296 209.047C32.0962 209.232 32.1678 209.399 32.2875 209.526C32.1546 209.808 32.0228 210.084 31.9007 210.368C31.6654 210.921 31.4243 211.501 31.2187 212.099C30.952 203.886 32.6724 195.732 36.612 188.432C38.8573 184.265 41.8132 180.441 45.3057 177.248C49.2733 173.621 53.8449 171.079 58.7787 169.008C64.0958 166.776 69.6266 164.865 74.4464 161.683C73.6 165.442 72.8057 169.194 71.4571 172.824C69.7674 177.373 67.4976 181.602 64.3848 185.343C57.9884 193.019 48.0897 196.855 41.9187 204.771C38.9258 208.61 36.7782 213.992 31.8752 215.731C32.5555 214.247 32.8778 212.591 33.5261 211.072ZM43.7753 221.574C45.5499 222.372 47.1641 223.395 48.5954 224.724C50.2162 226.222 51.5866 227.971 53.1571 229.52C54.826 231.163 56.6687 232.624 58.3299 234.277C59.9718 235.914 61.3472 237.8 62.5715 239.76C64.9161 243.507 66.7615 247.537 69.3989 251.097C71.174 253.49 73.3107 255.824 75.8407 257.497C72.5448 257.898 69.2309 258.171 65.9185 257.932C62.1502 257.664 58.0951 256.755 54.9438 254.583C51.2067 252.012 49.4132 247.898 46.6567 244.447C43.8021 240.874 40.3738 237.855 37.8922 233.984C35.4987 230.255 33.9293 226.013 32.9931 221.68C39.8363 231.612 47.4891 241.446 57.5679 248.255C58.4851 248.872 59.5488 247.519 58.6284 246.891C48.4104 239.968 41.2361 229.976 33.7874 220.35C37.1817 219.75 40.5962 220.146 43.7753 221.574ZM65.4528 213.482C65.8157 209.559 66.2945 205.7 67.3351 201.876C68.4657 197.732 70.0066 193.727 72.0519 189.946C74.1988 185.978 76.8435 182.24 79.9779 178.982C81.8131 177.073 83.9035 175.341 86.2512 174.097C88.6303 172.837 91.2079 171.997 93.7564 171.162C99.2751 169.362 104.608 167.189 109.705 164.426C109.605 164.552 109.548 164.714 109.551 164.889C109.555 165.133 109.55 165.346 109.512 165.63C109.475 165.91 109.412 166.184 109.349 166.452C109.337 166.512 109.32 166.564 109.307 166.624C109.304 166.64 109.274 166.729 109.27 166.745C109.233 166.867 109.191 166.988 109.143 167.107C109.043 167.368 108.921 167.624 108.784 167.871C108.774 167.891 108.757 167.921 108.748 167.936C108.715 167.985 108.687 168.036 108.653 168.091C108.577 168.21 108.497 168.322 108.412 168.434C108.24 168.657 108.055 168.866 107.861 169.067C107.847 169.08 107.839 169.09 107.831 169.1C107.825 169.104 107.824 169.109 107.811 169.118C107.761 169.164 107.706 169.214 107.657 169.26C107.51 169.392 107.405 169.516 107.293 169.673C107.125 169.908 106.971 170.129 106.832 170.387C106.71 170.62 106.901 170.993 107.175 171C107.383 171.005 107.572 171.016 107.77 170.957C107.903 170.918 108.031 170.871 108.155 170.819C108.186 170.803 108.218 170.787 108.249 170.771C107.487 172.243 106.617 173.665 105.742 175.057C103.2 179.11 100.191 182.704 96.5932 185.863C93.0988 188.931 89.4587 191.783 86.1875 195.101C83.0671 198.266 80.1562 201.638 77.054 204.823C74.7576 207.182 72.301 209.473 69.6156 211.434C70.3687 210.405 71.0885 209.346 71.754 208.225C73.3194 205.593 74.6915 202.864 76.1302 200.166C77.5612 197.478 79.0954 194.834 81.0072 192.456C83.1699 189.77 85.7813 187.467 88.5295 185.395C91.6461 183.047 94.9744 181.002 98.3005 178.969C99.3355 178.337 98.1898 176.883 97.1682 177.478C91.2309 180.936 85.1968 184.453 80.5324 189.589C76.2872 194.262 73.7346 200.093 70.8233 205.622C69.4019 208.319 67.8295 211.09 65.8199 213.425C65.6964 213.449 65.574 213.468 65.4528 213.482ZM103.743 205.257C105.188 200.96 106.702 196.684 108.12 192.376C109.54 188.063 110.742 183.636 112.383 179.398C113.168 177.367 114.137 175.426 115.491 173.712C116.876 171.961 118.529 170.429 120.117 168.861C123.557 165.466 126.99 162.075 130.43 158.679C133.919 155.238 137.331 151.679 140.96 148.374C141.743 152.872 141.846 157.333 140.923 161.881C139.909 166.883 137.745 171.596 134.616 175.626C128.641 183.335 120.12 188.46 113.208 195.222C112.81 195.611 112.422 196.007 112.038 196.411C113.924 192.929 115.944 189.323 118.808 186.571C121.671 183.82 125.019 181.74 127.385 178.489C129.514 175.566 131.089 172.119 131.687 168.55C131.911 167.223 129.819 166.915 129.622 168.243C129.079 171.953 127.808 175.374 125.494 178.348C122.955 181.613 119.278 183.522 116.445 186.477C113.638 189.409 111.518 193.067 109.584 196.612C108.162 199.229 106.872 201.919 105.712 204.659C105.066 204.861 104.409 205.065 103.743 205.257ZM161.14 231.023C158.415 231.15 155.863 230.965 153.426 229.649C151.095 228.389 148.963 227.285 146.306 226.902C141.376 226.191 136.405 227.347 131.476 226.811C126.086 226.222 121.292 223.483 116.901 220.458C111.508 216.742 106.351 212.681 101.008 208.891C102.144 208.58 103.276 208.262 104.408 207.944C104.396 207.975 104.384 208.006 104.371 208.037C104.26 208.324 104.278 208.586 104.359 208.812C103.977 208.731 103.596 208.639 103.214 208.53C102.438 208.31 101.552 209.378 102.411 209.898C102.471 209.933 102.532 209.969 102.586 210.003C102.586 210.003 102.586 210.003 102.592 210.004C115.619 217.815 130.464 222.118 145.302 224.915C149.559 225.721 153.829 226.439 158.119 227.065C159.223 227.226 159.467 225.542 158.374 225.356C143.627 222.899 128.697 220.352 114.858 214.465C112.242 213.354 109.681 212.119 107.178 210.772C110.596 211.045 114.046 210.795 117.507 211.049C120.164 211.245 122.597 211.912 124.964 213.134C127.281 214.323 129.484 215.731 132.013 216.424C134.559 217.12 137.209 217.079 139.826 217.041C142.488 216.996 145.099 217.064 147.719 217.596C152.606 218.592 157.172 220.843 161.207 223.736C164.249 225.918 167.008 228.451 169.507 231.228C166.827 230.661 163.877 230.892 161.14 231.023Z" fill="#87C2A2"/>
<path d="M47.9248 187.734C48.208 187.54 48.449 187.253 48.6971 187.013C48.9724 186.75 49.2489 186.482 49.5103 186.205C49.9829 185.702 50.464 185.212 50.8938 184.672C51.3466 184.104 50.5813 183.328 49.9981 183.767C49.4476 184.186 48.943 184.654 48.4287 185.114C48.1437 185.369 47.8726 185.638 47.6004 185.913C47.3577 186.155 47.0654 186.391 46.8601 186.669C46.6373 186.977 46.6564 187.392 46.9257 187.663C47.2016 187.93 47.6089 187.949 47.9248 187.734Z" fill="#89A194"/>
<path d="M55.7588 239.479C55.6546 239.226 55.5302 239.041 55.3399 238.849C55.1913 238.699 55.0471 238.556 54.8985 238.406C54.6056 238.113 54.3139 237.815 54.0156 237.521C53.431 236.93 52.8398 236.343 52.2552 235.751C52.0553 235.551 51.6752 235.617 51.4958 235.799C51.31 235.985 51.2401 236.342 51.4365 236.558C52.0058 237.169 52.5751 237.779 53.1401 238.383C53.4253 238.686 53.7094 238.994 53.9946 239.297C54.1366 239.451 54.2787 239.605 54.4218 239.753C54.6109 239.951 54.7879 240.073 55.0342 240.187C55.4654 240.385 55.9377 239.911 55.7588 239.479Z" fill="#89A194"/>
<path d="M121.848 254.359C119.688 249.553 117.359 244.666 113.526 240.953C109.834 237.372 104.768 235.939 100.751 232.829C96.531 229.559 94.6176 224.281 90.6818 220.732C87.54 217.904 83.4477 216.452 79.3088 215.886C74.3097 215.205 69.1786 215.786 64.2101 216.424C63.5378 216.513 63.4886 217.331 63.9132 217.64C63.5009 218.071 63.4375 218.903 63.9582 219.317C70.5903 224.552 75.2857 231.59 81.3035 237.439C84.383 240.428 87.8701 242.823 91.7175 244.713C95.8712 246.753 100.263 248.28 104.586 249.922C109.837 251.912 115.092 253.886 120.361 255.819C121.225 256.131 122.268 255.298 121.848 254.359ZM107.402 248.377C103.077 246.723 98.6961 245.171 94.4738 243.269C90.5451 241.496 86.9379 239.296 83.7539 236.374C80.7219 233.586 78.1107 230.38 75.424 227.265C73.5247 225.06 71.5908 222.86 69.4542 220.898C75.575 223.145 80.8825 227.266 85.3705 231.985C88.1395 234.897 90.8939 237.959 94.3485 240.082C97.3747 241.939 100.744 242.895 104.092 243.975C107.641 245.121 111.321 246.39 113.466 249.644C114.263 250.855 116.051 249.487 115.26 248.277C111.185 242.057 103.016 242.193 96.9318 239.215C93.093 237.337 90.1256 234.084 87.2219 231.036C84.2861 227.953 81.2488 225.056 77.623 222.785C73.8588 220.422 69.8283 218.864 65.5919 217.641C73.3558 216.89 82.5048 216.382 88.8646 221.52C92.7755 224.68 94.6477 229.594 98.2407 233.058C101.735 236.429 106.508 237.862 110.368 240.701C114.448 243.7 116.738 248.213 118.709 252.765C114.949 251.287 111.181 249.819 107.402 248.377Z" fill="#89A194"/>
<path d="M92.6658 233.129C92.9612 232.904 93.0267 232.462 92.8942 232.129C92.7901 231.876 92.5755 231.639 92.4148 231.414C92.1668 231.068 91.8992 230.736 91.6174 230.417C91.0133 229.731 90.3689 229.077 89.7452 228.404C89.5017 228.144 89.1223 228.047 88.8137 228.28C88.5183 228.505 88.4824 228.914 88.6898 229.211C89.2067 229.963 89.7028 230.733 90.2459 231.467C90.5004 231.808 90.7614 232.145 91.0498 232.46C91.2323 232.662 91.4142 232.92 91.6329 233.085C91.9125 233.307 92.3692 233.359 92.6658 233.129Z" fill="#89A194"/>
<path d="M213.465 199.077C213.608 198.691 213.453 198.253 213.067 198.081C212.439 197.801 211.805 197.526 211.176 197.247C210.868 197.108 210.553 196.974 210.244 196.835C209.827 196.651 209.31 196.322 208.85 196.529C208.471 196.696 208.301 197.1 208.437 197.495C208.602 197.964 209.175 198.107 209.594 198.281C209.915 198.416 210.242 198.547 210.563 198.683C211.199 198.947 211.836 199.212 212.473 199.476C212.841 199.627 213.322 199.458 213.465 199.077Z" fill="#89A194"/>
<path d="M175.962 133.487C176.274 132.973 176.492 132.422 176.612 131.827C176.735 131.222 176.742 130.576 176.629 129.966C176.564 129.631 176.273 129.333 175.906 129.391C175.568 129.443 175.271 129.752 175.33 130.114C175.349 130.236 175.363 130.357 175.37 130.483C175.374 130.546 175.376 130.614 175.38 130.676C175.38 130.704 175.379 130.733 175.384 130.762C175.383 130.767 175.384 130.762 175.383 130.767C175.371 131.012 175.347 131.255 175.296 131.498C175.282 131.563 175.269 131.627 175.25 131.691C175.246 131.707 175.246 131.707 175.244 131.718C175.243 131.723 175.243 131.723 175.24 131.734C175.201 131.867 175.151 131.997 175.102 132.122C175.057 132.23 175.007 132.332 174.956 132.44C174.928 132.491 174.907 132.537 174.881 132.582C174.864 132.607 174.848 132.631 174.83 132.661C174.744 132.801 174.667 132.953 174.596 133.102C174.452 133.409 174.563 133.844 174.893 133.987C175.322 134.168 175.74 133.845 175.962 133.487Z" fill="#89A194"/>
<path d="M234.943 151.927C235.271 151.788 235.599 151.649 235.933 151.511C236.261 151.372 236.575 151.191 236.893 151.021C237.114 150.905 237.289 150.773 237.39 150.535C237.479 150.328 237.493 150.05 237.395 149.843C237.172 149.357 236.709 149.202 236.217 149.34C235.871 149.436 235.52 149.52 235.184 149.646C234.847 149.771 234.516 149.899 234.18 150.024C233.953 150.112 233.716 150.191 233.527 150.343C233.507 150.355 233.512 150.356 233.501 150.36C233.476 150.371 233.451 150.383 233.426 150.394C233.356 150.43 233.288 150.461 233.218 150.497C232.966 150.624 232.673 150.731 232.5 150.959C232.307 151.205 232.207 151.573 232.325 151.868C232.443 152.164 232.773 152.358 233.079 152.405C233.363 152.448 233.648 152.323 233.914 152.238C233.987 152.214 234.059 152.19 234.136 152.173C234.16 152.167 234.191 152.156 234.214 152.15C234.226 152.147 234.22 152.151 234.249 152.146C234.493 152.113 234.714 152.025 234.943 151.927Z" fill="#89A194"/>
<path d="M242.237 74.8693C242.917 73.3064 243.094 71.4849 242.899 69.7987C242.841 69.3019 242.352 68.8716 241.839 68.9545C241.313 69.0405 240.95 69.4817 240.994 70.0151C241.011 70.2045 241.021 70.3927 241.027 70.5797C241.029 70.6759 241.027 70.7656 241.029 70.8619C241.029 70.89 241.03 70.8846 241.028 70.8953C241.028 70.9181 241.024 70.9396 241.025 70.9623C241.013 71.3373 240.973 71.7119 240.917 72.0831C240.889 72.2687 240.856 72.4532 240.817 72.6365C240.779 72.8144 240.757 73.0239 240.684 73.183C240.794 72.9302 240.673 73.2088 240.654 73.2724C240.624 73.3618 240.594 73.4512 240.564 73.5405C240.509 73.7204 240.454 73.9003 240.393 74.0791C240.266 74.4408 240.322 74.7625 240.515 75.0457C240.514 75.0511 240.518 75.0576 240.524 75.0588C240.646 75.4114 241.102 75.5981 241.444 75.4506C241.512 75.4201 241.505 75.4243 241.429 75.4645C241.776 75.476 242.107 75.163 242.237 74.8693Z" fill="#89A194"/>
<path d="M243.367 62.4273C243.078 61.7128 241.964 62.1586 242.253 62.8731C242.54 63.593 243.654 63.1471 243.367 62.4273Z" fill="#89A194"/>
</svg>
