<svg width="30" height="30" viewBox="0 0 30 30" fill="none" xmlns="http://www.w3.org/2000/svg">
<rect width="30" height="30" rx="15" fill="#DEFF7F"/>
<path d="M19.2513 10.746C18.6984 10.1904 18.0399 9.74983 17.3142 9.45007C16.5884 9.1503 15.8099 8.99731 15.0241 9.00004C11.7317 9.00004 9.04824 11.67 9.04824 14.946C9.04824 15.996 9.32563 17.016 9.84422 17.916L9 21L12.1658 20.172C13.0402 20.646 14.0231 20.898 15.0241 20.898C18.3166 20.898 21 18.228 21 14.952C21 13.362 20.3789 11.868 19.2513 10.746ZM15.0241 19.89C14.1317 19.89 13.2573 19.65 12.4915 19.2L12.3106 19.092L10.4291 19.584L10.9296 17.76L10.809 17.574C10.3132 16.7862 10.0499 15.8756 10.0492 14.946C10.0492 12.222 12.2804 10.002 15.0181 10.002C16.3447 10.002 17.593 10.518 18.5276 11.454C18.9904 11.9124 19.3572 12.4576 19.6067 13.0581C19.8561 13.6585 19.9833 14.3023 19.9809 14.952C19.993 17.676 17.7618 19.89 15.0241 19.89ZM17.7497 16.194C17.599 16.122 16.8633 15.762 16.7307 15.708C16.592 15.66 16.4955 15.636 16.393 15.78C16.2905 15.93 16.007 16.266 15.9226 16.362C15.8382 16.464 15.7477 16.476 15.597 16.398C15.4462 16.326 14.9638 16.164 14.397 15.66C13.9508 15.264 13.6553 14.778 13.5648 14.628C13.4804 14.478 13.5528 14.4 13.6312 14.322C13.6975 14.256 13.7819 14.148 13.8543 14.064C13.9266 13.98 13.9568 13.914 14.005 13.818C14.0533 13.716 14.0291 13.632 13.993 13.56C13.9568 13.488 13.6553 12.756 13.5347 12.456C13.4141 12.168 13.2874 12.204 13.197 12.198H12.9075C12.805 12.198 12.6482 12.234 12.5095 12.384C12.3769 12.534 11.991 12.894 11.991 13.626C11.991 14.358 12.5276 15.066 12.6 15.162C12.6724 15.264 13.6553 16.764 15.1508 17.406C15.5065 17.562 15.7839 17.652 16.001 17.718C16.3568 17.832 16.6824 17.814 16.9417 17.778C17.2312 17.736 17.8281 17.418 17.9487 17.07C18.0754 16.722 18.0754 16.428 18.0332 16.362C17.991 16.296 17.9005 16.266 17.7497 16.194Z" fill="#171717"/>
</svg>
