<svg width="673" height="673" viewBox="0 0 673 673" fill="none" xmlns="http://www.w3.org/2000/svg">
<path d="M115.079 382.526C115.179 385.513 115.681 388.4 116.016 391.353L116.552 395.784L117.322 400.147C122.377 426.963 133.359 452.974 149.295 476.066C165.198 499.19 186.123 519.294 210.396 534.901C234.669 550.508 262.357 561.583 291.853 567.088C321.349 572.592 352.854 572.659 384.057 566.584C406.054 562.792 428.285 554.837 449.009 543.09C459.321 537.15 469.298 530.37 478.739 522.785C488.113 515.099 496.852 506.608 504.954 497.546C513.09 488.517 520.288 478.65 526.783 468.447C533.278 458.244 538.97 447.571 543.657 436.596C553.199 414.713 559.091 391.823 561.703 369.336C554.17 422.432 527.921 472.911 488.113 509.259C468.327 527.45 445.46 542.318 420.752 552.421C396.077 562.557 369.761 568.497 343.279 569.336C290.146 571.484 237.85 553.73 198.678 521.442C179.092 505.366 162.486 486.168 150.367 464.923C138.18 443.745 129.91 420.956 126.361 398.032C132.12 405.785 138.347 414.176 145.01 423.171C151.438 431.964 157.967 441.261 164.796 451.397C180.097 476.502 201.122 498.351 225.965 514.327C250.807 530.269 279.097 540.64 308.493 544.198C308.192 547.219 307.622 553.159 307.321 556.146C352.05 558.294 395.441 548.695 433.307 528.222C471.139 507.849 503.38 476.468 524.037 438.14C534.383 419.009 541.782 398.2 545.833 376.552C549.784 354.938 550.453 332.35 547.373 310.333C544.36 288.282 537.563 266.769 527.319 246.899C522.129 236.998 516.136 227.534 509.373 218.606C502.543 209.746 494.91 201.489 486.674 193.937C488.314 196.757 487.913 197.965 486.908 198.435C485.937 198.905 484.297 198.703 483.125 198.938C482.824 198.636 482.556 198.334 482.254 198.066C482.522 198.334 482.824 198.636 483.125 198.938C512.654 229.85 531.537 269.588 537.43 310.937C539.003 321.274 539.472 331.746 539.572 342.218C539.472 352.689 538.534 363.094 537.028 373.364C535.287 383.6 532.91 393.669 529.863 403.537C526.615 413.337 522.765 422.936 518.279 432.199C500.032 469.185 470.235 500.399 434.344 520.368C398.487 540.472 356.704 549.165 315.289 544.936C319.273 545.473 323.325 545.373 327.342 545.675C331.36 545.809 335.411 545.641 339.428 545.708C343.446 545.406 347.464 545.339 351.448 544.936C355.432 544.399 359.45 544.231 363.367 543.46C379.203 541.009 394.704 536.747 409.502 530.639C424.267 524.429 438.329 516.509 451.319 507.111C464.276 497.613 476.061 486.504 486.506 474.32C497.019 462.137 505.757 448.544 513.023 434.28C516.739 427.165 519.719 419.747 522.631 412.296C525.209 404.711 527.687 397.093 529.428 389.306C533.077 373.733 534.919 357.723 534.919 341.58C534.852 325.436 532.876 309.427 529.16 293.887C525.444 278.314 519.919 263.211 512.554 248.98C505.222 234.75 496.416 221.19 485.904 209.041C475.424 196.857 463.639 185.782 450.649 176.284C437.625 166.852 423.564 158.898 408.766 152.622C379.102 140.371 346.526 134.934 313.95 137.586C281.541 139.969 249.903 150.34 221.947 167.624C217.226 170.611 210.162 175.21 203.6 180.479C196.904 185.58 190.744 191.353 186.726 195.246C148.023 220.15 121.306 264.453 115.346 311.508C111.965 308.051 107.244 308.017 102.256 308.722C97.3007 309.393 92.0778 310.803 87.8928 309.427C83.7078 308.051 80.3933 303.755 80.1924 292.813C80.0585 290.061 80.3598 286.973 80.8285 283.382C81.0629 281.603 81.3307 279.69 81.6655 277.643C82.0673 275.629 82.603 273.515 83.1386 271.266C85.2479 262.238 89.232 251.43 95.4258 238.811C92.6805 237.603 87.1562 235.186 84.3774 233.978C69.1775 259.418 58.129 283.046 49.2568 301.942C44.737 311.373 40.9203 319.63 36.9697 326.309C33.3538 332.988 29.738 338.089 26.1891 341.211C22.7071 344.03 19.2587 344.97 15.9107 343.829C14.2702 343.224 12.5962 342.318 11.0561 340.506C9.516 338.626 8.04288 336.109 6.63672 332.887C1.11251 320.1 -3.00554 295.565 2.85347 258.68C10.1186 217.331 27.7961 173.8 56.3546 135.001C84.8461 96.2365 123.716 61.9689 169.718 38.2737C192.652 26.3925 217.226 16.9949 242.671 10.5173C268.116 4.07326 294.431 0.649865 320.646 0.0792992C346.861 -0.457704 373.21 1.72387 398.923 6.89253C424.635 12.0612 449.712 20.0155 473.483 30.2857C542.418 60.7607 601.209 114.998 636.162 182.862C653.873 216.626 665.357 253.713 670.345 291.437C672.923 310.299 673.459 329.329 672.655 348.192C672.321 357.623 671.283 367.054 670.178 376.418L667.935 390.414C667.198 395.079 666.026 399.677 665.089 404.309C653.572 454.988 630.37 503.721 597.66 545.138C581.221 565.779 562.473 584.674 541.782 601.187C520.991 617.566 498.325 631.629 474.353 642.839C426.309 665.057 372.942 675.462 321.483 672.508C295.737 671.166 270.259 666.735 246.019 659.284C221.813 651.766 198.846 641.362 177.854 628.608C162.453 619.613 144.508 608.336 126.964 594.643C109.42 580.983 92.2117 564.906 77.7818 547.823C63.3184 530.773 51.5335 512.884 43.3978 496.908C39.4807 488.853 36.0657 481.469 33.8895 474.79C31.5124 468.212 30.1732 462.439 29.604 457.908C24.7829 432.468 31.5124 429.883 39.2128 431.293C54.9819 484.02 85.5827 532.048 126.161 568.833C166.604 605.819 217.293 631.192 270.727 642.201C287.066 645.893 303.739 647.974 320.479 648.88C337.219 649.786 354.059 649.417 370.833 647.504C387.606 645.658 404.279 642.503 420.651 637.972C436.989 633.34 452.959 627.4 468.427 620.251C499.43 606.02 527.955 586.285 553.065 562.724C578.108 539.063 599.401 511.172 616.041 480.395C582.527 540.07 531.102 588.971 469.565 617.969C454.232 625.218 438.329 631.394 422.024 636.093C405.686 640.791 389.012 644.181 372.138 646.262C355.298 648.444 338.257 648.947 321.316 648.309C304.375 647.638 287.4 645.725 270.727 642.201C217.528 630.521 167.877 604.51 128.738 567.625C89.5333 530.907 60.3387 483.886 45.7749 432.803C52.8727 434.616 60.0374 435.757 63.7202 428.104C63.7202 428.104 63.0506 426.292 62.1466 423.305C61.3097 420.284 60.1044 416.156 58.7986 411.525C57.6938 406.859 56.4885 401.691 55.4172 396.79C54.5467 391.823 53.7097 387.091 53.0401 383.298C53.944 375.377 54.9819 368.833 56.7564 363.362C58.3634 357.925 60.2048 353.662 62.3475 350.34C66.5325 343.761 70.9519 341.144 75.4717 341.144C79.9915 341.144 84.5783 343.761 89.0311 347.755C91.2743 349.769 93.3501 352.152 95.6267 354.736C97.8699 357.321 100.08 360.14 102.189 363.094C105.972 369.101 110.257 375.646 115.079 382.526Z" fill="#FEF2F2"/>
</svg>
