<svg width="768" height="768" viewBox="0 0 768 768" fill="none" xmlns="http://www.w3.org/2000/svg">
<path opacity="0.5" d="M131.323 436.523C131.438 439.932 132.011 443.226 132.393 446.596L133.004 451.652L133.883 456.631C139.652 487.233 152.184 516.916 170.37 543.267C188.517 569.655 212.396 592.597 240.096 610.407C267.795 628.217 299.392 640.856 333.051 647.137C366.711 653.418 402.663 653.495 438.271 646.563C463.372 642.235 488.741 633.158 512.39 619.752C524.158 612.973 535.543 605.237 546.317 596.581C557.015 587.81 566.987 578.12 576.233 567.779C585.517 557.476 593.731 546.216 601.143 534.572C608.555 522.929 615.05 510.75 620.399 498.225C631.288 473.253 638.012 447.133 640.992 421.471C632.396 482.063 602.442 539.666 557.015 581.146C534.435 601.904 508.34 618.871 480.144 630.4C451.987 641.967 421.957 648.746 391.736 649.703C331.103 652.154 271.425 631.894 226.724 595.049C204.373 576.703 185.423 554.795 171.592 530.551C157.685 506.383 148.248 480.377 144.198 454.218C150.77 463.066 157.876 472.641 165.479 482.905C172.815 492.94 180.265 503.549 188.059 515.116C205.519 543.764 229.513 568.698 257.862 586.929C286.21 605.122 318.495 616.956 352.039 621.016C351.696 624.463 351.046 631.243 350.702 634.651C401.746 637.102 451.261 626.149 494.472 602.785C537.645 579.537 574.437 543.726 598.01 499.987C609.816 478.156 618.259 454.41 622.882 429.706C627.391 405.04 628.155 379.264 624.64 354.139C621.201 328.976 613.445 304.425 601.754 281.752C595.832 270.453 588.993 259.652 581.276 249.464C573.482 239.353 564.771 229.931 555.372 221.314C557.244 224.531 556.786 225.91 555.64 226.446C554.532 226.982 552.66 226.752 551.322 227.02C550.978 226.676 550.673 226.331 550.329 226.024C550.635 226.331 550.978 226.676 551.322 227.02C585.02 262.295 606.568 307.643 613.293 354.829C615.088 366.625 615.623 378.575 615.738 390.525C615.623 402.474 614.553 414.347 612.834 426.067C610.847 437.749 608.135 449.239 604.658 460.499C600.952 471.683 596.558 482.637 591.439 493.208C570.616 535.415 536.613 571.034 495.656 593.823C454.737 616.765 407.056 626.685 359.795 621.859C364.342 622.472 368.965 622.357 373.549 622.702C378.134 622.855 382.757 622.663 387.342 622.74C391.927 622.395 396.511 622.319 401.058 621.859C405.604 621.246 410.189 621.055 414.659 620.174C432.731 617.378 450.42 612.514 467.307 605.543C484.156 598.457 500.203 589.418 515.027 578.694C529.812 567.855 543.261 555.178 555.181 541.275C567.178 527.372 577.15 511.86 585.44 495.583C589.681 487.463 593.082 478.998 596.405 470.496C599.347 461.84 602.175 453.146 604.161 444.26C608.326 426.489 610.427 408.219 610.427 389.797C610.351 371.374 608.097 353.105 603.856 335.372C599.615 317.601 593.311 300.365 584.905 284.126C576.538 267.887 566.49 252.413 554.493 238.549C542.535 224.646 529.086 212.007 514.262 201.168C499.4 190.405 483.354 181.328 466.467 174.166C432.616 160.186 395.442 153.981 358.267 157.007C321.284 159.726 285.179 171.561 253.277 191.286C247.89 194.695 239.828 199.942 232.34 205.955C224.699 211.777 217.669 218.364 213.084 222.807C168.918 251.226 138.429 301.783 131.629 355.48C127.77 351.535 122.383 351.497 116.69 352.301C111.036 353.067 105.075 354.675 100.3 353.105C95.5239 351.535 91.7415 346.632 91.5123 334.146C91.3595 331.006 91.7033 327.482 92.2382 323.384C92.5056 321.354 92.8113 319.171 93.1933 316.835C93.6518 314.537 94.2631 312.124 94.8744 309.558C97.2814 299.255 101.828 286.922 108.896 272.521C105.763 271.142 99.4591 268.385 96.288 267.006C78.9425 296.038 66.3345 323.001 56.2099 344.564C51.0521 355.327 46.6966 364.748 42.1882 372.37C38.062 379.992 33.9357 385.814 29.8859 389.376C25.9125 392.593 21.9772 393.665 18.1566 392.363C16.2845 391.674 14.3742 390.64 12.6168 388.571C10.8593 386.426 9.17821 383.554 7.57355 379.877C1.26955 365.285 -3.4298 337.287 3.25627 295.195C11.547 248.009 31.7198 198.333 64.3096 154.058C96.8229 109.821 141.18 70.7164 193.675 43.6763C219.846 30.118 247.89 19.3939 276.926 12.0019C305.963 4.64824 335.993 0.7416 365.908 0.090493C395.824 -0.522313 425.892 1.96721 455.234 7.86547C484.576 13.7637 513.193 22.8409 540.319 34.5608C618.985 69.3376 686.075 131.231 725.962 208.674C746.173 247.205 759.278 289.526 764.971 332.576C767.912 354.101 768.524 375.817 767.607 397.342C767.225 408.104 766.04 418.867 764.78 429.553L762.22 445.524C761.379 450.848 760.042 456.095 758.972 461.38C745.829 519.214 719.353 574.826 682.025 622.089C663.266 645.643 641.871 667.207 618.259 686.05C594.533 704.741 568.668 720.789 541.312 733.581C486.487 758.936 425.586 770.809 366.863 767.439C337.483 765.907 308.408 760.851 280.747 752.348C253.124 743.769 226.915 731.896 202.959 717.342C185.385 707.077 164.906 694.208 144.886 678.582C124.866 662.994 105.228 644.648 88.7614 625.153C72.2564 605.696 58.8079 585.282 49.5238 567.051C45.0537 557.859 41.1567 549.433 38.6733 541.811C35.9607 534.304 34.4324 527.717 33.7829 522.546C28.2812 493.514 35.9607 490.565 44.7481 492.174C62.7431 552.344 97.6635 607.152 143.969 649.129C190.122 691.336 247.966 720.291 308.943 732.853C327.588 737.066 346.614 739.441 365.717 740.475C384.82 741.509 404.038 741.088 423.179 738.905C442.32 736.798 461.347 733.198 480.03 728.028C498.674 722.742 516.899 715.963 534.55 707.805C569.929 691.566 602.48 669.045 631.135 642.158C659.713 615.156 684.012 583.329 703 548.207C664.756 616.305 606.072 672.109 535.849 705.201C518.35 713.473 500.203 720.521 481.596 725.883C462.952 731.245 443.925 735.113 424.669 737.488C405.452 739.977 386.005 740.552 366.672 739.824C347.34 739.058 327.97 736.875 308.943 732.853C248.234 719.525 191.574 689.842 146.911 647.75C102.172 605.849 68.8561 552.191 52.2364 493.897C60.3361 495.966 68.5122 497.268 72.7149 488.535C72.7149 488.535 71.9508 486.467 70.9192 483.058C69.9641 479.611 68.5886 474.9 67.0986 469.615C65.8378 464.291 64.4624 458.393 63.2398 452.801C62.2464 447.133 61.2913 441.732 60.5272 437.404C61.5587 428.365 62.7431 420.897 64.768 414.654C66.6019 408.449 68.7033 403.585 71.1484 399.793C75.9242 392.286 80.9674 389.299 86.1252 389.299C91.283 389.299 96.5173 392.286 101.599 396.844C104.158 399.142 106.527 401.862 109.125 404.811C111.685 407.76 114.207 410.977 116.614 414.347C120.931 421.203 125.821 428.672 131.323 436.523Z" fill="#5B1E2A"/>
</svg>
