<svg width="487" height="189" viewBox="0 0 487 189" fill="none" xmlns="http://www.w3.org/2000/svg">
<path d="M39.7942 20.7747C36.3726 22.2095 31.2492 25.3177 28.8326 28.3118C25.6682 32.2335 27.3488 36.282 30.6957 40.5598C33.8751 44.6245 39.2671 46.4547 42.7925 43.3881C48.4546 38.4622 53.9673 38.6249 59.8508 37.029C61.808 36.4979 64.7693 34.8051 65.365 32.0696C66.1371 28.5167 65.4314 20.2224 59.7441 18.0536C53.3257 15.6056 42.8283 19.2495 39.7942 20.7747Z" fill="#E40000"/>
<path d="M35.0195 35.5843C32.7237 35.7291 31.5176 34.1647 30.4328 32.5219C30.1167 32.0431 29.9181 31.7806 29.673 31.1829C29.6189 30.9499 29.854 30.777 30.0287 30.666C30.31 30.4881 30.7555 30.1079 31.0586 30.3773C31.2128 30.4973 31.2295 30.5602 31.3836 30.6811C31.4964 30.8522 32.0054 31.5483 32.108 31.7026C32.119 31.7194 32.2207 31.8737 32.2436 31.9081C32.4713 32.1774 33.1631 33.0732 33.2533 33.1362C33.5479 33.5078 34.3316 34.1273 34.8935 33.7716C34.9288 33.7491 35.0165 33.6931 35.0337 33.6823C35.1062 33.4906 35.1814 33.1515 35.1383 32.9362L34.891 31.8067C34.5701 31.2818 34.4128 30.629 34.11 30.0941C34.0871 30.0597 33.8498 29.7008 33.8159 29.6488C33.749 29.5465 33.4672 29.0451 33.4104 28.9596C33.427 28.6824 33.5686 28.5193 33.8138 28.364C34.5511 27.8964 34.7663 27.8817 35.2171 28.566C36.2222 30.0889 37.6746 32.9301 36.4804 34.7797C36.4914 34.7973 36.5363 34.8652 36.5592 34.8996C36.7058 35.1219 36.7785 35.2703 39.8028 39.6631C39.9909 39.8352 40.1045 40.0062 40.222 40.2225C40.7044 41.1791 40.1286 41.3254 39.5826 41.744C39.3193 41.9101 39.1775 41.734 39.0247 41.5394C38.7301 41.1678 38.4307 40.7509 38.1934 40.392L35.0195 35.5843Z" fill="white"/>
<path d="M38.3761 32.1689C38.3172 32.0381 37.9004 31.1268 37.8415 30.996C37.8249 30.9589 37.7105 30.8082 37.693 30.7711C37.3127 29.8879 36.8654 29.0569 36.4661 28.1828C36.3897 28.0149 36.2287 27.6614 36.2287 27.6614L36.1244 27.0817C36.1134 26.9077 36.4187 26.7731 36.5338 26.723C36.5528 26.7149 36.5528 26.7148 36.5528 26.7148C36.5528 26.7148 37.1064 26.4711 37.3347 26.3701C38.0785 26.0426 38.8281 25.7799 39.5538 25.4606C39.764 25.3679 39.9104 25.2367 40.1197 25.1448C40.1767 25.1193 40.737 24.9403 40.7711 25.0146L41.4502 26.5038L41.3915 26.5737C41.2111 26.6307 40.4615 26.8934 40.2893 26.9698C39.9758 27.0858 38.5618 27.7524 38.2764 27.878L39.2021 29.9064C39.2186 29.9435 39.3398 30.158 39.3929 30.2241C39.4012 30.2426 39.4659 30.2819 39.4659 30.2819C40.2305 30.1017 40.913 29.6905 41.6362 29.4156C41.8166 29.3587 42.0287 29.4222 42.0958 29.5706L42.4952 30.4448C42.6056 30.6869 42.1416 31.0248 41.9695 31.1012L40.1956 31.8817C40.1956 31.8817 40.3094 32.2331 40.3775 32.3824C40.6829 33.0524 42.5914 37.0837 42.7318 37.4908C42.7889 37.4662 42.9991 37.3734 43.0562 37.348C43.9332 36.9614 44.5058 36.7103 45.3677 36.2413C45.3877 36.2331 45.5199 36.174 45.5399 36.1658C45.5779 36.1494 45.673 36.1075 45.693 36.0985L45.7559 36.1369L46.4267 37.6067C46.469 37.6995 45.0649 38.184 44.8224 38.3579L42.8764 39.2139C41.9043 39.6423 41.789 38.8878 41.3372 38.3499C40.1918 36.1968 39.4361 34.3398 38.3761 32.1689Z" fill="white"/>
<path d="M46.3881 22.7969L46.6638 22.7007C46.7839 22.7243 46.8784 22.8646 46.9516 22.9464C47.0734 23.0989 47.404 23.5254 47.4104 23.544C50.1057 27.9514 50.7387 29.0952 51.116 29.5914C51.4215 30.0697 51.7786 30.5075 52.0315 31.0255L53.9882 33.9366C54.1165 34.1085 54.1442 34.1855 54.2061 34.3581C54.2689 34.5316 54.3308 34.7042 54.1882 34.862C54.1096 34.9543 53.6725 35.2796 53.5811 35.333L53.3643 35.4081C53.2264 35.4566 53.1275 35.4905 53.027 35.3956C52.6114 35.0419 51.8882 34.0172 51.1287 32.8312C50.8456 32.9088 50.2603 33.0686 50.1224 33.1171C49.8593 33.1865 48.8482 33.5826 48.3357 33.7603C48.5554 35.1118 48.7483 36.3873 48.7816 36.7867C48.7858 37.0452 48.6461 37.3967 48.3903 37.4855C48.0946 37.5881 47.4569 37.7893 47.2142 37.4836L47.083 37.118C45.6471 26.7747 45.4764 25.2538 45.3884 23.9C45.4099 23.2237 45.7577 23.0167 46.3881 22.7969ZM48.0438 32.0248C48.5437 31.873 49.0427 31.7203 49.5161 31.5554C49.7329 31.4794 49.8904 31.3605 50.1062 31.2854L50.1262 31.2781C49.2709 29.8879 48.4907 28.5795 48.2316 28.1069C48.1233 27.9277 47.4843 26.8301 47.4041 26.7928C47.4054 26.8567 47.4425 27.1477 47.4638 27.2052C47.4841 27.2628 47.5347 27.527 47.5286 27.5723C47.6545 28.4159 47.7084 29.2415 47.8069 30.0729C47.7982 30.2924 47.9028 31.0784 48.0438 32.0248Z" fill="white"/>
<path d="M53.2353 27.7065C50.9951 27.1976 50.3013 25.3557 49.7482 23.4742C49.5868 22.9249 49.4749 22.6169 49.4166 21.9751C49.4334 21.7367 49.7092 21.637 49.9099 21.5789C50.2313 21.4876 50.771 21.2492 50.9813 21.5926C51.0932 21.7514 51.0908 21.8163 51.2027 21.9751C51.2602 22.1708 51.5424 22.9836 51.5943 23.159C51.5999 23.1785 51.6519 23.3557 51.6639 23.3946C51.8013 23.7166 52.1995 24.7717 52.2682 24.858C52.4409 25.2979 53.0077 26.1139 53.6505 25.9303C53.6913 25.9192 53.7912 25.8898 53.8112 25.8842C53.9375 25.7203 54.1095 25.4164 54.1327 25.1976L54.2287 24.0441C54.0761 23.4494 54.1176 22.779 53.9858 22.1797C53.9738 22.1398 53.8532 21.7288 53.8355 21.6694C53.8012 21.5525 53.6797 20.9922 53.6509 20.8939C53.7485 20.6325 53.9324 20.5159 54.213 20.4366C55.0573 20.1959 55.2668 20.2425 55.4969 21.0265C56.0101 22.7717 56.5614 25.9079 54.8729 27.3455C54.8785 27.365 54.9017 27.4438 54.9128 27.4828C54.988 27.738 55.0135 27.9003 56.612 32.9689C56.7416 33.1871 56.7991 33.3828 56.8487 33.624C57.0277 34.6778 56.4337 34.6564 55.7876 34.904C55.4871 34.9898 55.4031 34.78 55.3136 34.55C55.1409 34.1101 54.9771 33.6258 54.8555 33.2139L53.2353 27.7065Z" fill="white"/>
<path d="M57.546 24.1485C57.4459 23.7104 57.0005 21.7574 56.9097 21.3583C56.8686 21.1791 56.7821 20.4235 56.7712 20.2796C56.7074 19.8126 56.8162 19.7252 57.3325 19.6318C57.3735 19.6225 57.8363 19.583 57.9895 19.5903C58.4989 19.5619 58.3781 20.2584 58.5739 20.5497C58.6189 20.7493 58.8191 21.6255 58.8649 21.8251C59.4011 24.1763 59.9265 26.5721 60.4017 28.9373C60.5089 29.4999 60.5449 30.0356 60.6312 30.6028C60.6042 30.6715 60.4791 30.783 60.3972 30.8008L59.5387 30.9911C59.3958 31.0228 59.2516 30.6785 59.2231 30.6423C58.4605 28.5299 58.0419 26.3206 57.546 24.1485ZM60.0446 31.6126C60.4133 31.5305 61.1079 31.3766 61.222 31.875C61.2267 31.8954 61.2361 31.9344 61.2361 31.9344C61.2563 32.1183 61.4093 32.8803 61.4249 33.0447C61.375 33.391 60.8117 33.5569 60.504 33.625C59.9515 33.7472 59.7499 32.9545 59.6629 32.5767C59.5544 32.0978 59.513 31.731 60.0446 31.6126Z" fill="white"/>
<path d="M30.6859 42.4441C32.8423 46.2077 39.1125 47.716 42.3833 44.5216C42.4302 44.4761 42.3672 44.3947 42.3112 44.4324C38.2545 47.1442 33.8893 45.4802 30.7301 42.4101C30.7074 42.3883 30.6713 42.4169 30.6859 42.4441Z" fill="#E40000"/>
<path d="M56.6032 16.6179C62.6368 16.3738 65.5607 21.5261 66.2931 26.6099C66.3016 26.6719 66.3904 26.6479 66.3955 26.5955C66.6653 23.9986 65.6817 21.7298 64.216 19.609C62.7129 17.4335 59.2656 15.731 56.5928 16.547C56.5538 16.5581 56.5606 16.6193 56.6032 16.6179Z" fill="#E40000"/>
<path d="M28.0885 27.9238C29.9342 26.2725 31.5674 24.5606 33.6723 23.1954C35.8008 21.8149 38.1799 20.8013 40.4972 19.7697C40.5677 19.738 40.5163 19.6277 40.4448 19.6497C35.8481 21.0657 30.6028 23.6864 28.0484 27.8932C28.0313 27.9191 28.0668 27.9427 28.0885 27.9238Z" fill="#E40000"/>
<path d="M116.956 187.558C117.004 187.558 117.029 187.552 117.035 187.55C117.062 187.53 117.169 187.387 117.249 187.038C117.855 184.378 117.098 181.104 114.93 177.025C114.578 176.364 114.8 175.547 115.443 175.142C115.451 175.138 115.457 175.132 115.464 175.126C125.657 165.375 123.328 147.806 116.851 135.606C116.65 135.229 116.631 134.783 116.797 134.389C116.935 134.064 117.186 133.801 117.504 133.648C125.646 125.045 125.481 108.893 120.197 99.1343C119.894 98.5747 119.998 97.8884 120.454 97.4391C121.857 96.0584 122.52 94.7777 122.482 93.5257C122.392 90.509 120.701 86.9327 119.211 83.775C118.95 83.2215 118.697 82.6864 118.46 82.1717C116.951 78.8813 115.125 75.0251 113.034 71.3855C112.902 71.1547 112.837 70.8953 112.846 70.6318C113.183 60.3991 109.261 52.3416 101.19 46.6799C97.7959 44.2984 94.2846 41.8352 94.8851 36.0919C94.9165 35.7855 94.95 35.4791 94.9835 35.1707C95.2116 33.0527 95.448 30.8632 95.2806 28.8003C95.0023 25.3853 94.2532 22.7709 92.9223 20.5712C92.9035 20.5385 92.8846 20.5059 92.8679 20.4711C92.4766 19.6909 92.0874 19.021 91.6793 18.4246C91.4303 18.061 91.108 17.673 90.7648 17.2624C90.0931 16.4598 89.4005 15.6285 88.9694 14.6542C88.304 13.1428 87.8917 11.5374 87.492 9.98313C87.2074 8.87612 86.9375 7.83038 86.588 6.82958C86.5839 6.81733 86.5797 6.80303 86.5755 6.79077C86.5629 6.74992 86.5525 6.71112 86.5441 6.6764C85.2467 3.44727 83.6061 1.45588 82.8151 1.45588C82.633 1.45588 82.4217 1.61723 82.2731 1.75408C81.5951 2.37907 81.2498 3.58207 81.3231 5.05264C81.3503 5.57142 81.48 6.18008 81.6182 6.82345C81.8358 7.83243 82.0597 8.87408 81.9655 9.91165C81.8985 10.6653 81.2499 11.2331 80.4902 11.2331C80.4463 11.2331 80.4044 11.2311 80.3605 11.227C80.0634 11.2025 79.7934 11.0922 79.5737 10.9247C79.3686 10.8001 78.7429 10.4509 78.3935 10.2568C77.8096 9.93207 77.6527 9.8422 77.5543 9.77889C74.3359 7.68741 72.5572 7.24828 71.6344 7.24828C70.9187 7.24828 70.5609 7.49338 70.3119 8.15309C70.0901 8.74132 70.8392 10.1281 72.0174 11.3087C74.2794 13.5738 76.8136 15.5835 79.4293 17.6137C79.8855 17.9671 80.0864 18.5492 79.9441 19.1007C79.6448 20.2587 79.7264 21.1656 80.1889 21.7967C81.2729 23.2734 82.903 24.4151 84.6315 25.6222C85.2697 26.0675 85.9289 26.5291 86.565 27.0111C86.8287 27.2112 87.017 27.4951 87.0944 27.8138C87.7975 30.6569 87.4523 33.0445 87.0547 35.8079C86.9835 36.3022 86.9103 36.8149 86.8371 37.352C86.5525 39.4844 86.4081 41.8557 87.4732 43.2793C88.9673 45.2727 91.0578 46.7147 93.2739 48.2424C93.8954 48.6713 94.0837 49.4883 93.7091 50.1358C93.4392 50.6035 92.937 50.8731 92.4159 50.8731C92.2171 50.8731 92.0162 50.8343 91.8237 50.7526C87.8603 49.0676 83.6417 48.2118 79.2828 48.2118C78.0566 48.2118 76.7968 48.2792 75.5413 48.414C66.8508 49.3392 59.2588 52.3069 53.5858 56.9964C47.6178 61.931 43.8972 68.5138 42.5286 76.5652C42.447 77.0492 42.1184 77.4598 41.656 77.6558C41.4677 77.7355 41.2647 77.7763 41.0659 77.7763C40.7771 77.7763 40.4925 77.6946 40.2456 77.5333L40.1996 77.5047C39.8606 77.2841 39.5383 77.0758 39.193 76.894C38.2221 76.3813 37.1674 76.0811 36.0521 75.7645C34.4784 75.3172 32.8525 74.8536 31.3333 73.7568C29.9814 72.7805 28.8033 71.5714 27.8303 70.1621C27.7403 70.0313 27.6733 69.8863 27.6294 69.7352L27.5875 69.6453C26.6082 67.564 25.5975 65.4113 25.9302 62.7459C26.0955 61.4203 26.4847 60.2725 26.8593 59.1634C27.1397 58.3383 27.4034 57.5581 27.5645 56.737C27.9914 54.5761 27.7068 52.0638 26.7191 49.2698C26.4512 48.51 25.8172 47.9994 25.5912 47.9626C25.5535 47.9892 25.4426 48.0831 25.3024 48.3384C24.7458 49.3453 24.5763 50.7526 24.3984 52.2416C24.321 52.889 24.2415 53.561 24.1243 54.2105C24.0071 54.862 23.4526 55.3522 22.7788 55.4033C22.7411 55.4053 22.7013 55.4074 22.6637 55.4074C22.0338 55.4074 21.4667 55.0152 21.2595 54.4249C20.4225 52.021 19.2151 48.9144 17.3004 46.2163C17.1476 46.0018 16.9865 45.7649 16.8128 45.5096C15.8607 44.1146 14.2682 41.7801 12.862 41.7801C12.8076 41.7801 12.7511 41.7842 12.6946 41.7903C12.4267 41.825 12.3368 41.919 12.2677 42.0129C11.9475 42.448 11.7613 43.6755 12.1945 45.8139C12.5607 47.6133 13.2198 49.3188 14.0966 51.3224C14.4544 52.1374 14.7286 52.9584 14.9943 53.753C15.1555 54.2329 15.3061 54.6864 15.4735 55.1337C15.6702 55.6565 15.5384 56.2448 15.1387 56.643C14.8541 56.9249 14.4712 57.0781 14.0799 57.0781C13.9188 57.0781 13.7576 57.0536 13.6007 57.0005C13.0336 56.8105 12.364 56.5613 11.7048 56.1508C10.2756 55.2603 9.32762 54.2146 8.40898 53.1995C8.00092 52.7481 7.57818 52.2824 7.11572 51.8351C5.77646 50.5422 4.72182 49.6047 3.31351 49.327C3.23399 49.3106 3.16074 49.3045 3.09377 49.3045C2.93892 49.3045 2.75477 49.3372 2.56644 49.5884C2.25673 49.9989 2.15422 50.6934 2.3279 51.2387C2.93475 53.1668 4.14426 54.9519 5.82461 56.4041C7.50077 57.8522 8.70193 59.431 9.86122 60.9567C10.33 61.5735 10.8133 62.2087 11.3281 62.8378C12.23 63.9366 13.3579 64.7455 14.5528 65.6013C15.6117 66.359 16.7061 67.1433 17.7063 68.1747C18.242 68.7282 18.7296 69.3001 19.1732 69.8332C20.954 72.0309 21.9647 73.7772 22.7767 75.1804C23.5928 76.5897 24.2352 77.7008 25.3506 78.7833C26.5057 79.9046 27.9998 80.9564 30.0505 82.09C34.7525 84.6921 36.9037 87.9375 37.4687 93.2969C37.5231 93.8116 37.5713 94.3345 37.6194 94.8635C37.7952 96.7732 37.9772 98.7483 38.4941 100.501C39.7162 104.643 42.1373 107.257 46.5924 109.242C46.6196 109.255 46.6468 109.265 46.6761 109.275C46.741 109.3 46.8038 109.324 46.8686 109.353C47.3395 109.555 47.6701 109.984 47.7392 110.482C47.7392 110.482 47.7412 110.49 47.7454 110.505L48.074 111.369C50.922 118.836 53.8642 126.556 58.7462 132.767C61.2907 136.005 63.8814 138.705 66.6645 141.025C67.5685 141.779 68.5227 142.451 69.4456 143.1C72.6472 145.357 75.9577 147.692 76.3051 153.043L76.3448 153.656C76.6901 158.837 77.3325 168.484 73.0741 172.945C71.5925 174.495 69.6778 175.287 67.3844 175.3H67.3028C63.0339 175.3 59.42 173.706 55.9254 172.166C55.0507 171.78 54.1466 171.382 53.251 171.019C53.1464 170.976 53.0459 170.92 52.9539 170.855C52.8262 170.765 52.6986 170.677 52.5688 170.59C52.3052 170.41 52.0331 170.222 51.759 170.016C50.9052 169.372 50.2356 169.072 49.6518 169.072C49.6246 169.072 49.5974 169.072 49.5702 169.074C46.5652 169.221 45.3117 173.696 44.8325 176.351C44.0583 180.632 44.684 181.762 44.8932 182.007C44.9393 182.06 44.9748 182.101 45.1506 182.101C45.2008 182.101 45.2594 182.097 45.3201 182.089C47.1365 181.846 48.9403 178.608 49.6183 177.389C49.8443 176.985 50.2523 176.709 50.719 176.646C50.786 176.637 50.8529 176.631 50.9199 176.631C51.3175 176.631 51.7025 176.788 51.985 177.07C55.5403 180.647 61.3891 182.869 67.2462 182.869C70.7932 182.869 73.9927 182.046 76.5018 180.491C84.6817 175.42 88.3081 165.31 87.2786 150.439C87.2284 149.726 87.7201 149.085 88.4337 148.929C95.5778 147.367 101.563 145.116 105.737 142.42C105.982 142.263 106.267 142.179 106.556 142.179C106.669 142.179 106.784 142.191 106.897 142.218C107.294 142.31 107.637 142.559 107.84 142.906C112.134 150.2 117.004 161.109 109.745 171.574C109.696 171.69 109.632 171.801 109.554 171.903C108.357 173.461 108.121 175.163 108.851 176.958C109.353 178.192 110.136 179.311 110.965 180.496C111.473 181.225 112 181.978 112.471 182.777C113.212 184.033 114.051 185.455 115.081 186.517C115.717 187.158 116.546 187.558 116.956 187.558Z" fill="white"/>
<path d="M3.61058 47.9055C5.49391 48.2772 6.83526 49.521 8.16196 50.8037C9.68536 52.2763 10.6438 53.7673 12.5041 54.9254C13.0063 55.2399 13.5399 55.4442 14.0819 55.6239C13.6215 54.3923 13.27 53.1096 12.7343 51.8862C11.9035 49.9867 11.1544 48.122 10.74 46.0897C10.3885 44.3598 9.89673 40.6874 12.4999 40.3504C15.1763 40.0032 17.2438 43.5877 18.5203 45.3851C20.3743 47.9974 21.6173 50.9467 22.6636 53.9532C23.0424 51.8433 23.0256 49.4046 23.9987 47.642C25.3023 45.2891 27.508 47.0476 28.1232 48.7919C29.0418 51.3919 29.5587 54.2861 29.023 57.0046C28.617 59.0593 27.6691 60.7852 27.4033 62.9134C27.1083 65.2663 28.0813 67.2087 29.0544 69.2859C29.0648 69.3063 29.0565 69.3247 29.0606 69.3451C29.9291 70.6053 30.9816 71.6939 32.2142 72.5845C34.539 74.2633 37.362 74.2736 39.8982 75.6134C40.3188 75.836 40.6912 76.0791 41.0637 76.3221C43.9996 59.0634 57.5219 48.8675 75.378 46.968C81.6725 46.2981 87.3392 47.26 92.4137 49.4189C90.1642 47.8667 87.9063 46.3062 86.272 44.1269C84.8302 42.2029 85.0708 39.3394 85.3617 37.1581C85.8326 33.6287 86.4017 31.19 85.6484 28.1447C83.3298 26.3821 80.645 24.9033 78.9793 22.6301C78.1611 21.5149 78.1444 20.1199 78.5022 18.7371C75.8886 16.709 73.2854 14.6461 70.9521 12.3095C69.9393 11.2944 68.3239 9.21522 68.9161 7.64253C70.4248 3.6434 76.2087 7.15847 78.3746 8.56572C78.542 8.67601 80.4881 9.73196 80.4839 9.77486C80.6136 8.33697 79.9126 6.59679 79.8373 5.11397C79.7599 3.576 80.0591 1.79089 81.2477 0.694092C84.3217 -2.14492 87.2806 4.52983 87.9712 6.27408C87.9816 6.30268 87.9753 6.32719 87.9858 6.35374C88.8668 8.86596 89.2602 11.6498 90.3274 14.0742C90.8799 15.3303 92.1312 16.4782 92.9076 17.6138C93.391 18.3205 93.8116 19.0639 94.1945 19.8278C95.7681 22.4279 96.488 25.3894 96.7538 28.6778C96.9588 31.1798 96.6156 33.7451 96.3562 36.2328C95.8539 41.0387 98.4801 42.9934 102.052 45.4974C110.772 51.6146 114.664 60.3665 114.325 70.6707C116.355 74.2021 118.121 77.8867 119.812 81.5733C121.425 85.0925 123.846 89.6022 123.964 93.4767C124.018 95.3211 122.997 96.9816 121.507 98.4501C127.283 109.118 126.958 125.935 118.475 134.747C118.379 134.849 118.274 134.902 118.167 134.934C124.688 147.216 127.475 165.657 116.504 176.151C116.42 176.231 116.334 176.296 116.246 176.353C118.01 179.675 119.527 183.706 118.697 187.346C118.065 190.109 115.344 188.874 114.013 187.501C112.879 186.333 112.013 184.875 111.197 183.488C110.002 181.46 108.378 179.679 107.482 177.481C106.535 175.15 106.93 172.908 108.378 171.023C108.414 170.935 108.46 170.845 108.522 170.757C114.773 161.752 111.64 152.236 106.566 143.615C101.242 147.052 94.297 149.121 88.7684 150.331C89.5573 161.738 87.9942 175.079 77.3073 181.703C69.6422 186.455 57.2059 184.38 50.9303 178.067C49.7312 180.222 47.9107 183.19 45.5314 183.51C41.9991 183.984 43.0705 177.81 43.3802 176.09C43.9682 172.834 45.4707 167.814 49.5052 167.618C50.7043 167.561 51.7736 168.18 52.6755 168.86C53.0522 169.144 53.4456 169.401 53.8306 169.673C58.2774 171.482 62.3705 173.864 67.3843 173.841C76.5122 173.796 75.2168 159.058 74.8318 153.125C74.4384 147.048 69.818 145.537 65.7102 142.116C62.6467 139.565 60.0247 136.75 57.5784 133.64C52.37 127.012 49.3232 118.754 46.3663 111.007C46.3203 110.891 46.2931 110.776 46.2764 110.668C46.1801 110.627 46.0797 110.593 45.9834 110.55C41.3672 108.493 38.4857 105.676 37.0753 100.891C36.3743 98.5093 36.2571 95.8828 35.9997 93.4359C35.4682 88.4053 33.4467 85.6194 29.3264 83.34C27.1857 82.1554 25.5765 81.0259 24.3126 79.8005C21.8475 77.4067 21.498 75.015 18.0306 70.7381C17.5828 70.2009 17.1266 69.6658 16.6349 69.1592C14.6239 67.0841 12.0416 66.0098 10.175 63.7324C8.36496 61.5245 7.05292 59.3861 4.84524 57.4784C3.0205 55.9017 1.62892 53.9266 0.913257 51.6534C0.358721 49.8989 1.38407 47.4663 3.61058 47.9055ZM95.5944 43.9554C93.1189 41.39 93.3261 38.1323 93.6965 34.9011C94.3431 29.2374 93.8304 24.695 91.9743 19.7175C91.3444 18.5656 90.6078 17.4361 89.6955 16.3148C87.5401 13.6719 87.1007 9.99748 86.0355 6.8378C86.0292 6.82555 86.0188 6.81738 86.0146 6.80512C85.8367 6.35374 83.5391 0.84932 82.3609 2.43222C81.2916 3.86807 81.9487 6.61109 82.2668 8.13272C82.5535 9.50321 82.6372 12.4035 80.2767 11.7581C77.2257 10.9248 75.1917 8.16336 71.8896 7.79571C69.0646 7.47913 73.2519 11.8071 73.7855 12.2993C75.5119 13.9006 77.3638 15.3712 79.2241 16.8234C79.6615 15.9165 80.1867 15.0852 80.6638 14.4337C82.2458 12.2667 84.78 11.7662 86.4247 14.0926C87.5819 15.7286 86.8914 21.5088 84.3552 21.566C84.0643 21.5721 83.8592 21.374 83.763 21.1268C83.1268 19.4724 85.0374 17.4177 84.7172 15.4753C84.261 12.7078 81.6453 16.7049 81.3879 17.1747C80.8459 18.1571 80.4106 19.3724 80.4023 20.4977C80.3855 22.6239 83.719 23.9495 85.1504 25.0769C85.3031 25.1974 85.4517 25.3241 85.5961 25.4527C90.4781 28.5144 88.2578 33.837 87.7263 38.792C86.9165 46.3532 98.8149 48.8348 101.768 55.2195C105.047 57.9523 107.978 61.2243 110.582 64.8456C110.119 61.6287 109.376 58.5569 107.522 55.4401C104.672 50.6464 99.3967 47.8973 95.5944 43.9554ZM3.62943 52.4765C4.57737 54.5271 6.52141 55.9875 8.20175 57.4396C9.53682 58.5936 10.4324 59.9417 11.3029 61.4449C12.6317 63.7427 14.898 65.0641 17.0178 66.5592C18.4324 67.5559 19.6063 68.953 20.5082 70.493C22.515 72.9112 23.8564 75.7298 25.9239 78.1032C27.9955 80.4826 31.3729 81.749 34.018 83.4013C38.8644 86.4282 39.1239 91.3526 39.6994 96.4444C40.7498 105.729 47.2327 107.184 54.9899 110.401C59.5601 112.296 63.0443 115.229 62.6655 120.435C62.6383 120.809 62.1905 120.913 61.9729 120.619C59.5224 117.314 57.658 114.955 53.7071 113.37C52.5186 112.894 51.3007 112.492 50.087 112.086C54.5191 123.658 59.9828 134.685 70.7534 141.946C78.4415 147.128 77.7949 154.031 77.4685 162.585C77.2425 168.533 75.5454 174.95 68.8428 176.3C68.6461 177.172 68.3783 177.965 68.3804 178.9C68.3846 179.846 68.7528 180.645 68.9642 181.511C71.2284 181.378 73.5637 180.804 76.0288 179.583C86.4645 174.405 86.9437 159.436 86.6298 149.673C86.6068 148.917 87.2492 148.617 87.831 148.723C92.148 147.755 96.285 146.311 100.297 144.471C104.783 142.412 108.403 139.215 112.672 136.852C112.911 136.72 113.176 136.983 113.045 137.216C111.902 139.211 110.24 140.937 108.265 142.441C112.31 148.427 115.003 155.077 114.495 161.693C115.438 162.475 116.19 162.996 117.521 163.145C118.648 163.269 119.638 163.094 120.653 162.706C122.495 153.545 119.624 142.82 116.041 134.875C115.564 134.522 115.342 133.856 115.913 133.354C124.631 125.684 122.327 110.448 119.211 100.354C118.236 101.048 117.209 101.681 116.206 102.255C117.087 104.706 118.904 110.648 115.135 110.858C113.658 110.942 112.358 109.849 111.352 108.928C110.492 108.142 109.533 107.159 108.88 106.101C104.67 108.095 100.334 109.675 95.9858 111.24C96.6114 114.369 98.0449 121.493 93.8702 121.642C90.6999 121.757 87.741 117.331 86.5817 114.906C86.5649 114.871 86.5524 114.829 86.5357 114.792C86.1569 114.947 85.7739 115.092 85.3952 115.249C79.7285 117.633 75.2043 116.695 71.9022 111.454C71.5527 110.901 72.3919 110.468 72.7706 110.958C78.1276 117.892 85.5856 112.429 91.7608 110.09C98.7145 107.457 105.603 104.58 112.12 101.026C114.876 99.5224 117.5 97.7863 119.73 95.5927C122.17 93.1928 119.766 89.7554 118.812 87.092C116.213 79.8474 112.333 72.7867 108.02 66.3836C100.818 55.6974 90.4655 49.517 77.2341 49.854C60.0665 50.2931 45.431 61.4429 43.8657 78.4729C43.8573 78.5648 43.8364 78.6485 43.8155 78.7302C45.523 80.838 46.2638 83.4401 46.4521 86.6141C46.7263 91.23 46.8288 94.9269 51.4743 97.6025C53.9185 99.0097 57.0134 99.457 59.6166 100.601C63.3916 102.261 64.7958 106.336 64.371 110.061C64.3166 110.539 63.5988 110.711 63.4628 110.182C61.5292 102.676 56.2873 102.439 50.1058 99.888C45.793 98.109 44.2047 93.9955 43.6564 89.8105C42.9826 84.6452 43.805 81.3384 38.3706 78.1685C35.8323 76.6878 34.1435 76.2261 31.6178 74.7147C28.4915 72.8479 26.3989 69.5494 26.041 66.1487C25.4488 64.6985 25.2793 63.0932 25.6476 61.4061C26.2838 58.4997 27.8177 56.0998 27.102 52.9626C26.809 51.682 26.1792 46.7494 25.0575 50.0051C24.3314 52.1109 24.1661 54.3882 23.8397 56.5736C23.8041 56.8044 23.7015 57.0271 23.5781 57.2456C23.5258 57.4376 23.419 57.5969 23.2705 57.7195C23.0884 57.9625 22.8959 58.1933 22.7327 58.3996C20.8598 60.7566 21.6843 62.6928 21.4625 65.3746C21.4478 65.5462 21.2427 65.7218 21.069 65.5952C17.8778 63.2749 19.4222 59.7394 21.3537 57.1088C19.7298 52.0802 17.79 47.2784 14.0589 43.3732C11.8135 41.0244 13.2763 47.015 13.5839 48.0546C13.9919 49.421 14.7034 50.6852 15.2328 52.0067C15.9506 53.7898 16.2645 55.6647 17.4447 57.2374C17.8465 57.7705 17.6267 58.2811 17.2019 58.5732C16.8985 58.9266 16.4151 59.092 15.9087 58.7325C14.5067 57.7399 12.9226 57.4601 11.3741 56.8085C9.86325 56.1733 8.65375 54.7191 7.6242 53.5426C6.68044 52.4663 1.6624 48.2139 3.62943 52.4765ZM115.338 107.024C115.225 105.734 114.936 104.416 114.61 103.138C113.76 103.595 112.975 104.002 112.333 104.353C111.814 104.637 111.285 104.886 110.762 105.153C111.816 106.544 112.873 107.943 114.499 108.762C115.591 109.31 115.388 107.6 115.338 107.024ZM94.521 115.815C94.4561 114.502 94.3263 113.197 94.1799 111.892C92.2547 112.586 90.3337 113.289 88.4211 114.032C88.5111 114.175 88.5885 114.308 88.6492 114.41C89.2058 115.345 89.8336 116.242 90.5199 117.09C90.974 117.647 93.257 120.474 94.1108 119.381C94.8181 118.466 94.5712 116.877 94.521 115.815Z" fill="#262626"/>
<path d="M71.5173 83.0133C69.1673 67.2231 85.8201 62.8216 97.6516 68.5997C94.8768 66.8351 91.7924 65.436 88.7351 63.9817C88.6556 63.9429 88.712 63.8286 88.7937 63.8469C96.0884 65.4135 103.967 70.8832 106.857 77.7418C107.395 79.0183 107.819 80.495 108.102 82.0534C108.757 84.4349 108.816 86.9349 108.123 89.4348C107.859 90.7583 107.434 92.0144 106.807 93.1439C106.196 94.4552 105.386 95.6521 104.306 96.6447C101.414 99.9004 96.6911 101.886 92.4557 102.306C85.7782 102.97 76.9768 100.578 73.5575 94.4613C73.5262 94.4041 73.6077 94.3612 73.6454 94.4123C76.1586 97.7844 80.1199 99.7676 84.3093 100.691C84.1879 100.65 84.0686 100.619 83.9472 100.576C76.46 97.9314 72.5908 90.2191 71.5173 83.0133Z" fill="#262626"/>
<path d="M74.2731 81.0752C73.9194 94.6616 89.4214 104.3 100.556 95.7604C102.728 93.4055 104.325 90.9014 104.72 87.2005C105.193 82.7643 103.944 78.5201 100.966 75.1377C92.7841 65.8425 74.6477 66.637 74.2731 81.0752Z" fill="#E40000"/>
<path d="M85.4642 76.0056C87.5359 73.6016 91.5599 73.7323 93.8513 75.7115C96.1846 77.7253 96.7035 81.126 94.975 83.675C93.0561 86.5017 88.9902 87.141 86.3599 84.8821C86.0376 84.6064 85.7593 84.3 85.5145 83.9711C85.4077 83.869 85.2864 83.7812 85.1901 83.6709C83.1959 81.3936 83.5767 78.1971 85.4642 76.0056Z" fill="#262626"/>
<path d="M74.7629 68.7814C69.6884 74.2981 69.6507 79.9128 70.946 86.8898C70.969 87.0124 70.7891 87.1084 70.7242 86.9797C67.9118 81.3139 68.8283 72.3006 74.6834 68.6793C74.7483 68.6405 74.811 68.7283 74.7629 68.7814Z" fill="#262626"/>
<path d="M110.644 85.1884C111.274 90.6499 108.962 98.1682 103.157 100.194C103.04 100.235 102.941 100.07 103.034 99.99C105.201 98.1294 107.148 96.5791 108.478 93.9954C109.908 91.2197 109.987 88.1642 110.416 85.1577C110.435 85.0209 110.63 85.0719 110.644 85.1884Z" fill="#262626"/>
<path d="M102.488 100.591C102.142 100.891 101.408 101.302 100.945 101.118C100.883 101.093 100.822 101.011 100.874 100.944C101.159 100.574 101.881 100.403 102.331 100.329C102.475 100.305 102.617 100.476 102.488 100.591Z" fill="#262626"/>
<path d="M87.806 63.7166C87.3812 63.7615 86.9878 63.6655 86.5692 63.6062C86.0628 63.5327 85.6485 63.4735 85.1819 63.2651C85.1086 63.2324 85.1254 63.1078 85.2049 63.0935C86.0315 62.9484 87.151 63.0485 87.8625 63.5041C87.9671 63.5715 87.919 63.7043 87.806 63.7166Z" fill="#262626"/>
<path d="M72.8398 93.6081C72.1932 92.9768 71.8584 92.2454 71.6261 91.3813C71.6052 91.3037 71.7098 91.2383 71.7705 91.2996C72.3983 91.9513 72.6536 92.7255 72.9591 93.5406C72.9842 93.6081 72.8879 93.6551 72.8398 93.6081Z" fill="#262626"/>
<path d="M92.2525 103.653C88.9629 104.597 83.8152 103.673 80.9316 101.924C80.8584 101.879 80.9044 101.769 80.9902 101.79C82.6329 102.198 84.2295 102.709 85.8952 103.034C88.0108 103.446 90.1264 103.273 92.2379 103.549C92.2965 103.553 92.3174 103.634 92.2525 103.653Z" fill="#262626"/>
<path d="M104.879 72.5476C103.467 71.0158 102.161 69.6208 100.454 68.3708C98.8862 67.225 97.1305 66.3692 95.5611 65.2316C95.5004 65.1866 95.5339 65.0825 95.6155 65.1049C97.6557 65.685 99.47 67.0167 101.15 68.2462C102.561 69.2777 104.522 70.7258 104.98 72.4884C104.997 72.5456 104.921 72.5926 104.879 72.5476Z" fill="#262626"/>
<path d="M69.2112 73.624C68.1293 76.173 67.964 78.5607 68.146 81.3057C68.1523 81.4058 68.01 81.4099 67.9786 81.3282C67.2274 79.3756 67.0956 74.9047 69.1023 73.5403C69.1526 73.5056 69.2363 73.5648 69.2112 73.624Z" fill="#262626"/>
<path d="M127.791 108.834C129.419 113.189 128.865 118.603 127.981 123.062C127.186 127.073 125.244 132.406 121.442 134.594C121.361 134.641 121.262 134.547 121.31 134.465C123.742 130.562 126.067 127.425 127.151 122.839C128.27 118.103 127.532 113.601 127.661 108.85C127.665 108.777 127.766 108.769 127.791 108.834Z" fill="#262626"/>
<path d="M45.477 116.15C48.3752 122.034 50.7294 127.921 54.4165 133.423C58.3883 139.354 63.7202 145.034 69.7426 149.058C69.8912 149.158 69.7636 149.379 69.5982 149.297C63.4523 146.16 58.6603 140.98 54.7409 135.474C50.7126 129.818 47.0297 122.935 45.3493 116.203C45.3305 116.128 45.4435 116.077 45.477 116.15Z" fill="#262626"/>
<path d="M71.6029 44.705C64.3395 44.9358 56.9318 48.0526 51.3216 52.4602C45.0417 57.3927 41.8777 64.0511 39.6031 71.4081C39.5382 71.6164 39.1992 71.5837 39.2076 71.355C39.5424 63.3567 45.2593 56.0059 51.4848 51.2531C54.5902 48.8818 58.1245 47.1968 61.8577 46.002C64.4002 45.1891 69.0018 43.4183 71.6322 44.5947C71.6908 44.6213 71.6573 44.703 71.6029 44.705Z" fill="#262626"/>
<path d="M88.6095 77.2538C89.2875 75.8363 91.3655 75.6709 92.2925 76.8841C92.7508 77.4825 92.7843 78.5201 92.3595 79.1328C92.0749 79.5434 91.6271 79.8007 91.1562 79.8886C90.4845 80.2174 89.5993 79.9008 89.0678 79.4821C88.3689 78.9347 88.2433 78.0177 88.6095 77.2538Z" fill="white"/>
<path d="M93.0017 96.3792C90.9928 98.4748 87.0839 97.0246 84.9243 95.9462C81.9424 94.4593 79.3706 92.0329 78.1402 88.9855C78.0481 88.7588 78.3704 88.6281 78.5252 88.7649C80.6303 90.6093 82.838 92.4352 85.1859 93.9732C87.7472 95.65 90.0721 95.8032 92.9557 96.2158C93.0373 96.226 93.0478 96.3302 93.0017 96.3792Z" fill="white"/>
<path d="M77.3702 87.9036C76.7529 87.6216 76.3385 86.6492 76.7633 86.0752C76.9475 85.8259 77.2509 85.781 77.4936 85.9832C77.9289 86.3448 78.0712 87.164 77.9205 87.685C77.8515 87.9281 77.5878 88.0037 77.3702 87.9036Z" fill="white"/>
<path d="M105.731 138.928C104.415 140.588 102.186 141.389 100.364 142.414C97.6076 143.962 94.2845 145.402 91.1457 145.911C90.9971 145.935 90.9238 145.764 91.0452 145.678C93.3868 143.997 96.2683 143.235 98.9008 142.081C101.19 141.08 103.373 139.847 105.641 138.811C105.723 138.774 105.785 138.862 105.731 138.928Z" fill="#262626"/>
<path d="M90.3359 146.211C90.1476 146.434 88.9192 147.059 88.9694 146.417C88.9778 146.323 89.0197 146.205 89.118 146.162C89.4779 146.013 89.8797 145.817 90.2668 145.956C90.384 145.999 90.4154 146.119 90.3359 146.211Z" fill="#262626"/>
<path d="M62.4856 55.7301C54.2199 60.2705 49.2249 67.174 47.4818 76.3079C47.4546 76.457 47.1972 76.461 47.1721 76.3079C46.4334 71.9288 49.3044 67.1434 51.7318 63.6936C54.0086 60.4584 58.0577 55.8077 62.4584 55.63C62.5149 55.628 62.5338 55.7056 62.4856 55.7301Z" fill="#262626"/>
<path d="M110.745 172.034C110.529 172.342 110.245 172.51 109.943 172.571C109.728 172.992 109.452 173.402 109.125 173.819C107.501 175.884 110.91 179.646 112.124 181.39C112.555 182.007 116.466 187.793 116.834 186.852C118.09 183.635 115.259 178.567 113.873 175.876C113.649 175.44 113.8 175.04 114.085 174.785C114.145 174.572 114.265 174.362 114.47 174.172C117.351 171.484 119.163 168.212 120.18 164.642C118.312 165.273 115.719 165.108 114.183 164.05C113.651 166.748 112.555 169.425 110.745 172.034Z" fill="#E40000"/>
<path d="M53.4938 171.991C53.1318 171.781 52.7698 171.548 52.3994 171.276C51.8679 170.888 51.3761 170.451 50.8258 170.087C48.459 168.517 47.0068 171.846 46.3664 173.466C46.0965 174.148 44.6045 181.539 45.2783 181.449C47.0465 181.211 49.0073 177.508 49.8945 176.227C50.3005 175.641 51.0308 175.741 51.3824 176.145C56.6662 178.625 61.6089 181.188 66.8822 181.505C66.3046 180.014 66.2753 177.853 67.0391 176.507C62.5003 176.701 57.2542 174.538 53.4938 171.991Z" fill="#E40000"/>
<path d="M486.548 120.232C486.649 115.464 486.993 110.842 485.377 106.279C483.812 99.1516 477.673 95.3075 471.254 92.1643C469.369 91.2406 467.436 90.5937 465.473 90.1372C465.268 90.0887 465.063 90.0473 464.855 90.0042C459.184 88.8091 453.263 89.2207 447.429 89.7508C445.555 89.8155 443.687 89.9287 441.881 90.1857C441.809 90.1965 441.76 90.2342 441.697 90.2558C441.679 90.2576 441.661 90.2594 441.643 90.2594C440.033 90.3816 440.022 92.8994 441.643 92.7736C443.503 92.6298 445.335 92.4519 447.152 92.2866C451.629 92.0457 456.209 91.9846 460.578 92.1068C468.744 92.3351 476.873 98.0212 481.462 104.505C482.247 105.616 482.816 106.85 483.24 108.164C484.369 114.663 483.016 120.972 483.004 127.516C482.998 130.272 483.391 132.831 483.288 135.364C482.885 137.101 482.305 138.802 481.496 140.469C480.585 142.351 479.222 143.46 477.713 144.392C480.029 136.153 478.442 125.587 473.851 119.008C467.861 110.421 457.893 107.253 447.89 106.135C440.957 105.361 433.769 104.782 426.598 104.573C426.517 104.09 426.441 103.621 426.398 103.202C426.095 100.174 425.616 97.1046 424.094 94.4269C423.606 93.5697 421.895 93.2786 421.668 94.5168C421.106 97.5934 420.597 101.727 419.61 104.498C416.107 104.53 412.629 104.662 409.211 104.935C408.669 104.978 408.132 105.034 407.599 105.091C407.516 104.832 407.437 104.573 407.362 104.318C406.54 101.491 405.579 98.6807 404.006 96.1737C403.407 95.2177 401.579 95.1691 401.559 96.5961C401.517 99.6781 401.26 103.181 400.403 106.469C393.771 108.392 388.284 112.17 384.878 119.101C381.891 125.188 380.102 132.211 380.603 139.024C380.756 141.122 381.177 143.395 381.948 145.521C382.069 146.022 382.191 146.524 382.335 147.016C385.329 157.22 397.638 159.147 406.666 160.518C408.338 160.771 410.018 160.987 411.7 161.19C411.603 162.062 411.542 162.921 411.495 163.733C411.12 170.095 410.041 176.493 409.968 182.863C409.669 182.856 409.377 182.86 409.126 182.86C408.149 182.862 405.881 183.138 406.263 184.687C406.789 186.821 412.282 186.815 412.757 184.894C412.988 184.643 413.139 184.303 413.139 183.863C413.137 183.359 413.155 182.856 413.17 182.353C413.514 180.516 413.541 178.69 413.578 176.773C413.631 174.108 414.745 171.385 415.093 168.722C415.315 167.036 415.075 165.212 414.868 163.41C414.963 162.82 415.068 162.2 415.165 161.562C417.8 161.826 420.442 162.04 423.091 162.191C422.843 164.297 423.066 166.459 422.771 169.133C422.565 170.993 422.367 172.997 422.221 175.035C421.703 178.15 421.231 181.269 421.146 184.51C421.088 184.626 421.038 184.752 421 184.889C420.69 186.01 421.373 187.128 422.464 187.46C423.403 187.746 424.384 187.816 425.36 187.825C426.72 187.838 427.543 187.191 428.105 186.219C428.368 185.762 428.285 185.2 427.925 184.824C427.844 184.74 427.763 184.655 427.68 184.574C427.801 184.855 427.711 184.759 427.41 184.288C426.951 183.83 426.299 183.665 425.667 183.643C425.647 183.642 425.627 183.64 425.607 183.64C425.603 183.588 425.605 183.539 425.602 183.485C425.6 183.469 425.593 183.456 425.589 183.44C426.09 181.237 425.877 178.234 425.692 175.846C426.418 171.356 427.28 166.851 427.291 162.38C434.205 162.628 441.139 162.545 448.025 162.177C446.39 166.312 446.241 171.448 446.194 175.659C446.163 178.55 445.519 182.017 445.848 185.072C445.668 185.09 445.492 185.103 445.317 185.11C444.352 185.144 442.85 185.57 442.217 186.35C441.989 186.63 441.909 187.067 442.217 187.338C443.01 188.039 444.296 188.345 445.317 188.479C446.219 188.598 447.388 188.67 448.258 188.269C448.672 188.332 449.095 188.188 449.301 187.753C449.879 187.286 450.104 186.666 449.965 185.906C449.962 185.888 449.962 185.87 449.958 185.854C450.997 181.884 450.333 177.402 450.613 173.33C450.702 172.052 452.76 168.193 452.261 166.395C451.853 164.924 451.575 163.449 451.397 161.963C452.193 161.911 452.993 161.869 453.789 161.81C455.237 161.702 456.665 161.501 458.068 161.224C457.147 165.304 458.116 170.014 457.477 174.37C457.293 175.628 456.166 182.536 456.98 186.175C456.982 186.375 456.978 186.574 456.982 186.776C456.994 187.464 457.419 187.935 457.949 188.154C458.091 188.282 458.251 188.4 458.455 188.497C459.746 189.11 461.091 189.166 462.417 188.647C463.6 188.185 464.794 188.384 465.851 187.538C466.114 187.327 466.077 186.873 465.851 186.657C465.156 185.987 464.229 185.863 463.312 185.728C462.671 185.635 462.222 185.315 461.61 185.173C461.351 185.112 461.091 185.065 460.832 185.007C460.825 185.006 460.825 185.006 460.818 185.004C460.773 179.855 461.259 174.974 461.88 169.8C461.963 169.121 461.931 168.461 461.853 167.811C462.385 165.279 463.064 162.353 462.986 159.839C468.524 157.77 473.244 154.099 476.126 148.524C476.2 148.382 476.259 148.227 476.329 148.082C480.378 147.057 483.67 143.506 485.242 139.56C485.788 138.192 486.044 136.724 486.143 135.205C486.173 135.072 486.208 134.936 486.237 134.805C487.274 130.078 486.447 125.016 486.548 120.232Z" fill="#262626"/>
<path d="M390.74 105.801C382.353 110.693 376.235 121.95 377.192 131.618C377.231 132.021 377.773 132.017 377.815 131.618C378.969 120.818 383.504 113.674 390.888 105.991C390.984 105.891 390.863 105.729 390.74 105.801Z" fill="#262626"/>
<path d="M477.406 152.835C474.584 156.663 471.081 159.167 466.936 161.372C466.835 161.426 466.874 161.612 466.997 161.598C471.343 161.07 475.976 156.873 477.646 152.977C477.716 152.812 477.513 152.692 477.406 152.835Z" fill="#262626"/>
<path d="M399.49 122.137C398.816 120.541 397.519 119.423 395.726 119.055C393.617 118.62 391.643 120.041 390.317 121.502C390.198 121.634 390.189 121.883 390.267 122.034C391.985 125.314 396.502 126.71 399.2 124.024C399.916 123.31 399.925 123.165 399.49 122.137ZM395.239 124.482C394.278 124.421 390.501 122.737 391.787 121.504C392.828 120.507 394.189 119.962 395.626 120.111C397.274 120.28 398.436 121.804 399.418 123.007C398.105 123.95 396.92 124.59 395.239 124.482Z" fill="white"/>
<path d="M414.297 121.689C413.319 120.854 412.048 120.417 410.807 120.173C408.476 119.709 406.239 120.708 405.092 122.642C404.57 123.521 404.365 123.796 404.865 124.592C405.841 126.134 407.956 126.845 409.663 127.097C412.274 127.48 414.756 126.339 415.905 123.961C416.246 123.255 414.736 122.065 414.297 121.689ZM414.526 124.243C412.438 127.746 407.021 126.006 404.883 123.619C406.265 121.914 408.037 121.064 410.263 121.215C411.327 121.289 415.424 122.737 414.526 124.243Z" fill="white"/>
<path d="M405.852 145.517C404.937 146.238 404.311 147.007 403.037 146.89C402.187 146.813 401.44 146.495 400.91 145.814C400.255 144.971 400.559 143.388 400.615 142.412C400.628 142.191 400.678 141.558 400.747 140.775C400.869 139.371 401.049 137.481 401.15 136.6C401.303 135.279 401.417 133.973 401.472 132.837C401.555 132.729 401.634 132.628 401.732 132.501C402.056 132.071 402.371 131.633 402.652 131.176C403.695 129.478 403.639 128.768 402.603 128.445C401.915 128.227 400.628 128.195 399.97 128.234C398.645 128.314 398.665 129.433 399.059 130.7C399.245 131.297 399.495 131.929 399.736 132.458C399.906 132.83 400.042 133.101 400.168 133.297C399.994 134.327 399.828 135.477 399.689 136.645C399.581 137.526 399.338 139.395 399.102 141.034C398.902 142.443 398.71 143.679 398.623 143.97C397.915 146.394 394.623 147.367 393.418 144.761C393.372 144.657 393.229 144.714 393.238 144.817C393.438 147.023 396.419 147.669 397.989 146.398C398.414 146.053 398.758 145.632 399.046 145.165C399.209 145.976 399.562 146.709 400.21 147.289C402.025 148.914 405.38 148.103 406.016 145.632C406.041 145.537 405.941 145.447 405.852 145.517Z" fill="white"/>
<path d="M406.522 135.243C409.683 134.898 412.458 135.15 415.341 136.566C415.435 136.611 415.52 136.502 415.451 136.424C413.573 134.293 408.979 134.088 406.502 135.1C406.434 135.128 406.432 135.252 406.522 135.243Z" fill="white"/>
<path d="M406.603 137.046C407.929 137.337 409.251 137.47 410.555 137.874C411.803 138.261 412.844 139.01 414.039 139.492C414.128 139.528 414.173 139.405 414.124 139.346C412.555 137.526 408.923 136.478 406.603 136.961C406.562 136.97 406.562 137.035 406.603 137.046Z" fill="white"/>
<path d="M406.25 139.112C407.091 139.502 408.026 139.671 408.9 139.982C410.104 140.41 411.106 141.181 412.264 141.686C412.325 141.713 412.422 141.65 412.37 141.58C411.216 140.009 408.188 138.838 406.276 139.015C406.231 139.019 406.198 139.087 406.25 139.112Z" fill="white"/>
<path d="M396.494 134.165C394.236 132.7 389.69 132.066 387.437 133.818C387.362 133.877 387.445 133.993 387.526 133.969C390.625 133.115 393.388 133.376 396.439 134.302C396.521 134.325 396.563 134.21 396.494 134.165Z" fill="white"/>
<path d="M396.037 135.971C393.842 135.069 390.083 135.437 388.197 136.933C388.124 136.992 388.206 137.093 388.282 137.078C389.386 136.861 390.427 136.422 391.536 136.208C393.046 135.917 394.512 136.104 396.024 136.057C396.077 136.056 396.08 135.991 396.037 135.971Z" fill="white"/>
<path d="M395.99 138.056C394.105 137.543 390.991 138.108 389.523 139.442C389.462 139.497 389.527 139.589 389.599 139.571C390.575 139.343 391.499 138.919 392.475 138.67C393.631 138.377 394.838 138.433 395.99 138.155C396.039 138.142 396.039 138.068 395.99 138.056Z" fill="white"/>
<path d="M434.673 118.439C435.903 119.057 437.607 119.008 438.961 118.922C439.734 118.872 439.99 117.675 439.152 117.509C437.742 117.227 435.865 117.218 434.673 118.102C434.567 118.182 434.531 118.367 434.673 118.439Z" fill="white"/>
<path d="M437.533 120.956C437.978 121.22 438.565 121.22 439.068 121.292C439.608 121.368 440.096 121.54 440.598 121.269C440.876 121.12 440.951 120.676 440.703 120.464C440.271 120.093 439.779 120.126 439.231 120.09C438.689 120.054 437.998 119.995 437.533 120.324C437.313 120.48 437.281 120.805 437.533 120.956Z" fill="white"/>
<path d="M435.525 122.649C435.613 123.021 435.988 123.154 436.312 123.269C436.825 123.453 437.38 123.559 437.917 123.647C438.257 123.702 438.488 123.6 438.695 123.33C438.821 123.167 438.815 122.994 438.763 122.8C438.704 122.581 438.511 122.369 438.282 122.32C437.619 122.18 436.94 122.086 436.262 122.135C436.049 122.155 435.446 122.313 435.525 122.649Z" fill="white"/>
<path d="M443.889 134.702C444.353 135.15 444.872 135.278 445.477 135.456C446.214 135.673 446.975 135.858 447.741 135.749C448.418 135.652 448.303 134.67 447.741 134.498C447.08 134.296 446.334 134.271 445.646 134.217C445.011 134.165 444.485 134.111 443.921 134.458C443.836 134.51 443.815 134.631 443.889 134.702Z" fill="white"/>
<path d="M444.44 136.89C444.541 137.046 444.596 137.244 444.728 137.375C444.93 137.578 445.241 137.7 445.493 137.83C445.989 138.085 446.559 138.198 447.038 137.866C447.242 137.725 447.388 137.414 447.217 137.186C446.891 136.746 446.552 136.668 446.044 136.526C445.808 136.46 445.538 136.435 445.295 136.402C445.012 136.365 444.831 136.481 444.571 136.564C444.44 136.607 444.359 136.765 444.44 136.89Z" fill="white"/>
<path d="M453.697 129.356C454.217 129.755 454.765 129.685 455.39 129.771C456.067 129.867 456.739 130.072 457.38 129.762C457.65 129.631 457.718 129.178 457.479 128.984C456.881 128.495 456.049 128.506 455.301 128.49C454.635 128.475 453.996 128.5 453.636 129.124C453.585 129.212 453.623 129.3 453.697 129.356Z" fill="white"/>
<path d="M454.513 131.433C454.696 131.583 454.777 131.723 454.992 131.838C455.213 131.955 455.444 132.01 455.683 132.072C456.211 132.208 456.706 132.314 457.252 132.341C457.943 132.375 458.003 131.403 457.409 131.194C456.944 131.033 456.495 130.955 456.013 130.88C455.764 130.842 455.527 130.797 455.274 130.802C455.008 130.81 454.88 130.909 454.633 130.977C454.45 131.029 454.347 131.3 454.513 131.433Z" fill="white"/>
<path d="M454.696 115.98C455.379 116.453 456.126 116.415 456.928 116.494C457.655 116.564 458.586 116.672 459.071 116.027C459.13 115.948 459.11 115.833 459.071 115.752C458.693 114.993 457.648 115.085 456.928 115.067C456.124 115.047 455.233 115.193 454.673 115.797C454.619 115.854 454.631 115.937 454.696 115.98Z" fill="white"/>
<path d="M456.254 118.178C456.513 118.951 458.062 119.303 458.613 118.723C458.788 118.537 458.826 118.273 458.7 118.05C458.376 117.471 457.695 117.518 457.108 117.513C456.807 117.509 456.11 117.748 456.254 118.178Z" fill="white"/>
<path d="M436.914 144.071C437.11 144.522 437.571 144.646 438.001 144.79C438.635 145 439.291 145.286 439.964 145.316C440.642 145.347 440.904 144.36 440.31 144.044C439.604 143.668 438.72 143.611 437.933 143.575C437.762 143.566 436.748 143.69 436.914 144.071Z" fill="white"/>
<path d="M436.941 146.513C437.059 146.988 437.729 147.327 438.183 147.399C438.869 147.509 439.285 146.664 438.664 146.26C438.28 146.01 437.52 145.771 437.121 146.071C436.975 146.181 436.894 146.326 436.941 146.513Z" fill="white"/>
<path d="M456.167 148.447C456.679 148.807 457.313 148.943 457.896 149.146C458.521 149.362 459.222 149.597 459.827 149.24C460.048 149.108 460.178 148.765 460.011 148.539C459.6 147.98 458.948 147.856 458.293 147.708C457.619 147.555 456.983 147.351 456.292 147.485C455.805 147.582 455.831 148.21 456.167 148.447Z" fill="white"/>
<path d="M456.319 150.399C456.63 150.853 457.108 151.071 457.628 151.215C458.403 151.427 458.867 150.329 458.172 149.926C457.702 149.654 457.118 149.496 456.598 149.71C456.34 149.818 456.132 150.124 456.319 150.399Z" fill="white"/>
<path d="M468.617 136.041C468.879 136.527 469.462 136.631 469.961 136.692C470.618 136.773 471.341 136.98 471.847 136.426C472.068 136.183 472.108 135.781 471.847 135.545C471.283 135.033 470.274 135.141 469.565 135.27C469.343 135.31 468.403 135.639 468.617 136.041Z" fill="white"/>
<path d="M468.785 138.796C469.097 139.199 469.653 139.289 470.116 139.424C470.629 139.571 471.018 139.639 471.454 139.289C471.629 139.147 471.613 138.892 471.528 138.712C471.29 138.203 470.775 138.146 470.276 138.05C469.806 137.961 469.277 137.863 468.864 138.164C468.637 138.327 468.616 138.577 468.785 138.796Z" fill="white"/>
<path d="M434.756 132.285C435.266 132.535 435.883 132.476 436.442 132.492C437.014 132.51 437.533 132.37 437.881 131.899C437.94 131.818 437.915 131.681 437.845 131.617C437.452 131.252 436.962 131.178 436.442 131.228C435.883 131.281 435.262 131.22 434.756 131.477C434.45 131.628 434.444 132.131 434.756 132.285Z" fill="white"/>
<path d="M443.883 112.104C444.571 112.429 445.263 112.402 446.007 112.248C446.604 112.124 447.397 111.937 447.438 111.194C447.469 110.635 446.392 110.739 446.116 110.824C445.329 111.063 444.55 111.23 443.885 111.723C443.764 111.811 443.718 112.025 443.883 112.104Z" fill="white"/>
<path d="M448.216 124.894C448.451 125.313 448.951 125.309 449.373 125.307C449.936 125.304 450.34 125.223 450.731 124.791C450.801 124.714 450.81 124.594 450.731 124.516C450.208 124.006 449.691 124.058 449.014 124.155C448.777 124.191 448.002 124.513 448.216 124.894Z" fill="white"/>
<path d="M459.532 140.563C459.962 140.971 460.427 141.073 460.994 141.206C461.536 141.334 462.213 141.578 462.748 141.354C463.159 141.183 463.254 140.698 462.869 140.43C462.393 140.099 461.664 140.121 461.099 140.038C460.533 139.957 460.077 139.912 459.575 140.218C459.458 140.29 459.427 140.462 459.532 140.563Z" fill="white"/>
<path d="M466.525 126.598C467.002 127.505 470.637 127.169 470.131 126.152C469.774 125.433 468.492 125.711 467.872 125.807C467.649 125.841 466.249 126.071 466.525 126.598Z" fill="white"/>
<path d="M447.08 151.646C447.046 152.083 447.708 152.377 448.016 152.528C448.582 152.803 449.434 153.285 450.019 152.854C450.237 152.692 450.32 152.5 450.273 152.23C450.14 151.455 449.059 151.214 448.393 151.142C448.027 151.105 447.121 151.101 447.08 151.646Z" fill="white"/>
<path d="M467.132 147.593C467.422 148.114 467.951 148.298 468.461 148.558C469.044 148.857 469.606 148.972 470.253 149.001C470.719 149.022 471.053 148.339 470.656 148.028C470.141 147.62 469.675 147.374 469.039 147.185C468.502 147.025 467.919 146.831 467.37 147.009C467.123 147.09 467.004 147.361 467.132 147.593Z" fill="white"/>
<path d="M433.34 153.517C433.504 153.874 433.929 154.131 434.297 154.252C434.742 154.396 435.195 154.592 435.656 154.671C436.027 154.734 436.388 154.635 436.588 154.293C436.793 153.943 436.706 153.344 436.292 153.168C435.575 152.864 434.216 152.451 433.501 152.916C433.281 153.056 433.238 153.29 433.34 153.517Z" fill="white"/>
<path d="M429.546 112.776C430.226 113.189 431.069 112.78 431.745 112.56C432.15 112.429 433.303 111.829 432.937 111.205C432.517 110.488 431.471 110.881 430.914 111.142C430.29 111.433 429.494 111.823 429.45 112.609C429.445 112.677 429.488 112.742 429.546 112.776Z" fill="white"/>
<path d="M388.743 86.1062C387.108 84.0352 384.534 83.3122 381.911 83.0797C377.542 82.6917 363.268 86.7166 360.35 87.7527C358.271 88.064 353.378 89.5833 351.558 90.4621C347.265 92.5358 345.644 98.6895 349.875 103.929C353.114 107.94 358.294 106.544 362.494 105.442C362.732 106.038 363.093 106.596 363.41 106.982C364.424 108.216 366.44 108.871 367.692 108.992C368.906 109.109 368.734 108.903 367.616 107.313C367.019 106.465 366.592 105.529 366.389 104.523C371.053 103.54 384.065 100.134 385.964 99.455C390.001 98.0133 392.505 90.8696 388.743 86.1062Z" fill="#E40000"/>
<path d="M354.05 102.021L353.841 100.548L352.992 96.3247C352.838 95.7503 352.705 95.0533 352.589 94.4814C352.583 94.4567 352.607 94.3985 352.637 94.3648C352.954 93.9864 353.414 93.8727 353.862 93.7618C353.886 93.756 353.911 93.7498 353.947 93.7408C354.237 93.6691 354.41 93.6914 354.64 93.8948C355.119 94.4284 355.666 95.0888 356.1 95.698L356.129 95.7169C356.129 95.7169 356.129 95.7169 356.142 95.7138L356.154 95.7107L356.172 95.6802C356.187 95.6375 356.221 95.5125 356.218 95.4998L356.338 93.8008C356.32 93.2579 356.841 93.0244 357.288 92.9136L357.301 92.9105C357.718 92.8336 358.327 92.6966 358.792 92.6591C359.041 92.6761 359.386 93.3468 359.467 93.5743L361.7 100.284L361.694 100.312C361.673 100.331 361.567 100.37 361.543 100.376C361.319 100.458 360.263 100.757 360.033 100.814C360.021 100.817 359.916 100.857 359.867 100.869C359.83 100.878 359.706 100.895 359.682 100.901C359.588 100.885 359.521 100.616 359.486 100.52L358.022 95.9397L357.923 98.768C357.832 99.3378 357.503 99.4583 357.16 99.4256C356.831 99.3896 356.791 99.3867 355.108 96.6215C355.105 96.6096 355.077 96.6031 355.065 96.606L355.048 96.6365C355.066 96.7098 355.557 98.5448 355.593 98.6921C355.66 98.9621 355.875 99.7822 355.893 99.8563C355.93 100.004 356.275 101.091 356.32 101.224C356.323 101.236 356.341 101.31 356.35 101.347C356.468 101.827 355.633 102.033 355.319 102.111C355.283 102.12 355.137 102.156 355.137 102.156C355.098 102.153 354.708 102.184 354.596 102.199C354.596 102.199 354.583 102.202 354.571 102.205C354.559 102.208 354.559 102.208 354.547 102.211C354.408 102.219 354.102 102.23 354.054 102.033L354.051 102.021L354.05 102.021Z" fill="white"/>
<path d="M361.613 96.539C361.368 95.596 361.086 94.6614 360.852 93.7147C360.755 93.3214 360.601 92.5908 361.149 92.364L364.006 91.7614C364.242 91.729 364.378 92.0739 364.447 92.252C364.484 92.3476 364.596 92.6451 364.6 92.6578C364.603 92.6698 364.669 92.8889 364.687 92.9622C364.699 93.0116 364.739 93.2231 364.751 93.2725C364.751 93.5851 364.524 93.7062 364.245 93.7752C364.103 93.8231 363.408 94.0221 363.262 94.058C363.25 94.0611 363.208 94.0976 363.196 94.1007C363.183 94.1038 363.166 94.1343 363.166 94.1343L363.484 95.4249L363.548 95.4742L364.774 95.236C364.906 95.2033 365.152 95.2076 365.194 95.3795L365.455 96.4369C365.485 96.5595 365.434 96.7673 365.303 96.8132C364.852 96.9112 364.407 97.0347 363.966 97.1701C363.935 97.2039 363.935 97.2554 363.947 97.3048C363.95 97.3167 363.963 97.3661 363.963 97.3661C363.999 97.5134 364.198 98.2209 364.247 98.3651L364.25 98.3771L364.253 98.3891L364.256 98.4018C364.28 98.4482 364.302 98.4818 364.362 98.4668C364.822 98.353 365.227 98.1219 365.676 98.011C365.736 97.9961 365.891 97.9444 365.96 97.9668C366.22 98.0334 366.502 98.811 366.566 99.069C366.584 99.1423 366.602 99.2163 366.608 99.2935C366.895 100.2 364.281 100.325 362.992 100.826C362.932 100.841 362.835 100.813 362.801 100.73C362.801 100.73 362.768 100.595 362.765 100.583C362.726 100.475 362.456 99.642 362.432 99.5432C362.274 99.0611 362.225 98.551 362.011 98.0956C361.955 97.8761 361.671 96.7731 361.613 96.539Z" fill="white"/>
<path d="M366.304 95.3003C366.294 95.2629 366.267 95.153 366.264 95.1403C366.137 94.4681 366.031 93.7763 365.948 93.0795C365.949 93.0278 365.939 92.8344 365.933 92.8097C365.945 92.7543 365.996 92.1816 366.014 91.9945C366.011 91.9818 366.03 91.9519 366.027 91.9391C366.392 90.8182 367.175 89.9334 368.547 89.9726C368.56 89.9695 368.575 89.9791 368.586 89.9764C368.756 89.986 368.94 90.0062 369.11 90.0683C369.558 90.2707 369.876 90.6745 370.167 91.0722C370.724 91.873 370.873 92.9444 371.124 93.8606C371.152 93.9188 371.263 94.3212 371.272 94.3578C371.285 94.4072 371.427 94.9852 371.478 95.1938C371.53 95.4024 371.66 95.9311 371.669 95.9677C371.715 96.1524 371.9 97.0579 371.937 97.2575C371.994 97.5431 371.789 97.855 371.51 97.9239C371.437 97.9419 371.71 97.8484 370.811 98.0057C370.811 98.0057 370.693 97.996 370.65 97.9802C370.421 97.9331 370.386 97.9019 370.275 97.7082C370.253 97.6222 370.138 97.2596 370.108 97.1885C370.099 97.1518 370.05 97.0069 370.041 96.971C370.02 96.9365 369.984 96.9454 369.972 96.9485C369.96 96.9514 369.926 96.9733 369.914 96.9762C369.878 96.9851 368.91 97.2246 368.877 97.2455C368.841 97.2544 368.865 97.3009 368.868 97.3128C368.871 97.3256 368.883 97.3742 368.883 97.3742C368.934 97.5305 369.079 98.0165 369.101 98.0501C369.107 98.0748 369.21 98.2318 369.213 98.2438C369.216 98.2565 369.228 98.3051 369.231 98.3178C369.249 98.3911 369.243 98.4189 369.176 98.4614C368.971 98.5122 368.519 98.7151 368.302 98.7689C368.278 98.7749 367.975 98.8498 367.867 98.8765C367.806 98.8915 367.504 98.9663 367.443 98.9813C367.325 98.9716 367.288 98.876 367.253 98.7809C366.973 97.5997 366.592 96.4683 366.304 95.3003ZM368.519 95.4307C368.519 95.4307 368.876 95.3687 368.888 95.3656C368.912 95.3597 369.421 95.2339 369.433 95.231C369.424 95.1419 369.336 94.6805 369.312 94.5825C369.312 94.5825 369.3 94.5332 369.297 94.5212C369.242 94.3006 369.127 94.0419 369.072 93.8206C368.97 93.4549 368.905 93.0924 368.742 92.7423C368.512 91.9648 368.239 91.7457 368.058 91.8429C367.876 91.9402 367.77 92.344 367.852 92.884C367.852 92.9887 367.867 93.2587 367.873 93.2833C367.901 93.551 367.955 93.824 368.022 94.0947C368.131 94.5374 368.249 95.016 368.428 95.4286C368.459 95.4456 368.482 95.4398 368.519 95.4307Z" fill="white"/>
<path d="M376.45 96.1303C376.328 96.6292 375.981 97.4585 375.467 97.6642C375.455 97.6671 375.073 97.7876 374.952 97.8176C374.952 97.8176 374.855 97.8417 374.831 97.8475C373.863 98.0871 373.281 96.979 372.923 96.2067C372.133 94.4592 371.469 92.3416 371.093 90.2441L371.09 90.2314C371.081 90.1948 371.108 90.1492 371.142 90.1274C371.427 90.0307 372.404 89.7241 372.695 89.6521C372.706 89.6492 372.815 89.6222 372.852 89.6133C372.876 89.6073 372.985 89.5803 373.021 89.5714C373.304 90.6098 373.964 94.9059 374.661 94.9161L374.69 94.935C375.145 95.0051 375.374 94.166 374.974 92.6481C374.941 92.5127 374.829 91.8494 374.796 91.7148L374.826 91.6805L376.406 91.3166C376.443 91.3075 376.491 91.348 376.484 91.375C376.745 92.3799 377.121 94.2164 377.893 94.4817C377.893 94.4817 377.905 94.4786 377.917 94.4757C378.493 94.2556 377.659 90.8758 377.304 89.0206C377.232 88.6736 377.358 88.5114 377.643 88.3625C377.852 88.2719 378.524 88.1842 378.729 88.1334C378.79 88.1184 378.842 88.1191 378.89 88.1071C379.069 88.1019 379.281 88.1795 379.332 88.3889C380.575 93.428 380.043 95.489 379.317 96.4509C379.093 96.7411 378.775 96.9109 378.461 96.9887C378.109 97.0756 377.789 97.0764 377.447 96.9388C377.062 96.7864 376.811 96.4438 376.529 96.136C376.511 96.1142 376.499 96.1173 376.474 96.1233L376.449 96.1295L376.45 96.1303Z" fill="white"/>
<path d="M380.592 94.5963C380.668 94.5386 380.816 94.5147 380.876 94.4998C380.913 94.4909 381.045 94.4582 381.082 94.4491C381.191 94.4744 381.333 94.4266 381.423 94.4821C381.453 94.5007 381.583 94.6123 381.613 94.631C381.674 94.72 381.698 94.8187 381.722 94.9175C381.831 95.3602 381.551 95.6772 381.224 95.758C380.983 95.8176 380.574 95.618 380.492 95.2867C380.426 95.0151 380.465 94.8102 380.592 94.5963Z" fill="white"/>
<path d="M382.687 94.6002C382.763 94.5419 382.911 94.5188 382.971 94.5039C383.008 94.4948 383.14 94.462 383.176 94.4531C383.285 94.4785 383.427 94.4307 383.517 94.4862C383.548 94.5048 383.678 94.6162 383.709 94.6349C383.769 94.7239 383.793 94.8226 383.818 94.9214C383.927 95.3641 383.646 95.6811 383.319 95.7619C383.077 95.8217 382.669 95.6219 382.588 95.2906C382.521 95.019 382.561 94.8141 382.687 94.6002Z" fill="white"/>
<path d="M384.539 93.6201C384.616 93.5623 384.763 93.5385 384.824 93.5236C384.86 93.5146 384.993 93.4817 385.029 93.4728C385.138 93.4982 385.28 93.4504 385.37 93.5058C385.4 93.5247 385.531 93.6358 385.561 93.6547C385.621 93.7438 385.645 93.8425 385.67 93.9412C385.779 94.3839 385.498 94.7009 385.171 94.7817C384.93 94.8414 384.521 94.6418 384.44 94.3105C384.373 94.0388 384.413 93.8339 384.539 93.6201Z" fill="white"/>
<path d="M379.822 100.249C383.55 99.7055 388.479 98.1153 389.051 93.7191C389.058 93.6681 388.985 93.664 388.968 93.7053C388.172 95.7595 387.112 97.2569 385.175 98.3286C383.499 99.2565 381.6 99.5842 379.814 100.216C379.794 100.224 379.801 100.252 379.822 100.249Z" fill="white"/>
<path d="M389.167 93.2415C389.311 92.9749 389.439 92.6249 389.401 92.3163C389.398 92.2869 389.358 92.2872 389.344 92.3073C389.181 92.5604 389.104 92.9262 389.119 93.2272C389.12 93.2515 389.153 93.2655 389.167 93.2415Z" fill="white"/>
<path d="M348.623 97.2494C349.172 95.7373 349.555 94.2476 350.573 92.9639C351.301 92.0451 352.417 91.4906 353.457 91.0184C355.616 90.0378 357.979 89.505 360.239 88.8174C360.305 88.7972 360.28 88.7002 360.214 88.7134C355.466 89.6115 348.676 91.0655 348.613 97.248C348.613 97.2544 348.622 97.2546 348.623 97.2494Z" fill="white"/>
<path d="M360.746 88.6108C360.974 88.5976 361.231 88.5522 361.432 88.4413C361.466 88.4226 361.452 88.3685 361.414 88.3685C361.185 88.3637 360.936 88.4437 360.728 88.538C360.694 88.5529 360.709 88.613 360.746 88.6108Z" fill="white"/>
<path d="M210.333 129.687C214.124 139.185 222.829 148.591 233.822 146.986C238.623 146.285 243.256 143.625 247.476 141.377C253.271 138.289 258.832 134.757 264.256 131.067C273.041 125.093 282.265 118.384 288.517 109.649C294.853 100.798 286.653 85.9111 279.361 80.2797C279.07 80.0562 278.809 80.4857 278.985 80.7315C282.592 85.7807 286.019 91.9097 287.939 97.8247C289.883 103.814 287.413 108.21 283.55 112.51C277.066 119.729 268.838 125.556 260.829 130.929C253.611 135.77 246.011 140.414 237.955 143.726C225.457 148.862 217.648 138.332 210.893 129.294C210.642 128.953 210.198 129.353 210.333 129.687Z" fill="#262626"/>
<path d="M271.405 71.4909C255.083 67.0054 212.125 93.6508 204.515 114.91C202.884 119.464 204.098 124.847 207.322 129.233C213.842 138.099 218.07 135.06 220.855 130.023C221.334 129.156 221.691 128.247 222.153 127.375C224.549 122.846 227.528 127.57 228.114 128.476C229.106 130.011 229.982 131.952 231.889 132.694C238.043 135.095 240.707 131.882 240.827 125.935C240.906 122.193 239.728 115.076 246.653 115.513C250.463 115.755 254.275 118.663 258.574 115.147C261.406 112.831 260.934 110.499 260.872 107.704C260.71 100.205 268.034 100.635 272.937 101.138C280.868 101.954 285.84 95.5967 285.418 88.7679C284.973 81.546 278.555 73.4542 271.405 71.4909Z" fill="#E40000"/>
<path d="M240.771 89.4774C236.259 92.2072 232.165 95.0245 228.399 98.1354C218.338 106.448 219.165 111.635 231.547 103.91C236.799 100.636 242.401 96.3293 244.868 94.5169C260.395 83.0905 258.623 78.6702 240.771 89.4774Z" fill="white"/>
<path d="M215.811 110.526C224.175 111.469 233.909 104.379 240.349 99.9178C247.493 94.9683 257.477 87.7436 259.865 78.896C259.938 78.6256 259.553 78.4848 259.406 78.6785C251.274 89.3547 231.548 103.912 215.764 110.297C215.661 110.336 215.706 110.513 215.811 110.526Z" fill="#262626"/>
<path d="M263.84 90.1191C264.168 90.9009 265.337 91.0357 266.12 91.0463C266.941 91.057 266.994 89.7626 266.181 89.7778C265.706 89.7873 265.234 89.7518 264.759 89.7471C264.382 89.7432 264.197 89.7644 263.894 89.9481C263.831 89.987 263.812 90.0527 263.84 90.1191Z" fill="white"/>
<path d="M266.623 79.5214C267.293 79.7299 268.668 79.7456 269.15 79.1683C269.409 78.857 269.344 78.4439 268.951 78.2859C268.533 78.1165 268.109 78.2764 267.697 78.4115C267.269 78.5494 266.849 78.6831 266.502 78.9794C266.314 79.1369 266.399 79.4519 266.623 79.5214Z" fill="white"/>
<path d="M270.558 83.8493C271.117 84.1596 271.933 84.2342 272.56 84.3001C273.244 84.3721 273.456 83.2436 272.775 83.1085C272.09 82.975 271.075 82.9329 270.52 83.4366C270.398 83.5457 270.409 83.7683 270.558 83.8493Z" fill="white"/>
<path d="M254.004 100.245C253.824 100.706 254.266 101.174 254.549 101.497C254.931 101.931 255.328 102.514 255.889 102.7C256.241 102.816 256.633 102.48 256.537 102.11C256.391 101.547 255.905 101.245 255.481 100.88C255.155 100.598 254.738 100.041 254.266 100.063C254.14 100.069 254.049 100.126 254.004 100.245Z" fill="white"/>
<path d="M246.083 104.471C246.142 104.966 246.469 105.376 246.748 105.774C246.996 106.129 247.107 106.589 247.564 106.709C247.731 106.752 247.967 106.706 248.049 106.529C248.281 106.033 248.038 105.718 247.733 105.308C247.41 104.875 247.049 104.386 246.558 104.14C246.304 104.016 246.048 104.191 246.083 104.471Z" fill="white"/>
<path d="M236.373 109.622C236.151 110.16 236.73 110.996 236.999 111.433C237.334 111.978 238.225 111.489 237.87 110.979C237.562 110.54 237.194 109.505 236.561 109.49C236.47 109.488 236.406 109.541 236.373 109.622Z" fill="white"/>
<path d="M231.154 113.484C231.033 114.165 231.218 115.063 231.762 115.512C232.1 115.792 232.512 115.428 232.565 115.093C232.667 114.454 232.104 113.722 231.68 113.289C231.482 113.085 231.2 113.232 231.154 113.484Z" fill="white"/>
<path d="M218.239 117.073C217.891 117.632 217.77 118.416 217.8 119.065C217.845 119.996 219.104 120.056 219.239 119.134C219.34 118.442 219.275 117.569 218.798 117.02C218.647 116.847 218.357 116.885 218.239 117.073Z" fill="white"/>
<path d="M213.181 116.21C212.441 116.689 212.224 117.681 212.007 118.491C211.767 119.39 213.197 119.798 213.359 118.917C213.516 118.064 213.836 117.159 213.524 116.317C213.477 116.195 213.286 116.141 213.181 116.21Z" fill="white"/>
<path d="M209.005 114.242C208.185 114.163 207.28 115.346 207.731 116.083C207.905 116.367 208.231 116.491 208.54 116.338C209.106 116.061 209.367 115.006 209.209 114.415C209.183 114.316 209.108 114.252 209.005 114.242Z" fill="white"/>
<path d="M214.446 124.623C214.196 124.831 213.975 125.047 213.859 125.422C213.737 125.809 213.632 126.205 213.498 126.588C213.224 127.382 214.487 127.783 214.739 126.979C214.98 126.212 215.121 125.383 214.725 124.67C214.667 124.567 214.537 124.55 214.446 124.623Z" fill="white"/>
<path d="M210.343 122.699C209.822 123.294 209.721 123.928 209.844 124.704C209.965 125.482 211.155 125.219 211.034 124.448C210.939 123.843 210.821 123.309 210.595 122.742C210.558 122.652 210.409 122.624 210.343 122.699Z" fill="white"/>
<path d="M226.288 118.452C225.943 118.745 226.051 119.336 226.093 119.731C226.16 120.345 226.36 121.108 227.015 121.31C227.214 121.373 227.501 121.299 227.598 121.096C227.926 120.409 227.503 119.76 227.163 119.153C227.05 118.95 226.63 118.161 226.288 118.452Z" fill="white"/>
<path d="M232.158 124.878C231.857 125.191 231.997 125.821 232.112 126.194C232.288 126.769 232.479 127.352 232.74 127.895C233.074 128.594 234.182 128.018 233.803 127.34C233.562 126.907 233.375 126.445 233.192 125.984C233.049 125.62 232.823 124.932 232.391 124.826C232.311 124.806 232.219 124.814 232.158 124.878Z" fill="white"/>
<path d="M234.135 119.467C233.897 119.868 234.055 120.35 234.158 120.773C234.279 121.273 234.53 121.957 234.922 122.294C235.222 122.554 235.861 122.47 235.832 121.961C235.804 121.433 235.529 121.032 235.294 120.569C235.096 120.181 234.835 119.6 234.427 119.4C234.325 119.352 234.198 119.36 234.135 119.467Z" fill="white"/>
<path d="M243.966 108.746C243.904 109.19 244.168 109.683 244.385 110.054C244.637 110.487 244.901 111.094 245.454 111.127C245.632 111.137 245.799 111.016 245.851 110.849C246.011 110.348 245.611 109.995 245.334 109.613C245.055 109.225 244.652 108.722 244.164 108.607C244.061 108.586 243.979 108.644 243.966 108.746Z" fill="white"/>
<path d="M252.004 109.764C252.047 110.202 252.242 110.534 252.465 110.905C252.717 111.324 252.918 111.771 253.322 112.055C253.704 112.324 254.252 111.927 254.141 111.483C254.033 111.055 253.748 110.759 253.481 110.413C253.183 110.027 252.919 109.658 252.476 109.433C252.221 109.305 251.976 109.489 252.004 109.764Z" fill="white"/>
<path d="M256.062 94.1928C256.473 94.7111 257.069 95.057 257.652 95.3527C258.062 95.5616 258.833 95.9038 259.162 95.3772C259.66 94.5832 256.663 93.9269 256.206 93.8794C256.031 93.8619 255.969 94.0747 256.062 94.1928Z" fill="white"/>
<path d="M269.696 96.6624C270.174 97.2252 271.002 97.4263 271.705 97.4847C272.468 97.5491 272.52 96.3649 271.761 96.302C271.135 96.2495 270.425 96.1574 269.807 96.311C269.645 96.3515 269.59 96.539 269.696 96.6624Z" fill="white"/>
<path d="M272.37 91.5555C272.979 92.1114 274.703 93.1195 275.426 92.3398C275.511 92.2455 275.583 92.105 275.541 91.9742C275.349 91.3735 274.81 91.2377 274.246 91.1329C273.687 91.0273 273.055 90.926 272.507 91.1225C272.339 91.1805 272.204 91.4055 272.37 91.5555Z" fill="white"/>
<path d="M277.858 87.547C278.287 87.6784 278.7 87.8085 279.137 87.9138C279.549 88.0148 279.99 88.257 280.379 87.9868C280.577 87.8481 280.644 87.6619 280.553 87.4335C280.357 86.9424 279.749 86.9061 279.29 86.82C278.75 86.7204 278.299 86.7452 277.81 87.0061C277.584 87.124 277.608 87.4708 277.858 87.547Z" fill="white"/>
<path d="M275.39 80.751C275.939 80.9867 276.904 80.8627 277.414 80.5669C277.814 80.3342 277.734 79.6081 277.207 79.6208C276.605 79.6372 275.758 79.9575 275.299 80.3518C275.154 80.477 275.237 80.6858 275.39 80.751Z" fill="white"/>
<path d="M262.419 84.1329C262.997 84.3594 263.423 84.5484 264.069 84.5092C264.629 84.4771 265.207 84.4375 265.4 83.8289C265.427 83.7434 265.389 83.6661 265.322 83.6152C264.892 83.2878 264.481 83.4545 263.991 83.5374C263.745 83.5801 263.505 83.6101 263.261 83.6662C262.974 83.7323 262.712 83.865 262.431 83.9343C262.325 83.9597 262.324 84.0951 262.419 84.1329Z" fill="white"/>
<path d="M263.176 75.8976C263.913 76.1105 264.941 75.7391 265.397 75.1441C265.657 74.806 265.269 74.3613 264.901 74.4344C264.263 74.5608 263.422 75.1597 263.118 75.745C263.092 75.8045 263.109 75.879 263.176 75.8976Z" fill="white"/>
<path d="M247.596 98.6733C247.325 99.43 248.128 100.897 248.896 101.086C249.278 101.181 249.718 100.783 249.479 100.391C249.243 100.004 248.846 99.7327 248.58 99.3553C248.378 99.0697 248.114 98.7166 247.788 98.5732C247.708 98.5391 247.621 98.6005 247.596 98.6733Z" fill="white"/>
<path d="M239.176 104.342C239.134 105.057 239.443 106.382 240.172 106.683C240.415 106.785 240.707 106.561 240.71 106.307C240.714 105.938 240.442 105.594 240.231 105.303C239.96 104.928 239.714 104.589 239.381 104.266C239.309 104.197 239.184 104.234 239.176 104.342Z" fill="white"/>
<path d="M224.797 112.417C224.528 113.095 224.748 114.009 225.072 114.638C225.347 115.174 226.241 114.872 226.083 114.274C225.908 113.618 225.641 112.854 225.21 112.323C225.084 112.17 224.858 112.258 224.797 112.417Z" fill="white"/>
<path d="M218.53 125.641C218.39 126.024 218.352 126.651 218.504 127.032C218.646 127.385 219.207 127.386 219.381 127.067C219.6 126.669 219.505 125.96 219.304 125.573C219.127 125.237 218.653 125.303 218.53 125.641Z" fill="white"/>
<path d="M214.276 130.61C213.798 131.038 213.977 132.056 214.533 132.32C214.763 132.429 215.089 132.378 215.162 132.09C215.276 131.627 215.104 131.244 214.865 130.853C214.765 130.687 214.473 130.432 214.276 130.61Z" fill="white"/>
<path d="M236.687 127.256C236.261 127.867 236.351 128.973 236.919 129.471C237.273 129.781 237.793 129.532 237.726 129.05C237.683 128.733 237.517 128.48 237.411 128.182C237.297 127.859 237.212 127.559 237.025 127.268C236.945 127.145 236.778 127.129 236.687 127.256Z" fill="white"/>
<path d="M255.852 107.203C256.002 107.473 256.239 107.691 256.442 107.925C256.65 108.168 256.925 108.548 257.278 108.547C257.508 108.546 257.689 108.388 257.709 108.156C257.757 107.585 256.698 106.914 256.227 106.757C255.968 106.667 255.716 106.962 255.852 107.203Z" fill="white"/>
<path d="M262.906 96.2225C263.141 96.4453 263.282 96.6035 263.632 96.6497C263.989 96.6957 264.357 96.7517 264.711 96.6545C264.862 96.6134 265.004 96.5095 265.044 96.3498C265.145 95.9615 264.842 95.7863 264.498 95.7511C264.233 95.7248 263.945 95.7698 263.674 95.7601C263.366 95.7503 263.206 95.8656 262.947 95.9824C262.859 96.0225 262.836 96.1575 262.906 96.2225Z" fill="white"/>
<path d="M214.257 107.455C213.622 107.417 212.604 108.246 212.46 108.865C212.359 109.306 212.79 109.77 213.239 109.518C213.548 109.347 213.73 109.026 213.95 108.759C214.176 108.482 214.452 108.197 214.521 107.837C214.556 107.653 214.46 107.468 214.257 107.455Z" fill="white"/>
<path d="M216.788 102.857C216.339 102.311 215.434 102.382 214.797 102.461C214.152 102.541 214.335 103.426 214.881 103.51C215.521 103.611 216.382 103.571 216.802 103.021C216.841 102.97 216.824 102.9 216.788 102.857Z" fill="white"/>
<path d="M221.854 97.5779C221.863 97.5872 221.789 97.3081 221.723 97.2337C221.58 97.0699 221.434 96.9235 221.24 96.8205C220.797 96.583 220.446 96.2779 219.925 96.4803C219.687 96.5724 219.565 96.8941 219.621 97.127C219.745 97.6516 220.276 97.7758 220.722 97.94C220.943 98.0213 221.15 98.0305 221.382 98.0069C221.6 97.9844 221.651 97.8466 221.822 97.7776C221.9 97.7448 221.906 97.6345 221.854 97.5779Z" fill="white"/>
<path d="M228.749 91.7185C229.099 91.2504 228.637 90.5683 228.372 90.1821C227.927 89.5328 226.828 90.098 227.276 90.7535C227.439 90.9941 228.335 92.2721 228.749 91.7185Z" fill="white"/>
<path d="M237.879 86.4832C238.189 86.0237 237.999 85.1247 237.9 84.6146C237.86 84.4129 237.697 84.2322 237.497 84.1733C237.331 84.1249 237.2 84.124 237.044 84.2132C236.874 84.3121 236.718 84.5004 236.725 84.7113C236.747 85.3187 236.823 86.3866 237.5 86.6233C237.644 86.6713 237.799 86.6026 237.879 86.4832Z" fill="white"/>
<path d="M245.391 82.5408C245.772 82.2289 245.913 81.814 246.008 81.3417C246.061 81.0699 246.159 80.7983 246.191 80.5238C246.23 80.1917 246.115 79.9401 246.017 79.6299C245.984 79.5258 245.867 79.4459 245.761 79.509C245.207 79.8418 245.021 80.163 244.909 80.801C244.806 81.3908 244.733 81.9447 245.046 82.4804C245.123 82.609 245.279 82.6347 245.391 82.5408Z" fill="white"/>
<path d="M251.021 80.0132C251.775 79.4471 252.416 78.4382 252.306 77.4732C252.291 77.3326 252.095 77.2421 251.978 77.3189C251.178 77.8432 250.553 78.9967 250.853 79.9601C250.877 80.0384 250.955 80.0615 251.021 80.0132Z" fill="white"/>
<path d="M255.936 77.6685C256.352 77.501 256.648 77.1544 256.897 76.7944C257.162 76.4121 257.474 76.0628 257.251 75.5855C257.194 75.4644 257.065 75.3926 256.936 75.3845C256.363 75.3436 256.099 75.9259 255.855 76.3512C255.642 76.72 255.549 77.2231 255.753 77.611C255.79 77.6812 255.867 77.6965 255.936 77.6685Z" fill="white"/>
<path d="M201.383 116.319C208.466 99.2857 222.344 88.7252 237.55 79.3036C237.632 79.2526 237.569 79.1269 237.479 79.1678C229.677 82.7956 222.497 88.1551 216.232 94.0117C209.716 100.102 203.816 107.619 201.231 116.269C201.199 116.373 201.343 116.413 201.383 116.319Z" fill="#262626"/>
<path d="M281.031 121.011C289.252 116.473 297.408 105.889 292.051 96.335C291.988 96.2211 291.795 96.2818 291.83 96.4142C292.81 100.208 293.429 103.751 292.222 107.587C290.384 113.422 285.373 117.098 280.969 120.923C280.923 120.963 280.978 121.041 281.031 121.011Z" fill="#262626"/>
<path d="M291.701 95.4722C291.756 95.0208 291.571 94.4222 291.131 94.2391C291.075 94.2164 291.003 94.2562 290.989 94.3132C290.869 94.7586 291.257 95.2175 291.557 95.5258C291.609 95.5816 291.694 95.5456 291.701 95.4722Z" fill="#262626"/>
<path d="M224.147 148.003C230.769 152.309 240.665 149.346 246.055 144.37C246.12 144.31 246.046 144.21 245.969 144.246C242.375 146.027 239.025 147.98 235.072 148.891C231.281 149.766 227.811 149.035 224.182 147.927C224.136 147.913 224.107 147.976 224.147 148.003Z" fill="#262626"/>
</svg>
