<svg width="592" height="565" viewBox="0 0 592 565" fill="none" xmlns="http://www.w3.org/2000/svg">
<path d="M540.948 173.114C541.211 171.353 540.231 169.521 538.224 169.545C534.766 169.587 531.29 171.282 527.921 173.132C527.348 170.613 526.703 168.166 525.998 165.772C530.967 162.644 538.057 156.812 536.862 150.252C536.761 149.697 536.146 149.482 535.662 149.571C531.224 150.413 526.977 153.929 522.928 156.717C521.178 152.228 519.147 148.002 516.895 143.99C517.666 143.047 518.394 142.128 519.069 141.31C522.205 137.513 525 133.001 524.224 127.903C524.075 126.948 522.85 126.643 522.115 127.043C518.167 129.192 514.942 132.696 511.651 135.711C509.423 132.577 507.046 129.598 504.483 126.793C505.122 125.903 505.738 125.008 506.299 124.142C508.778 120.304 513.401 112.066 510.45 107.601C510.235 107.273 509.919 107.171 509.542 107.231C505.391 107.918 502.399 114.197 500.278 117.403C499.586 118.447 498.767 119.397 497.907 120.304C493.917 116.728 489.611 113.469 484.994 110.514C485.896 109.159 486.744 107.846 487.496 106.67C490.931 101.316 495.172 93.269 490.776 87.3653C490.477 86.9654 489.748 86.8042 489.485 87.3653C486.529 93.7823 483.763 99.5666 479.092 104.981C478.704 105.428 478.286 105.882 477.862 106.336C474.153 104.33 470.282 102.492 466.245 100.814C469.649 94.6956 473.03 86.8221 471.017 80.8827C470.772 80.1544 469.948 79.7545 469.243 80.1604C463.402 83.5748 460.738 91.6811 457.309 97.4475C455.464 96.8207 453.6 96.2238 451.695 95.6567C445.662 93.8599 439.57 92.2243 433.448 90.7022C436.362 83.6166 439.426 75.3551 437.264 67.9114C437.061 67.213 436.183 67.1592 435.795 67.7203C431.512 73.9642 428.496 81.6527 425.384 88.78C420.791 87.7235 416.186 86.7087 411.563 85.7715C413.432 78.5785 414.955 69.9767 412.847 63.8642C412.548 62.9807 411.443 62.6047 410.739 63.309C405.602 68.4247 404.694 77.3429 402.579 84.0404C395.263 82.6794 387.922 81.4438 380.581 80.3275C381.328 74.2269 382.809 64.5089 378.813 59.3096C378.622 59.0589 378.252 58.8619 377.947 59.0828C373.563 62.2763 372.84 68.8426 371.616 73.815C371.216 75.4446 370.75 77.122 370.278 78.8173C369.973 78.7755 369.669 78.7277 369.364 78.686C363.541 77.8741 357.675 77.1817 351.804 76.5549C352.843 68.0308 352.383 59.2917 347.509 54.4028C346.984 53.8716 346.219 54.1879 345.974 54.8087C343.663 60.6408 343.818 67.7024 342.695 73.9045C342.588 74.4955 342.456 75.0805 342.337 75.6715C337.206 75.2059 332.069 74.782 326.915 74.4537C326.968 67.6189 326.604 60.4975 323.498 54.564C323.146 53.8954 322.178 53.9671 321.814 54.564C318.29 60.2587 317.866 67.3025 317.567 73.9762C310.794 73.6598 304.015 73.4568 297.223 73.3852C297.008 66.5683 296.363 59.6797 292.702 53.9432C292.326 53.3522 291.489 53.3522 291.113 53.9432C287.476 59.6558 286.807 66.5384 286.741 73.3375C279.633 73.3852 272.537 73.5822 265.447 73.8926C264.617 66.3295 264.259 57.7576 260.143 51.8898C259.666 51.2033 258.734 51.1734 258.256 51.8898C254.015 58.2709 255.305 66.8846 256.171 74.3821C250.294 74.7402 244.441 75.1999 238.599 75.7371C237.948 69.0037 237.93 61.0586 234.376 55.5788C233.731 54.5879 232.34 54.57 231.7 55.5788C227.926 61.5361 228.953 69.8335 229.216 76.6325C224.814 77.116 220.43 77.6771 216.057 78.2621C215.759 76.6683 215.4 75.0984 215.144 73.4867C214.301 68.174 213.573 61.4585 209.517 57.6263C209.063 57.1965 208.311 57.2741 207.982 57.8232C205.133 62.6823 206.166 69.2186 206.477 74.6567C206.566 76.2565 206.704 77.8861 206.865 79.5157C199.823 80.5782 192.721 81.8198 185.649 83.3122C185.243 81.4318 184.867 79.5575 184.568 77.6831C184.383 76.5251 183.619 59.238 178.87 62.0018C172.628 65.6311 175.322 79.3784 176.212 85.485C170.012 87.037 163.884 88.8278 157.899 90.9409C156.842 88.004 156.024 85.0075 155.301 81.9392C154.548 78.7636 154.507 75.2894 152.5 72.6271C151.908 71.8451 151.018 71.7019 150.248 72.3346C144.836 76.7997 146.521 87.2101 148.767 94.5046C144.054 96.5043 139.473 98.7488 135.047 101.256C133.93 98.8085 132.968 96.2835 132.144 93.7704C131.009 90.3022 131.147 86.4461 128.315 83.8613C127.551 83.1629 126.565 83.2107 125.795 83.8613C120.401 88.4159 124.325 99.9964 126.637 105.315C126.756 105.59 126.888 105.9 127.031 106.228C122.438 109.362 118.048 112.824 113.968 116.722C111.926 114.09 110.014 111.386 108.336 108.491C106.443 105.225 105.696 102.092 102.919 99.4353C102.1 98.6533 100.362 98.6294 99.8484 99.8292C96.8978 106.807 101.808 114.406 105.427 120.322C106.036 121.313 106.729 122.423 107.482 123.575C106.048 125.247 104.627 126.948 103.283 128.756C102.351 130.01 101.509 131.329 100.637 132.625C96.0437 129.121 91.7492 123.569 86.1705 121.826C85.3641 121.575 84.5937 122.25 84.5698 123.044C84.4145 129.192 90.1305 134.392 94.2399 138.313C94.8013 138.851 95.3926 139.43 96.0078 140.032C94.0427 143.477 92.1912 146.981 90.5785 150.61C86.2481 148.455 82.5688 144.79 77.7546 143.727C76.4824 143.447 75.5626 144.486 75.7776 145.703C76.6377 150.628 81.4817 155.487 87.2993 158.776C83.4588 169.336 80.9681 180.439 79.7257 191.685C72.0625 229.578 80.2454 271.339 106.508 297.371C106.514 304.552 106.711 311.393 106.819 317.41C107.183 337.628 109.853 357.858 112.481 377.879C114.715 394.922 114.87 415.635 122.402 431.388C120.849 436.301 119.792 442.569 121.859 447.243C122.169 447.953 123.083 447.846 123.573 447.464C126.392 445.261 127.521 441.363 128.441 437.578C129.343 438.951 130.107 440.456 130.752 441.429C132.461 444.031 134.246 446.091 137.34 446.7C137.741 446.783 138.039 446.586 138.189 446.216C139.419 443.172 138.272 439.524 136.229 436.253C134.88 434.098 133.351 431.979 131.505 430.236C134.312 415.468 129.856 399.267 127.879 384.541C125.49 366.729 123.465 348.928 122.336 330.985C122.307 330.447 122.301 329.916 122.265 329.379C122.432 322.944 122.659 316.509 122.958 310.074C126.744 312.313 130.764 314.312 135.041 316.014C136.666 316.658 138.326 317.213 139.969 317.81C139.998 320.138 140.052 322.46 140.13 324.776C139.037 344.093 139.646 363.678 140.847 382.894C142.035 402.007 144.639 421.521 151.329 439.518C155.277 450.15 157.224 465.951 164.547 474.594C164.69 474.767 164.917 474.875 165.103 475.012C164.876 479.889 164.451 485.011 166.028 489.344C166.202 489.816 166.703 489.935 167.085 489.625C170.394 486.933 171.613 482.283 172.157 477.65C173.447 479.047 174.683 480.51 175.949 481.924C177.239 483.375 180.327 485.363 182.149 483.703C184.509 481.548 182.042 477.322 180.602 475.472C178.763 473.108 176.714 470.983 174.402 469.138C176.093 464.494 175.065 459.134 173.692 453.522C168.925 434.051 161.298 417.378 158.7 397.059C156.042 376.292 156.083 355.124 156.281 334.226C156.31 330.841 156.705 327.099 157.218 323.189C164.882 325.194 172.688 326.788 180.602 328.042C180.274 335.939 180.447 343.884 179.915 350.856C178.285 372.262 180.154 393.137 183.123 414.322C185.829 433.621 190.464 452.537 196.419 471.072C199.728 481.363 206.035 499.42 215.472 505.7C215.263 510.768 215.729 516.475 218.841 519.394C219.11 519.644 219.51 519.65 219.773 519.394C221.791 517.478 222.09 514.941 222.478 512.284C222.741 510.47 222.968 508.673 223.243 506.882C225.041 508.255 226.827 509.64 228.792 510.786C230.333 511.687 234.645 512.666 235.858 510.595C237.345 508.052 234.806 504.655 233.23 502.924C231.055 500.543 228.009 498.573 224.939 497.051C224.885 491.362 221.236 485.416 218.375 479.698C209.326 461.611 204.685 442.461 200.886 422.655C196.777 401.285 194.866 379.688 195.708 357.954C196.036 349.585 197.918 339.944 198.939 330.388C203.484 330.835 208.054 331.217 212.635 331.51C213.107 335.241 213.638 338.852 213.979 342.147C214.606 348.182 215.245 354.181 215.92 360.157C216.314 369.158 216.959 378.124 218.148 386.965C221.332 410.561 228.666 433.37 237.536 455.421C238.874 458.746 240.254 462.226 241.681 465.742C246.328 478.958 251.363 495.015 260.723 505.503C259.779 509.598 258.477 515.12 260.872 518.648C261.045 518.898 261.398 519.125 261.714 518.988C264.97 517.621 266.582 513.986 267.616 510.458C271.385 511.383 276.438 512.177 277.041 509.992C277.543 508.177 275.315 506.339 274.072 505.473C272.37 504.285 270.495 503.396 268.565 502.656C268.225 489.464 260.801 476.928 255.897 464.876C248.61 446.956 242.028 429.108 237.542 410.251C232.692 389.842 229.556 368.848 228.027 347.949C228.003 347.615 227.961 347.287 227.932 346.952C228.051 342.052 228.218 337.151 228.403 332.256C251.644 333.008 274.903 332.405 297.032 332.375C310.937 332.352 330.66 332.716 350.555 332.948C350.287 334.888 350 336.787 349.677 338.613C345.658 360.95 342.02 383.526 336.059 405.44C330.696 425.174 321.796 444.3 318.702 464.584C317.495 472.499 314.33 484.193 315.799 493.32C312.102 495.672 308.04 498.346 306.828 502.59C306.499 503.73 307.407 504.924 308.596 504.912C311.702 504.876 314.551 503.48 317.221 501.79C317.914 504.405 318.893 506.936 320.733 508.804C321.079 509.15 321.688 509.168 322.035 508.804C324.299 506.399 324.651 502.978 324.358 499.629C331.789 495.713 332.78 483.966 333.694 476.403C336.22 455.462 343.675 435.889 349.851 415.808C356.451 394.355 359.885 371.844 363.606 349.752C364.448 344.738 365.768 339.043 367.005 333.11C379.435 333.187 391.273 333.151 401.128 332.883C395.985 351.155 393.441 370.871 389.278 387.675C385.186 404.174 382.134 420.757 378.879 437.423C376.794 448.06 370.935 459.038 369.633 469.866C367.56 470.893 365.589 472.141 363.708 473.478C361.122 475.31 358.022 477.662 357.066 480.82C356.839 481.554 357.179 482.641 357.938 482.963C361.731 484.593 365.942 482.611 369.86 480.348C370.027 483.602 370.409 486.837 371.724 489.601C371.962 490.114 372.613 490.055 372.984 489.762C376.741 486.807 377.732 481.399 378.234 476.528C398.703 464.584 398.828 417.545 403.237 398.497C407.029 382.13 410.135 365.463 414.101 349.119C416.24 343.395 418.342 337.67 420.212 331.856C430.813 330.955 440.824 329.456 450.19 327.266C449.282 334.399 448.451 341.538 447.442 348.695C443.631 375.79 435.831 402.18 430.993 429.066C430.825 429.974 430.79 430.994 430.981 431.955C426.931 434.373 422.135 437.829 421.4 441.996C421.358 442.229 421.46 442.455 421.699 442.527C424.93 443.458 428.693 441.554 432.08 439.471C432.199 443.434 432.719 447.553 434.433 450.609C434.845 451.344 435.872 451.439 436.464 450.872C440.304 447.159 439.176 440.754 438.984 435.549C439.916 435.012 440.734 434.242 441.32 433.418C448.846 422.798 450.393 410.042 452.973 397.536C454.854 388.445 456.766 379.384 458.516 370.292C459.358 366.777 460.176 363.249 460.893 359.703C462.112 353.662 462.84 347.502 463.264 341.294C464.124 335.097 464.973 328.901 465.815 322.699C474.021 319.768 481.571 316.121 488.404 311.626C488.53 313.554 488.625 315.482 488.769 317.41C488.554 321.804 488.297 326.191 487.914 330.555C485.8 354.653 486.17 378.602 485.131 402.557C482.067 406.466 478.836 411.349 479.606 416.071C479.642 416.298 479.929 416.429 480.138 416.369C483.28 415.48 486.087 413.045 488.631 410.472C489.043 411.773 489.438 413.086 489.796 414.406C490.573 417.265 490.961 419.468 492.985 421.628C493.212 421.873 493.648 421.879 493.875 421.628C497.949 417.151 496.945 408.389 494.586 402.64C500.41 395.913 501.282 382.07 501.204 369.928C502.602 358.569 502.638 346.708 502.22 335.42C503.301 322.759 504.424 310.11 505.009 297.407C517.618 283.367 526.069 264.313 529.438 238.765C532.144 218.242 532.245 200.149 530 184.277C534.808 181.824 540.207 178.158 540.948 173.114Z" fill="#231F20"/>
<path d="M465.647 207.217C445.22 207.36 424.028 210.99 404.359 214.219C341.817 224.486 277.095 225.459 214.039 220.236C192.327 218.439 170.813 213.795 149.113 212.273C118.376 208.089 107.141 249.187 119.469 266.146C126.243 275.47 135.017 283.481 142.017 287.94C176.338 309.829 247.929 312.933 287.577 311.865C340.712 310.432 373.515 312.313 426.346 306.451C452.758 303.52 478.818 292.763 495.631 271.381C516.632 244.662 487.843 207.062 465.647 207.217Z" fill="white"/>
<path d="M116.77 220.009C121.602 214.81 125.669 210.339 132.425 207.509C139.091 204.716 145.888 205.378 152.888 204.943C153.264 204.919 153.593 204.399 153.234 204.113C142.232 195.368 117.94 205.874 116.304 219.824C116.274 220.057 116.614 220.17 116.77 220.009Z" fill="white"/>
<path d="M459.716 198.585C467.409 198.776 474.201 199.481 481.177 202.997C487.299 206.083 491.492 211.616 496.038 216.535C496.289 216.804 496.838 216.613 496.802 216.219C495.339 201.206 472.307 190.449 459.543 197.941C459.238 198.126 459.376 198.579 459.716 198.585Z" fill="white"/>
<path d="M214.403 176.69C222.329 173.305 224.193 163.504 229.485 157.493C233.6 152.825 236.706 150.234 240.6 150.073C243.479 149.953 246.937 150.962 249.757 155.075C251.626 157.803 252.373 160.764 253.496 163.826C255.425 169.091 258.716 172.947 261.917 177.454C265.579 182.6 271.844 182.373 275.542 177.454C294.201 152.64 268.434 119.307 240.6 119.122C227.436 119.032 214.331 126.846 207.009 137.525C199.566 148.378 194.979 167.539 206.901 176.69C209.117 178.397 212.127 177.663 214.403 176.69Z" fill="white"/>
<path d="M401.624 176.69C413.546 167.539 408.959 148.378 401.522 137.525C393.775 126.237 381.376 120.017 367.925 119.122C339.416 117.224 315.315 153.971 332.983 177.454C336.68 182.373 342.946 182.6 346.607 177.454C351.768 170.195 354.312 162.555 358.774 155.075C361.348 150.759 365.243 150.144 367.931 150.073C371.7 149.971 375.14 152.932 379.046 157.493C384.225 163.546 386.267 173.329 394.128 176.69C396.392 177.663 399.402 178.397 401.624 176.69Z" fill="white"/>
<path d="M339.255 165.044C346.082 152.592 353.799 131.58 372.339 136.63C383.675 139.722 390.52 157.057 395.543 166.429C395.788 166.882 396.475 166.566 396.356 166.089C392.939 152.389 385.849 134.141 369.86 131.747C352.073 129.091 340.82 150.383 338.729 164.817C338.687 165.122 339.087 165.348 339.255 165.044Z" fill="#231F20"/>
<path d="M212.336 161.773C219.468 151.834 230.972 131.281 246.143 138.116C255.855 142.492 262.049 156.466 267.12 165.223C267.496 165.868 268.547 165.438 268.326 164.716C264.45 152.031 258.113 137.096 244.339 132.732C228.816 127.813 214.367 149.082 211.805 161.546C211.745 161.88 212.151 162.035 212.336 161.773Z" fill="#231F20"/>
<path d="M424.709 162.262C428.323 162.333 431.458 161.772 434.863 160.417C436.595 159.725 438.327 158.823 439.874 157.791C441.737 156.555 442.018 154.705 442.549 152.705C442.657 152.305 442.472 151.965 442.155 151.732C434.863 146.491 427.427 155.326 424.166 161.313C423.933 161.73 424.219 162.25 424.709 162.262Z" fill="white"/>
<path d="M442.789 165.796C445.519 168.332 450.984 167.712 454.37 167.497C456.461 167.359 459.256 167.527 460.862 165.921C462.182 164.602 462.511 162.757 461.472 161.211C459.083 157.666 451.061 159.206 447.77 160.805C447.143 161.104 441.099 164.226 442.789 165.796Z" fill="white"/>
<path d="M183.528 165.754C180.745 162.256 175.394 157.284 170.645 159.773C169.451 160.4 168.704 162.101 169.17 163.396C170.777 167.861 177.681 169.604 182.029 169.371C183.994 169.264 184.675 167.192 183.528 165.754Z" fill="white"/>
<path d="M165.006 171.747C163.615 169.992 161.411 169.503 159.302 169.216C156.68 168.852 153.371 168.452 150.821 169.246C148.044 170.112 147.518 173.813 150.027 175.358C153.61 177.567 160.963 176.946 164.6 174.935C165.842 174.242 165.789 172.732 165.006 171.747Z" fill="white"/>
<path d="M279.387 312.019C278.79 306.379 277.004 301.174 273.038 297.186C272.023 296.166 270.411 296.225 269.383 297.186C265.394 300.929 263.034 306.152 261.517 311.912C267.83 312.049 273.833 312.073 279.387 312.019Z" fill="#E40000"/>
<path d="M177.048 287.074C177.179 282.341 170.89 279.661 167.623 283.17C164.021 287.044 161.256 291.509 158.873 296.219C163.806 298.117 169.08 299.812 174.611 301.31C176.128 294.81 176.982 289.408 177.048 287.074Z" fill="#E40000"/>
<path d="M203.998 293.181C198.449 294.237 195.158 299.49 192.895 305.447C198.294 306.456 203.813 307.316 209.379 308.062C210.58 300.242 210.442 291.945 203.998 293.181Z" fill="#E40000"/>
<path d="M180.62 230.467C181.229 230.861 182.012 230.789 182.621 230.467C187.058 228.133 189.328 223.077 190.749 217.478C185.446 216.726 180.148 215.938 174.844 215.186C174.576 221.358 175.657 227.267 180.62 230.467Z" fill="#E40000"/>
<path d="M251.524 238.931C257.097 237.23 260.143 230.616 262.006 222.952C255.86 222.767 249.721 222.504 243.587 222.194C243.688 231.142 245.199 240.859 251.524 238.931Z" fill="#E40000"/>
<path d="M216.445 233.123C221.534 231.888 224.837 227.148 227.136 221.221C222.764 220.923 218.398 220.594 214.044 220.236C212.539 220.111 211.04 219.944 209.535 219.794C209.141 227.286 210.204 234.639 216.445 233.123Z" fill="#E40000"/>
<path d="M141.748 267.31C136.492 269.208 132.413 272.885 128.841 277.063C133.338 281.576 137.967 285.36 142.017 287.939C142.363 288.16 142.739 288.369 143.092 288.584C145.905 283.432 148.383 277.947 148.073 272.121C147.912 269.107 144.967 266.146 141.748 267.31Z" fill="#E40000"/>
<path d="M485.704 251.318C482.037 252.709 479.899 257.562 483.25 260.612C487.484 264.474 492.675 266.48 498.128 267.709C501.705 261.776 503.109 255.449 502.882 249.193C496.808 248.937 490.698 249.432 485.704 251.318Z" fill="#E40000"/>
<path d="M129.187 255.228C128.404 249.808 122.043 249.665 114.667 251.408C115.05 257.037 116.62 262.236 119.463 266.145C119.768 266.563 120.09 266.963 120.407 267.375C125.532 263.955 129.832 259.723 129.187 255.228Z" fill="#E40000"/>
<path d="M157.122 227.124C158.245 222.534 158.591 217.848 158.687 213.145C155.497 212.804 152.302 212.5 149.113 212.273C146.055 211.855 143.2 211.903 140.53 212.321C141.48 217.997 143.033 223.537 145.947 228.586C148.539 233.081 155.862 232.311 157.122 227.124Z" fill="#E40000"/>
<path d="M291.913 236.43C293.818 232.18 295.12 227.769 296.135 223.28C290.306 223.34 284.471 223.328 278.648 223.268C278.94 227.375 279.639 231.368 281.055 235.01C282.679 239.2 289.572 241.653 291.913 236.43Z" fill="#E40000"/>
<path d="M128.816 237.194C131.14 236.448 132.997 234.359 132.926 231.804C132.77 226.808 129.754 222.94 126.177 219.46C121.566 223.853 118.293 229.763 116.423 236.066C120.568 237.678 124.881 238.46 128.816 237.194Z" fill="#E40000"/>
<path d="M238.706 296.846C233.653 297.789 230.249 303.293 227.806 310.097C233.361 310.587 238.879 310.963 244.285 311.255C244.989 303.669 244.416 295.778 238.706 296.846Z" fill="#E40000"/>
<path d="M440.16 220.361C441.367 216.523 442.108 212.595 442.597 208.632C436.977 209.229 431.369 209.981 425.808 210.805C426.316 214.04 426.967 217.239 427.857 220.367C429.619 226.569 438.291 226.318 440.16 220.361Z" fill="#E40000"/>
<path d="M374.429 294.118C373.593 293.259 372.368 293.599 371.723 294.464C368.373 298.995 367.602 304.653 367.811 310.533C372.858 310.378 377.947 310.181 383.143 309.924C381.399 304.009 378.747 298.553 374.429 294.118Z" fill="#E40000"/>
<path d="M403.773 226.772C404.687 224.91 405.667 220.146 406.503 213.867C405.792 213.986 405.07 214.1 404.359 214.219C399.497 215.019 394.611 215.741 389.726 216.428C390.849 220.839 392.055 224.468 393.19 226.772C395.155 230.771 401.808 230.771 403.773 226.772Z" fill="#E40000"/>
<path d="M485 233.941C489.085 233.368 493.092 231.69 496.975 229.47C493.821 223.943 489.658 219.048 485.035 215.258C481.697 219.496 479.415 224.259 479.505 229.756C479.552 232.848 482.222 234.329 485 233.941Z" fill="#E40000"/>
<path d="M465.104 271.68C464.381 271.608 463.718 272.235 463.527 272.879C462.583 276.037 464.966 284.173 468.938 293.61C473.824 290.96 478.453 287.862 482.783 284.352C477.796 277.846 471.865 272.36 465.104 271.68Z" fill="#E40000"/>
<path d="M441.338 288.065C436.774 291.76 437.192 298.374 438.632 304.474C443.362 303.489 448.033 302.23 452.596 300.684C449.156 293.527 444.431 285.558 441.338 288.065Z" fill="#E40000"/>
<path d="M411.485 289.259C410.553 288.465 409.185 288.543 408.51 289.641C405.118 295.163 404.551 301.752 405.13 308.479C410.368 308.056 415.809 307.542 421.447 306.957C419.47 300.015 416.562 293.581 411.485 289.259Z" fill="#E40000"/>
<path d="M464.184 221.692C469.732 220.701 473.012 215.401 475.168 209.252C471.966 207.933 468.741 207.199 465.641 207.217C462.888 207.235 460.122 207.33 457.351 207.462C457.059 214.744 458.08 222.778 464.184 221.692Z" fill="#E40000"/>
<path d="M308.912 297.151C308.237 296.357 306.798 296.398 306.111 297.151C302.551 301.06 300.275 306.092 298.734 311.608C304.337 311.494 309.73 311.411 314.956 311.345C314.12 306.068 312.328 301.156 308.912 297.151Z" fill="#E40000"/>
<path d="M370.582 229.046C371.245 225.632 371.585 222.176 371.747 218.702C365.941 219.358 360.13 219.943 354.3 220.451C355.668 225.077 357.102 228.712 358.332 230.64C361.217 235.176 369.411 235.063 370.582 229.046Z" fill="#E40000"/>
<path d="M326.126 238.173C326.49 238.149 326.855 238.113 327.219 238.054C327.422 238.018 327.619 237.982 327.822 237.94C329.936 237.552 331.74 235.493 332.272 233.493C333.275 229.703 334.028 225.829 334.649 221.913C328.819 222.266 322.978 222.54 317.137 222.755C317.794 226.939 318.863 231.052 320.631 235.015C321.455 236.872 324.131 238.352 326.126 238.173Z" fill="#E40000"/>
<path d="M343.585 296.476C343.047 295.939 342.259 295.873 341.602 296.219C336.286 299.019 334.315 304.749 333.718 311.148C339.535 311.088 345.227 311.022 350.877 310.933C349.396 305.221 347.114 299.98 343.585 296.476Z" fill="#E40000"/>
<path d="M90.5684 65.5189C79.4665 64.8667 68.8834 68.4654 58.5756 72.7635C61.8071 65.731 64.5748 58.4943 65.4868 51.1161C65.6048 50.1575 64.2838 49.4582 63.529 49.9925C57.0346 54.5813 53.1976 61.5115 50.0683 68.8583C46.7975 59.17 43.0077 45.4666 35.4832 40.5242C35.1452 40.3042 34.6577 40.5164 34.5633 40.8935C32.2517 50.3225 39.4774 64.1752 43.0942 73.5492C35.7663 69.8719 24.9081 64.1831 19.1212 66.8861C18.8775 66.9961 18.7596 67.3418 18.8382 67.5932C20.7567 73.5806 31.8193 77.8551 39.1472 80.8567C29.4369 84.2982 14.1285 88.0698 8.837 96.1159C8.61685 96.4459 8.82913 96.9409 9.2144 97.0352C18.6495 99.3375 32.5191 92.1164 41.8912 88.502C38.2116 95.8252 32.5269 106.676 35.2238 112.452C35.3339 112.695 35.6798 112.821 35.9314 112.742C42.135 110.762 46.4987 98.9839 49.5179 91.6921C53.3863 102.528 57.6793 113.308 63.6627 122.863C64.3703 123.994 66.0136 123.491 66.0922 122.203C66.7448 111.1 63.1438 100.532 58.843 90.2228C65.88 93.4601 73.1214 96.2259 80.5122 97.1374C81.4714 97.2552 82.1791 95.9352 81.6365 95.173C76.8875 88.4627 69.6304 84.5732 61.9958 81.391C72.1779 77.698 82.2498 73.5728 91.2289 67.9547C92.3532 67.2396 91.8579 65.5974 90.5684 65.5189Z" fill="#231F20"/>
<path d="M487.365 500.928C475.094 500.207 463.406 504.185 452.005 508.936C455.576 501.162 458.635 493.163 459.643 485.007C459.782 483.948 458.314 483.175 457.479 483.765C450.301 488.838 446.052 496.498 442.602 504.628C438.987 493.919 434.798 478.763 426.481 473.3C426.116 473.056 425.569 473.291 425.465 473.708C422.91 484.13 430.896 499.451 434.893 509.804C426.794 505.74 414.793 499.451 408.397 502.439C408.136 502.561 407.997 502.943 408.084 503.221C410.205 509.839 422.432 514.564 430.54 517.882C419.807 521.686 402.879 525.855 397.039 534.749C396.796 535.114 397.039 535.661 397.456 535.765C407.884 538.31 423.214 530.328 433.573 526.333C429.506 534.427 423.214 546.422 426.203 552.806C426.325 553.075 426.716 553.214 426.985 553.127C433.833 550.938 438.656 537.919 441.993 529.859C446.278 541.836 451.014 553.752 457.627 564.305C458.409 565.556 460.225 565 460.312 563.576C461.034 551.303 457.054 539.621 452.3 528.226C460.078 531.804 468.09 534.862 476.25 535.869C477.302 536 478.093 534.54 477.493 533.698C472.235 526.281 464.223 521.981 455.785 518.464C467.039 514.382 478.171 509.822 488.095 503.612C489.355 502.83 488.799 501.006 487.365 500.928Z" fill="#231F20"/>
<path d="M508.201 3.29277C501.933 6.39987 496.384 12.661 492.48 20.1234C491.268 15.1172 489.49 10.3525 487.125 6.21195C482.848 -1.28401 474.568 -2.39796 469.839 5.08458C459.447 21.526 460.586 49.8523 470.612 68.3741C477.986 82.0037 480.517 87.2112 493.646 75.3935C499.401 70.2195 504.784 64.5691 510.133 58.3482C519.065 47.9666 530.369 34.0752 530.349 18.4524C530.323 6.27234 517.267 -1.19676 508.201 3.29277Z" fill="#E40000"/>
<path d="M2.16422 306.433C2.90844 300.861 11.0643 297.688 16.8645 298.853C21.8019 299.846 26.1038 302.518 29.4868 305.961C29.5123 303.114 29.9342 300.285 30.7801 297.705C32.1782 293.453 37.099 288.394 42.6603 291.4C56.8751 299.094 58.2749 319.178 53.8203 334.623C50.2269 347.072 52.9404 351.213 34.5847 342.868C18.0931 335.376 0.246571 320.733 2.16422 306.433Z" fill="#E40000"/>
<path d="M582.667 306.42C577.452 289.607 564.963 299.222 557.463 311.922C557.154 309.939 556.787 308.146 556.417 306.698C554.244 298.283 547.569 293.132 539.923 297.439C531.147 302.378 530.181 318.083 531.173 326.696C532.2 335.613 534.665 345.346 538.876 353.464C547.403 369.906 547.853 367.043 560.778 354.786C574.309 341.932 587.667 322.557 582.667 306.42Z" fill="#E40000"/>
</svg>
