<svg width="297" height="466" viewBox="0 0 297 466" fill="none" xmlns="http://www.w3.org/2000/svg">
<g opacity="0.5">
<path d="M262.871 167.939C238.021 170.826 213.148 173.416 188.22 175.502C215.379 136.636 242.307 97.3637 266.77 56.7526C267.859 54.9455 265.034 52.8076 263.753 54.5338C263.693 54.6129 263.639 54.6933 263.579 54.7724C202.997 101.341 147.692 154.544 89.6249 204.129C86.4148 206.871 89.5007 211.461 92.9665 211.585C110.554 212.226 128.081 214.313 145.658 215.144C118.927 240.723 88.8757 262.788 60.8904 286.932C57.4369 289.907 60.7379 294.87 64.5061 295.002C78.9243 295.503 93.3404 295.524 107.753 295.924C76.9437 334.657 45.0485 373.375 17.8562 414.652C17.0582 415.343 16.2296 416.014 15.4359 416.712C12.563 419.219 16.4643 423.876 19.5754 421.841C84.6088 379.296 144.775 328.257 206.656 281.304C209.698 278.996 210.104 272.614 205.176 272.04C190.216 270.311 175.196 270.537 160.188 270.076C196.342 239.261 231.352 207.115 265.749 174.348C268.056 172.15 266.189 167.554 262.871 167.939Z" fill="#E40000"/>
<path d="M252.501 151.068C227.65 153.956 202.777 156.546 177.85 158.632C205.009 119.765 231.937 80.4934 256.399 39.8823C257.488 38.0752 254.663 35.9373 253.383 37.6635C253.323 37.7426 253.268 37.823 253.21 37.8966C192.628 84.4654 137.323 137.669 79.2556 187.253C76.0455 189.995 79.1314 194.585 82.5972 194.709C100.184 195.35 117.717 197.439 135.294 198.27C108.558 223.847 78.5064 245.912 50.5267 270.057C47.0787 273.034 50.3742 277.996 54.1424 278.128C68.5606 278.628 82.9767 278.649 97.3897 279.05C66.58 317.782 34.6848 356.5 7.49251 397.777C6.69451 398.468 5.86593 399.14 5.07215 399.838C2.1993 402.345 6.10064 407.002 9.21165 404.967C74.2451 362.421 134.412 311.383 196.286 264.429C199.33 262.114 199.734 255.738 194.807 255.164C179.846 253.435 164.826 253.661 149.819 253.2C185.973 222.386 220.984 190.234 255.38 157.473C257.686 155.279 255.824 150.685 252.501 151.068ZM110.867 277.881C113.595 274.417 111.66 269.74 107.138 269.55C93.6225 268.974 80.1114 269.012 66.6024 268.846C94.574 245.248 124.112 223.299 149.801 197.203C152.788 194.174 150.265 189.333 146.268 189.304C128.687 189.173 111.186 187.22 93.6303 186.324C143.726 142.464 193.254 97.7259 242.367 52.7423C216.656 88.4268 192.563 125.3 167.144 161.183C165.514 163.485 167.892 166.831 170.497 166.637C194.278 164.89 217.982 162.534 241.673 159.889C206.876 192.542 170.856 223.727 134.027 254.106C130.34 257.153 134.048 261.98 137.686 262.268C151.819 263.396 166.002 263.168 180.135 264.003C131.979 300.552 82.3566 336.013 35.4653 374.296C61.6843 343.086 85.7719 309.752 110.867 277.881Z" fill="#231F20"/>
</g>
</svg>
