<svg width="377" height="458" viewBox="0 0 377 458" fill="none" xmlns="http://www.w3.org/2000/svg">
<g opacity="0.5">
<path d="M357.305 131.818C357.332 131.733 357.335 131.653 357.322 131.565C357.315 131.541 357.315 131.521 357.305 131.485C357.28 131.38 357.211 131.301 357.112 131.236C357.093 131.215 357.077 131.206 357.038 131.184C356.998 131.162 356.972 131.117 356.916 131.106C278.704 114.422 201.549 138.674 135.277 176.715C132.072 178.554 132.925 183.388 136.487 184.338C159.212 190.416 180.565 198.892 201.441 209.447C172.481 222.404 146.554 240.817 122.182 260.786C86.225 290.248 49.4445 325.781 27.7363 367.18C27.3545 367.715 27.6251 368.362 28.1024 368.75C28.1648 368.805 28.2172 368.804 28.284 368.852C28.4692 368.965 28.6558 369.039 28.8568 369.05C28.9573 369.056 29.0477 369.005 29.1532 368.983C29.2752 368.951 29.403 368.982 29.5107 368.9C29.5975 368.837 29.6887 368.767 29.7755 368.704C73.5392 335.749 113.039 301.857 162.422 276.664C209.212 252.792 259.181 235.338 307.479 214.645C310.437 213.375 309.917 208.838 307.325 207.45C286.044 196.081 264.947 186.181 242.107 179.179C279.116 160.034 318.35 148.067 356.94 132.211C356.993 132.19 356.999 132.143 357.04 132.125C357.118 132.078 357.172 132.037 357.215 131.96C357.265 131.908 357.287 131.869 357.305 131.818Z" fill="#E40000"/>
<path d="M370.389 95.4486C370.427 95.3991 370.453 95.3528 370.467 95.2901C370.499 95.1965 370.498 95.1051 370.49 95.0093C370.487 94.9773 370.48 94.9531 370.469 94.9168C370.441 94.8 370.363 94.7162 370.261 94.639C370.234 94.6136 370.21 94.6004 370.179 94.5827C370.131 94.5563 370.105 94.5111 370.041 94.4957C282.445 75.8028 196.042 102.976 121.823 145.575C118.237 147.635 119.189 153.051 123.174 154.115C148.623 160.917 172.546 170.415 195.913 182.241C163.485 196.748 134.446 217.375 107.151 239.736C66.8781 272.731 25.6863 312.523 1.37782 358.89C0.941435 359.485 1.26155 360.21 1.79342 360.649C1.85586 360.704 1.92405 360.712 1.9908 360.759C2.19967 360.886 2.40208 360.969 2.63535 360.978C2.75163 360.993 2.83849 360.93 2.9562 360.905C3.09042 360.868 3.23405 360.908 3.36252 360.808C3.45798 360.73 3.55697 360.664 3.65243 360.586C52.6742 323.673 96.9086 285.723 152.209 257.507C204.608 230.774 260.57 211.219 314.656 188.048C317.97 186.623 317.381 181.542 314.477 179.989C290.643 167.255 267.02 156.165 241.435 148.327C282.877 126.886 326.819 113.486 370.045 95.7313C370.098 95.7104 370.116 95.6598 370.153 95.6301C370.271 95.585 370.334 95.5289 370.389 95.4486ZM227.525 145.72C224.063 147.577 225.179 152.68 228.792 153.688C254.367 160.803 278.037 171.383 301.428 183.536C222.646 216.445 131.864 245.428 62.3038 297.972C104.668 253.263 149.618 211.233 208.394 187.255C211.979 185.79 213.489 180.678 209.347 178.505C185.651 166.08 161.747 155.845 136.344 148.219C168.91 130.089 202.62 114.641 239.204 105.45C279.406 95.3491 319.703 97.5364 360.635 96.1044C313.989 104.313 268.607 123.663 227.525 145.72Z" fill="#262626"/>
</g>
</svg>
