<svg width="592" height="404" viewBox="0 0 592 404" fill="none" xmlns="http://www.w3.org/2000/svg">
<path d="M157.04 347.59C150.518 346.09 142.857 346.381 136.578 346.563C132.935 346.673 84.927 347.888 87.0359 344.248C88.4498 341.806 103.548 337.487 97.464 333.486C92.8662 330.469 85.6254 329.739 79.8397 328.993C74.0197 328.242 60.6714 328.766 49.0759 329.9C19.3734 332.808 0.331706 340.545 14.3202 349.008C23.9746 354.848 24.7414 364.842 15.0255 365.651C-7.01176 367.5 -4.20789 379.022 19.5 379.207C32.1534 379.306 47.9975 378.426 54.4097 378.508C59.3636 378.573 59.7881 382.776 53.2697 385.923C50.7705 387.129 48.4733 390.171 51.1403 392.376C56.7788 397.034 69.641 396.791 77.3747 397.099C88.847 397.555 100.453 397.462 111.856 396.36C142.507 393.393 144.935 386.078 128.642 379.83C120.525 376.717 118.851 375.628 130.864 372.634C138.995 370.607 148.639 370.113 156.451 367.716C176.126 361.681 175.476 351.841 157.04 347.59Z" fill="#E40000"/>
<path d="M246.305 60.7505C246.148 61.2643 245.966 61.7369 245.905 62.0075C245.508 63.7748 245.138 65.5319 244.282 67.1416C244.083 67.5149 243.46 67.6314 243.18 67.2821C242.29 66.1792 241.382 65.066 240.701 63.8296C239.332 64.4564 237.911 65.025 236.463 65.5593C236.319 66.1073 236.161 66.6416 236.038 67.0834C235.603 68.6555 235.063 70.1865 234.272 71.6181C234.005 72.1045 233.347 72.036 233.063 71.6181C232.163 70.2858 231.293 68.9055 230.513 67.4876C228.907 67.9328 227.288 68.3267 225.665 68.6897C225.429 69.409 225.025 70.1248 224.771 70.7037C224.076 72.286 223.323 73.8307 222.457 75.3275C222.2 75.7727 221.409 75.8515 221.173 75.3275C220.393 73.5807 219.845 71.7551 219.246 69.9467C217.5 70.2378 215.788 70.4913 214.121 70.7071C213.511 73.1491 212.145 75.5466 210.447 77.2831C210.091 77.6462 209.427 77.4818 209.3 76.9817C208.838 75.1356 207.907 73.3204 207.455 71.4537C206.25 71.5633 205.086 71.6626 204.011 71.7448C203.344 71.7928 202.676 71.8408 202.008 71.8921C201.81 72.5497 201.481 73.2005 201.245 73.7519C200.584 75.2863 199.807 76.7557 198.979 78.2079C198.667 78.7525 197.876 78.6086 197.695 78.0401C197.085 76.1118 196.394 74.2314 195.661 72.3545C193.432 72.5155 191.204 72.6662 188.972 72.8169C188.694 73.4471 188.352 74.0636 188.136 74.526C187.321 76.2796 186.37 77.8859 185.175 79.4066C184.822 79.8553 184.148 79.5437 183.997 79.095C183.552 77.7764 183.21 76.42 182.7 75.1254C182.474 74.5534 182.08 73.9197 181.772 73.2827C180.396 73.3683 179.019 73.4608 177.643 73.543C177.479 74.0944 177.246 74.639 177.02 75.1185C176.246 76.7763 175.281 78.3072 174.179 79.7629C173.843 80.2047 173.169 80.1876 172.984 79.6053C172.391 77.7181 171.775 75.8138 171.248 73.8992C168.841 74.0294 166.431 74.1493 164.021 74.2589C163.863 74.7212 163.675 75.1767 163.514 75.5706C162.877 77.1633 162.025 78.6463 160.991 80.0163C160.69 80.4136 159.964 80.4582 159.834 79.8656C159.44 78.0743 159.036 76.2899 158.639 74.4986C156.451 74.5876 154.264 74.663 152.076 74.7349C151.621 76.7899 150.351 78.821 149.447 80.5712C149.163 81.1226 148.369 80.9411 148.197 80.4068C147.626 78.6052 147.098 76.7557 146.814 74.8788C144.514 74.937 142.213 74.9849 139.912 75.0192C139.214 77.0228 138.269 78.9272 137.355 80.8452C137.119 81.3452 136.376 81.2767 136.119 80.8452C135.058 79.0539 134.623 77.0674 134.236 75.074C133.641 75.0774 133.045 75.0877 132.453 75.0911C130.642 75.0945 128.772 75.1151 126.872 75.1356C126.328 77.2592 125.291 79.2388 124.13 81.0815C123.836 81.5473 123.089 81.4857 122.942 80.924C122.435 79.0231 121.994 77.105 121.672 75.1665C119.077 75.163 116.441 75.1288 113.798 75.0192C113.582 75.9679 113 76.992 112.637 77.6976C111.994 78.958 111.261 80.1465 110.347 81.2254C110.032 81.5987 109.32 81.4069 109.227 80.9308C108.834 78.8552 108.635 76.7488 108.313 74.663C105.287 74.3924 102.291 73.9848 99.3745 73.3683C98.8678 75.5569 97.8715 77.7729 96.4782 79.4683C95.9954 80.054 95.1806 79.5197 95.1259 78.91C94.9342 76.6701 95.0437 74.4027 94.7493 72.1764C90.2337 70.803 85.9953 68.8302 82.2842 65.9429C82.1541 65.8435 82.2945 65.6106 82.4451 65.6654C100.23 72.2792 117.82 72.3134 136.574 71.8031C155.38 71.2928 174.127 70.0255 192.905 68.9843C213.34 67.854 239.592 67.2512 250.78 50.0575C255.734 43.6493 257.449 34.9566 253.563 27.4866C251.694 23.8971 247.699 22.5305 244.155 23.6026C237.791 25.5309 231.731 25.548 226.24 24.8904C226.158 22.349 224.587 20.0714 222.221 19.1089C220.841 18.5438 219.455 19.0336 218.212 19.8453C217.144 20.544 211.844 27.0036 210.519 29.247C207.493 34.3846 205.018 39.8955 202.594 45.3892C202.484 45.6393 202.152 45.444 202.186 45.2145C203.241 38.1316 206.51 31.3157 210.656 25.5137C211.389 24.4897 212.145 23.4176 212.943 22.3627C211.207 21.9997 209.557 21.6846 208.106 21.5441C207.883 21.5236 207.654 21.5064 207.431 21.4859C206.551 19.1432 203.991 16.8039 202.022 16.1463C200.112 15.5092 198.475 16.6737 197.109 18.1088C196.346 18.9103 188.554 28.5278 185.969 41.3271C185.931 41.5121 185.603 41.4196 185.617 41.2312C185.997 35.6244 188.366 27.0276 192.45 20.3317C190.95 20.2323 189.451 20.1296 187.945 20.044C187.547 18.1602 185.695 16.0469 184.281 15.6873C182.166 15.1496 180.351 16.0195 178.838 17.3553C177.369 19.0952 175.976 20.9036 174.839 22.9724C171.919 28.288 170.077 34.0078 167.715 39.5701C167.643 39.7413 167.345 39.6591 167.362 39.4742C167.968 33.6619 170.508 25.7535 174.555 19.4583C172.624 19.3898 170.693 19.3144 168.766 19.2665C166.695 19.2117 162.994 18.8452 158.29 18.2698C153.377 10.2073 141.874 8.53242 133.969 13.6152C134.541 13.7248 135.109 13.8344 135.681 13.9337C138.817 14.4783 142.1 14.7523 145.089 15.8791C145.298 15.9579 145.263 16.2525 145.037 16.2696C140.847 16.5778 107.937 10.7382 99.2136 9.17634C96.3994 8.67286 93.6024 8.2276 90.8293 7.844C77.6282 -0.913814 56.9022 -3.30791 44.6939 5.68623C44.4474 5.86776 44.5844 6.28561 44.9096 6.19656C55.3034 3.3572 64.0231 3.10717 74.5299 5.71362C75.5228 5.96022 76.5019 6.24792 77.4673 6.56645C71.1989 6.27532 65.1529 6.48768 59.4425 7.40558C47.6724 5.50127 33.7078 7.2412 27.3161 15.8517C27.2065 16.0024 27.4085 16.136 27.5421 16.0778C33.2148 13.6152 38.9972 12.3513 44.8548 11.7759C42.0201 13.1048 39.3258 14.7146 36.7958 16.6429C26.6006 19.1466 17.0079 27.3222 11.4275 35.3025C11.2735 35.5251 11.5713 35.7923 11.787 35.6621C17.2167 32.3981 22.1363 28.7059 27.7954 25.8289C25.4263 29.045 23.3208 32.7577 21.4858 36.9773C14.4539 42.9985 9.26727 50.7802 9.31863 59.1476C9.31863 59.3326 9.58224 59.4764 9.71233 59.3086C12.523 55.6952 14.899 51.9242 17.5762 48.3313C16.5525 52.1948 15.7138 56.4076 15.0565 60.9457C9.6781 65.9668 5.74789 72.4333 5.05634 79.6978C5.02553 80.0095 5.4295 80.03 5.57671 79.8382C8.53464 75.9885 11.1228 72.101 14.1526 68.4465C14.1458 68.5253 14.1355 68.6007 14.1253 68.6795C13.8 72.2723 13.4885 76.1871 13.1872 80.3246C8.48671 85.8629 5.22751 92.3841 5.53221 99.7205C5.5459 100.032 5.98754 100.193 6.14502 99.8884C8.27445 95.7646 10.243 91.8395 12.6531 88.0686C12.4032 91.908 12.1602 95.8742 11.9274 99.9295C6.38124 107.526 2.8105 116.277 4.63182 125.059C4.6729 125.251 4.92624 125.216 4.98102 125.059C6.99063 119.555 8.84618 114.311 11.4207 109.204C11.1057 115.209 10.8113 121.281 10.5408 127.254C5.79924 134.173 3.03988 142.314 4.47434 150.397C4.53596 150.74 5.05976 150.712 5.14193 150.397C6.45656 145.212 7.95606 140.482 10.1608 135.903C9.97594 140.16 9.80477 144.314 9.64728 148.301C3.8718 157.069 0.451696 167.499 2.38599 177.267C2.44761 177.582 2.95429 177.578 3.02276 177.267C4.42641 170.53 6.57981 164.574 9.23304 158.939C9.03105 164.265 8.85645 169.057 8.70924 173.143C4.13199 180.825 1.23226 189.302 1.46848 197.731C1.47191 197.899 1.72867 197.998 1.80741 197.82C4.08748 192.779 6.0697 187.696 8.36004 182.73C8.33265 183.425 8.30869 184.069 8.28815 184.607C8.16832 187.61 8.14436 190.614 8.17175 193.621C3.34115 202.407 0.574943 212.305 1.29046 221.967C1.31785 222.361 1.88958 222.474 2.00255 222.063C3.72459 215.699 5.91564 209.602 8.5004 203.708C8.6887 207.363 8.93519 211.02 9.22962 214.675C4.70372 224.008 2.50923 234.431 4.3374 244.23C4.42641 244.702 5.20013 244.702 5.28914 244.23C6.53188 237.541 8.13066 231.3 10.1574 225.313C10.9071 233.345 11.698 241.37 12.1978 249.367C13.4063 268.65 11.7322 287.978 10.7223 307.237C10.0068 320.824 7.8157 335.216 10.5922 348.652C13.2043 361.27 30.9382 364.26 44.7795 361.955C51.7977 360.787 76.2725 357.632 43.0609 346.597C31.1881 342.655 31.0923 332.578 31.8112 321.577C33.0471 302.626 35.3443 283.583 36.8677 264.619C37.1005 261.714 37.8674 227.152 41.3149 215.014C41.4347 214.589 42.0304 214.699 42.0578 215.113C42.674 224.652 41.8353 234.115 41.6744 243.675C41.6127 247.432 41.6162 251.217 41.5306 254.998C49.5964 258.666 59.576 260.159 65.7931 260.653C68.0732 260.834 92.2364 260.43 110.607 254.659C110.874 254.573 111.035 254.95 110.799 255.111C107.642 257.231 104.044 258.957 100.206 260.355C99.6175 271.335 98.9842 282.316 98.3269 293.29C97.2621 311.052 92.904 330.705 96.4474 348.364C98.1009 356.605 102.771 359.938 110.967 360.897C120.597 362.023 130.943 363.619 140.512 361.722C144.839 360.862 156.229 360.03 142.627 353.207C136.551 350.156 130.994 343.696 125.602 340.172C114.849 333.147 119.036 306.051 119.984 291.341C121.655 265.372 125.842 232.927 128.163 204.078C126.773 207.345 123.784 210.627 115.684 212.37C104.493 214.781 86.591 214.997 75.0743 211.363C66.3683 208.616 55.6287 201.105 51.5204 176.417C50.4968 170.266 54.8447 163.947 64.2662 167.81C71.1372 170.626 84.5609 171.252 91.9796 171.841C102.271 172.66 111.963 172.064 121.757 170.506C127.156 169.646 130.018 168.279 130.214 162.817C130.535 153.805 130.891 144.794 131.378 135.79C124.644 133.57 118.337 129.799 114.25 125.915C114.13 125.802 114.263 125.562 114.411 125.638C123.356 130.388 129.392 132.389 133.38 133.156C142.203 134.855 143.976 133.707 151.053 126.251C158.17 118.757 164.528 117.945 173.169 116.596C173.696 116.513 173.665 115.801 173.306 115.558C165.873 110.537 158.218 107.971 149.991 112.746C145.828 115.161 142.953 119.336 138.885 121.915C137.04 123.086 134.733 122.655 132.336 121.63C132.644 117.853 132.963 114.078 133.24 110.3C133.538 106.194 137.766 100.895 142.247 97.8162C127.499 99.7274 119.073 101.635 104.903 108.985C104.729 109.074 104.568 108.797 104.712 108.653C114.476 98.8471 129.847 95.2577 143.863 93.2404C146.92 92.7985 168.995 89.555 172.864 89.1646C187.126 87.7295 201.666 86.7636 215.85 84.7531C233.118 82.3042 254.604 73.1868 253.964 53.5682C252.047 56.3802 249.393 58.74 246.305 60.7505ZM246.6 27.4044C247.421 26.9214 248.267 27.5071 248.507 28.3394C248.846 29.5039 248.544 30.8705 247.986 31.9151C247.911 32.0556 247.805 32.1481 247.692 32.2166C247.706 32.2577 247.706 32.3022 247.723 32.3433C248.017 33.0762 248.26 33.6516 247.976 34.4085C247.955 34.4668 247.88 34.5147 247.819 34.4736C246.634 33.6105 245.761 32.0932 245.706 30.6033C245.669 29.6409 245.607 27.9866 246.6 27.4044ZM237.13 38.4741C239.359 37.3232 243.125 36.9739 245.2 38.6316C245.624 38.9707 245.36 39.6831 244.891 39.8064C243.673 40.1318 242.403 40.0941 241.16 40.2928C241.927 43.3308 236.98 45.8653 234.864 43.5671C233.231 41.7929 235.552 39.2926 237.13 38.4741Z" fill="#231F20"/>
<path d="M128.012 171.509C106.259 175.236 83.8522 175.51 62.3079 170.992C56.844 169.845 53.797 170.122 55.1802 177.626C57.0699 187.86 60.8221 200.115 70.4696 206.03C80.4218 212.134 93.397 210.38 104.808 210.239C113.106 210.137 121.295 207.797 126.701 201.221C131.61 195.248 134.219 185.699 134.007 177.332C133.849 171.208 131.586 170.9 128.012 171.509Z" fill="#E40000"/>
<path d="M166.893 383.741C165.205 380.135 159.923 379.44 156.578 379.655C145.328 380.388 139.854 389.694 150.186 390.664C155.791 391.191 170.806 392.102 166.893 383.741Z" fill="#E40000"/>
<path d="M94.2732 316.529C89.0729 315.268 82.4929 316.076 79.1276 318.604C77.7102 319.669 77.5082 321.327 78.6654 322.687C80.7503 325.136 84.5093 325.331 87.481 325.393C88.8332 325.42 90.6956 325.447 92.5409 325.245C100.394 324.389 102.428 318.505 94.2732 316.529Z" fill="#E40000"/>
<path d="M157.235 31.3946C151.888 25.7227 138.669 25.3597 133.24 28.6854C133.175 28.7265 133.195 28.8463 133.281 28.8395C135.321 28.6443 137.252 28.4422 139.166 28.3395C137.389 29.2265 135.917 30.5555 135.746 32.5591C135.424 36.313 138.693 39.5256 142.014 40.7655C143.24 41.221 144.774 41.6046 146.403 41.8341C146.318 41.8444 146.229 41.8581 146.146 41.8615C140.641 42.3478 135.944 40.5189 130.857 38.8064C130.549 38.7036 130.296 39.1386 130.539 39.3578C137.54 45.6359 151.186 46.7525 158.379 40.1798C161.905 36.9569 160.423 33.8161 157.235 31.3946Z" fill="white"/>
<path d="M81.0755 132.94C85.9575 134.82 91.4591 135.012 96.5293 136.19C105.554 138.283 107.375 145.746 111.798 152.494C111.856 152.617 111.952 152.679 112.062 152.713C112.069 152.716 112.076 152.713 112.082 152.716C112.165 152.737 112.25 152.74 112.336 152.72C112.367 152.713 112.391 152.696 112.418 152.682C112.493 152.651 112.555 152.613 112.61 152.552C112.616 152.545 112.62 152.535 112.627 152.528C112.668 152.48 112.716 152.435 112.733 152.37C116.078 140.585 109.258 130.306 98.3506 126.309C92.8627 124.299 86.851 124.117 81.1611 123.028C73.2768 121.518 69.8395 117.709 65.5122 111.287C65.4163 111.102 65.2315 111.061 65.0706 111.112C64.9131 111.15 64.7796 111.28 64.7761 111.486C64.5913 121.288 72.3901 129.597 81.0755 132.94Z" fill="white"/>
<path d="M43.0607 293.845C43.629 292.906 44.1905 292.149 44.5465 291.115C44.9813 289.855 44.7759 288.039 44.8409 286.714C44.9471 284.498 44.5671 282.453 43.2148 280.676C42.869 280.22 42.085 280.326 42.0816 280.984C42.0679 283.121 41.4345 285.344 41.2702 287.488C41.0716 290.105 41.0134 291.56 42.3212 293.845C42.4821 294.129 42.8964 294.115 43.0607 293.845Z" fill="white"/>
<path d="M129.69 281.607C128.019 283.097 127.964 286.163 127.666 288.252C127.382 290.252 126.824 292.293 128.17 294.002C128.303 294.174 128.635 294.211 128.806 294.085C130.576 292.824 130.58 290.673 130.826 288.68C131.086 286.584 131.84 283.621 130.645 281.731C130.432 281.385 129.991 281.34 129.69 281.607Z" fill="white"/>
<path d="M132.719 180.688C124.958 181.089 117.385 182.644 109.576 182.682C100.655 182.726 92.4108 180.538 83.7904 178.688C83.5679 178.641 83.4515 178.925 83.6398 179.052C96.0398 187.295 119.755 188.048 132.87 181.243C133.13 181.106 133.014 180.675 132.719 180.688Z" fill="white"/>
<path d="M141.025 177.907C140.09 178.106 139.532 178.421 138.714 178.935C138.005 179.376 137.102 179.842 136.321 180.14C136.03 180.25 135.985 180.681 136.321 180.774C137.334 181.055 138.002 180.962 138.984 180.548C139.532 180.318 140.053 180.051 140.549 179.729C141.056 179.404 141.21 179.065 141.545 178.582C141.795 178.226 141.388 177.832 141.025 177.907Z" fill="white"/>
<path d="M118.957 389.133C110.121 390.513 101.377 391.962 92.4279 392.373C83.4823 392.787 74.7044 391.948 65.8306 390.999C65.567 390.972 65.5225 391.39 65.769 391.451C82.3422 395.732 102.88 395.143 119.097 389.64C119.422 389.527 119.289 389.081 118.957 389.133Z" fill="white"/>
<path d="M122.096 388.965C121.959 389.054 121.997 389.324 122.189 389.304C123.294 389.184 124.328 388.886 125.191 388.174C125.273 388.105 125.232 387.941 125.126 387.927C123.955 387.749 123.048 388.345 122.096 388.965Z" fill="white"/>
<path d="M162.48 386.009C160.378 385.992 158.351 386.372 156.26 386.488C154.103 386.608 151.891 386.526 149.793 387.112C149.625 387.16 149.632 387.396 149.793 387.444C153.507 388.57 159.748 389.639 162.631 386.375C162.751 386.238 162.675 386.012 162.48 386.009Z" fill="white"/>
<path d="M88.3779 322.677C90.4115 322.639 92.4382 322.57 94.1226 321.348C94.263 321.249 94.2869 320.958 94.0678 320.927C92.1506 320.646 90.3019 321.091 88.3779 321.201C86.5429 321.307 84.6566 321.156 82.8969 321.755C82.7154 321.817 82.7188 322.057 82.8969 322.122C84.6429 322.731 86.5498 322.711 88.3779 322.677Z" fill="white"/>
<path d="M51.3456 372.573C44.5602 372.497 37.7919 372.977 31.0099 373.168C24.9811 373.336 18.829 372.98 12.8618 373.97C12.7283 373.994 12.7283 374.22 12.8618 374.24C18.8187 375.237 24.9879 374.987 31.0099 374.949C37.8843 374.905 44.7109 374.638 51.4038 372.994C51.6401 372.936 51.5853 372.576 51.3456 372.573Z" fill="white"/>
<path d="M68.5351 333.805C62.2906 332.763 55.7072 333.551 49.4729 334.472C49.3531 334.489 49.3737 334.664 49.4729 334.695C55.6284 336.452 62.3625 335.496 68.5351 334.311C68.7816 334.263 68.7885 333.846 68.5351 333.805Z" fill="white"/>
<path d="M449.933 51.6014C455.294 44.3579 462.301 38.7141 470.254 34.9282C462.048 28.9562 456.586 18.538 451.984 9.17804C449.909 4.94924 447.113 1.90172 445.873 8.47257C443.766 19.6783 444.145 31.3392 447.153 42.3686C447.92 45.1782 448.8 48.4185 449.933 51.6014Z" fill="#E40000"/>
<path d="M570.696 252.012C565.903 245.687 563.029 240.191 561.468 235.331C556.804 220.811 557.061 207.288 565.711 191.73C567.199 189.056 572.135 181.821 577.438 173.835C596.536 145.057 594.648 97.9253 584.356 74.1645C580.369 64.9645 575.494 57.0565 570.211 50.6005C569.808 51.8023 569.327 52.9589 568.654 53.9967C565.365 59.0745 559.788 59.9728 554.147 58.8038C547.066 57.3395 540.817 53.0122 538.881 45.7031C537.919 42.0772 538.816 39.5917 540.561 37.6352C541.735 35.5228 543.597 33.6524 545.803 32.1389C524.753 23.6444 499.757 25.0718 476.633 34.2841C436.115 50.4159 434.362 91.3791 438.165 131.809C439.951 150.8 443.334 152.391 453.247 153.655C481.63 157.26 513.967 153.248 541.539 149.627C542.085 149.557 542.15 150.406 541.665 150.558C536.391 152.19 531.047 153.618 525.662 154.86C525.711 157.846 525.405 161.001 524.676 163.999C522.784 171.755 522.144 170.75 519.026 165.123C517.567 162.489 516.164 159.75 515.121 157.01C501.066 159.508 486.758 160.595 472.475 159.959C472.055 159.938 471.623 159.901 471.203 159.877C470.69 161.604 470.209 163.334 469.671 165.053C467.775 171.087 467.527 171.009 464.787 165.357C463.825 163.38 462.929 161.288 462.778 159.257C460.678 159.056 458.575 158.847 456.488 158.544C451.209 157.773 449.53 159.737 451.923 164.918C456.044 173.839 461.477 181.952 468.012 189.097C479.278 201.41 494.756 205.151 512.488 202.895C524.7 201.336 533.941 195.93 543.002 187.858C543.129 187.743 543.312 187.887 543.235 188.035C540.752 192.776 536.896 196.492 532.286 199.331C539.66 216.869 537.471 229.346 537.618 231.118C538.482 241.553 532.975 252.64 528.939 265.232C529.628 264.805 530.305 264.366 530.965 263.911C535.653 260.663 540.247 257.537 545.876 256.335C546.092 256.29 546.255 256.606 546.035 256.713C539.913 259.781 522.613 271.511 519.943 273.55C517.24 275.609 514.623 277.734 512.121 279.895C512.088 279.899 512.064 279.887 512.035 279.891C503.785 280.917 495.926 279.157 487.777 277.922C486.791 277.775 479.119 276.749 475.822 277.66C470.298 276.651 464.229 275.297 459.036 276.917C455.147 278.131 451.258 280.26 447.696 282.705C447.268 282.721 446.893 282.754 446.713 282.766C445.568 282.844 444.288 283.636 443.354 284.239C442.425 284.842 441.341 285.145 440.452 285.818C438.573 287.241 439.27 290.391 441.642 290.76C443.717 291.085 446.261 289.805 447.814 288.472C448.103 288.222 448.401 287.922 448.686 287.594C451.821 286.761 454.576 285.256 457.964 283.492C462.549 281.105 467.979 282.192 473.148 283.082C471.305 283.796 469.52 284.514 467.853 285.121C462.774 286.975 457.585 291.068 453.333 295.358C452.856 295.514 452.383 295.67 451.919 295.851C450.288 296.482 448.927 297.737 447.508 298.73C444.202 301.039 447.855 305.887 451.193 303.746C452.868 302.668 454.507 301.568 455.583 299.846C455.864 299.39 456.056 298.902 456.276 298.422C461.632 295.248 466.308 290.703 472.341 288.587C473.873 288.045 475.479 287.692 477.081 287.364C476.939 287.647 476.792 287.93 476.661 288.197C475.834 289.879 475.023 291.581 474.069 293.197C473.775 293.693 473.421 294.153 473.05 294.591C472.495 294.714 471.945 294.837 471.436 295.034C470.168 295.527 468.986 296.466 467.824 297.163C466.658 297.865 466.556 299.653 467.302 300.67C468.175 301.86 469.614 301.88 470.788 301.195C472.092 300.44 473.633 299.727 474.472 298.418C474.619 298.193 474.729 297.926 474.86 297.68C476.38 296.7 477.738 295.268 478.659 294.099C479.804 292.647 480.729 291.039 481.871 289.587C482.861 288.328 484.3 287.459 485.193 286.179C487.818 286.95 490.398 287.496 492.306 287.934C496.072 288.8 502.937 290.732 507.759 289.567C507.869 289.608 507.987 289.641 508.122 289.612C513.886 288.505 519.486 285.117 524.737 281.655C524.733 281.679 524.729 281.7 524.724 281.725C531.022 276.868 537.948 272.873 544.763 268.751C544.996 268.612 545.228 268.927 545.049 269.124C541.009 273.447 536.452 276.347 531.548 279.583C529.127 281.179 526.677 283.152 524.121 284.862C520.383 304.058 520.33 318.68 522.792 329.517C524.712 337.954 530.068 343.528 537.039 346.789C535.168 351.055 533.99 355.919 533.007 360.074C532.726 361.264 531.87 367.547 531.744 368.639C531.344 372.063 531.279 375.431 531.662 378.63C531.626 381.239 531.89 383.729 532.579 385.948C530.5 386.854 528.483 387.826 526.318 388.568C524.741 389.11 522.434 389.897 521.961 391.673C521.912 391.862 521.985 392.121 522.177 392.207C523.689 392.883 525.654 392.149 527.195 391.768C528.018 391.563 528.85 391.44 529.685 391.333C528.625 392.445 527.537 393.552 526.754 394.869C526.441 395.402 526.848 396.034 527.431 396.058C531.198 396.206 534.434 393.359 536.366 390.365C537.479 388.642 538.412 386.768 538.563 385.488C538.914 382.551 538.881 373.954 538.869 370.977C538.861 369.43 540.165 363.893 540.736 362.449C541.849 359.648 543.043 356.182 543.589 354.467C544.127 352.794 544.69 351.116 545.24 349.431C548.452 350.091 551.819 350.382 555.223 350.374C554.868 344.804 554.885 339.172 555.765 333.713C555.785 333.582 555.965 333.631 555.977 333.742C556.397 337.564 556.552 341.412 556.739 345.259C556.821 346.953 557.848 361.822 562.813 376.805C563.4 379.081 564.044 381.251 564.729 383.277C565.862 386.628 566.31 387.055 564.492 388.351C563.506 389.057 562.45 389.655 561.423 390.295C559.723 391.353 557.84 392.765 557.016 394.664C556.845 395.053 557.033 395.664 557.559 395.611C559.629 395.414 561.549 394.594 563.412 393.716C563.803 393.532 564.28 393.31 564.778 393.06C564.187 394.545 563.453 395.96 563.367 397.588C563.359 397.789 563.534 397.916 563.71 397.937C572.135 398.741 571.393 384.491 568.948 374.057C568.495 370.907 567.965 367.757 567.488 364.619C567.488 364.611 567.488 364.603 567.488 364.59C567.427 362.691 567.232 360.813 566.967 358.95C567.354 355.768 567.191 352.462 567.028 349.139V349.123C570.158 348.458 573.207 347.581 576.057 346.457C593.813 339.443 589.496 309.755 587.311 292.368C586.023 282.077 578.054 261.725 570.696 252.012Z" fill="#231F20"/>
<path d="M468.558 253.723C468.37 253.85 468.171 253.973 467.967 254.092C467.934 254.1 467.889 254.096 467.853 254.1C466.369 254.367 464.848 255.068 463.462 255.655C461.09 256.664 461.763 260.449 464.465 260.175C467.086 259.908 469.699 258.907 471.415 256.951C472.557 256.516 473.608 255.934 474.33 255.417C475.875 254.313 477.945 252.164 479.038 249.912C481.732 251.274 484.773 252.176 487.268 252.956C493.415 254.892 499.664 256.893 505.676 255.203C505.782 255.232 505.888 255.253 506.006 255.249C514.204 254.998 522.34 254.055 530.484 253.149C532.237 252.956 533.713 245.044 533.285 245.023C528.397 244.761 523.567 245.113 518.504 245.807C513.727 246.459 508.24 247.201 503.98 249.765C503.952 249.761 503.927 249.757 503.903 249.748C500.524 248.346 496.924 247.919 492.828 247.021C488.205 246.003 482.735 243.62 477.632 243.083C476.474 242.775 475.304 242.542 474.126 242.415C471.448 240.159 467.266 238.99 464.253 237.866C459.798 236.205 455.991 237.087 452.004 238.116C448.556 237.829 445.128 237.431 442.042 239.453C440.819 240.257 441.365 242.058 442.67 242.361C445.234 242.956 447.83 242.743 450.202 241.857C454.629 242.271 459.17 241.754 463.568 243.346C464.543 243.702 465.509 244.203 466.467 244.724C465.073 244.982 463.744 245.249 462.57 245.421C459.786 245.831 456.814 246.762 453.932 247.821C452.632 247.55 451.348 247.328 449.974 247.488C448.14 247.697 445.723 248.079 444.5 249.543C443.281 251.008 443.917 252.837 445.38 253.764C447.096 254.851 450.096 254.035 451.861 253.341C452.632 253.042 453.268 252.562 453.851 252.016C456.313 251.684 458.84 250.741 461.139 250.314C464.424 249.703 468.676 250.331 472.41 249.966C472.194 250.294 471.966 250.614 471.725 250.909C470.828 252.004 469.703 252.919 468.558 253.723Z" fill="#231F20"/>
<path d="M559.935 5.74486C556.609 16.9711 552.451 29.7067 543.508 36.7164C538.555 40.6007 539.762 49.9689 547.784 54.4643C559.303 60.9162 566.494 56.5151 567.517 53.5783C569.314 48.4185 569.795 42.4259 570.26 37.6434C571.377 26.2613 569.795 14.7029 565.837 4.01398C563.514 -2.25335 561.272 1.22894 559.935 5.74486Z" fill="#E40000"/>
<path d="M542.036 117.941C533.978 133.589 515.793 142.998 501.16 129.41C499.949 128.29 498.93 127.064 498.037 125.772C501.469 130.017 505.574 132.625 509.834 133.692C512.3 134.504 515.023 134.709 518.027 134.069C527.859 131.977 535.021 124.315 538.946 114.603C545.623 98.0895 542.953 75.6493 528.169 64.5789C516.678 55.9737 502.297 63.5822 495.147 76.6214C491.711 82.8846 489.815 90.1486 489.53 97.4578C489.506 97.6916 489.477 97.9254 489.457 98.1551C488.328 110.136 489.897 123.052 498.738 131.842C513.727 146.743 536.7 136.046 542.823 118.274C542.982 117.81 542.26 117.507 542.036 117.941Z" fill="white"/>
<path d="M494.287 73.8692C498.926 66.2648 503.707 60.5184 512.846 58.7629C522.523 56.9007 529.396 62.2739 536.354 67.9957C536.554 68.1598 536.819 67.9588 536.709 67.7209C528.279 49.8869 497.956 55.338 494.071 73.779C494.047 73.9103 494.218 73.9882 494.287 73.8692Z" fill="white"/>
<path d="M497.829 135.029C497.772 134.988 497.699 135.066 497.736 135.123C502.908 143.179 517.86 145.554 525.479 140.226C525.633 140.119 525.544 139.832 525.344 139.902C514.941 143.561 506.61 141.001 497.829 135.029Z" fill="white"/>
<path d="M531.577 136.284C530.195 137.252 528.764 138.216 527.488 139.319C527.411 139.389 527.468 139.553 527.578 139.54C529.412 139.303 530.814 138.015 531.789 136.501C531.878 136.37 531.707 136.19 531.577 136.284Z" fill="white"/>
<path d="M543.235 79.5049C546.536 91.7442 546.398 101.699 544.156 114.086C544.115 114.299 544.425 114.472 544.531 114.242C549.194 104.25 548.33 89.1889 543.573 79.3613C543.483 79.1686 543.182 79.3039 543.235 79.5049Z" fill="white"/>
<path d="M539.399 71.7483C539.44 70.7559 538.6 69.3 537.65 68.9432C537.556 68.9063 537.471 69.0129 537.495 69.099C537.715 70.0054 538.315 71.3916 539.077 71.9329C539.215 72.0395 539.391 71.9001 539.399 71.7483Z" fill="white"/>
<path d="M481.398 95.3044C478.549 87.9624 473.352 82.4539 466.279 82.5072C456.839 82.5769 449.624 91.9861 447.83 101.953C445.87 112.868 449.595 124.278 456.496 129.848C458.975 132.453 462.195 133.93 466.181 133.601C468.542 133.405 470.665 132.711 472.577 131.666C470.69 133.089 468.574 134.221 466.259 134.947C458.783 137.297 453.186 132.375 449.253 126.633C449.098 126.411 448.674 126.547 448.788 126.834C454.621 141.468 471.004 139.007 479.181 128.077C484.251 121.292 485.853 112.08 484.5 103.869C484.064 101.215 482.98 98.1509 481.398 95.3044Z" fill="white"/>
<path d="M449.746 87.7904C453.492 83.8282 456.773 80.7314 462.252 79.4312C469.748 77.6511 474.595 82.2326 479.393 87.1751C479.596 87.3843 480.008 87.171 479.898 86.8757C475.068 73.5945 454.242 74.8538 449.546 87.6755C449.51 87.7863 449.669 87.8724 449.746 87.7904Z" fill="white"/>
<path d="M483.053 125.427C480.693 129.147 478.023 132.572 474.485 135.226C471.375 137.56 468.02 138.228 464.372 139.127C464.266 139.151 464.27 139.307 464.372 139.332C472.251 141.522 481.105 132.244 483.391 125.567C483.465 125.361 483.163 125.255 483.053 125.427Z" fill="white"/>
<path d="M445.066 103.032C445.062 102.905 444.895 102.893 444.854 103.004C442.853 108.516 443.676 119.845 447.92 124.18C448.103 124.369 448.372 124.172 448.327 123.938C447.598 119.997 445.812 116.477 445.307 112.388C444.924 109.263 445.14 106.166 445.066 103.032Z" fill="white"/>
<path d="M448.038 92.0186C448.433 91.7233 448.556 91.3665 448.698 90.899C448.894 90.2674 449.326 89.8204 449.387 89.1683C449.416 88.8731 449.073 88.7623 448.857 88.8607C447.969 89.2709 446.978 91.1697 447.798 91.9899C447.859 92.0432 447.969 92.0678 448.038 92.0186Z" fill="white"/>
<path d="M454.209 58.5619C458.893 55.2437 462.737 50.9902 467.669 47.8648C473.107 44.4276 479.238 42.4752 484.712 39.1529C485.152 38.8863 484.936 38.271 484.463 38.2341C477.795 37.6968 471.379 41.3924 465.969 44.9444C461.278 48.0288 455.269 52.5202 453.745 58.2051C453.684 58.4553 453.977 58.7301 454.209 58.5619Z" fill="white"/>
<path d="M493.268 36.5398C493.46 36.3102 493.452 35.9575 493.174 35.7976C491.898 35.0635 490.859 35.3382 489.526 35.8017C488.556 36.138 487.345 36.872 487.19 37.9834C487.158 38.209 487.239 38.4633 487.492 38.5166C488.385 38.7176 489.322 38.4223 490.174 38.1598C491.413 37.7743 492.396 37.5651 493.268 36.5398Z" fill="white"/>
<path d="M581.873 86.8838C581.772 86.6705 581.421 86.769 581.433 87.0027C582.46 106.49 583.463 123.827 578.763 143.109C576.444 152.629 573.57 162.264 570.044 171.402C569.783 172.079 570.753 172.35 571.12 171.858C577.557 163.195 580.769 151.112 583.251 140.845C587.315 124.004 589.724 102.921 581.873 86.8838Z" fill="white"/>
<path d="M581.376 293.345C580.871 301.298 581.804 309.21 581.038 317.208C580.108 326.855 576.758 334.566 572.274 342.971C572.107 343.291 572.441 343.623 572.755 343.455C586.728 336.018 586.545 306.002 581.955 293.263C581.841 292.951 581.396 293.004 581.376 293.345Z" fill="white"/>
<path d="M203.838 207.231C201.643 229.045 208.886 255.556 231.387 263.403C241.214 266.828 252.662 266.364 262.915 266.274C276.997 266.149 291.075 264.946 305.047 263.308C327.676 260.66 351.868 257.05 372.411 246.641C393.23 236.096 392.378 199.667 384.082 181.731C383.75 181.018 382.83 181.577 382.921 182.218C384.78 195.392 385.229 210.442 383.022 223.589C380.789 236.903 371.736 242.811 360.129 247.158C340.645 254.454 319.223 257.374 298.664 259.649C280.139 261.698 261.082 262.992 242.477 261.301C213.616 258.676 209.191 230.916 205.294 207.039C205.155 206.141 203.914 206.461 203.838 207.231Z" fill="#231F20"/>
<path d="M377.655 157.137C351.049 132.43 242.941 140.499 207.407 173.371C199.795 180.411 196.773 191.85 198.561 203.383C202.182 226.702 213.235 225.114 223.522 218.3C225.291 217.127 226.872 215.754 228.614 214.554C237.656 208.318 238.645 220.251 238.863 222.556C239.229 226.457 238.973 231.014 241.866 234.315C251.195 244.981 259.445 241.514 265.563 230.327C269.418 223.291 274.228 208.593 286.967 216.289C293.975 220.526 298.348 229.833 310.007 227.411C317.688 225.815 319.098 220.915 321.75 215.539C328.869 201.123 342.377 209.2 351.204 215.018C365.482 224.431 381.238 217.274 387.198 203.873C393.505 189.703 389.311 167.957 377.655 157.137Z" fill="#E40000"/>
<path d="M301.565 160.963C290.279 161.679 279.701 162.977 269.456 165.158C242.085 170.987 238.52 181.667 269.724 179.256C282.957 178.238 297.88 175.604 304.368 174.605C345.221 168.274 346.228 158.114 301.565 160.963Z" fill="white"/>
<path d="M233.239 176.235C248.215 186.319 273.753 182.49 290.422 180.392C308.913 178.064 335.062 174.228 348.367 159.774C348.774 159.333 348.182 158.684 347.711 158.907C321.667 171.142 269.724 179.26 233.375 175.752C233.141 175.725 233.05 176.106 233.239 176.235Z" fill="#231F20"/>
<path d="M344.814 185.052C344.663 186.862 346.753 188.277 348.231 189.073C349.782 189.906 351.166 187.5 349.604 186.723C348.692 186.27 347.828 185.734 346.93 185.255C346.217 184.874 345.844 184.731 345.085 184.78C344.927 184.791 344.825 184.897 344.814 185.052Z" fill="white"/>
<path d="M360.604 167.663C361.672 168.723 364.271 170.115 365.761 169.496C366.56 169.161 366.847 168.312 366.255 167.621C365.629 166.886 364.663 166.769 363.746 166.618C362.796 166.456 361.864 166.294 360.91 166.512C360.397 166.626 360.246 167.308 360.604 167.663Z" fill="white"/>
<path d="M363.803 179.792C364.557 180.935 366.036 181.886 367.164 182.633C368.394 183.447 369.914 181.512 368.752 180.581C367.583 179.649 365.693 178.562 364.139 178.97C363.799 179.057 363.599 179.49 363.803 179.792Z" fill="white"/>
<path d="M316.073 194.551C315.273 195.249 315.651 196.576 315.869 197.47C316.167 198.674 316.345 200.175 317.227 201.084C317.782 201.654 318.861 201.405 319.046 200.605C319.325 199.39 318.699 198.334 318.254 197.221C317.914 196.361 317.673 194.89 316.752 194.464C316.507 194.351 316.277 194.37 316.073 194.551Z" fill="white"/>
<path d="M296.82 194.732C296.443 195.732 296.658 196.833 296.793 197.867C296.914 198.787 296.669 199.772 297.42 200.451C297.695 200.7 298.189 200.847 298.521 200.59C299.453 199.878 299.302 199.04 299.128 197.957C298.943 196.814 298.74 195.528 298.049 194.574C297.691 194.087 297.031 194.166 296.82 194.732Z" fill="white"/>
<path d="M273.247 194.898C272.293 195.702 272.564 197.863 272.644 198.961C272.742 200.326 274.918 200.281 274.749 198.961C274.598 197.822 274.922 195.49 273.734 194.834C273.564 194.74 273.391 194.777 273.247 194.898Z" fill="white"/>
<path d="M259.494 197.068C258.588 198.241 258.053 200.131 258.641 201.523C259.007 202.39 260.15 202.107 260.584 201.523C261.41 200.41 261.063 198.459 260.686 197.218C260.512 196.634 259.829 196.634 259.494 197.068Z" fill="white"/>
<path d="M231.372 191.088C230.157 191.804 229.15 193.174 228.565 194.437C227.728 196.252 230.063 197.614 231.232 195.995C232.111 194.781 232.85 193.057 232.488 191.54C232.371 191.061 231.783 190.846 231.372 191.088Z" fill="white"/>
<path d="M222.605 184.433C220.723 184.61 219.327 186.281 218.112 187.605C216.766 189.076 219.082 191.268 220.263 189.755C221.406 188.288 222.911 186.885 223.152 184.976C223.182 184.697 222.873 184.406 222.605 184.433Z" fill="white"/>
<path d="M216.611 176.552C215.129 175.59 212.235 176.94 212.364 178.789C212.413 179.502 212.911 180.06 213.65 180.075C215 180.109 216.543 178.362 216.826 177.084C216.875 176.869 216.796 176.672 216.611 176.552Z" fill="white"/>
<path d="M216.679 201.682C215.996 201.829 215.362 202.021 214.77 202.617C214.155 203.232 213.563 203.881 212.929 204.477C211.62 205.714 213.627 207.729 214.902 206.45C216.121 205.231 217.211 203.794 217.162 202.048C217.154 201.795 216.924 201.633 216.679 201.682Z" fill="white"/>
<path d="M210.779 193.955C209.199 194.57 208.38 195.675 207.844 197.271C207.305 198.87 209.829 199.549 210.361 197.965C210.779 196.72 211.085 195.588 211.217 194.287C211.236 194.08 210.979 193.88 210.779 193.955Z" fill="white"/>
<path d="M245.318 201.689C244.371 201.904 243.99 203.134 243.681 203.926C243.198 205.16 242.824 206.808 243.869 207.842C244.186 208.159 244.805 208.302 245.189 208.011C246.495 207.031 246.332 205.378 246.287 203.888C246.272 203.391 246.257 201.474 245.318 201.689Z" fill="white"/>
<path d="M250.12 219.723C249.237 220.021 248.879 221.356 248.728 222.178C248.494 223.446 248.279 224.743 248.237 226.034C248.181 227.693 250.859 227.697 250.81 226.034C250.78 224.97 250.882 223.906 250.991 222.85C251.078 222.016 251.331 220.485 250.614 219.855C250.482 219.738 250.297 219.662 250.12 219.723Z" fill="white"/>
<path d="M259.237 211.396C258.388 211.924 258.211 212.996 257.989 213.901C257.725 214.972 257.525 216.519 257.936 217.549C258.249 218.341 259.546 218.812 259.995 217.817C260.463 216.787 260.339 215.753 260.35 214.64C260.358 213.705 260.437 212.343 259.86 211.559C259.712 211.366 259.463 211.257 259.237 211.396Z" fill="white"/>
<path d="M288.559 200.761C288 201.542 288.015 202.741 288.061 203.662C288.11 204.733 288.012 206.148 289.03 206.759C289.358 206.955 289.796 206.891 290.06 206.623C290.86 205.831 290.449 204.763 290.301 203.764C290.154 202.749 289.886 201.395 289.072 200.693C288.898 200.55 288.683 200.58 288.559 200.761Z" fill="white"/>
<path d="M302.84 210.664C302.489 211.54 302.531 212.362 302.588 213.29C302.652 214.335 302.591 215.383 303.078 216.323C303.538 217.213 304.972 217.002 305.202 216.047C305.42 215.127 305.171 214.282 305.006 213.362C304.821 212.332 304.685 211.37 304.066 210.502C303.708 210.008 303.059 210.114 302.84 210.664Z" fill="white"/>
<path d="M325.983 185.085C326.251 186.477 327.043 187.726 327.858 188.865C328.431 189.668 329.559 191.083 330.706 190.408C332.441 189.393 327.39 185.176 326.567 184.633C326.251 184.425 325.922 184.768 325.983 185.085Z" fill="white"/>
<path d="M349.472 203.296C349.823 204.839 351.2 206.042 352.479 206.849C353.867 207.728 355.138 205.529 353.758 204.658C352.618 203.937 351.358 203.058 350.031 202.738C349.684 202.655 349.393 202.956 349.472 203.296Z" fill="white"/>
<path d="M359.616 196.237C360.223 197.897 362.505 201.522 364.652 200.756C364.908 200.662 365.184 200.466 365.233 200.175C365.463 198.844 364.573 198.052 363.603 197.294C362.645 196.539 361.543 195.721 360.306 195.551C359.929 195.494 359.45 195.788 359.616 196.237Z" fill="white"/>
<path d="M374.026 194.057C374.712 194.732 375.369 195.388 376.097 196.022C376.779 196.622 377.379 197.52 378.386 197.391C378.899 197.323 379.213 197.037 379.265 196.512C379.378 195.384 378.258 194.713 377.47 194.094C376.542 193.37 375.659 192.97 374.471 192.982C373.924 192.982 373.626 193.664 374.026 194.057Z" fill="white"/>
<path d="M376.063 178.69C376.874 179.683 378.832 180.403 380.095 180.346C381.087 180.301 381.653 178.841 380.638 178.343C379.477 177.778 377.549 177.547 376.285 177.842C375.885 177.936 375.836 178.415 376.063 178.69Z" fill="white"/>
<path d="M348.039 172.262C348.914 173.265 349.537 174.046 350.804 174.612C351.902 175.106 353.041 175.604 354.01 174.638C354.146 174.503 354.15 174.318 354.075 174.156C353.58 173.107 352.634 173.016 351.619 172.688C351.11 172.526 350.623 172.345 350.102 172.209C349.491 172.051 348.861 172.043 348.258 171.896C348.031 171.839 347.896 172.096 348.039 172.262Z" fill="white"/>
<path d="M357.635 157.356C358.827 158.491 361.151 158.804 362.607 158.125C363.437 157.74 363.139 156.511 362.366 156.284C361.027 155.892 358.835 156.198 357.677 157.009C357.568 157.095 357.526 157.254 357.635 157.356Z" fill="white"/>
<path d="M305.439 185.21C304.176 186.379 304.251 189.963 305.522 191.083C306.156 191.641 307.386 191.321 307.318 190.34C307.254 189.371 306.767 188.461 306.635 187.481C306.533 186.738 306.382 185.806 305.903 185.21C305.786 185.066 305.56 185.097 305.439 185.21Z" fill="white"/>
<path d="M283.809 187.64C283.021 188.956 282.297 191.782 283.383 193.076C283.745 193.509 284.522 193.374 284.779 192.895C285.152 192.197 284.975 191.272 284.862 190.51C284.718 189.53 284.586 188.643 284.273 187.7C284.205 187.496 283.93 187.444 283.809 187.64Z" fill="white"/>
<path d="M248.456 188.737C247.275 189.76 246.789 191.714 246.781 193.23C246.774 194.52 248.773 194.833 249.063 193.539C249.38 192.121 249.629 190.405 249.335 188.967C249.248 188.552 248.732 188.496 248.456 188.737Z" fill="white"/>
<path d="M223.439 207.665C222.794 208.253 222.1 209.408 222.013 210.283C221.934 211.094 222.997 211.652 223.646 211.218C224.457 210.679 224.978 209.238 224.978 208.303C224.974 207.488 224.008 207.144 223.439 207.665Z" fill="white"/>
<path d="M210.425 212.894C209.093 213.234 208.425 215.346 209.221 216.399C209.55 216.832 210.221 217.059 210.643 216.583C211.319 215.818 211.371 214.92 211.304 213.939C211.277 213.524 210.975 212.751 210.425 212.894Z" fill="white"/>
<path d="M256.378 228.732C254.963 229.471 254.039 231.663 254.628 233.172C254.993 234.111 256.227 234.152 256.578 233.172C256.808 232.527 256.744 231.882 256.838 231.21C256.94 230.482 257.076 229.829 257.008 229.09C256.978 228.777 256.676 228.581 256.378 228.732Z" fill="white"/>
<path d="M312.697 209.608C312.716 210.272 312.95 210.921 313.104 211.566C313.259 212.233 313.406 213.229 314.078 213.576C314.515 213.803 315.017 213.682 315.285 213.259C315.941 212.222 314.591 209.898 313.851 209.133C313.448 208.706 312.678 209.016 312.697 209.608Z" fill="white"/>
<path d="M336.99 195.728C337.216 196.385 337.33 196.826 337.948 197.26C338.582 197.701 339.227 198.173 339.997 198.339C340.325 198.41 340.698 198.354 340.932 198.09C341.509 197.452 341.106 196.819 340.487 196.411C340.008 196.098 339.416 195.898 338.91 195.611C338.333 195.287 337.914 195.347 337.307 195.314C337.1 195.302 336.922 195.536 336.99 195.728Z" fill="white"/>
<path d="M233.322 168.855C232.153 168.154 229.395 168.719 228.509 169.753C227.879 170.492 228.241 171.801 229.342 171.767C230.101 171.748 230.764 171.318 231.447 171.028C232.153 170.726 232.96 170.458 233.447 169.843C233.695 169.527 233.695 169.081 233.322 168.855Z" fill="white"/>
<path d="M242.692 162.622C242.379 161.14 240.587 160.378 239.297 159.895C237.992 159.408 237.464 161.272 238.418 161.973C239.535 162.8 241.214 163.577 242.556 162.947C242.681 162.89 242.719 162.739 242.692 162.622Z" fill="white"/>
<path d="M257.559 157.608C257.566 157.635 257.702 157.031 257.649 156.824C257.54 156.371 257.408 155.948 257.14 155.56C256.532 154.67 256.167 153.742 254.975 153.61C254.431 153.549 253.881 154.04 253.756 154.538C253.473 155.658 254.36 156.42 255.046 157.174C255.386 157.548 255.77 157.77 256.234 157.955C256.672 158.129 256.906 157.918 257.298 157.955C257.479 157.97 257.6 157.767 257.559 157.608Z" fill="white"/>
<path d="M276.476 153.304C277.604 152.76 277.4 151.006 277.28 150.01C277.076 148.336 274.428 148.321 274.632 150.01C274.703 150.629 275.141 153.945 276.476 153.304Z" fill="white"/>
<path d="M299.03 152.402C300.075 151.836 300.603 149.938 300.92 148.871C301.045 148.448 300.913 147.943 300.592 147.634C300.324 147.377 300.075 147.245 299.69 147.26C299.268 147.279 298.785 147.483 298.589 147.89C298.031 149.067 297.118 151.172 298.17 152.292C298.397 152.526 298.759 152.549 299.03 152.402Z" fill="white"/>
<path d="M317.224 152.353C318.257 152.138 318.936 151.489 319.585 150.685C319.955 150.221 320.411 149.803 320.743 149.312C321.147 148.72 321.177 148.128 321.298 147.441C321.339 147.211 321.196 146.943 320.932 146.958C319.547 147.041 318.876 147.468 318.031 148.569C317.25 149.588 316.564 150.568 316.628 151.896C316.647 152.217 316.918 152.421 317.224 152.353Z" fill="white"/>
<path d="M330.438 153.13C332.433 152.802 334.651 151.519 335.398 149.577C335.508 149.294 335.225 148.928 334.927 148.958C332.886 149.162 330.555 150.735 330.17 152.862C330.14 153.036 330.264 153.156 330.438 153.13Z" fill="white"/>
<path d="M342.109 153.545C343.067 153.639 343.973 153.273 344.802 152.836C345.685 152.372 346.624 152.017 346.673 150.889C346.685 150.603 346.511 150.339 346.274 150.195C345.225 149.55 344.146 150.395 343.26 150.961C342.49 151.451 341.815 152.315 341.819 153.255C341.819 153.424 341.951 153.53 342.109 153.545Z" fill="white"/>
<path d="M200.055 172.945C230.399 147.585 267.257 141.265 305.515 138.428C305.722 138.413 305.726 138.111 305.515 138.1C287.08 137.263 268.113 140.334 250.395 145.257C231.968 150.377 213.299 158.816 199.813 172.7C199.651 172.866 199.885 173.084 200.055 172.945Z" fill="#231F20"/>
<path d="M346.919 260.823C367.051 260.344 393.049 248.309 392.321 224.835C392.313 224.556 391.887 224.48 391.823 224.767C389.929 232.95 387.598 240.299 381.502 246.396C372.226 255.665 359.054 257.688 346.888 260.593C346.76 260.623 346.787 260.826 346.919 260.823Z" fill="#231F20"/>
<path d="M392.51 222.846C393.06 222.042 393.302 220.722 392.645 219.938C392.562 219.839 392.385 219.843 392.302 219.938C391.634 220.666 391.917 221.922 392.181 222.804C392.227 222.963 392.423 222.978 392.51 222.846Z" fill="#231F20"/>
<path d="M211.975 255.744C220.308 270.496 242.066 274.672 257.249 270.556C257.43 270.507 257.389 270.243 257.208 270.235C248.607 270.058 240.301 270.45 231.877 268.262C223.801 266.168 217.924 261.339 212.118 255.635C212.043 255.563 211.926 255.654 211.975 255.744Z" fill="#231F20"/>
<path d="M387.557 50.1018C383.159 43.4113 370.414 40.611 363.197 37.7847C362.923 37.6803 362.642 37.5562 362.368 37.4453C368.457 34.9518 377.664 31.3879 379.257 26.4076C379.322 26.2052 379.224 25.918 379.022 25.8266C374.01 23.4833 364.6 28.8423 359.079 31.4924C362.068 23.7118 368.137 12.0997 366.212 4.23424C366.14 3.92093 365.729 3.74471 365.448 3.92748C358.994 8.17024 356.162 20.1609 353.434 27.478C350.791 21.3358 347.522 15.5787 342.171 11.7929C341.545 11.349 340.448 11.93 340.546 12.7263C341.297 18.8098 343.568 24.7757 346.23 30.572C337.642 27.0277 328.826 24.1556 319.729 24.6909C318.659 24.7561 318.241 26.1204 319.181 26.7079C326.614 31.3618 334.934 34.7756 343.346 37.8304C337.009 40.5131 331.032 43.8224 327.142 49.3184C326.692 49.9451 327.279 51.0417 328.075 50.9438C334.164 50.1932 340.128 47.9216 345.923 45.2585C342.38 53.855 339.508 62.6734 340.044 71.7659C340.109 72.8364 341.473 73.2542 342.06 72.3078C347.026 64.3705 350.583 55.415 353.793 46.4138C356.299 52.4712 359.928 62.2622 365.07 63.9071C365.272 63.9724 365.559 63.8745 365.657 63.6721C368 58.6591 362.642 49.2467 359.993 43.7246C367.771 46.7141 379.381 52.7845 387.244 50.859C387.564 50.7872 387.74 50.3759 387.557 50.1018Z" fill="#231F20"/>
<path d="M374.033 295.252C373.36 295.183 373.093 296.153 373.647 296.492C385.933 304.014 394.725 313.181 395.155 328.225C395.547 342.05 387.337 352.888 374.151 356.628C372.282 357.156 369.981 357.33 367.608 357.128C367.82 356.176 367.989 355.192 368.093 354.157C368.779 347.229 368.511 338.557 361.758 334.658C356.606 331.684 350.894 335.707 348.246 340.004C342.082 350.021 348.684 357.406 357.897 361.149C354.401 365.528 348.351 367.143 342.382 367.117C335.922 367.09 326.338 364.242 319.583 359.192C327.629 352.865 331.731 341.79 323.587 332.807C312.896 321.019 303.151 341.07 305.549 350.847C306.129 353.211 307.158 355.408 308.497 357.446C306.172 357.679 303.763 357.463 301.507 356.779C284.277 351.534 281.293 327.539 284.36 312.787C284.512 312.06 283.55 311.763 283.264 312.448C275.778 330.504 279.054 360.12 303.036 364.042C306.419 364.597 309.894 364.065 313.155 362.816C320.076 369.128 330.13 373.042 338.249 374.034C348.958 375.339 359.989 371.979 365.174 363.262C370.544 364.265 375.929 364.128 379.705 362.666C400.148 354.759 406.769 332.417 399.14 312.761C395.004 302.114 384.896 296.362 374.033 295.252ZM311.85 343.217C312.2 341.759 312.792 340.401 313.627 339.145C318.831 330.016 320.36 344.513 320.363 345.28C320.392 349.871 318.31 353.149 315.261 355.162C312.469 351.777 310.982 347.767 311.85 343.217ZM354.001 344.572C354.975 340.758 357.154 340.622 360.538 344.165C361.639 347.305 361.207 351.836 360.604 355.077C360.586 355.173 360.559 355.253 360.538 355.347C356.226 353.381 353.082 349.844 354.001 344.572Z" fill="#231F20"/>
<path d="M193.401 283.715C187.553 283.371 181.978 285.268 176.549 287.534C178.251 283.827 179.709 280.012 180.193 276.123C180.256 275.618 179.56 275.249 179.162 275.531C175.741 277.949 173.72 281.603 172.072 285.479C170.349 280.368 168.353 273.145 164.389 270.54C164.211 270.424 163.954 270.535 163.905 270.734C162.691 275.705 166.489 283.011 168.398 287.948C164.538 286.009 158.819 283.011 155.771 284.436C155.642 284.494 155.58 284.676 155.622 284.808C156.632 287.964 162.459 290.218 166.323 291.8C161.209 293.614 153.145 295.602 150.358 299.843C150.242 300.017 150.354 300.278 150.552 300.328C155.522 301.541 162.828 297.735 167.769 295.83C165.831 299.69 162.832 305.41 164.257 308.454C164.315 308.583 164.497 308.649 164.63 308.607C167.897 307.564 170.196 301.355 171.786 297.511C173.824 303.223 176.085 308.906 179.237 313.938C179.609 314.534 180.475 314.269 180.516 313.59C180.86 307.738 178.963 302.167 176.698 296.733C180.405 298.439 184.223 299.897 188.112 300.378C188.617 300.44 188.99 299.744 188.704 299.342C186.199 295.805 182.38 293.755 178.359 292.081C183.722 290.135 189.023 287.96 193.757 284.995C194.345 284.622 194.08 283.752 193.401 283.715Z" fill="#231F20"/>
</svg>
