<svg width="112" height="156" viewBox="0 0 112 156" fill="none" xmlns="http://www.w3.org/2000/svg">
<path d="M21.6366 173.093C21.4457 173.093 21.2507 173.087 21.0584 173.073C17.736 172.836 15.2034 171.192 13.3185 168.047C11.9206 165.715 10.9141 162.593 10.2417 158.501C8.29413 146.653 7.55084 134.038 7.96682 119.938C8.38279 105.872 9.93348 91.9015 11.24 81.3034C11.2878 80.9181 11.0696 80.5481 10.6972 80.3804C9.35794 79.78 8.16458 79.0081 7.14988 78.089C4.83816 75.9947 2.99014 73.2194 1.94407 70.2751C0.831171 67.1426 0.663426 63.9961 1.45855 61.1734C1.464 61.1542 1.46809 61.135 1.47218 61.1145C2.4937 56.1758 5.51463 52.2189 9.76028 50.2552C12.0256 49.2068 14.4601 48.5744 16.9968 48.3735C17.3787 48.3427 17.706 48.1033 17.8301 47.7628C18.5721 45.7262 19.3645 43.7688 20.1828 41.9434C20.3314 41.6118 20.2578 41.2278 19.9932 40.9666C19.9727 40.9462 19.9141 40.8924 19.9073 40.8847C10.8568 29.7745 6.9712 12.3853 17.181 1.47863C19.4258 10.5458 23.2037 19.9816 33.408 22.9169C33.4353 22.9284 33.4612 22.9386 33.4885 22.9489C33.5989 22.9886 33.7149 23.0065 33.8294 23.0065C34.0476 23.0065 34.2631 22.9374 34.4377 22.8042C35.5697 21.944 36.6444 21.2156 37.7218 20.5781C43.1472 17.3637 49.6078 15.5459 56.9248 15.1747C57.8631 15.1273 58.8083 15.103 59.737 15.103C65.0301 15.103 72.7304 15.8877 79.3614 19.6295C80.4157 20.2248 81.4454 20.8866 82.4219 21.5984C82.4342 21.6073 82.4478 21.6163 82.4614 21.6252L82.561 21.6905C82.786 21.8377 82.9974 21.976 83.2047 22.1219C83.3752 22.2423 83.5798 22.3037 83.7844 22.3037C83.9344 22.3037 84.0844 22.2717 84.2235 22.2051C93.3354 17.8463 96.3468 9.3194 98.3189 1.47607C100.485 3.79822 102.116 6.60681 103.178 9.84169C104.271 13.1687 104.721 16.9336 104.481 20.7266C104.001 28.3177 100.808 35.6989 95.9403 40.4712C95.8844 40.5263 95.8189 40.5724 95.7289 40.6223C95.3511 40.8297 95.1684 41.2496 95.283 41.6451C95.954 43.9481 96.5213 46.2792 96.9414 48.0521C97.0178 48.3773 97.2796 48.6372 97.6206 48.728C101.662 49.8046 105.225 52.1345 107.657 55.2887C110.287 58.7002 111.416 62.8056 110.922 67.1593C110.6 69.9935 109.744 72.4974 108.375 74.6032C106.937 76.814 104.965 78.5281 102.511 79.6994C102.161 79.8671 101.954 80.2166 101.986 80.584C103.369 96.0223 103.778 110.096 103.24 123.61C102.76 135.636 102.146 146.423 99.4645 156.682C98.3039 161.127 94.957 171.593 88.9615 172.796C88.5687 172.876 88.1773 172.916 87.7982 172.916H87.7968C85.0309 172.916 82.4151 170.787 80.0174 166.589C77.928 162.931 76.5014 158.55 75.649 155.932L75.6327 155.88C75.5208 155.538 75.2058 155.288 74.828 155.245C74.1447 155.165 73.4778 155.086 72.8327 155.003C67.8083 154.351 62.3393 154.021 56.577 154.021C55.9469 154.021 55.3032 154.025 54.6622 154.032C49.8792 154.09 43.5946 154.245 37.4 154.935C37.0317 154.976 36.7208 155.211 36.5994 155.54C34.8769 160.241 33.0793 163.907 31.1017 166.747C28.1654 170.958 24.9822 173.093 21.6366 173.093Z" fill="white"/>
<path d="M16.9763 34.6312C18.7398 32.8416 19.9536 30.5079 21.488 28.534C22.4658 27.2769 23.456 26.0889 24.6193 24.9791C25.7063 23.9396 27.0743 23.3034 28.2226 22.3484C28.7518 21.9093 28.6181 21.2014 28.2226 20.7457C28.0821 20.5844 27.8898 20.5332 27.6894 20.4538C27.272 20.2887 26.8301 20.514 26.5151 20.7457C24.0097 22.5763 21.893 24.3147 20.0068 26.7533C18.3893 28.8463 15.9712 31.7983 16.6122 34.5416C16.649 34.6888 16.87 34.7413 16.9763 34.6312Z" fill="#E40000"/>
<path d="M13.0362 26.171C14.9238 25.266 16.0612 23.3087 17.3964 21.8301C18.958 20.1033 20.7024 18.9716 22.6159 17.639C23.7629 16.8402 22.6991 15.0199 21.4716 15.8033C19.419 17.1142 17.5969 18.1434 16.0708 20.0533C14.6769 21.7981 12.8766 23.7478 12.7539 26.02C12.7471 26.1595 12.9176 26.2287 13.0362 26.171Z" fill="#E40000"/>
<path d="M12.1511 15.9274C13.3458 15.4167 14.2473 14.3644 15.397 13.7359C16.8004 12.9678 18.257 12.3968 19.8227 11.9923C21.1047 11.6608 20.551 9.76619 19.2731 10.1233C17.5833 10.5957 15.8689 11.2127 14.4328 12.1882C13.264 12.9831 11.7174 14.2159 11.6915 15.6804C11.6887 15.9146 11.9506 16.0132 12.1511 15.9274Z" fill="#E40000"/>
<path d="M88.2687 20.7009C88.9697 21.4305 89.9681 21.7583 90.8682 22.2293C92.2348 22.9462 93.3995 23.8525 94.492 24.8984C95.7562 26.1081 96.6959 27.6353 97.3737 29.1945C97.9888 30.6065 97.8647 32.2834 98.8317 33.5136C99.2136 34.0001 99.9378 34.0564 100.309 33.5136C102.3 30.6078 98.8494 25.8457 96.9032 23.6311C95.3143 21.8235 90.965 18.3966 88.3274 20.2643C88.1732 20.3757 88.131 20.5575 88.2687 20.7009Z" fill="#E40000"/>
<path d="M92.1993 16.3601C93.7841 16.8786 95.4766 16.9003 97.1133 17.2139C99.3718 17.6466 100.847 18.8128 102.788 19.819C103.687 20.285 104.841 19.3262 104.243 18.4531C102.134 15.3693 95.2407 13.2712 92.1079 16.0362C91.9879 16.1412 92.0602 16.314 92.1993 16.3601Z" fill="#E40000"/>
<path d="M95.6335 9.85044C96.1381 10.3727 97.0642 10.1833 97.7352 10.0924C99.2191 9.89268 100.732 9.96309 102.12 10.5276C103.248 10.9859 104.23 9.428 103.092 8.96459C101.315 8.2426 99.62 8.06595 97.7161 8.38982C97.4242 8.43974 94.9939 9.18733 95.6335 9.85044Z" fill="#E40000"/>
<path d="M46.4204 60.9545C45.0279 64.5453 44.1182 68.4368 44.286 72.2337C44.0405 75.8398 44.4333 79.5202 46.4586 82.5899C49.6173 87.3763 57.1157 87.1689 62.2138 86.3215C68.1369 85.3371 68.3797 78.0096 68.5161 73.6943C68.6961 67.9939 67.3527 44.7033 56.1037 47.9536C50.7588 49.5 48.1266 56.5534 46.4204 60.9545Z" fill="#231F20"/>
<path d="M97.8811 47.8524C97.3737 45.7056 96.835 43.5448 96.2117 41.4031C96.3563 41.3238 96.4995 41.229 96.6345 41.0959C106.997 30.9356 109.2 10.7326 98.3052 0.122952C98.0052 -0.168917 97.5551 0.108873 97.5769 0.445546C95.4889 8.98014 92.6098 17.1691 83.7803 21.3935C83.528 21.2156 83.2688 21.0479 83.0111 20.8789C82.025 20.1608 80.9762 19.4823 79.8565 18.8499C73.0864 15.03 64.6482 13.8728 56.8702 14.2671C49.8532 14.6216 43.1649 16.2768 37.2036 19.8087C36.0184 20.5102 34.9 21.2821 33.8267 22.0976C33.7926 22.0861 33.7653 22.0694 33.7285 22.0592C23.441 19.1226 20.0273 9.27585 17.9215 0.451945C17.9488 0.112712 17.4933 -0.171477 17.1919 0.122952C5.49279 11.566 9.92256 30.1278 19.1476 41.4454C19.1926 41.5004 19.2431 41.5427 19.2922 41.5901C18.418 43.5358 17.631 45.5047 16.915 47.4671C14.351 47.6706 11.7719 48.3107 9.33338 49.4398C4.46036 51.6941 1.52399 56.1079 0.524291 60.9404C-1.24735 67.2348 1.65356 74.3677 6.47885 78.7406C7.62311 79.7787 8.91195 80.5839 10.2813 81.1984C7.10485 106.993 5.04681 132.827 9.28837 158.64C10.3413 165.041 12.8426 173.397 20.9874 173.977C29.8729 174.609 35.1837 162.189 37.5118 155.834C43.2536 155.195 49.0813 155.005 54.6731 154.937C60.6849 154.864 66.7404 155.127 72.7004 155.899C73.355 155.983 74.0288 156.063 74.708 156.142C76.5478 161.79 80.9312 175.332 89.1634 173.68C95.628 172.382 99.0703 161.993 100.403 156.895C103.214 146.135 103.766 134.658 104.205 123.64C104.779 109.255 104.234 94.8433 102.949 80.5046C108.36 77.9226 111.228 73.0184 111.882 67.2527C112.979 57.557 106.265 50.0862 97.8811 47.8524ZM98.4743 2.20827C104.115 13.4094 103.937 28.031 95.0279 37.71C93.5877 33.6277 91.7029 29.7092 88.9493 26.2375C88.1282 25.2019 87.2281 24.2597 86.2707 23.3905C93.9409 19.4964 98.4648 10.3204 98.4743 2.20827ZM17.0282 2.17883C17.0527 11.0258 22.3063 20.9839 31.2517 24.2405C26.9556 28.1551 23.621 32.9543 20.9806 38.0659C12.8985 27.1848 10.8227 14.3119 17.0282 2.17883ZM28.2936 53.0753C29.0914 53.8575 29.9234 54.6179 30.7226 55.409C32.7002 57.8259 33.899 60.9199 33.8908 64.4531C33.8662 76.3698 19.0303 85.0464 8.46052 76.8793C5.73965 74.7773 4.09213 71.7037 3.38565 68.4471C2.44596 63.4994 3.61341 58.247 7.21942 54.5846C8.80421 53.106 10.73 51.9232 12.818 51.0271C18.4098 48.9085 24.2007 49.9544 28.2936 53.0753ZM98.788 148.448C97.7597 155.058 96.1926 161.393 92.3739 167.124C89.9571 170.751 87.1776 172.018 84.1431 168.257C81.3485 164.794 79.566 160.678 78.1189 156.562C80.4839 156.883 82.8419 157.307 84.9532 158.07C85.3091 158.199 85.5437 157.728 85.3078 157.499C82.456 154.733 78.3181 153.691 74.3984 153.094C68.2311 152.157 61.9465 151.892 55.7069 151.881C45.4358 151.86 30.803 151.704 22.4399 158.318C22.1999 158.509 22.4549 158.905 22.7468 158.812C26.5628 157.592 30.5698 156.762 34.6477 156.189C32.0387 162.603 25.1704 176.088 17.0705 170.012C11.8197 166.072 11.6233 156.858 11.0041 151.156C8.48234 127.929 10.0358 105.21 12.8453 82.097C17.5301 83.3106 22.8232 82.5707 27.1384 80.4777C29.5428 79.3128 31.4795 77.5936 32.9866 75.5697C30.1375 80.8169 24.9931 84.1875 18.7071 86.1832C18.5462 86.2344 18.5803 86.4444 18.7467 86.4559C27.8108 87.078 35.4115 78.6279 37.5773 71.1763C38.7243 67.2233 38.3478 62.6353 36.6021 58.8909C36.3184 58.2829 35.9857 57.6479 35.6147 57.0092C32.9225 51.2115 26.6092 47.7539 19.7545 47.4274C20.5046 45.4266 21.3311 43.4514 22.2449 41.5196C22.4604 41.2931 22.5995 41.0217 22.6227 40.7247C26.4183 32.9671 31.7195 26.0032 39.6244 21.2809C44.7511 18.2175 50.8898 17.155 56.8689 16.8388C64.0713 16.4574 71.357 17.4994 77.8039 20.6306C82.8719 23.091 86.9089 26.9595 89.9326 31.4553C92.6698 36.3569 94.0923 41.9562 95.3075 47.3416C90.1017 46.6504 84.5154 47.9548 79.881 51.9335C78.509 53.1112 77.4179 54.5654 76.586 56.1822C75.7609 57.4866 75.0939 58.8807 74.6289 60.3247C71.8344 69.0103 75.2481 82.7179 85.0118 86.4507C85.1332 86.4968 85.245 86.3419 85.1782 86.2472C82.9579 83.0725 80.5534 80.4278 79.0259 77.0482C79.5987 77.7638 80.2302 78.4333 80.9298 79.0427C86.2638 83.6767 93.6518 83.582 100.171 81.5658C101.872 103.694 102.207 126.46 98.788 148.448ZM84.2535 78.2042C78.9223 75.1805 77.3566 68.9476 77.7562 63.3701C77.9648 61.5421 78.4149 59.7512 79.1173 58.0819C81.3826 54.2313 85.4401 51.4137 89.9408 50.0184C93.4649 49.4987 97.2087 49.9608 100.186 51.2447C106.374 53.9138 109.123 60.0789 109.063 66.1416C108.95 77.5577 94.3351 83.9225 84.2535 78.2042Z" fill="#231F20"/>
<path d="M16.2535 86.1461C15.8785 86.1717 15.558 86.1435 15.1979 86.2703C15.0602 86.3189 15.0029 86.4712 15.1106 86.5788C15.6644 87.1241 16.7895 87.0908 17.3337 86.566C17.406 86.4956 17.4046 86.3509 17.2969 86.3048C16.93 86.1461 16.6559 86.1179 16.2535 86.1461Z" fill="#231F20"/>
<path d="M87.4654 87.1228C87.2526 87.0447 87.0508 86.9423 86.8298 86.8898C86.6375 86.845 86.4998 86.9 86.3102 86.8808C86.2188 86.8718 86.1875 86.9858 86.2407 87.0383C86.3825 87.1804 86.4166 87.3071 86.5871 87.43C86.7698 87.5606 86.984 87.6412 87.194 87.7282C87.6182 87.9062 87.9973 88.0701 88.4528 87.9126C88.5688 87.8729 88.6206 87.7398 88.5265 87.6502C88.2169 87.357 87.8664 87.27 87.4654 87.1228Z" fill="#231F20"/>
<path d="M83.2293 95.1865C83.7298 95.7984 84.8795 95.6691 84.8754 94.7678C84.8713 93.8654 83.7625 92.2819 82.6183 92.5635C82.4573 92.6032 82.3619 92.7401 82.3537 92.8886C82.336 93.2061 82.4969 93.5261 82.6046 93.8206C73.0195 97.1386 61.8414 98.3343 51.7381 98.5468C51.6371 98.5493 51.5362 98.5493 51.4367 98.5519C52.2727 94.0228 50.3074 88.9561 45.3457 87.4839C38.9097 85.574 35.3801 92.6236 34.1922 97.2795C31.3609 96.7469 28.5772 96.0288 25.8877 95.0751C25.7132 95.0124 25.6013 95.2402 25.7159 95.3529C31.5136 101.035 42.7735 101.583 50.6033 101.798C62.031 102.113 73.2691 100.45 82.8747 94.549C82.9729 94.7858 83.0874 95.0136 83.2293 95.1865Z" fill="#231F20"/>
<path d="M44.5847 90.0825C48.7922 90.9043 48.7145 95.2171 48.6804 98.5697C46.7069 98.5569 44.7252 98.4878 42.7463 98.3508C42.9331 97.3549 43.1309 96.3589 43.3123 95.3604C43.5223 94.2007 44.0269 92.9641 43.746 91.7966C43.6941 91.5841 43.4227 91.5585 43.2686 91.6788C42.2921 92.4392 41.9348 93.8 41.5243 94.897C41.1247 95.9659 40.8655 97.0681 40.6541 98.1806C39.0816 98.0321 37.5146 97.8349 35.9598 97.5866C37.3059 94.1879 40.1031 89.2069 44.5847 90.0825Z" fill="#E40000"/>
<path d="M24.7203 67.14C25.3695 67.7161 26.2682 67.9209 27.0852 67.5241C27.8312 67.1618 28.3467 66.0942 28.2431 65.3184C28.164 64.7308 27.8735 64.2278 27.2284 64.0498C26.5492 63.4725 25.5577 63.3522 24.7039 63.7183C23.8774 64.0729 23.7288 65.0291 23.8774 65.7652C23.9783 66.2657 24.3302 66.7944 24.7203 67.14Z" fill="#231F20"/>
<path d="M84.008 63.2011C82.8488 62.867 81.8614 63.6376 81.4795 64.599C81.1181 65.513 81.534 66.6383 82.4219 67.126C83.4625 67.6969 85.0773 67.2962 85.3992 66.1352C85.4237 66.0456 85.4374 65.9547 85.4414 65.8625C85.451 65.8484 85.4578 65.8394 85.4674 65.8241C85.6242 65.586 85.7047 65.3005 85.6733 65.0214C85.571 64.1305 84.9095 63.461 84.008 63.2011Z" fill="#231F20"/>
<path d="M87.149 120.434C85.5683 127.515 76.9488 135.602 69.5799 129.382C62.9775 123.809 69.0848 113.807 75.5986 111.014C76.035 110.827 75.7568 110.296 75.3804 110.257C70.3041 109.735 66.3585 114.073 64.6387 118.163C62.6325 122.937 63.4631 127.819 67.2354 131.583C67.8314 132.177 68.4465 132.676 69.0753 133.101C66.023 131.808 63.8272 129.279 61.465 126.9C61.405 126.84 61.3232 126.905 61.3327 126.972C62.0583 131.759 67.8546 135.302 72.7127 135.607C77.5884 135.915 81.6786 134.111 84.0817 130.496C86.5748 127.785 88.0982 124.147 87.7463 120.51C87.7191 120.209 87.2253 120.097 87.149 120.434Z" fill="#231F20"/>
<path d="M53.0173 20.4129C39.4443 20.9006 28.3467 32.7354 23.7315 44.0094C23.6878 44.1183 23.8597 44.2091 23.9401 44.1221C28.014 39.7582 31.1794 34.7503 35.5151 30.572C40.3745 25.8893 46.5786 22.968 53.0719 20.7867C53.2792 20.7189 53.2587 20.4039 53.0173 20.4129Z" fill="#231F20"/>
<path d="M54.7317 20.7421C55.3086 20.7587 55.9087 20.6384 56.442 20.4323C56.5893 20.376 56.742 20.2569 56.7229 20.0866C56.727 20.0892 56.7297 20.0918 56.7325 20.0943C56.7938 19.997 56.7297 19.8985 56.6302 19.8588C56.6438 19.8741 56.6575 19.8895 56.6697 19.9049C56.5865 19.7551 56.4024 19.7103 56.2374 19.7397C55.7 19.8357 55.1682 19.9599 54.6335 20.0662C54.2162 20.1481 54.3307 20.7306 54.7317 20.7421Z" fill="#231F20"/>
<path d="M51.6644 123.974C50.2597 127.598 48.0721 130.098 44.6147 131.976C45.4917 131.131 46.2636 130.172 46.9019 129.129C52.6232 119.758 43.54 105.617 31.7687 110.532C31.4904 110.649 31.5791 111.061 31.8505 111.124C35.5697 111.964 39.5685 112.46 42.3985 115.086C45.4657 117.93 46.0399 122.631 44.9584 126.339C42.2157 135.76 28.0699 134.811 24.0356 127.047C23.9061 126.799 23.5706 126.955 23.5406 127.173C22.8846 132.082 29.3287 134.736 33.5689 135.469C40.8614 137.925 51.9372 131.414 51.8567 123.997C51.8567 123.891 51.7013 123.879 51.6644 123.974Z" fill="#231F20"/>
<path d="M60.4599 84.1542C53.8521 85.5188 48.1089 83.2427 46.8951 77.0699C45.9104 68.5878 49.0922 58.1868 54.8518 51.918C62.4907 43.6036 65.6002 69.6363 65.678 72.4397C65.798 76.8613 66.0298 83.0046 60.4599 84.1542Z" fill="#E40000"/>
<path d="M52.4446 58.7925C49.65 63.5033 44.3542 78.4501 52.5005 81.2625C52.7132 81.3355 52.9806 81.1447 52.9615 80.9335C52.8401 79.5433 52.8033 79.4857 52.0736 78.2094C50.5884 75.6146 50.5788 72.7407 50.9934 69.9014C51.5212 66.2761 53.1388 62.5535 52.7746 58.8757C52.7596 58.722 52.5373 58.6376 52.4446 58.7925Z" fill="white"/>
<path d="M53.1292 57.9246C53.6148 58.0641 53.9516 57.6865 54.1889 57.3345C54.3321 57.1194 54.474 56.9094 54.5517 56.6649C54.639 56.391 54.5463 56.1977 54.4576 55.9417C54.4181 55.8303 54.294 55.7842 54.1835 55.8367C53.9694 55.9378 53.7771 55.9711 53.6107 56.1503C53.4075 56.3705 53.2752 56.6329 53.1169 56.8826C52.9765 57.1015 52.6983 57.8004 53.1292 57.9246Z" fill="white"/>
<path d="M85.3705 131.301C82.8679 135.03 78.7545 137.082 73.7724 137.082C73.3905 137.082 73.0032 137.069 72.6117 137.045C68.8393 136.807 64.6278 134.836 62.0774 131.863C57.4512 126.48 52.5045 129.039 50.0169 131.683C49.8164 131.896 49.6064 132.106 49.3882 132.314C46.0467 135.483 41.2883 137.451 36.969 137.451C36.9676 137.451 36.9676 137.451 36.9676 137.451C35.5806 137.451 34.2713 137.249 33.0752 136.848C30.3912 136.362 27.7712 135.407 25.7486 134.032C21.9885 131.473 11.225 130.447 11.446 136.158C11.6356 141.048 11.9806 146.005 12.5248 151.01C12.5998 151.695 12.668 152.432 12.7389 153.203C13.234 158.523 13.9104 165.808 18.0224 168.893C19.1203 169.716 20.1678 170.116 21.2275 170.116C25.2317 170.115 29.3396 164.241 32.1983 158.039C28.9509 158.6 26.0023 159.308 23.2446 160.188C23.055 160.25 22.8573 160.281 22.6581 160.281C21.8848 160.281 21.1852 159.813 20.9124 159.117C20.6438 158.43 20.8511 157.682 21.4402 157.213C29.3355 150.969 41.9743 150.445 53.2028 150.445L55.7096 150.449C63.1862 150.463 69.2021 150.855 74.6398 151.681C78.404 152.253 83.1447 153.317 86.4193 156.491C86.9526 157.009 87.0971 157.781 86.7916 158.456C86.493 159.118 85.8179 159.545 85.0732 159.545C84.8427 159.545 84.6149 159.505 84.3967 159.426C83.1161 158.962 81.7263 158.633 80.4088 158.387C81.5517 161.314 83.1065 164.6 85.3582 167.392C85.9883 168.171 86.9267 169.101 87.8309 169.101C88.7501 169.101 89.9039 168.129 91.0796 166.364C94.9652 160.534 96.3931 153.934 97.2769 148.245C98.0788 143.083 98.6926 137.762 99.1249 132.227C99.6282 125.793 86.5107 130.038 85.3705 131.301Z" fill="#E40000"/>
<path d="M14.1969 135.421C18.6034 134.444 21.9258 135.743 25.8878 137.533C29.2155 139.036 32.4615 140.423 36.1384 139.218C36.2598 139.178 36.2462 138.996 36.1071 139C31.4072 139.101 27.5666 136.988 23.4056 135.263C20.5578 134.083 16.7063 133.032 14.1382 135.33C14.0959 135.368 14.1423 135.434 14.1969 135.421Z" fill="white"/>
<path d="M37.1217 139.129C37.7273 139.367 38.4501 139.164 38.8047 138.657C38.8402 138.607 38.7938 138.534 38.7311 138.536C38.1828 138.556 37.5909 138.685 37.0904 138.904C36.9758 138.955 37.0317 139.093 37.1217 139.129Z" fill="white"/>
<path d="M70.1527 138.601C73.6169 140.548 79.6369 139.481 82.4505 136.916C82.5241 136.849 82.4491 136.708 82.3455 136.747C80.6638 137.361 79.0231 138.027 77.2651 138.433C74.8566 138.99 72.6376 138.776 70.2318 138.426C70.1227 138.411 70.0477 138.542 70.1527 138.601Z" fill="white"/>
<path d="M96.5568 140.663C95.3975 144.033 95.0252 147.779 94.3337 151.261C93.6163 154.875 92.8567 158.48 91.8392 162.032C91.8147 162.118 91.9565 162.179 91.9947 162.093C93.5399 158.674 94.4565 155.129 95.2325 151.493C95.6403 149.583 95.9812 147.659 96.3358 145.741C96.6454 144.074 97.0614 142.346 96.7273 140.661C96.7095 140.577 96.5813 140.591 96.5568 140.663Z" fill="white"/>
<path d="M59.5039 148.665C62.0815 148.896 64.6715 148.968 67.2491 149.208C70.1064 149.473 72.9091 150.083 75.7664 150.329C75.8864 150.339 75.8864 150.183 75.7923 150.147C70.9397 148.304 64.6674 147.863 59.5052 148.461C59.3661 148.478 59.362 148.652 59.5039 148.665Z" fill="white"/>
<path d="M76.4441 150.521C76.706 150.694 77.0115 150.764 77.3211 150.835C77.6648 150.913 77.9567 151.005 78.3113 150.923C78.3931 150.905 78.4067 150.813 78.3576 150.759C77.9635 150.323 77.0388 150.186 76.4714 150.337C76.376 150.361 76.3691 150.472 76.4441 150.521Z" fill="white"/>
</svg>
