<svg width="486" height="189" viewBox="0 0 486 189" fill="none" xmlns="http://www.w3.org/2000/svg">
<path d="M39.0289 20.7747C35.6073 22.2095 30.484 25.3177 28.0674 28.3118C24.903 32.2335 26.5835 36.282 29.9304 40.5598C33.1099 44.6245 38.5019 46.4547 42.0272 43.3881C47.6893 38.4622 53.202 38.6249 59.0855 37.029C61.0428 36.4979 64.004 34.8051 64.5997 32.0696C65.3718 28.5167 64.6661 20.2224 58.9789 18.0536C52.5604 15.6056 42.0631 19.2495 39.0289 20.7747Z" fill="#E40000"/>
<path d="M34.2542 35.5843C31.9584 35.7291 30.7524 34.1647 29.6675 32.5219C29.3514 32.0431 29.1528 31.7806 28.9077 31.1829C28.8537 30.9499 29.0888 30.777 29.2634 30.666C29.5448 30.4881 29.9902 30.1079 30.2933 30.3773C30.4475 30.4973 30.4642 30.5602 30.6184 30.6811C30.7311 30.8522 31.2401 31.5483 31.3427 31.7026C31.3537 31.7194 31.4554 31.8737 31.4783 31.9081C31.706 32.1774 32.3978 33.0732 32.4881 33.1362C32.7827 33.5078 33.5664 34.1273 34.1282 33.7716C34.1635 33.7491 34.2513 33.6931 34.2685 33.6823C34.3409 33.4906 34.4161 33.1515 34.3731 32.9362L34.1258 31.8067C33.8049 31.2818 33.6475 30.629 33.3447 30.0941C33.3218 30.0597 33.0845 29.7008 33.0506 29.6488C32.9837 29.5465 32.702 29.0451 32.6452 28.9596C32.6617 28.6824 32.8033 28.5193 33.0485 28.364C33.7859 27.8964 34.001 27.8817 34.4518 28.566C35.457 30.0889 36.9094 32.9301 35.7152 34.7797C35.7262 34.7973 35.7711 34.8652 35.794 34.8996C35.9406 35.1219 36.0132 35.2703 39.0376 39.6631C39.2257 39.8352 39.3393 40.0062 39.4568 40.2225C39.9392 41.1791 39.3634 41.3254 38.8173 41.744C38.554 41.9101 38.4123 41.734 38.2595 41.5394C37.9649 41.1678 37.6655 40.7509 37.4282 40.392L34.2542 35.5843Z" fill="white"/>
<path d="M37.6108 32.1689C37.5519 32.0381 37.1351 31.1268 37.0762 30.996C37.0596 30.9589 36.9452 30.8082 36.9277 30.7711C36.5474 29.8879 36.1002 29.0569 35.7008 28.1828C35.6244 28.0149 35.4634 27.6614 35.4634 27.6614L35.3592 27.0817C35.3482 26.9077 35.6535 26.7731 35.7685 26.723C35.7876 26.7149 35.7876 26.7148 35.7876 26.7148C35.7876 26.7148 36.3411 26.4711 36.5694 26.3701C37.3132 26.0426 38.0629 25.7799 38.7886 25.4606C38.9988 25.3679 39.1451 25.2367 39.3544 25.1448C39.4115 25.1193 39.9718 24.9403 40.0058 25.0146L40.6849 26.5038L40.6263 26.5737C40.4459 26.6307 39.6962 26.8934 39.5241 26.9698C39.2105 27.0858 37.7965 27.7524 37.5111 27.878L38.4368 29.9064C38.4534 29.9435 38.5745 30.158 38.6276 30.2241C38.6359 30.2426 38.7006 30.2819 38.7006 30.2819C39.4653 30.1017 40.1477 29.6905 40.871 29.4156C41.0514 29.3587 41.2634 29.4222 41.3306 29.5706L41.7299 30.4448C41.8403 30.6869 41.3764 31.0248 41.2042 31.1012L39.4303 31.8817C39.4303 31.8817 39.5441 32.2331 39.6122 32.3824C39.9177 33.0524 41.8261 37.0837 41.9666 37.4908C42.0237 37.4662 42.2339 37.3734 42.2909 37.348C43.1679 36.9614 43.7405 36.7103 44.6025 36.2413C44.6224 36.2331 44.7547 36.174 44.7746 36.1658C44.8127 36.1494 44.9078 36.1075 44.9277 36.0985L44.9906 36.1369L45.6614 37.6067C45.7037 37.6995 44.2996 38.184 44.0572 38.3579L42.1111 39.2139C41.139 39.6423 41.0238 38.8878 40.5719 38.3499C39.4266 36.1968 38.6709 34.3398 37.6108 32.1689Z" fill="white"/>
<path d="M45.6228 22.7969L45.8986 22.7007C46.0187 22.7243 46.1131 22.8646 46.1863 22.9464C46.3081 23.0989 46.6387 23.5254 46.6452 23.544C49.3405 27.9514 49.9734 29.0952 50.3508 29.5914C50.6563 30.0697 51.0133 30.5075 51.2663 31.0255L53.223 33.9366C53.3512 34.1085 53.3789 34.1855 53.4408 34.3581C53.5037 34.5316 53.5656 34.7042 53.4229 34.862C53.3444 34.9543 52.9073 35.2796 52.8158 35.333L52.599 35.4081C52.4611 35.4566 52.3623 35.4905 52.2617 35.3956C51.8461 35.0419 51.123 34.0172 50.3635 32.8312C50.0803 32.9088 49.4951 33.0686 49.3572 33.1171C49.094 33.1865 48.0829 33.5826 47.5705 33.7603C47.7902 35.1118 47.9831 36.3873 48.0163 36.7867C48.0206 37.0452 47.8808 37.3967 47.6251 37.4855C47.3294 37.5881 46.6916 37.7893 46.4489 37.4836L46.3177 37.118C44.8818 26.7747 44.7111 25.2538 44.6232 23.9C44.6447 23.2237 44.9924 23.0167 45.6228 22.7969ZM47.2785 32.0248C47.7784 31.873 48.2774 31.7203 48.7509 31.5554C48.9677 31.4794 49.1251 31.3605 49.341 31.2854L49.3609 31.2781C48.5057 29.8879 47.7254 28.5795 47.4664 28.1069C47.358 27.9277 46.719 26.8301 46.6388 26.7928C46.6401 26.8567 46.6773 27.1477 46.6985 27.2052C46.7188 27.2628 46.7695 27.527 46.7634 27.5723C46.8892 28.4159 46.9431 29.2415 47.0416 30.0729C47.0329 30.2924 47.1375 31.0784 47.2785 32.0248Z" fill="white"/>
<path d="M52.47 27.7065C50.2299 27.1976 49.536 25.3557 48.983 23.4742C48.8215 22.9249 48.7096 22.6169 48.6513 21.9751C48.6681 21.7367 48.944 21.637 49.1446 21.5789C49.466 21.4876 50.0057 21.2492 50.216 21.5926C50.3279 21.7514 50.3255 21.8163 50.4374 21.9751C50.495 22.1708 50.7771 22.9836 50.8291 23.159C50.8347 23.1785 50.8866 23.3557 50.8987 23.3946C51.0361 23.7166 51.4342 24.7717 51.503 24.858C51.6756 25.2979 52.2424 26.1139 52.8852 25.9303C52.9261 25.9192 53.0259 25.8898 53.0459 25.8842C53.1723 25.7203 53.3442 25.4164 53.3675 25.1976L53.4635 24.0441C53.3108 23.4494 53.3523 22.779 53.2206 22.1797C53.2085 22.1398 53.0879 21.7288 53.0703 21.6694C53.0359 21.5525 52.9144 20.9922 52.8856 20.8939C52.9832 20.6325 53.1672 20.5159 53.4477 20.4366C54.2921 20.1959 54.5015 20.2425 54.7317 21.0265C55.2448 22.7717 55.7962 25.9079 54.1076 27.3455C54.1132 27.365 54.1364 27.4438 54.1475 27.4828C54.2227 27.738 54.2482 27.9003 55.8468 32.9689C55.9763 33.1871 56.0338 33.3828 56.0834 33.624C56.2624 34.6778 55.6684 34.6564 55.0224 34.904C54.7219 34.9898 54.6379 34.78 54.5483 34.55C54.3757 34.1101 54.2118 33.6258 54.0903 33.2139L52.47 27.7065Z" fill="white"/>
<path d="M56.7807 24.1485C56.6806 23.7104 56.2352 21.7574 56.1445 21.3583C56.1033 21.1791 56.0168 20.4235 56.0059 20.2796C55.9421 19.8126 56.051 19.7252 56.5673 19.6318C56.6082 19.6225 57.071 19.583 57.2242 19.5903C57.7336 19.5619 57.6128 20.2584 57.8087 20.5497C57.8536 20.7493 58.0538 21.6255 58.0997 21.8251C58.6358 24.1763 59.1613 26.5721 59.6364 28.9373C59.7437 29.4999 59.7796 30.0356 59.8659 30.6028C59.839 30.6715 59.7138 30.783 59.6319 30.8008L58.7735 30.9911C58.6305 31.0228 58.4863 30.6785 58.4579 30.6423C57.6952 28.5299 57.2766 26.3206 56.7807 24.1485ZM59.2794 31.6126C59.6481 31.5305 60.3426 31.3766 60.4568 31.875C60.4615 31.8954 60.4708 31.9344 60.4708 31.9344C60.491 32.1183 60.6441 32.8803 60.6596 33.0447C60.6097 33.391 60.0465 33.5569 59.7388 33.625C59.1862 33.7472 58.9846 32.9545 58.8977 32.5767C58.7891 32.0978 58.7477 31.731 59.2794 31.6126Z" fill="white"/>
<path d="M29.9207 42.4441C32.0771 46.2077 38.3472 47.716 41.6181 44.5216C41.6649 44.4761 41.6019 44.3947 41.546 44.4324C37.4893 47.1442 33.124 45.4802 29.9649 42.4101C29.9421 42.3883 29.906 42.4169 29.9207 42.4441Z" fill="#E40000"/>
<path d="M55.838 16.6179C61.8715 16.3738 64.7954 21.5261 65.5278 26.6099C65.5363 26.6719 65.6251 26.6479 65.6303 26.5955C65.9 23.9986 64.9164 21.7298 63.4508 19.609C61.9476 17.4335 58.5003 15.731 55.8276 16.547C55.7886 16.5581 55.7953 16.6193 55.838 16.6179Z" fill="#E40000"/>
<path d="M27.3232 27.9238C29.1689 26.2725 30.8021 24.5606 32.9071 23.1954C35.0355 21.8149 37.4146 20.8013 39.7319 19.7697C39.8025 19.738 39.751 19.6277 39.6795 19.6497C35.0828 21.0657 29.8375 23.6864 27.2831 27.8932C27.266 27.9191 27.3015 27.9427 27.3232 27.9238Z" fill="#E40000"/>
<path d="M116.19 187.558C116.239 187.558 116.264 187.552 116.27 187.55C116.297 187.53 116.404 187.387 116.483 187.038C117.09 184.378 116.333 181.104 114.165 177.025C113.813 176.364 114.035 175.547 114.677 175.142C114.686 175.138 114.692 175.132 114.698 175.126C124.891 165.375 122.562 147.806 116.086 135.606C115.885 135.229 115.866 134.783 116.031 134.389C116.169 134.064 116.421 133.801 116.739 133.648C124.881 125.045 124.716 108.893 119.432 99.1343C119.128 98.5747 119.233 97.8884 119.689 97.4391C121.091 96.0584 121.755 94.7777 121.717 93.5257C121.627 90.509 119.936 86.9327 118.446 83.775C118.185 83.2215 117.931 82.6864 117.695 82.1717C116.186 78.8813 114.359 75.0251 112.269 71.3855C112.137 71.1547 112.072 70.8953 112.081 70.6318C112.417 60.3991 108.496 52.3416 100.425 46.6799C97.0307 44.2984 93.5193 41.8352 94.1199 36.0919C94.1513 35.7855 94.1848 35.4791 94.2182 35.1707C94.4463 33.0527 94.6828 30.8632 94.5154 28.8003C94.2371 25.3853 93.4879 22.7709 92.157 20.5712C92.1382 20.5385 92.1194 20.5059 92.1026 20.4711C91.7113 19.6909 91.3221 19.021 90.914 18.4246C90.665 18.061 90.3428 17.673 89.9996 17.2624C89.3279 16.4598 88.6352 15.6285 88.2042 14.6542C87.5387 13.1428 87.1265 11.5374 86.7268 9.98313C86.4422 8.87612 86.1722 7.83038 85.8228 6.82958C85.8186 6.81733 85.8144 6.80303 85.8102 6.79077C85.7977 6.74992 85.7872 6.71112 85.7788 6.6764C84.4814 3.44727 82.8408 1.45588 82.0498 1.45588C81.8678 1.45588 81.6564 1.61723 81.5079 1.75408C80.8299 2.37907 80.4846 3.58207 80.5578 5.05264C80.585 5.57142 80.7148 6.18008 80.8529 6.82345C81.0705 7.83243 81.2944 8.87408 81.2002 9.91165C81.1333 10.6653 80.4846 11.2331 79.725 11.2331C79.681 11.2331 79.6392 11.2311 79.5952 11.227C79.2981 11.2025 79.0282 11.0922 78.8084 10.9247C78.6034 10.8001 77.9777 10.4509 77.6282 10.2568C77.0444 9.93207 76.8874 9.8422 76.7891 9.77889C73.5707 7.68741 71.792 7.24828 70.8691 7.24828C70.1535 7.24828 69.7957 7.49338 69.5466 8.15309C69.3248 8.74132 70.074 10.1281 71.2521 11.3087C73.5142 13.5738 76.0483 15.5835 78.664 17.6137C79.1202 17.9671 79.3211 18.5492 79.1788 19.1007C78.8796 20.2587 78.9612 21.1656 79.4236 21.7967C80.5076 23.2734 82.1377 24.4151 83.8662 25.6222C84.5044 26.0675 85.1636 26.5291 85.7998 27.0111C86.0634 27.2112 86.2518 27.4951 86.3292 27.8138C87.0323 30.6569 86.687 33.0445 86.2894 35.8079C86.2183 36.3022 86.145 36.8149 86.0718 37.352C85.7872 39.4844 85.6428 41.8557 86.7079 43.2793C88.2021 45.2727 90.2925 46.7147 92.5086 48.2424C93.1301 48.6713 93.3184 49.4883 92.9438 50.1358C92.6739 50.6035 92.1717 50.8731 91.6506 50.8731C91.4518 50.8731 91.2509 50.8343 91.0584 50.7526C87.0951 49.0676 82.8764 48.2118 78.5176 48.2118C77.2913 48.2118 76.0316 48.2792 74.776 48.414C66.0855 49.3392 58.4936 52.3069 52.8206 56.9964C46.8525 61.931 43.1319 68.5138 41.7633 76.5652C41.6817 77.0492 41.3532 77.4598 40.8907 77.6558C40.7024 77.7355 40.4994 77.7763 40.3006 77.7763C40.0118 77.7763 39.7272 77.6946 39.4803 77.5333L39.4343 77.5047C39.0953 77.2841 38.773 77.0758 38.4278 76.894C37.4568 76.3813 36.4021 76.0811 35.2868 75.7645C33.7132 75.3172 32.0872 74.8536 30.568 73.7568C29.2162 72.7805 28.0381 71.5714 27.065 70.1621C26.975 70.0313 26.9081 69.8863 26.8641 69.7352L26.8223 69.6453C25.8429 67.564 24.8322 65.4113 25.1649 62.7459C25.3303 61.4203 25.7195 60.2725 26.094 59.1634C26.3745 58.3383 26.6381 57.5581 26.7992 56.737C27.2261 54.5761 26.9415 52.0638 25.9538 49.2698C25.686 48.51 25.0519 47.9994 24.826 47.9626C24.7883 47.9892 24.6774 48.0831 24.5372 48.3384C23.9805 49.3453 23.811 50.7526 23.6332 52.2416C23.5557 52.889 23.4762 53.561 23.359 54.2105C23.2419 54.862 22.6873 55.3522 22.0135 55.4033C21.9758 55.4053 21.9361 55.4074 21.8984 55.4074C21.2685 55.4074 20.7014 55.0152 20.4943 54.4249C19.6572 52.021 18.4498 48.9144 16.5351 46.2163C16.3824 46.0019 16.2212 45.7649 16.0475 45.5096C15.0954 44.1146 13.5029 41.7801 12.0967 41.7801C12.0423 41.7801 11.9858 41.7842 11.9293 41.7903C11.6615 41.825 11.5715 41.919 11.5024 42.0129C11.1823 42.448 10.996 43.6755 11.4292 45.8139C11.7954 47.6133 12.4546 49.3188 13.3314 51.3224C13.6892 52.1374 13.9633 52.9584 14.2291 53.753C14.3902 54.2329 14.5409 54.6864 14.7083 55.1337C14.905 55.6565 14.7731 56.2448 14.3735 56.643C14.0889 56.9249 13.7059 57.0781 13.3146 57.0781C13.1535 57.0781 12.9924 57.0536 12.8354 57.0005C12.2683 56.8105 11.5987 56.5613 10.9395 56.1508C9.51031 55.2603 8.56236 54.2146 7.64371 53.1995C7.23566 52.7481 6.81293 52.2824 6.35046 51.8351C5.01121 50.5422 3.95656 49.6047 2.54825 49.327C2.46873 49.3106 2.39548 49.3045 2.32851 49.3045C2.17366 49.3045 1.98951 49.3372 1.80118 49.5884C1.49148 49.9989 1.38896 50.6934 1.56264 51.2387C2.16949 53.1668 3.37901 54.9519 5.05935 56.4041C6.73551 57.8522 7.93667 59.431 9.09596 60.9567C9.5647 61.5735 10.0481 62.2087 10.5629 62.8378C11.4648 63.9366 12.5927 64.7455 13.7876 65.6012C14.8464 66.359 15.9408 67.1433 16.9411 68.1747C17.4768 68.7282 17.9643 69.3001 18.408 69.8332C20.1888 72.0309 21.1995 73.7772 22.0114 75.1804C22.8275 76.5897 23.4699 77.7008 24.5853 78.7833C25.7404 79.9046 27.2345 80.9564 29.2852 82.09C33.9873 84.6921 36.1385 87.9375 36.7035 93.297C36.7579 93.8116 36.806 94.3345 36.8541 94.8635C37.0299 96.7732 37.212 98.7483 37.7288 100.501C38.9509 104.643 41.372 107.257 45.8272 109.242C45.8544 109.255 45.8815 109.265 45.9108 109.275C45.9757 109.3 46.0385 109.324 46.1034 109.353C46.5742 109.555 46.9048 109.984 46.9739 110.482C46.9739 110.482 46.976 110.49 46.9802 110.505L47.3087 111.369C50.1567 118.836 53.0989 126.556 57.9809 132.767C60.5255 136.005 63.1161 138.705 65.8992 141.025C66.8032 141.779 67.7575 142.451 68.6803 143.1C71.882 145.357 75.1924 147.692 75.5398 153.043L75.5796 153.656C75.9248 158.837 76.5673 168.484 72.3088 172.945C70.8273 174.495 68.9126 175.287 66.6191 175.3H66.5375C62.2686 175.3 58.6547 173.706 55.1601 172.166C54.2854 171.78 53.3814 171.382 52.4858 171.019C52.3811 170.976 52.2807 170.92 52.1886 170.855C52.061 170.765 51.9333 170.677 51.8036 170.59C51.5399 170.41 51.2679 170.222 50.9937 170.016C50.14 169.372 49.4704 169.072 48.8865 169.072C48.8593 169.072 48.8321 169.072 48.8049 169.074C45.7999 169.221 44.5465 173.696 44.0673 176.351C43.293 180.632 43.9187 181.762 44.128 182.007C44.174 182.06 44.2096 182.101 44.3854 182.101C44.4356 182.101 44.4942 182.097 44.5548 182.089C46.3712 181.846 48.175 178.608 48.853 177.389C49.079 176.985 49.4871 176.709 49.9537 176.646C50.0207 176.637 50.0877 176.631 50.1546 176.631C50.5522 176.631 50.9373 176.788 51.2198 177.07C54.7751 180.647 60.6238 182.869 66.481 182.869C70.0279 182.869 73.2275 182.046 75.7365 180.491C83.9164 175.42 87.5429 165.31 86.5133 150.439C86.4631 149.726 86.9549 149.085 87.6684 148.929C94.8125 147.367 100.797 145.116 104.972 142.42C105.217 142.263 105.501 142.179 105.79 142.179C105.903 142.179 106.018 142.191 106.131 142.218C106.529 142.31 106.872 142.559 107.075 142.906C111.369 150.2 116.239 161.109 108.979 171.574C108.931 171.69 108.866 171.801 108.789 171.903C107.592 173.461 107.356 175.163 108.086 176.958C108.588 178.192 109.371 179.311 110.199 180.496C110.708 181.225 111.235 181.978 111.706 182.777C112.447 184.033 113.286 185.455 114.315 186.517C114.952 187.158 115.78 187.558 116.19 187.558Z" fill="white"/>
<path d="M2.84532 47.9055C4.72865 48.2772 6.07 49.521 7.3967 50.8037C8.9201 52.2763 9.87853 53.7673 11.7388 54.9254C12.2411 55.2399 12.7747 55.4442 13.3167 55.6239C12.8563 54.3923 12.5047 53.1096 11.969 51.8862C11.1383 49.9867 10.3891 48.122 9.97478 46.0897C9.62322 44.3597 9.13148 40.6874 11.7346 40.3504C14.4111 40.0032 16.4786 43.5877 17.755 45.3851C19.6091 47.9974 20.852 50.9467 21.8983 53.9532C22.2771 51.8433 22.2604 49.4046 23.2334 47.642C24.5371 45.2891 26.7427 47.0476 27.3579 48.7919C28.2766 51.3919 28.7934 54.2861 28.2577 57.0046C27.8518 59.0593 26.9038 60.7852 26.6381 62.9134C26.343 65.2663 27.3161 67.2087 28.2891 69.2859C28.2996 69.3063 28.2912 69.3247 28.2954 69.3451C29.1638 70.6053 30.2164 71.6939 31.4489 72.5844C33.7738 74.2634 36.5967 74.2736 39.1329 75.6134C39.5535 75.836 39.926 76.0791 40.2985 76.3221C43.2344 59.0634 56.7567 48.8675 74.6127 46.968C80.9072 46.298 86.5739 47.26 91.6485 49.4189C89.3989 47.8667 87.141 46.3062 85.5067 44.1269C84.0649 42.2029 84.3056 39.3394 84.5965 37.1581C85.0673 33.6287 85.6365 31.19 84.8831 28.1447C82.5646 26.3821 79.8798 24.9033 78.2141 22.6301C77.3959 21.5149 77.3791 20.1199 77.737 18.7371C75.1233 16.709 72.5201 14.6461 70.1869 12.3095C69.1741 11.2944 67.5586 9.21522 68.1508 7.64253C69.6596 3.6434 75.4435 7.15847 77.6093 8.56572C77.7767 8.67601 79.7228 9.73196 79.7186 9.77485C79.8484 8.33697 79.1474 6.59679 79.072 5.11397C78.9946 3.576 79.2938 1.79089 80.4824 0.694092C83.5564 -2.14492 86.5154 4.52983 87.2059 6.27408C87.2164 6.30268 87.2101 6.32719 87.2205 6.35374C88.1015 8.86596 88.4949 11.6498 89.5622 14.0742C90.1146 15.3303 91.366 16.4782 92.1423 17.6138C92.6257 18.3205 93.0463 19.0639 93.4293 19.8278C95.0029 22.4279 95.7227 25.3894 95.9885 28.6778C96.1936 31.1798 95.8504 33.7451 95.5909 36.2328C95.0887 41.0387 97.7149 42.9934 101.287 45.4974C110.007 51.6146 113.899 60.3665 113.56 70.6707C115.59 74.2021 117.356 77.8867 119.047 81.5733C120.66 85.0925 123.081 89.6022 123.198 93.4767C123.253 95.3211 122.232 96.9816 120.742 98.4501C126.517 109.118 126.193 125.935 117.71 134.747C117.613 134.849 117.509 134.902 117.402 134.935C123.922 147.216 126.71 165.657 115.738 176.151C115.655 176.231 115.569 176.296 115.481 176.353C117.245 179.675 118.762 183.706 117.931 187.346C117.299 190.109 114.579 188.874 113.248 187.501C112.114 186.333 111.248 184.875 110.432 183.488C109.237 181.46 107.613 179.679 106.717 177.481C105.769 175.15 106.165 172.908 107.613 171.023C107.648 170.935 107.694 170.845 107.757 170.757C114.008 161.752 110.875 152.236 105.801 143.615C100.477 147.052 93.5318 149.121 88.0032 150.331C88.7921 161.738 87.2289 175.079 76.5421 181.703C68.8769 186.455 56.4407 184.38 50.165 178.067C48.966 180.222 47.1454 183.19 44.7661 183.51C41.2338 183.984 42.3052 177.81 42.615 176.09C43.203 172.834 44.7055 167.814 48.74 167.618C49.939 167.561 51.0083 168.18 51.9102 168.86C52.2869 169.144 52.6803 169.401 53.0653 169.673C57.5121 171.482 61.6052 173.864 66.619 173.841C75.7469 173.796 74.4516 159.058 74.0665 153.125C73.6731 147.048 69.0527 145.537 64.945 142.116C61.8814 139.565 59.2594 136.75 56.8132 133.64C51.6047 127.012 48.5579 118.754 45.6011 111.007C45.555 110.891 45.5278 110.776 45.5111 110.668C45.4148 110.627 45.3144 110.593 45.2181 110.55C40.6019 108.493 37.7204 105.676 36.31 100.891C35.609 98.5093 35.4918 95.8828 35.2344 93.4359C34.7029 88.4053 32.6815 85.6194 28.5611 83.34C26.4204 82.1554 24.8112 81.0259 23.5473 79.8005C21.0822 77.4067 20.7328 75.015 17.2654 70.7381C16.8176 70.2009 16.3614 69.6658 15.8696 69.1592C13.8586 67.0841 11.2764 66.0098 9.40979 63.7324C7.5997 61.5245 6.28766 59.3861 4.07998 57.4784C2.25524 55.9017 0.863663 53.9266 0.147995 51.6534C-0.40654 49.8989 0.618805 47.4663 2.84532 47.9055ZM94.8292 43.9554C92.3537 41.39 92.5608 38.1323 92.9312 34.9011C93.5778 29.2374 93.0652 24.695 91.209 19.7175C90.5792 18.5656 89.8426 17.4361 88.9302 16.3148C86.7748 13.6719 86.3354 9.99748 85.2703 6.8378C85.264 6.82555 85.2535 6.81738 85.2493 6.80512C85.0715 6.35374 82.7738 0.84932 81.5957 2.43222C80.5264 3.86807 81.1834 6.61109 81.5015 8.13272C81.7882 9.50321 81.8719 12.4035 79.5115 11.7581C76.4605 10.9248 74.4265 8.16336 71.1244 7.79571C68.2994 7.47913 72.4866 11.8071 73.0203 12.2993C74.7466 13.9006 76.5986 15.3712 78.4589 16.8234C78.8962 15.9165 79.4215 15.0852 79.8986 14.4337C81.4806 12.2667 84.0147 11.7662 85.6595 14.0926C86.8167 15.7286 86.1261 21.5088 83.5899 21.566C83.299 21.5721 83.094 21.374 82.9977 21.1268C82.3616 19.4724 84.2721 17.4177 83.9519 15.4753C83.4957 12.7078 80.88 16.7049 80.6226 17.1747C80.0806 18.1571 79.6454 19.3724 79.637 20.4977C79.6203 22.6239 82.9538 23.9495 84.3851 25.0769C84.5379 25.1974 84.6864 25.3241 84.8308 25.4527C89.7128 28.5144 87.4926 33.837 86.9611 38.792C86.1512 46.3532 98.0497 48.8348 101.002 55.2195C104.281 57.9523 107.213 61.2243 109.816 64.8456C109.354 61.6287 108.611 58.5569 106.757 55.4401C103.907 50.6464 98.6314 47.8973 94.8292 43.9554ZM2.86417 52.4765C3.81211 54.5271 5.75615 55.9874 7.43649 57.4396C8.77157 58.5936 9.66716 59.9417 10.5377 61.4449C11.8665 63.7427 14.1328 65.0641 16.2525 66.5592C17.6671 67.5559 18.8411 68.953 19.743 70.493C21.7498 72.9112 23.0911 75.7298 25.1586 78.1032C27.2303 80.4826 30.6077 81.749 33.2527 83.4013C38.0992 86.4282 38.3586 91.3526 38.9341 96.4444C39.9846 105.729 46.4674 107.184 54.2246 110.401C58.7949 112.296 62.279 115.229 61.9002 120.435C61.873 120.809 61.4252 120.913 61.2076 120.619C58.7572 117.314 56.8927 114.955 52.9419 113.37C51.7533 112.894 50.5354 112.492 49.3217 112.086C53.7538 123.658 59.2176 134.685 69.9881 141.946C77.6763 147.128 77.0296 154.031 76.7032 162.585C76.4772 168.533 74.7801 174.95 68.0776 176.3C67.8809 177.172 67.613 177.965 67.6151 178.9C67.6193 179.846 67.9876 180.645 68.1989 181.511C70.4631 181.378 72.7984 180.804 75.2635 179.583C85.6992 174.405 86.1784 159.436 85.8646 149.673C85.8415 148.917 86.484 148.617 87.0657 148.723C91.3827 147.755 95.5198 146.311 99.5313 144.471C104.018 142.412 107.638 139.215 111.907 136.852C112.145 136.72 112.411 136.983 112.279 137.216C111.137 139.211 109.475 140.937 107.5 142.441C111.545 148.427 114.238 155.077 113.729 161.693C114.673 162.475 115.424 162.996 116.755 163.145C117.883 163.269 118.873 163.094 119.888 162.706C121.729 153.545 118.858 142.82 115.276 134.875C114.799 134.522 114.577 133.856 115.148 133.354C123.866 125.684 121.562 110.448 118.446 100.354C117.471 101.048 116.444 101.681 115.441 102.255C116.322 104.706 118.139 110.648 114.37 110.858C112.892 110.942 111.593 109.849 110.586 108.928C109.726 108.142 108.768 107.159 108.115 106.101C103.905 108.095 99.5689 109.675 95.2205 111.24C95.8462 114.369 97.2796 121.493 93.1049 121.642C89.9346 121.757 86.9757 117.331 85.8164 114.906C85.7997 114.871 85.7871 114.829 85.7704 114.792C85.3916 114.947 85.0087 115.092 84.6299 115.249C78.9632 117.633 74.439 116.695 71.1369 111.454C70.7875 110.901 71.6266 110.468 72.0054 110.958C77.3624 117.892 84.8204 112.429 90.9956 110.09C97.9492 107.457 104.838 104.58 111.354 101.026C114.11 99.5224 116.734 97.7863 118.965 95.5927C121.405 93.1928 119.001 89.7554 118.046 87.092C115.447 79.8474 111.568 72.7867 107.255 66.3836C100.052 55.6974 89.7003 49.517 76.4688 49.854C59.3012 50.2931 44.6657 61.4429 43.1004 78.4729C43.0921 78.5648 43.0712 78.6485 43.0502 78.7302C44.7578 80.838 45.4986 83.4401 45.6869 86.6141C45.961 91.23 46.0635 94.9269 50.7091 97.6025C53.1532 99.0097 56.2482 99.457 58.8514 100.601C62.6264 102.261 64.0305 106.336 63.6057 110.061C63.5513 110.539 62.8335 110.711 62.6975 110.182C60.764 102.676 55.522 102.439 49.3405 99.888C45.0277 98.109 43.4394 93.9955 42.8912 89.8105C42.2174 84.6452 43.0398 81.3384 37.6053 78.1685C35.067 76.6878 33.3783 76.2262 30.8525 74.7147C27.7262 72.8479 25.6336 69.5494 25.2758 66.1487C24.6836 64.6985 24.5141 63.0932 24.8824 61.4061C25.5185 58.4997 27.0524 56.0998 26.3367 52.9626C26.0438 51.682 25.4139 46.7494 24.2923 50.0051C23.5661 52.1109 23.4008 54.3882 23.0744 56.5736C23.0388 56.8044 22.9363 57.0271 22.8128 57.2456C22.7605 57.4376 22.6538 57.5969 22.5052 57.7195C22.3231 57.9625 22.1306 58.1933 21.9674 58.3996C20.0945 60.7566 20.919 62.6928 20.6972 65.3746C20.6825 65.5462 20.4775 65.7218 20.3038 65.5952C17.1126 63.2749 18.6569 59.7394 20.5884 57.1088C18.9646 52.0802 17.0247 47.2784 13.2936 43.3732C11.0483 41.0244 12.511 47.015 12.8186 48.0546C13.2267 49.421 13.9382 50.6852 14.4676 52.0067C15.1853 53.7898 15.4992 55.6647 16.6794 57.2374C17.0812 57.7705 16.8615 58.2811 16.4367 58.5732C16.1333 58.9266 15.6499 59.092 15.1435 58.7325C13.7415 57.7399 12.1574 57.4601 10.6088 56.8085C9.09799 56.1733 7.88849 54.7191 6.85894 53.5426C5.91518 52.4663 0.897141 48.2139 2.86417 52.4765ZM114.573 107.024C114.46 105.734 114.171 104.416 113.845 103.138C112.995 103.595 112.21 104.002 111.568 104.353C111.049 104.637 110.519 104.886 109.996 105.153C111.051 106.544 112.108 107.943 113.734 108.762C114.826 109.31 114.623 107.6 114.573 107.024ZM93.7557 115.815C93.6908 114.502 93.5611 113.197 93.4146 111.892C91.4894 112.586 89.5684 113.289 87.6558 114.032C87.7458 114.175 87.8232 114.308 87.8839 114.41C88.4405 115.345 89.0683 116.242 89.7547 117.09C90.2088 117.647 92.4918 120.474 93.3456 119.381C94.0528 118.466 93.8059 116.877 93.7557 115.815Z" fill="#262626"/>
<path d="M70.752 83.0133C68.402 67.2231 85.0548 62.8216 96.8863 68.5997C94.1116 66.8351 91.0271 65.436 87.9698 63.9817C87.8903 63.9429 87.9468 63.8286 88.0284 63.8469C95.3232 65.4135 103.202 70.8832 106.092 77.7418C106.629 79.0183 107.054 80.495 107.337 82.0534C107.992 84.4349 108.05 86.9349 107.358 89.4348C107.094 90.7583 106.669 92.0144 106.041 93.1439C105.43 94.4552 104.621 95.6521 103.541 96.6447C100.649 99.9004 95.9258 101.886 91.6904 102.306C85.013 102.97 76.2116 100.578 72.7923 94.4613C72.7609 94.4041 72.8425 94.3612 72.8802 94.4123C75.3934 97.7844 79.3546 99.7676 83.544 100.691C83.4226 100.65 83.3034 100.619 83.182 100.576C75.6947 97.9314 71.8255 90.2191 70.752 83.0133Z" fill="#262626"/>
<path d="M73.5078 81.0752C73.1542 94.6616 88.6561 104.3 99.7908 95.7604C101.963 93.4055 103.559 90.9014 103.955 87.2005C104.428 82.7643 103.179 78.5201 100.201 75.1377C92.0189 65.8425 73.8824 66.637 73.5078 81.0752Z" fill="#E40000"/>
<path d="M84.699 76.0056C86.7706 73.6016 90.7947 73.7323 93.0861 75.7115C95.4193 77.7253 95.9383 81.126 94.2098 83.675C92.2909 86.5017 88.225 87.141 85.5946 84.8821C85.2723 84.6064 84.994 84.3 84.7492 83.9711C84.6425 83.869 84.5211 83.7812 84.4248 83.6709C82.4306 81.3936 82.8115 78.1971 84.699 76.0056Z" fill="#262626"/>
<path d="M73.9976 68.7814C68.9231 74.2981 68.8855 79.9128 70.1808 86.8898C70.2038 87.0124 70.0238 87.1084 69.9589 86.9797C67.1465 81.3139 68.0631 72.3006 73.9181 68.6793C73.983 68.6405 74.0458 68.7283 73.9976 68.7814Z" fill="#262626"/>
<path d="M109.879 85.1884C110.509 90.6499 108.197 98.1682 102.392 100.194C102.275 100.235 102.176 100.07 102.268 99.99C104.436 98.1294 106.382 96.5791 107.713 93.9954C109.142 91.2197 109.222 88.1642 109.651 85.1577C109.67 85.0209 109.864 85.0719 109.879 85.1884Z" fill="#262626"/>
<path d="M101.722 100.591C101.377 100.891 100.643 101.302 100.18 101.118C100.117 101.093 100.057 101.011 100.109 100.944C100.394 100.574 101.115 100.403 101.565 100.329C101.71 100.305 101.852 100.476 101.722 100.591Z" fill="#262626"/>
<path d="M87.0407 63.7166C86.6159 63.7615 86.2225 63.6655 85.804 63.6062C85.2976 63.5327 84.8832 63.4735 84.4166 63.2651C84.3434 63.2324 84.3601 63.1078 84.4396 63.0935C85.2662 62.9484 86.3857 63.0485 87.0972 63.5041C87.2018 63.5715 87.1537 63.7043 87.0407 63.7166Z" fill="#262626"/>
<path d="M72.0745 93.6081C71.4279 92.9768 71.0931 92.2454 70.8609 91.3813C70.8399 91.3037 70.9445 91.2383 71.0052 91.2996C71.633 91.9513 71.8883 92.7255 72.1938 93.5406C72.2189 93.6081 72.1227 93.6551 72.0745 93.6081Z" fill="#262626"/>
<path d="M91.4872 103.653C88.1977 104.597 83.0499 103.673 80.1663 101.924C80.0931 101.879 80.1391 101.769 80.2249 101.79C81.8676 102.198 83.4643 102.709 85.13 103.034C87.2456 103.446 89.3612 103.273 91.4726 103.549C91.5312 103.553 91.5521 103.634 91.4872 103.653Z" fill="#262626"/>
<path d="M104.114 72.5476C102.702 71.0158 101.396 69.6208 99.6883 68.3708C98.1209 67.225 96.3652 66.3692 94.7958 65.2316C94.7351 65.1866 94.7686 65.0825 94.8502 65.1049C96.8905 65.685 98.7047 67.0167 100.385 68.2462C101.795 69.2777 103.756 70.7258 104.215 72.4884C104.231 72.5456 104.156 72.5926 104.114 72.5476Z" fill="#262626"/>
<path d="M68.4459 73.624C67.364 76.173 67.1987 78.5607 67.3808 81.3057C67.3871 81.4058 67.2448 81.4099 67.2134 81.3282C66.4621 79.3756 66.3303 74.9047 68.3371 73.5403C68.3873 73.5056 68.471 73.5648 68.4459 73.624Z" fill="#262626"/>
<path d="M127.026 108.834C128.654 113.189 128.099 118.603 127.216 123.062C126.421 127.073 124.479 132.406 120.677 134.594C120.595 134.641 120.497 134.547 120.545 134.465C122.977 130.562 125.301 127.425 126.385 122.839C127.505 118.103 126.766 113.601 126.896 108.85C126.9 108.777 127.001 108.769 127.026 108.834Z" fill="#262626"/>
<path d="M44.7117 116.15C47.61 122.034 49.9641 127.921 53.6513 133.423C57.623 139.354 62.9549 145.034 68.9774 149.058C69.126 149.158 68.9983 149.379 68.833 149.297C62.6871 146.16 57.895 140.98 53.9756 135.474C49.9474 129.818 46.2644 122.935 44.5841 116.203C44.5652 116.128 44.6782 116.077 44.7117 116.15Z" fill="#262626"/>
<path d="M70.8377 44.705C63.5743 44.9358 56.1665 48.0526 50.5563 52.4602C44.2764 57.3927 41.1124 64.0511 38.8378 71.4081C38.7729 71.6164 38.4339 71.5837 38.4423 71.355C38.7771 63.3567 44.4941 56.0059 50.7195 51.2531C53.8249 48.8818 57.3593 47.1968 61.0925 46.002C63.635 45.1891 68.2365 43.4183 70.8669 44.5947C70.9255 44.6213 70.8921 44.703 70.8377 44.705Z" fill="#262626"/>
<path d="M87.8443 77.2538C88.5223 75.8363 90.6002 75.6709 91.5272 76.8841C91.9855 77.4825 92.019 78.5201 91.5942 79.1328C91.3096 79.5434 90.8618 79.8007 90.391 79.8886C89.7192 80.2174 88.8341 79.9008 88.3026 79.4821C87.6036 78.9347 87.4781 78.0177 87.8443 77.2538Z" fill="white"/>
<path d="M92.2365 96.3792C90.2276 98.4748 86.3186 97.0246 84.1591 95.9462C81.1771 94.4593 78.6054 92.0329 77.3749 88.9855C77.2828 88.7588 77.6051 88.6281 77.7599 88.7649C79.8651 90.6093 82.0728 92.4352 84.4206 93.9732C86.982 95.65 89.3068 95.8032 92.1904 96.2158C92.272 96.226 92.2825 96.3302 92.2365 96.3792Z" fill="white"/>
<path d="M76.6049 87.9036C75.9876 87.6216 75.5733 86.6492 75.9981 86.0752C76.1822 85.8259 76.4856 85.781 76.7284 85.9832C77.1636 86.3448 77.3059 87.164 77.1553 87.685C77.0862 87.9281 76.8225 88.0037 76.6049 87.9036Z" fill="white"/>
<path d="M104.966 138.928C103.65 140.588 101.421 141.389 99.5983 142.414C96.8423 143.962 93.5193 145.402 90.3804 145.911C90.2318 145.935 90.1586 145.764 90.28 145.678C92.6216 143.997 95.5031 143.235 98.1355 142.081C100.425 141.08 102.607 139.847 104.876 138.811C104.957 138.774 105.02 138.862 104.966 138.928Z" fill="#262626"/>
<path d="M89.5706 146.211C89.3823 146.434 88.154 147.059 88.2042 146.417C88.2126 146.323 88.2544 146.205 88.3528 146.162C88.7127 146.013 89.1145 145.817 89.5016 145.956C89.6188 145.999 89.6501 146.119 89.5706 146.211Z" fill="#262626"/>
<path d="M61.7204 55.7301C53.4546 60.2705 48.4597 67.174 46.7165 76.3079C46.6893 76.457 46.4319 76.461 46.4068 76.3079C45.6681 71.9288 48.5392 67.1434 50.9666 63.6936C53.2433 60.4584 57.2925 55.8077 61.6932 55.63C61.7497 55.628 61.7685 55.7056 61.7204 55.7301Z" fill="#262626"/>
<path d="M109.98 172.034C109.764 172.342 109.479 172.51 109.178 172.571C108.963 172.992 108.686 173.402 108.36 173.819C106.736 175.884 110.145 179.646 111.359 181.39C111.79 182.007 115.701 187.793 116.069 186.852C117.325 183.635 114.493 178.567 113.108 175.876C112.884 175.44 113.035 175.04 113.319 174.785C113.38 174.572 113.499 174.362 113.704 174.172C116.586 171.484 118.398 168.212 119.415 164.642C117.546 165.273 114.954 165.108 113.418 164.05C112.886 166.748 111.79 169.425 109.98 172.034Z" fill="#E40000"/>
<path d="M52.7285 171.991C52.3665 171.781 52.0045 171.548 51.6341 171.276C51.1026 170.888 50.6109 170.451 50.0605 170.087C47.6938 168.517 46.2415 171.846 45.6012 173.466C45.3312 174.148 43.8392 181.539 44.5131 181.449C46.2813 181.211 48.242 177.508 49.1293 176.227C49.5352 175.641 50.2656 175.741 50.6171 176.145C55.9009 178.625 60.8436 181.188 66.1169 181.505C65.5394 180.014 65.5101 177.853 66.2739 176.507C61.735 176.701 56.4889 174.538 52.7285 171.991Z" fill="#E40000"/>
<path d="M485.783 120.232C485.884 115.464 486.228 110.842 484.612 106.279C483.047 99.1516 476.908 95.3075 470.489 92.1643C468.603 91.2406 466.671 90.5937 464.708 90.1372C464.503 90.0887 464.297 90.0473 464.09 90.0042C458.419 88.8091 452.497 89.2207 446.664 89.7508C444.789 89.8155 442.922 89.9287 441.115 90.1857C441.043 90.1965 440.995 90.2342 440.932 90.2558C440.914 90.2576 440.896 90.2594 440.878 90.2594C439.268 90.3816 439.257 92.8994 440.878 92.7736C442.738 92.6298 444.57 92.4519 446.387 92.2866C450.864 92.0457 455.444 91.9846 459.813 92.1068C467.979 92.3351 476.108 98.0212 480.697 104.505C481.482 105.616 482.051 106.85 482.474 108.164C483.604 114.663 482.251 120.972 482.239 127.516C482.233 130.272 482.626 132.831 482.523 135.364C482.12 137.101 481.54 138.802 480.731 140.469C479.82 142.351 478.457 143.46 476.947 144.392C479.263 136.153 477.677 125.587 473.086 119.008C467.096 110.421 457.128 107.253 447.125 106.135C440.191 105.361 433.004 104.782 425.832 104.573C425.751 104.09 425.676 103.621 425.632 103.202C425.33 100.174 424.851 97.1046 423.329 94.4269C422.841 93.5697 421.13 93.2786 420.903 94.5168C420.341 97.5934 419.832 101.727 418.845 104.498C415.342 104.53 411.864 104.662 408.446 104.935C407.904 104.978 407.367 105.034 406.834 105.091C406.751 104.832 406.672 104.573 406.596 104.318C405.775 101.491 404.813 98.6807 403.241 96.1737C402.641 95.2177 400.813 95.1691 400.794 96.5961C400.752 99.6781 400.495 103.181 399.637 106.469C393.006 108.392 387.519 112.17 384.113 119.101C381.125 125.188 379.337 132.211 379.838 139.024C379.991 141.122 380.412 143.395 381.183 145.521C381.304 146.022 381.426 146.524 381.57 147.016C384.563 157.22 396.873 159.147 405.901 160.518C407.572 160.771 409.253 160.987 410.935 161.19C410.838 162.062 410.776 162.921 410.729 163.733C410.355 170.095 409.276 176.493 409.202 182.863C408.903 182.856 408.612 182.86 408.361 182.86C407.383 182.862 405.116 183.138 405.498 184.687C406.024 186.821 411.517 186.815 411.992 184.894C412.222 184.643 412.374 184.303 412.374 183.863C412.372 183.359 412.39 182.856 412.404 182.353C412.748 180.516 412.775 178.69 412.813 176.773C412.865 174.108 413.98 171.385 414.328 168.722C414.549 167.036 414.31 165.212 414.103 163.41C414.198 162.82 414.303 162.2 414.4 161.562C417.035 161.826 419.677 162.04 422.326 162.191C422.077 164.297 422.301 166.459 422.005 169.133C421.8 170.993 421.602 172.997 421.456 175.035C420.937 178.15 420.466 181.269 420.381 184.51C420.323 184.626 420.273 184.752 420.235 184.889C419.925 186.01 420.608 187.128 421.699 187.46C422.637 187.746 423.619 187.816 424.595 187.825C425.955 187.838 426.778 187.191 427.34 186.219C427.603 185.762 427.52 185.2 427.16 184.824C427.079 184.74 426.998 184.655 426.915 184.574C427.035 184.855 426.945 184.759 426.645 184.288C426.185 183.83 425.533 183.665 424.901 183.643C424.881 183.642 424.862 183.64 424.842 183.64C424.838 183.588 424.84 183.539 424.836 183.485C424.835 183.469 424.827 183.456 424.824 183.44C425.324 181.237 425.112 178.234 424.926 175.846C425.652 171.356 426.515 166.851 426.526 162.38C433.44 162.628 440.373 162.545 447.26 162.177C445.625 166.312 445.475 171.448 445.429 175.659C445.398 178.55 444.753 182.017 445.083 185.072C444.903 185.09 444.726 185.103 444.552 185.11C443.586 185.144 442.084 185.57 441.452 186.35C441.223 186.63 441.144 187.067 441.452 187.338C442.245 188.039 443.53 188.345 444.552 188.479C445.454 188.598 446.623 188.67 447.493 188.269C447.907 188.332 448.33 188.188 448.535 187.753C449.113 187.286 449.339 186.666 449.2 185.906C449.196 185.888 449.196 185.87 449.193 185.854C450.232 181.884 449.567 177.402 449.848 173.33C449.936 172.052 451.995 168.193 451.496 166.395C451.087 164.924 450.81 163.449 450.632 161.963C451.428 161.911 452.227 161.869 453.023 161.81C454.471 161.702 455.899 161.501 457.302 161.224C456.382 165.304 457.351 170.014 456.712 174.37C456.528 175.628 455.401 182.536 456.215 186.175C456.216 186.375 456.213 186.574 456.216 186.776C456.229 187.464 456.654 187.935 457.184 188.154C457.326 188.282 457.486 188.4 457.69 188.497C458.981 189.11 460.326 189.166 461.652 188.647C462.835 188.185 464.029 188.384 465.086 187.538C465.349 187.327 465.311 186.873 465.086 186.657C464.391 185.987 463.463 185.863 462.547 185.728C461.906 185.635 461.457 185.315 460.845 185.173C460.586 185.112 460.326 185.065 460.067 185.007C460.06 185.006 460.06 185.006 460.052 185.004C460.007 179.855 460.494 174.974 461.115 169.8C461.198 169.121 461.165 168.461 461.088 167.811C461.619 165.279 462.298 162.353 462.221 159.839C467.759 157.77 472.479 154.099 475.361 148.524C475.434 148.382 475.494 148.227 475.564 148.082C479.613 147.057 482.905 143.506 484.477 139.56C485.023 138.192 485.279 136.724 485.378 135.205C485.408 135.072 485.442 134.936 485.471 134.805C486.509 130.078 485.682 125.016 485.783 120.232Z" fill="#262626"/>
<path d="M389.975 105.801C381.588 110.693 375.47 121.95 376.426 131.618C376.466 132.021 377.008 132.017 377.05 131.618C378.204 120.818 382.739 113.674 390.123 105.991C390.218 105.891 390.098 105.729 389.975 105.801Z" fill="#262626"/>
<path d="M476.641 152.835C473.819 156.663 470.316 159.167 466.17 161.372C466.069 161.426 466.109 161.612 466.232 161.598C470.577 161.07 475.211 156.873 476.881 152.977C476.951 152.812 476.747 152.692 476.641 152.835Z" fill="#262626"/>
<path d="M398.724 122.137C398.051 120.541 396.754 119.423 394.96 119.055C392.851 118.62 390.878 120.041 389.552 121.502C389.433 121.634 389.424 121.883 389.502 122.034C391.22 125.314 395.737 126.71 398.434 124.024C399.151 123.31 399.16 123.165 398.724 122.137ZM394.474 124.482C393.512 124.421 389.736 122.737 391.022 121.504C392.063 120.507 393.424 119.962 394.861 120.111C396.509 120.28 397.671 121.804 398.652 123.007C397.339 123.95 396.154 124.59 394.474 124.482Z" fill="white"/>
<path d="M413.532 121.689C412.554 120.854 411.282 120.417 410.041 120.173C407.711 119.709 405.474 120.708 404.327 122.642C403.805 123.521 403.599 123.796 404.1 124.592C405.076 126.134 407.191 126.845 408.898 127.097C411.509 127.48 413.991 126.339 415.14 123.961C415.48 123.255 413.971 122.065 413.532 121.689ZM413.76 124.243C411.673 127.746 406.256 126.006 404.118 123.619C405.499 121.914 407.272 121.064 409.498 121.215C410.562 121.289 414.659 122.737 413.76 124.243Z" fill="white"/>
<path d="M405.087 145.517C404.172 146.238 403.545 147.007 402.272 146.89C401.422 146.813 400.675 146.495 400.145 145.814C399.49 144.971 399.794 143.388 399.85 142.412C399.862 142.191 399.913 141.558 399.981 140.775C400.104 139.371 400.284 137.481 400.385 136.6C400.538 135.279 400.651 133.973 400.707 132.837C400.79 132.729 400.869 132.628 400.966 132.501C401.291 132.071 401.606 131.633 401.887 131.176C402.93 129.478 402.874 128.768 401.838 128.445C401.15 128.227 399.862 128.195 399.205 128.234C397.88 128.314 397.899 129.433 398.294 130.7C398.479 131.297 398.73 131.929 398.971 132.458C399.14 132.83 399.277 133.101 399.403 133.297C399.229 134.327 399.063 135.477 398.924 136.645C398.816 137.526 398.573 139.395 398.337 141.034C398.137 142.443 397.944 143.679 397.858 143.97C397.15 146.394 393.858 147.367 392.653 144.761C392.606 144.657 392.464 144.714 392.473 144.817C392.673 147.023 395.654 147.669 397.224 146.398C397.649 146.053 397.993 145.632 398.281 145.165C398.443 145.976 398.796 146.709 399.445 147.289C401.26 148.914 404.615 148.103 405.251 145.632C405.276 145.537 405.175 145.447 405.087 145.517Z" fill="white"/>
<path d="M405.757 135.243C408.918 134.898 411.693 135.15 414.576 136.566C414.67 136.611 414.755 136.502 414.686 136.424C412.808 134.293 408.213 134.088 405.737 135.1C405.669 135.128 405.667 135.252 405.757 135.243Z" fill="white"/>
<path d="M405.838 137.046C407.164 137.337 408.485 137.47 409.789 137.874C411.037 138.261 412.078 139.01 413.274 139.492C413.362 139.528 413.407 139.405 413.359 139.346C411.79 137.526 408.158 136.478 405.838 136.961C405.797 136.97 405.797 137.035 405.838 137.046Z" fill="white"/>
<path d="M405.485 139.112C406.326 139.502 407.261 139.671 408.134 139.982C409.339 140.41 410.34 141.181 411.498 141.686C411.56 141.713 411.657 141.65 411.605 141.58C410.45 140.009 407.423 138.838 405.51 139.015C405.465 139.019 405.433 139.087 405.485 139.112Z" fill="white"/>
<path d="M395.729 134.165C393.471 132.7 388.925 132.066 386.672 133.818C386.597 133.877 386.679 133.993 386.76 133.969C389.86 133.115 392.623 133.376 395.673 134.302C395.756 134.325 395.798 134.21 395.729 134.165Z" fill="white"/>
<path d="M395.272 135.971C393.076 135.069 389.318 135.437 387.432 136.933C387.358 136.992 387.441 137.093 387.517 137.078C388.621 136.861 389.662 136.422 390.771 136.208C392.28 135.917 393.746 136.104 395.259 136.057C395.311 136.056 395.315 135.991 395.272 135.971Z" fill="white"/>
<path d="M395.225 138.056C393.339 137.543 390.226 138.108 388.758 139.442C388.696 139.497 388.761 139.589 388.833 139.571C389.809 139.343 390.733 138.919 391.71 138.67C392.866 138.377 394.072 138.433 395.225 138.155C395.274 138.142 395.274 138.068 395.225 138.056Z" fill="white"/>
<path d="M433.908 118.439C435.138 119.057 436.842 119.008 438.196 118.922C438.969 118.872 439.224 117.675 438.387 117.509C436.977 117.227 435.1 117.218 433.908 118.102C433.802 118.182 433.766 118.367 433.908 118.439Z" fill="white"/>
<path d="M436.768 120.956C437.213 121.22 437.8 121.22 438.302 121.292C438.843 121.368 439.331 121.54 439.833 121.269C440.11 121.12 440.186 120.676 439.938 120.464C439.505 120.093 439.014 120.126 438.466 120.09C437.924 120.054 437.233 119.995 436.768 120.324C436.548 120.48 436.516 120.805 436.768 120.956Z" fill="white"/>
<path d="M434.76 122.649C434.848 123.021 435.223 123.154 435.547 123.269C436.06 123.453 436.615 123.559 437.151 123.647C437.492 123.702 437.722 123.6 437.929 123.33C438.055 123.167 438.05 122.994 437.998 122.8C437.938 122.581 437.746 122.369 437.517 122.32C436.854 122.18 436.175 122.086 435.496 122.135C435.284 122.155 434.68 122.313 434.76 122.649Z" fill="white"/>
<path d="M443.123 134.702C443.588 135.15 444.107 135.278 444.712 135.456C445.448 135.673 446.21 135.858 446.976 135.749C447.653 135.652 447.538 134.67 446.976 134.498C446.315 134.296 445.569 134.271 444.881 134.217C444.245 134.165 443.719 134.111 443.156 134.458C443.071 134.51 443.05 134.631 443.123 134.702Z" fill="white"/>
<path d="M443.674 136.89C443.775 137.046 443.831 137.244 443.963 137.375C444.164 137.578 444.476 137.7 444.728 137.83C445.223 138.085 445.794 138.198 446.273 137.866C446.477 137.725 446.623 137.414 446.452 137.186C446.126 136.746 445.787 136.668 445.279 136.526C445.043 136.46 444.773 136.435 444.53 136.402C444.247 136.365 444.065 136.481 443.806 136.564C443.674 136.607 443.593 136.765 443.674 136.89Z" fill="white"/>
<path d="M452.931 129.356C453.452 129.755 453.999 129.685 454.624 129.771C455.302 129.867 455.973 130.072 456.614 129.762C456.885 129.631 456.953 129.178 456.714 128.984C456.116 128.495 455.284 128.506 454.536 128.49C453.87 128.475 453.23 128.5 452.87 129.124C452.82 129.212 452.858 129.3 452.931 129.356Z" fill="white"/>
<path d="M453.747 131.433C453.931 131.583 454.012 131.723 454.226 131.838C454.448 131.955 454.678 132.01 454.918 132.072C455.446 132.208 455.941 132.314 456.487 132.341C457.178 132.375 457.238 131.403 456.643 131.194C456.179 131.033 455.73 130.955 455.248 130.88C454.999 130.842 454.761 130.797 454.509 130.802C454.243 130.81 454.115 130.909 453.868 130.977C453.684 131.029 453.582 131.3 453.747 131.433Z" fill="white"/>
<path d="M453.931 115.98C454.613 116.453 455.361 116.415 456.162 116.494C456.89 116.564 457.821 116.672 458.305 116.027C458.365 115.948 458.345 115.833 458.305 115.752C457.927 114.993 456.883 115.085 456.162 115.067C455.359 115.047 454.468 115.193 453.907 115.797C453.853 115.854 453.866 115.937 453.931 115.98Z" fill="white"/>
<path d="M455.489 118.178C455.748 118.951 457.297 119.303 457.848 118.723C458.023 118.537 458.061 118.273 457.935 118.05C457.61 117.471 456.93 117.518 456.343 117.513C456.042 117.509 455.345 117.748 455.489 118.178Z" fill="white"/>
<path d="M436.148 144.071C436.345 144.522 436.806 144.646 437.236 144.79C437.87 145 438.526 145.286 439.199 145.316C439.876 145.347 440.139 144.36 439.545 144.044C438.839 143.668 437.955 143.611 437.168 143.575C436.997 143.566 435.983 143.69 436.148 144.071Z" fill="white"/>
<path d="M436.175 146.513C436.294 146.988 436.964 147.327 437.418 147.399C438.104 147.509 438.52 146.664 437.899 146.26C437.515 146.01 436.755 145.771 436.355 146.071C436.209 146.181 436.128 146.326 436.175 146.513Z" fill="white"/>
<path d="M455.402 148.447C455.914 148.807 456.548 148.943 457.131 149.146C457.756 149.362 458.457 149.597 459.062 149.24C459.283 149.108 459.413 148.765 459.245 148.539C458.835 147.98 458.183 147.856 457.527 147.708C456.854 147.555 456.218 147.35 455.526 147.485C455.04 147.582 455.065 148.21 455.402 148.447Z" fill="white"/>
<path d="M455.554 150.399C455.865 150.853 456.342 151.071 456.863 151.215C457.637 151.427 458.102 150.329 457.407 149.926C456.937 149.654 456.353 149.496 455.833 149.71C455.575 149.818 455.366 150.124 455.554 150.399Z" fill="white"/>
<path d="M467.852 136.041C468.113 136.527 468.697 136.631 469.196 136.692C469.853 136.773 470.575 136.98 471.081 136.426C471.303 136.183 471.342 135.781 471.081 135.545C470.518 135.033 469.509 135.141 468.8 135.27C468.578 135.31 467.638 135.639 467.852 136.041Z" fill="white"/>
<path d="M468.02 138.796C468.331 139.199 468.888 139.289 469.351 139.424C469.864 139.571 470.253 139.639 470.689 139.289C470.864 139.147 470.847 138.892 470.763 138.712C470.525 138.203 470.01 138.146 469.511 138.05C469.041 137.961 468.512 137.863 468.099 138.164C467.872 138.327 467.851 138.577 468.02 138.796Z" fill="white"/>
<path d="M433.991 132.285C434.5 132.535 435.118 132.476 435.676 132.492C436.249 132.51 436.768 132.37 437.115 131.899C437.175 131.818 437.15 131.681 437.079 131.617C436.687 131.252 436.197 131.178 435.676 131.228C435.118 131.281 434.497 131.22 433.991 131.477C433.684 131.628 433.679 132.131 433.991 132.285Z" fill="white"/>
<path d="M443.118 112.104C443.806 112.429 444.498 112.402 445.241 112.248C445.839 112.124 446.632 111.937 446.673 111.194C446.704 110.635 445.627 110.739 445.351 110.824C444.564 111.063 443.784 111.23 443.12 111.723C442.999 111.811 442.952 112.025 443.118 112.104Z" fill="white"/>
<path d="M447.451 124.894C447.685 125.313 448.186 125.309 448.607 125.307C449.171 125.304 449.574 125.223 449.965 124.791C450.035 124.714 450.044 124.594 449.965 124.516C449.443 124.006 448.926 124.058 448.249 124.155C448.011 124.191 447.237 124.513 447.451 124.894Z" fill="white"/>
<path d="M458.767 140.563C459.197 140.971 459.662 141.073 460.229 141.206C460.771 141.334 461.448 141.578 461.983 141.354C462.394 141.183 462.489 140.698 462.104 140.43C461.628 140.099 460.899 140.121 460.333 140.038C459.768 139.957 459.312 139.912 458.81 140.218C458.693 140.29 458.662 140.462 458.767 140.563Z" fill="white"/>
<path d="M465.76 126.598C466.237 127.505 469.871 127.169 469.365 126.152C469.009 125.433 467.726 125.711 467.107 125.807C466.884 125.841 465.484 126.071 465.76 126.598Z" fill="white"/>
<path d="M446.315 151.646C446.28 152.083 446.943 152.377 447.251 152.528C447.817 152.803 448.669 153.285 449.254 152.854C449.472 152.692 449.555 152.5 449.508 152.23C449.375 151.455 448.294 151.214 447.628 151.142C447.262 151.105 446.356 151.101 446.315 151.646Z" fill="white"/>
<path d="M466.367 147.593C466.657 148.114 467.186 148.298 467.696 148.558C468.279 148.857 468.841 148.972 469.488 149.001C469.954 149.022 470.287 148.339 469.891 148.028C469.376 147.62 468.91 147.374 468.274 147.185C467.737 147.025 467.154 146.831 466.604 147.009C466.358 147.09 466.239 147.361 466.367 147.593Z" fill="white"/>
<path d="M432.575 153.517C432.739 153.874 433.164 154.131 433.531 154.252C433.976 154.396 434.43 154.592 434.891 154.671C435.262 154.734 435.622 154.635 435.822 154.293C436.028 153.943 435.941 153.344 435.527 153.168C434.81 152.864 433.45 152.451 432.735 152.916C432.516 153.056 432.472 153.29 432.575 153.517Z" fill="white"/>
<path d="M428.78 112.776C429.461 113.189 430.304 112.78 430.979 112.56C431.385 112.429 432.537 111.829 432.172 111.205C431.752 110.488 430.706 110.881 430.149 111.142C429.524 111.433 428.728 111.823 428.685 112.609C428.68 112.677 428.723 112.742 428.78 112.776Z" fill="white"/>
<path d="M387.978 86.1062C386.342 84.0352 383.769 83.3122 381.146 83.0797C376.776 82.6917 362.503 86.7166 359.584 87.7527C357.506 88.064 352.612 89.5833 350.793 90.4621C346.5 92.5358 344.879 98.6895 349.11 103.929C352.349 107.94 357.529 106.544 361.729 105.442C361.967 106.038 362.328 106.596 362.645 106.982C363.659 108.216 365.675 108.871 366.926 108.992C368.141 109.109 367.969 108.903 366.85 107.313C366.253 106.465 365.827 105.529 365.624 104.523C370.288 103.54 383.3 100.134 385.199 99.455C389.236 98.0133 391.74 90.8696 387.978 86.1062Z" fill="#E40000"/>
<path d="M353.285 102.021L353.076 100.548L352.226 96.3247C352.072 95.7503 351.939 95.0533 351.823 94.4814C351.817 94.4567 351.841 94.3985 351.871 94.3648C352.189 93.9864 352.649 93.8727 353.097 93.7618C353.121 93.756 353.146 93.7498 353.182 93.7408C353.472 93.6691 353.645 93.6914 353.875 93.8948C354.354 94.4284 354.901 95.0888 355.334 95.698L355.364 95.7169C355.364 95.7169 355.364 95.7169 355.376 95.7138L355.389 95.7107L355.406 95.6802C355.422 95.6375 355.456 95.5125 355.453 95.4998L355.573 93.8008C355.555 93.2579 356.075 93.0244 356.523 92.9136L356.536 92.9105C356.953 92.8336 357.561 92.6966 358.027 92.6591C358.276 92.6761 358.621 93.3468 358.702 93.5743L360.935 100.284L360.928 100.312C360.907 100.331 360.802 100.37 360.778 100.376C360.553 100.458 359.498 100.757 359.268 100.814C359.256 100.817 359.151 100.857 359.102 100.869C359.065 100.878 358.94 100.895 358.917 100.901C358.822 100.886 358.756 100.616 358.721 100.52L357.257 95.9398L357.158 98.768C357.067 99.3378 356.737 99.4583 356.395 99.4256C356.066 99.3896 356.026 99.3867 354.343 96.6215C354.34 96.6096 354.312 96.6031 354.3 96.606L354.283 96.6365C354.301 96.7098 354.791 98.5448 354.828 98.6921C354.894 98.9621 355.11 99.7822 355.128 99.8563C355.164 100.004 355.51 101.091 355.554 101.224C355.557 101.236 355.576 101.31 355.585 101.347C355.703 101.827 354.868 102.033 354.553 102.111C354.517 102.12 354.372 102.156 354.372 102.156C354.332 102.153 353.942 102.184 353.83 102.199C353.83 102.199 353.818 102.202 353.806 102.205C353.793 102.208 353.793 102.208 353.782 102.211C353.642 102.219 353.337 102.23 353.288 102.033L353.286 102.021L353.285 102.021Z" fill="white"/>
<path d="M360.848 96.539C360.603 95.596 360.32 94.6614 360.087 93.7147C359.99 93.3214 359.836 92.5908 360.384 92.364L363.241 91.7614C363.477 91.729 363.613 92.0739 363.682 92.252C363.719 92.3476 363.831 92.6451 363.834 92.6578C363.837 92.6698 363.904 92.8889 363.922 92.9622C363.934 93.0116 363.974 93.2231 363.986 93.2725C363.986 93.5851 363.759 93.7062 363.48 93.7752C363.338 93.8231 362.642 94.0221 362.497 94.058C362.485 94.0611 362.443 94.0976 362.43 94.1007C362.418 94.1038 362.4 94.1343 362.4 94.1343L362.719 95.4249L362.782 95.4742L364.008 95.236C364.141 95.2033 364.386 95.2076 364.429 95.3795L364.69 96.4369C364.72 96.5595 364.669 96.7673 364.538 96.8132C364.087 96.9112 363.642 97.0347 363.2 97.1701C363.17 97.2039 363.17 97.2554 363.182 97.3048C363.185 97.3167 363.197 97.3661 363.197 97.3661C363.234 97.5134 363.433 98.2209 363.482 98.3651L363.485 98.3771L363.488 98.3891L363.491 98.4018C363.515 98.4482 363.536 98.4818 363.597 98.4668C364.057 98.353 364.462 98.1219 364.911 98.011C364.971 97.9961 365.125 97.9444 365.195 97.9668C365.455 98.0334 365.737 98.811 365.8 99.069C365.818 99.1423 365.837 99.2163 365.842 99.2935C366.13 100.2 363.516 100.325 362.227 100.826C362.166 100.841 362.069 100.813 362.036 100.73C362.036 100.73 362.002 100.595 361.999 100.583C361.96 100.475 361.691 99.642 361.666 99.5432C361.508 99.0611 361.46 98.551 361.245 98.0956C361.19 97.8761 360.905 96.7731 360.848 96.539Z" fill="white"/>
<path d="M365.538 95.3003C365.529 95.2629 365.502 95.153 365.499 95.1403C365.371 94.4681 365.266 93.7763 365.183 93.0795C365.184 93.0278 365.173 92.8344 365.167 92.8097C365.179 92.7543 365.23 92.1816 365.249 91.9945C365.246 91.9818 365.264 91.9519 365.261 91.9391C365.626 90.8183 366.41 89.9334 367.782 89.9726C367.794 89.9695 367.81 89.9791 367.821 89.9764C367.991 89.986 368.175 90.0062 368.344 90.0683C368.793 90.2707 369.111 90.6745 369.402 91.0722C369.959 91.873 370.108 92.9444 370.359 93.8606C370.386 93.9188 370.498 94.3212 370.507 94.3578C370.519 94.4072 370.662 94.9852 370.713 95.1938C370.765 95.4024 370.895 95.9311 370.904 95.9677C370.95 96.1524 371.135 97.0579 371.171 97.2575C371.229 97.5431 371.023 97.855 370.745 97.9239C370.672 97.9419 370.944 97.8484 370.045 98.0057C370.045 98.0057 369.927 97.996 369.885 97.9802C369.655 97.9331 369.621 97.9019 369.509 97.7082C369.488 97.6222 369.373 97.2596 369.343 97.1885C369.334 97.1518 369.285 97.0069 369.276 96.971C369.255 96.9365 369.219 96.9454 369.206 96.9485C369.195 96.9514 369.161 96.9733 369.149 96.9762C369.113 96.9851 368.145 97.2246 368.111 97.2455C368.075 97.2544 368.099 97.3009 368.102 97.3128C368.105 97.3256 368.117 97.3742 368.117 97.3742C368.168 97.5305 368.314 98.0165 368.336 98.0501C368.342 98.0748 368.444 98.2318 368.447 98.2438C368.451 98.2565 368.463 98.3051 368.466 98.3178C368.484 98.3911 368.477 98.4189 368.411 98.4614C368.206 98.5122 367.754 98.7151 367.537 98.7689C367.513 98.7749 367.21 98.8498 367.102 98.8765C367.041 98.8915 366.738 98.9663 366.678 98.9813C366.56 98.9716 366.523 98.876 366.487 98.7809C366.208 97.5997 365.826 96.4683 365.538 95.3003ZM367.754 95.4307C367.754 95.4307 368.11 95.3687 368.123 95.3656C368.147 95.3597 368.655 95.2339 368.667 95.231C368.659 95.1419 368.571 94.6805 368.546 94.5825C368.546 94.5825 368.534 94.5332 368.531 94.5212C368.477 94.3006 368.362 94.0419 368.307 93.8206C368.204 93.4549 368.14 93.0924 367.977 92.7423C367.746 91.9648 367.474 91.7457 367.293 91.8429C367.111 91.9402 367.005 92.344 367.087 92.884C367.087 92.9887 367.102 93.2587 367.108 93.2834C367.136 93.551 367.19 93.824 367.256 94.0947C367.366 94.5374 367.484 95.016 367.663 95.4286C367.693 95.4456 367.717 95.4398 367.754 95.4307Z" fill="white"/>
<path d="M375.684 96.1303C375.563 96.6292 375.215 97.4585 374.701 97.6642C374.689 97.6671 374.308 97.7876 374.187 97.8176C374.187 97.8176 374.089 97.8417 374.066 97.8475C373.097 98.0871 372.515 96.979 372.158 96.2067C371.367 94.4592 370.704 92.3416 370.328 90.2441L370.325 90.2314C370.316 90.1948 370.343 90.1492 370.377 90.1274C370.662 90.0307 371.639 89.7241 371.929 89.6521C371.941 89.6492 372.05 89.6222 372.086 89.6133C372.111 89.6073 372.22 89.5803 372.256 89.5714C372.538 90.6098 373.199 94.9059 373.896 94.9161L373.925 94.935C374.379 95.0051 374.609 94.166 374.209 92.6481C374.176 92.5127 374.064 91.8494 374.031 91.7148L374.06 91.6805L375.641 91.3166C375.677 91.3075 375.726 91.348 375.719 91.375C375.98 92.3799 376.356 94.2164 377.127 94.4817C377.127 94.4817 377.14 94.4786 377.152 94.4757C377.727 94.2556 376.894 90.8758 376.539 89.0206C376.467 88.6736 376.593 88.5114 376.877 88.3625C377.086 88.2719 377.759 88.1842 377.964 88.1334C378.025 88.1184 378.076 88.1191 378.125 88.1071C378.303 88.1019 378.515 88.1795 378.567 88.3889C379.81 93.428 379.278 95.489 378.551 96.4509C378.328 96.7411 378.01 96.9109 377.696 96.9887C377.344 97.0756 377.023 97.0764 376.681 96.9388C376.297 96.7864 376.046 96.4438 375.764 96.136C375.746 96.1142 375.733 96.1173 375.709 96.1233L375.684 96.1295L375.684 96.1303Z" fill="white"/>
<path d="M379.827 94.5963C379.903 94.5386 380.051 94.5147 380.111 94.4998C380.147 94.4909 380.28 94.4582 380.316 94.4491C380.426 94.4744 380.568 94.4266 380.658 94.4821C380.688 94.5007 380.818 94.6123 380.848 94.631C380.908 94.72 380.933 94.8187 380.957 94.9175C381.066 95.3602 380.785 95.6772 380.459 95.758C380.218 95.8176 379.809 95.618 379.727 95.2867C379.661 95.0151 379.7 94.8102 379.827 94.5963Z" fill="white"/>
<path d="M381.922 94.6002C381.997 94.5419 382.145 94.5188 382.206 94.5039C382.242 94.4948 382.375 94.462 382.411 94.4531C382.52 94.4785 382.662 94.4307 382.752 94.4862C382.783 94.5048 382.913 94.6162 382.943 94.6349C383.004 94.7239 383.028 94.8226 383.052 94.9214C383.161 95.3641 382.881 95.6811 382.554 95.7619C382.312 95.8217 381.904 95.6219 381.822 95.2906C381.756 95.019 381.795 94.8141 381.922 94.6002Z" fill="white"/>
<path d="M383.774 93.6201C383.85 93.5623 383.998 93.5385 384.058 93.5236C384.094 93.5146 384.228 93.4817 384.264 93.4728C384.373 93.4982 384.515 93.4504 384.605 93.5058C384.635 93.5247 384.766 93.6358 384.795 93.6547C384.856 93.7438 384.88 93.8425 384.904 93.9412C385.013 94.3839 384.733 94.7009 384.406 94.7817C384.165 94.8414 383.756 94.6418 383.674 94.3105C383.608 94.0388 383.647 93.8339 383.774 93.6201Z" fill="white"/>
<path d="M379.056 100.249C382.785 99.7055 387.714 98.1153 388.286 93.7191C388.292 93.6681 388.22 93.664 388.203 93.7053C387.407 95.7595 386.347 97.2569 384.41 98.3286C382.734 99.2565 380.834 99.5842 379.048 100.216C379.028 100.224 379.035 100.252 379.056 100.249Z" fill="white"/>
<path d="M388.401 93.2415C388.546 92.9749 388.674 92.6249 388.636 92.3163C388.632 92.2869 388.593 92.2872 388.579 92.3073C388.415 92.5604 388.338 92.9262 388.353 93.2272C388.355 93.2515 388.388 93.2655 388.401 93.2415Z" fill="white"/>
<path d="M347.858 97.2494C348.407 95.7373 348.79 94.2476 349.808 92.9639C350.536 92.0451 351.652 91.4906 352.692 91.0184C354.851 90.0378 357.213 89.505 359.474 88.8174C359.539 88.7972 359.515 88.7002 359.448 88.7134C354.701 89.6115 347.911 91.0655 347.848 97.248C347.848 97.2544 347.856 97.2546 347.858 97.2494Z" fill="white"/>
<path d="M359.981 88.6108C360.208 88.5976 360.466 88.5522 360.667 88.4413C360.7 88.4226 360.687 88.3685 360.649 88.3685C360.42 88.3637 360.17 88.4437 359.963 88.538C359.929 88.5529 359.943 88.613 359.981 88.6108Z" fill="white"/>
<path d="M209.568 129.687C213.359 139.185 222.064 148.591 233.057 146.986C237.857 146.285 242.491 143.625 246.71 141.377C252.505 138.289 258.067 134.757 263.491 131.067C272.276 125.093 281.5 118.384 287.751 109.649C294.088 100.798 285.888 85.9111 278.595 80.2797C278.304 80.0562 278.044 80.4857 278.22 80.7315C281.826 85.7807 285.254 91.9097 287.173 97.8247C289.118 103.814 286.648 108.21 282.785 112.51C276.301 119.729 268.073 125.556 260.063 130.929C252.846 135.77 245.245 140.414 237.189 143.726C224.691 148.862 216.882 138.332 210.128 129.294C209.877 128.953 209.433 129.353 209.568 129.687Z" fill="#262626"/>
<path d="M270.64 71.4909C254.318 67.0054 211.36 93.6508 203.749 114.91C202.118 119.464 203.333 124.847 206.557 129.233C213.077 138.099 217.304 135.06 220.09 130.023C220.568 129.156 220.926 128.247 221.388 127.375C223.783 122.846 226.762 127.57 227.349 128.476C228.341 130.011 229.216 131.952 231.124 132.694C237.278 135.095 239.942 131.882 240.062 125.935C240.14 122.193 238.963 115.076 245.887 115.513C249.698 115.755 253.51 118.663 257.809 115.147C260.641 112.831 260.168 110.499 260.107 107.704C259.944 100.205 267.269 100.635 272.172 101.138C280.102 101.954 285.075 95.5967 284.653 88.7679C284.208 81.546 277.79 73.4542 270.64 71.4909Z" fill="#E40000"/>
<path d="M240.006 89.4774C235.494 92.2072 231.4 95.0245 227.634 98.1354C217.573 106.448 218.4 111.635 230.782 103.91C236.033 100.636 241.636 96.3293 244.103 94.5169C259.63 83.0905 257.858 78.6702 240.006 89.4774Z" fill="white"/>
<path d="M215.046 110.526C223.41 111.469 233.144 104.379 239.584 99.9178C246.727 94.9683 256.712 87.7436 259.099 78.896C259.173 78.6256 258.788 78.4848 258.641 78.6785C250.509 89.3547 230.782 103.912 214.998 110.297C214.896 110.336 214.941 110.513 215.046 110.526Z" fill="#262626"/>
<path d="M263.075 90.1191C263.403 90.9009 264.572 91.0357 265.355 91.0463C266.175 91.057 266.229 89.7626 265.416 89.7778C264.941 89.7873 264.468 89.7518 263.994 89.7471C263.617 89.7432 263.432 89.7644 263.129 89.9481C263.066 89.987 263.046 90.0527 263.075 90.1191Z" fill="white"/>
<path d="M265.858 79.5214C266.528 79.7299 267.902 79.7456 268.385 79.1683C268.643 78.857 268.579 78.4439 268.186 78.2859C267.768 78.1165 267.344 78.2764 266.932 78.4115C266.504 78.5494 266.084 78.6831 265.737 78.9794C265.549 79.1369 265.634 79.4519 265.858 79.5214Z" fill="white"/>
<path d="M269.793 83.8493C270.351 84.1596 271.168 84.2342 271.795 84.3001C272.479 84.3721 272.69 83.2436 272.009 83.1085C271.325 82.975 270.31 82.9329 269.755 83.4366C269.633 83.5457 269.644 83.7683 269.793 83.8493Z" fill="white"/>
<path d="M253.239 100.245C253.058 100.706 253.5 101.174 253.783 101.497C254.166 101.931 254.563 102.514 255.124 102.7C255.476 102.816 255.868 102.48 255.772 102.11C255.626 101.547 255.139 101.245 254.716 100.88C254.39 100.598 253.973 100.041 253.501 100.063C253.375 100.069 253.284 100.126 253.239 100.245Z" fill="white"/>
<path d="M245.318 104.471C245.377 104.966 245.703 105.376 245.982 105.774C246.231 106.129 246.341 106.589 246.798 106.709C246.966 106.752 247.202 106.706 247.284 106.529C247.516 106.033 247.273 105.718 246.968 105.308C246.645 104.875 246.284 104.386 245.792 104.14C245.539 104.016 245.283 104.191 245.318 104.471Z" fill="white"/>
<path d="M235.608 109.622C235.386 110.16 235.964 110.996 236.234 111.433C236.569 111.978 237.459 111.489 237.105 110.979C236.797 110.54 236.428 109.505 235.795 109.49C235.705 109.488 235.641 109.541 235.608 109.622Z" fill="white"/>
<path d="M230.389 113.484C230.267 114.165 230.453 115.063 230.996 115.512C231.335 115.792 231.747 115.428 231.8 115.093C231.902 114.454 231.338 113.722 230.915 113.289C230.717 113.085 230.434 113.232 230.389 113.484Z" fill="white"/>
<path d="M217.474 117.073C217.126 117.632 217.005 118.416 217.035 119.065C217.08 119.996 218.339 120.056 218.473 119.134C218.575 118.442 218.509 117.569 218.033 117.02C217.881 116.847 217.592 116.885 217.474 117.073Z" fill="white"/>
<path d="M212.416 116.21C211.676 116.689 211.459 117.681 211.242 118.491C211.002 119.39 212.432 119.798 212.594 118.917C212.751 118.064 213.071 117.159 212.759 116.317C212.711 116.195 212.521 116.141 212.416 116.21Z" fill="white"/>
<path d="M208.24 114.242C207.42 114.163 206.514 115.346 206.966 116.083C207.14 116.367 207.466 116.491 207.775 116.338C208.34 116.061 208.602 115.005 208.443 114.415C208.417 114.316 208.342 114.252 208.24 114.242Z" fill="white"/>
<path d="M213.681 124.623C213.43 124.831 213.21 125.047 213.093 125.422C212.972 125.809 212.867 126.205 212.733 126.588C212.458 127.382 213.722 127.783 213.974 126.979C214.215 126.212 214.356 125.383 213.96 124.67C213.902 124.567 213.772 124.55 213.681 124.623Z" fill="white"/>
<path d="M209.578 122.699C209.057 123.294 208.956 123.928 209.079 124.704C209.2 125.482 210.39 125.219 210.268 124.448C210.173 123.843 210.056 123.309 209.83 122.742C209.793 122.652 209.644 122.624 209.578 122.699Z" fill="white"/>
<path d="M225.523 118.452C225.178 118.745 225.285 119.336 225.328 119.731C225.394 120.345 225.595 121.108 226.25 121.31C226.449 121.373 226.736 121.299 226.832 121.096C227.161 120.409 226.738 119.76 226.398 119.153C226.284 118.95 225.865 118.161 225.523 118.452Z" fill="white"/>
<path d="M231.393 124.878C231.092 125.191 231.232 125.821 231.347 126.194C231.523 126.769 231.714 127.352 231.974 127.895C232.309 128.594 233.417 128.018 233.038 127.34C232.796 126.907 232.609 126.445 232.427 125.984C232.283 125.62 232.058 124.932 231.626 124.826C231.546 124.806 231.453 124.814 231.393 124.878Z" fill="white"/>
<path d="M233.369 119.467C233.132 119.868 233.29 120.35 233.393 120.773C233.514 121.273 233.765 121.957 234.157 122.294C234.457 122.554 235.096 122.47 235.067 121.961C235.038 121.433 234.764 121.032 234.529 120.569C234.331 120.181 234.07 119.6 233.662 119.4C233.56 119.352 233.433 119.36 233.369 119.467Z" fill="white"/>
<path d="M243.201 108.746C243.138 109.19 243.403 109.683 243.62 110.054C243.871 110.487 244.136 111.094 244.689 111.127C244.867 111.137 245.034 111.016 245.086 110.849C245.246 110.348 244.845 109.995 244.569 109.613C244.29 109.225 243.887 108.722 243.399 108.607C243.296 108.586 243.213 108.644 243.201 108.746Z" fill="white"/>
<path d="M251.239 109.764C251.282 110.202 251.477 110.534 251.7 110.905C251.952 111.324 252.153 111.771 252.556 112.055C252.939 112.324 253.486 111.927 253.376 111.483C253.268 111.055 252.983 110.759 252.716 110.413C252.417 110.027 252.154 109.658 251.711 109.433C251.456 109.305 251.211 109.489 251.239 109.764Z" fill="white"/>
<path d="M255.297 94.1928C255.708 94.7111 256.304 95.057 256.886 95.3527C257.297 95.5616 258.068 95.9038 258.396 95.3772C258.895 94.5832 255.898 93.9269 255.441 93.8794C255.265 93.8619 255.204 94.0747 255.297 94.1928Z" fill="white"/>
<path d="M268.931 96.6624C269.409 97.2252 270.237 97.4263 270.94 97.4847C271.703 97.5491 271.755 96.3649 270.996 96.302C270.37 96.2495 269.66 96.1574 269.042 96.311C268.88 96.3515 268.825 96.539 268.931 96.6624Z" fill="white"/>
<path d="M271.605 91.5555C272.213 92.1114 273.938 93.1195 274.66 92.3398C274.746 92.2455 274.818 92.105 274.775 91.9742C274.584 91.3735 274.045 91.2377 273.481 91.1329C272.922 91.0273 272.29 90.926 271.742 91.1225C271.574 91.1805 271.439 91.4055 271.605 91.5555Z" fill="white"/>
<path d="M277.092 87.547C277.522 87.6784 277.935 87.8085 278.372 87.9138C278.784 88.0148 279.225 88.257 279.614 87.9868C279.811 87.8481 279.879 87.6619 279.788 87.4335C279.592 86.9424 278.984 86.9061 278.524 86.82C277.985 86.7204 277.534 86.7452 277.045 87.0061C276.819 87.124 276.843 87.4708 277.092 87.547Z" fill="white"/>
<path d="M274.625 80.751C275.174 80.9867 276.138 80.8627 276.649 80.5669C277.049 80.3342 276.969 79.6081 276.442 79.6208C275.839 79.6372 274.993 79.9575 274.534 80.3518C274.389 80.477 274.472 80.6858 274.625 80.751Z" fill="white"/>
<path d="M261.654 84.1329C262.232 84.3594 262.657 84.5484 263.303 84.5092C263.864 84.4771 264.442 84.4375 264.635 83.8289C264.662 83.7434 264.623 83.6661 264.557 83.6152C264.127 83.2878 263.716 83.4545 263.226 83.5374C262.98 83.5801 262.74 83.6101 262.495 83.6662C262.209 83.7323 261.947 83.865 261.665 83.9343C261.56 83.9596 261.559 84.0951 261.654 84.1329Z" fill="white"/>
<path d="M262.411 75.8976C263.148 76.1105 264.176 75.739 264.632 75.1441C264.892 74.806 264.504 74.3613 264.135 74.4344C263.497 74.5608 262.657 75.1597 262.353 75.745C262.326 75.8045 262.343 75.879 262.411 75.8976Z" fill="white"/>
<path d="M246.831 98.6733C246.56 99.43 247.363 100.897 248.131 101.086C248.513 101.181 248.953 100.783 248.713 100.391C248.478 100.004 248.081 99.7327 247.815 99.3553C247.612 99.0697 247.349 98.7166 247.023 98.5732C246.943 98.5391 246.856 98.6005 246.831 98.6733Z" fill="white"/>
<path d="M238.411 104.342C238.369 105.057 238.678 106.382 239.406 106.683C239.65 106.785 239.942 106.561 239.945 106.307C239.949 105.938 239.676 105.594 239.465 105.303C239.195 104.928 238.949 104.589 238.616 104.266C238.544 104.197 238.419 104.234 238.411 104.342Z" fill="white"/>
<path d="M224.031 112.417C223.763 113.095 223.983 114.009 224.306 114.638C224.581 115.174 225.476 114.872 225.317 114.274C225.143 113.618 224.876 112.854 224.445 112.323C224.319 112.17 224.093 112.258 224.031 112.417Z" fill="white"/>
<path d="M217.765 125.641C217.625 126.024 217.587 126.651 217.739 127.032C217.881 127.385 218.441 127.386 218.616 127.067C218.835 126.669 218.74 125.96 218.538 125.573C218.361 125.237 217.888 125.303 217.765 125.641Z" fill="white"/>
<path d="M213.511 130.61C213.033 131.038 213.212 132.056 213.768 132.32C213.998 132.429 214.324 132.378 214.397 132.09C214.511 131.627 214.339 131.244 214.1 130.853C213.999 130.687 213.708 130.432 213.511 130.61Z" fill="white"/>
<path d="M235.921 127.256C235.496 127.867 235.585 128.973 236.154 129.471C236.508 129.781 237.027 129.532 236.961 129.05C236.917 128.733 236.752 128.48 236.646 128.182C236.531 127.859 236.447 127.559 236.259 127.268C236.179 127.145 236.012 127.129 235.921 127.256Z" fill="white"/>
<path d="M255.086 107.203C255.237 107.473 255.474 107.691 255.677 107.925C255.885 108.168 256.16 108.548 256.513 108.547C256.743 108.546 256.924 108.388 256.944 108.156C256.992 107.585 255.932 106.914 255.461 106.757C255.203 106.667 254.951 106.962 255.086 107.203Z" fill="white"/>
<path d="M262.14 96.2225C262.375 96.4453 262.517 96.6035 262.866 96.6497C263.224 96.6957 263.592 96.7517 263.946 96.6545C264.097 96.6134 264.239 96.5095 264.279 96.3498C264.38 95.9615 264.077 95.7863 263.733 95.7511C263.468 95.7248 263.18 95.7698 262.909 95.7601C262.6 95.7503 262.44 95.8656 262.182 95.9824C262.094 96.0225 262.071 96.1575 262.14 96.2225Z" fill="white"/>
<path d="M213.491 107.455C212.857 107.417 211.838 108.246 211.695 108.865C211.593 109.306 212.025 109.77 212.473 109.518C212.783 109.347 212.965 109.026 213.184 108.759C213.411 108.482 213.687 108.197 213.756 107.837C213.79 107.653 213.694 107.468 213.491 107.455Z" fill="white"/>
<path d="M216.023 102.857C215.574 102.311 214.669 102.382 214.032 102.461C213.387 102.541 213.57 103.426 214.116 103.51C214.756 103.611 215.617 103.571 216.037 103.021C216.076 102.97 216.059 102.9 216.023 102.857Z" fill="white"/>
<path d="M221.089 97.5779C221.098 97.5872 221.024 97.3081 220.958 97.2337C220.815 97.0699 220.669 96.9235 220.475 96.8205C220.032 96.583 219.681 96.2779 219.159 96.4803C218.922 96.5724 218.8 96.8941 218.855 97.127C218.98 97.6516 219.511 97.7758 219.957 97.94C220.178 98.0213 220.385 98.0305 220.617 98.0069C220.835 97.9844 220.886 97.8466 221.056 97.7776C221.135 97.7448 221.141 97.6345 221.089 97.5779Z" fill="white"/>
<path d="M227.984 91.7185C228.334 91.2504 227.871 90.5683 227.607 90.1821C227.162 89.5328 226.063 90.098 226.511 90.7535C226.674 90.9941 227.57 92.2721 227.984 91.7185Z" fill="white"/>
<path d="M237.114 86.4832C237.424 86.0237 237.233 85.1247 237.134 84.6146C237.095 84.4129 236.931 84.2322 236.732 84.1733C236.566 84.1249 236.435 84.124 236.279 84.2132C236.108 84.3121 235.953 84.5004 235.959 84.7113C235.982 85.3187 236.058 86.3866 236.735 86.6233C236.879 86.6713 237.033 86.6026 237.114 86.4832Z" fill="white"/>
<path d="M244.625 82.5408C245.006 82.2289 245.147 81.814 245.242 81.3417C245.295 81.0699 245.394 80.7983 245.425 80.5238C245.465 80.1917 245.349 79.9401 245.251 79.6299C245.219 79.5258 245.102 79.4458 244.996 79.509C244.442 79.8418 244.256 80.163 244.144 80.801C244.04 81.3908 243.968 81.9447 244.281 82.4804C244.357 82.609 244.514 82.6347 244.625 82.5408Z" fill="white"/>
<path d="M250.256 80.0132C251.01 79.4471 251.651 78.4382 251.541 77.4732C251.525 77.3326 251.33 77.2421 251.213 77.3189C250.413 77.8432 249.788 78.9967 250.087 79.9601C250.112 80.0384 250.19 80.0615 250.256 80.0132Z" fill="white"/>
<path d="M255.171 77.6685C255.587 77.501 255.882 77.1544 256.131 76.7944C256.396 76.4121 256.708 76.0628 256.485 75.5855C256.428 75.4644 256.3 75.3926 256.171 75.3845C255.598 75.3436 255.334 75.9259 255.089 76.3512C254.877 76.72 254.784 77.2231 254.988 77.611C255.024 77.6812 255.102 77.6965 255.171 77.6685Z" fill="white"/>
<path d="M200.618 116.319C207.701 99.2857 221.578 88.7252 236.785 79.3036C236.867 79.2526 236.804 79.1269 236.714 79.1678C228.912 82.7956 221.732 88.1551 215.467 94.0117C208.951 100.102 203.05 107.619 200.465 116.269C200.434 116.373 200.578 116.413 200.618 116.319Z" fill="#262626"/>
<path d="M280.266 121.011C288.487 116.473 296.643 105.889 291.286 96.335C291.222 96.2211 291.03 96.2818 291.065 96.4142C292.045 100.208 292.664 103.751 291.457 107.587C289.619 113.422 284.608 117.098 280.204 120.923C280.158 120.963 280.212 121.041 280.266 121.011Z" fill="#262626"/>
<path d="M290.936 95.4722C290.991 95.0208 290.806 94.4222 290.365 94.2391C290.31 94.2164 290.237 94.2562 290.223 94.3132C290.104 94.7586 290.492 95.2175 290.791 95.5258C290.844 95.5816 290.929 95.5456 290.936 95.4722Z" fill="#262626"/>
<path d="M223.381 148.003C230.004 152.309 239.899 149.346 245.29 144.37C245.354 144.31 245.28 144.21 245.204 144.246C241.61 146.027 238.26 147.98 234.306 148.891C230.516 149.766 227.046 149.035 223.417 147.927C223.371 147.913 223.342 147.976 223.381 148.003Z" fill="#262626"/>
</svg>
