<svg width="255" height="235" viewBox="0 0 255 235" fill="none" xmlns="http://www.w3.org/2000/svg">
<path d="M92.2634 211.169C92.4233 212.431 92.6078 213.69 92.8821 214.927C93.1773 216.242 93.4139 217.599 94.2988 218.643C94.4568 218.831 94.8227 218.765 94.9218 218.545C95.5069 217.196 95.3834 215.514 95.1182 213.853C95.4213 214.443 95.7215 215.028 96.0388 215.609C96.8058 217.013 97.6687 218.759 98.9431 219.755C99.067 219.855 99.3157 219.84 99.3373 219.641C99.5119 218.166 98.811 216.786 98.2369 215.446C97.9261 214.725 97.6012 214.014 97.2886 213.301C98.0421 214.34 98.8524 215.346 99.638 216.353C100.604 217.586 101.556 219.555 103.238 219.753C103.483 219.786 103.666 219.682 103.749 219.446C104.347 217.851 102.988 216.147 102.185 214.822C101.43 213.577 100.613 212.357 99.7338 211.194C102.869 210.139 107.289 208.364 107.99 205.208C108.032 205.009 107.879 204.754 107.648 204.777C105.932 204.972 104.293 205.777 102.665 206.344C102.256 206.487 101.841 206.621 101.424 206.762C103.502 205.243 105.33 203.501 105.47 201.101C105.482 200.907 105.253 200.729 105.068 200.796C103.108 201.537 101.554 203.082 99.7855 204.197C99.4226 204.428 99.0843 204.721 98.7281 204.974C99.3796 203.971 99.9451 202.878 99.6179 201.724C99.5677 201.555 99.3917 201.455 99.2243 201.498C97.8887 201.876 97.1693 203.151 96.2596 204.11C95.1298 205.291 93.9121 206.454 92.8372 207.705C63.5519 195.243 46.5462 164.355 50.7782 132.381C52.8778 116.517 60.6261 100.878 73.2825 90.9219C74.4201 90.0322 75.6647 89.2775 76.984 88.6259C76.2392 94.3421 76.6554 100.106 78.8007 105.655C84.3025 119.889 102.413 125.875 112.425 113.179C121.569 101.584 117.248 85.0761 105.631 77.4899C101.592 74.8488 97.3798 73.6308 93.1447 73.4236C97.6239 64.9414 104.011 57.3644 111.046 50.9932C130.476 33.3752 167.178 32.2365 189.16 46.5987C188.207 48.31 187.283 50.0363 186.374 51.7664C185.457 53.5145 186.35 55.9427 188.391 56.3627C193.45 57.4059 198.548 58.8444 203.407 60.5932C206.552 61.726 208.752 58.2485 208.275 55.5826C207.534 51.4287 205.65 47.7173 203.132 44.4263C201.963 42.1827 200.599 40.0953 199.502 38.4964C198.49 37.0147 196.171 36.4532 194.88 37.9879C193.707 39.375 192.678 40.8622 191.693 42.3806C168.054 11.0736 113.353 29.4716 92.3904 55.9683C87.8739 61.6811 83.5455 68.4452 80.5696 75.6506C68.0751 80.4408 56.739 91.9515 50.7622 101.495C26.5631 140.146 45.7655 202.231 92.2634 211.169ZM103.341 108.083C95.6751 117.813 87.3053 99.9309 86.855 95.2549C86.5574 92.1917 87.0993 89.0163 87.992 85.9322C101.565 85.3439 114.652 93.7381 103.341 108.083Z" fill="#E40000"/>
<path d="M109.815 62.3213C109.65 62.5815 110.015 62.793 110.216 62.6141C126.149 48.7129 148.321 40.279 169.092 47.811C169.453 47.9412 169.646 47.3747 169.329 47.1991C152.311 37.5847 120.223 46.0035 109.815 62.3213Z" fill="#E40000"/>
<path d="M39.5956 169.647C36.3897 158.921 33.3142 149.204 33.4727 137.825C33.6233 127.14 37.3165 117.265 41.3729 107.545C41.556 107.1 40.9903 106.791 40.7145 107.188C28.9012 124.582 28.0492 151.906 39.28 169.785C39.3841 169.947 39.6525 169.838 39.5956 169.647Z" fill="#E40000"/>
</svg>
